<svg xmlns="http://www.w3.org/2000/svg" xmlns:xlink="http://www.w3.org/1999/xlink" viewBox="0 0 697 312"><defs><symbol overflow="visible" id="a"><path d="M4.93-3.102c0 .477-.05.91-.145 1.3-.094.392-.238.728-.433 1.005-.192.28-.43.5-.72.652-.284.153-.62.23-1.007.23-.332 0-.633-.062-.906-.187-.275-.125-.505-.316-.7-.578-.192-.257-.34-.59-.446-.992-.105-.402-.156-.88-.156-1.43 0-.472.047-.906.145-1.3.097-.39.242-.727.433-1.008.192-.28.43-.496.72-.65.288-.155.62-.23 1.003-.23.33 0 .635.063.91.188.268.125.503.317.694.58.196.26.344.592.446.995.105.402.16.875.16 1.425zm-.836.032c0-.11-.004-.215-.012-.32-.008-.106-.02-.212-.027-.313L1.43-1.75c.047.164.105.316.18.453.074.14.16.258.26.36.107.1.224.175.353.234.132.055.28.082.45.082.214 0 .41-.056.585-.157.176-.106.328-.262.45-.465.124-.207.218-.465.284-.77.067-.304.102-.656.102-1.058zm-2.84-.06v.294c.004.098.008.195.02.285l2.624-1.942c-.046-.16-.11-.31-.18-.442-.073-.132-.16-.246-.26-.343-.103-.098-.22-.172-.35-.227-.128-.05-.272-.078-.436-.078-.215 0-.41.05-.586.156s-.324.262-.45.47c-.12.206-.218.46-.284.765-.067.303-.098.66-.098 1.06zm0 0"/></symbol><symbol overflow="visible" id="b"><path d="M2.672-4.852c.098 0 .19.02.28.06.09.038.165.093.232.16.066.066.12.144.16.23.04.09.058.183.058.28 0 .102-.02.196-.058.282-.04.09-.09.164-.16.23-.067.067-.14.122-.23.157-.09.04-.184.058-.282.058-.102 0-.195-.02-.28-.058-.087-.035-.165-.09-.232-.156-.066-.066-.117-.14-.156-.23-.04-.086-.06-.18-.06-.28 0-.1.02-.192.06-.282.04-.086.09-.164.156-.23.067-.067.145-.122.23-.16.087-.04.18-.06.282-.06zm0 3.48c.098 0 .19.02.28.06.09.04.165.093.232.16.066.066.12.144.16.23.04.09.058.184.058.28 0 .103-.02.197-.058.283-.04.087-.09.165-.16.23-.067.068-.14.122-.23.157-.09.04-.184.06-.282.06-.102 0-.195-.02-.28-.06-.087-.04-.165-.09-.232-.156-.066-.065-.117-.14-.156-.23-.04-.085-.06-.18-.06-.28 0-.098.02-.192.06-.282.04-.09.09-.164.156-.23.067-.067.145-.12.23-.16.087-.04.18-.06.282-.06zm0 0"/></symbol><symbol overflow="visible" id="c"><path d="M4.734 0H.836v-.77H2.43v-4.527l-1.485.805-.304-.703 1.977-1.04h.73V-.77h1.387zm0 0"/></symbol><symbol overflow="visible" id="d"><path d="M4.785 0H.7v-.742l1.6-1.594c.266-.258.477-.484.645-.676.164-.187.29-.36.383-.52.09-.155.152-.304.184-.44.03-.14.047-.29.047-.454 0-.152-.02-.297-.06-.433-.043-.136-.105-.257-.19-.363-.087-.105-.197-.187-.333-.246-.137-.057-.3-.09-.49-.09-.26 0-.503.06-.717.177-.215.117-.41.27-.594.453l-.453-.543c.234-.246.504-.445.808-.593.306-.15.66-.223 1.068-.223.273 0 .523.04.75.122.226.082.422.203.59.356.164.156.29.347.378.57.09.226.137.48.137.762 0 .238-.03.457-.094.66-.063.203-.16.402-.29.605-.13.2-.29.406-.484.62-.195.216-.426.454-.69.712L1.77-.79h3.015zm0 0"/></symbol><symbol overflow="visible" id="e"><path d="M4.668-1.883c0 .27-.06.528-.168.766-.11.238-.277.445-.496.625-.223.18-.5.32-.836.422-.336.105-.727.156-1.176.156-.246 0-.465-.008-.664-.023C1.133.046.948.022.778 0v-.742c.195.035.406.062.624.082.22.02.442.027.668.027.31 0 .575-.027.793-.082.223-.055.403-.137.54-.238.14-.106.242-.23.304-.383.063-.148.094-.316.094-.5 0-.172-.034-.32-.112-.45-.075-.124-.18-.23-.32-.316-.138-.086-.302-.148-.493-.19-.19-.044-.402-.067-.63-.067H1.54v-.675h.714c.187 0 .36-.027.512-.074.152-.05.285-.12.394-.21.11-.094.192-.207.25-.34.06-.137.09-.29.09-.46 0-.333-.102-.575-.305-.724-.203-.152-.5-.23-.894-.23-.206 0-.42.02-.644.062-.222.043-.457.102-.71.184v-.72c.105-.038.222-.073.343-.1.12-.032.24-.06.366-.08.12-.018.242-.034.364-.045.117-.012.234-.016.343-.016.328 0 .62.036.87.106s.458.172.626.305c.167.134.292.298.378.485.086.192.13.407.13.64 0 .357-.09.653-.274.896-.18.243-.43.434-.746.575.16.023.32.074.476.152.156.074.297.172.422.293.125.117.227.258.305.418.08.16.118.34.118.54zm0 0"/></symbol><symbol overflow="visible" id="f"><path d="M5.094-1.37h-1.06V0h-.843v-1.37H.204V-2.1l2.645-4.105h1.187v4.105h1.06zM3.19-5.407L1.03-2.098h2.16zm0 0"/></symbol><symbol overflow="visible" id="g"><path d="M4.63-1.984c0 .308-.067.586-.2.84-.133.253-.317.472-.547.652-.235.183-.508.324-.824.426-.318.1-.662.152-1.03.152-.09 0-.19-.004-.296-.008-.105-.004-.21-.012-.316-.02L1.113.036C1.013.023.926.012.843 0v-.75c.173.043.368.07.587.09.222.02.445.027.668.027.254 0 .48-.027.683-.09.204-.058.376-.144.52-.257.14-.114.25-.25.33-.407.073-.16.112-.34.112-.54 0-.385-.14-.667-.418-.843-.277-.175-.672-.265-1.19-.265H.953v-3.168h3.343v.72H1.734v1.74h.54c.296 0 .585.028.87.083.282.055.532.148.75.28.22.138.4.317.532.544.136.227.203.508.203.852zm0 0"/></symbol><symbol overflow="visible" id="i"><path d="M5.047 0H3.91L1.69-2.555V0H.864v-6.707h.828v4.12l2.142-2.18h1.09l-2.234 2.2zm0 0"/></symbol><symbol overflow="visible" id="j"><path d="M-5.445-1.09v-.863l1-.027c-.387-.32-.664-.64-.84-.954-.172-.312-.258-.628-.258-.945 0-.56.18-.99.547-1.284.363-.29.906-.426 1.625-.402v.953c-.478-.008-.82.058-1.036.21-.215.15-.324.372-.324.66 0 .126.023.255.066.384.047.13.117.258.22.395.096.137.225.277.38.43.158.152.345.316.564.488H0v.957zm0 0"/></symbol><symbol overflow="visible" id="k"><path d="M-3.012-5.47c.133 0 .246 0 .336.005.09.004.176.012.258.02v3.824c.555 0 .984-.157 1.28-.47.298-.308.45-.758.45-1.344 0-.16-.007-.32-.02-.476-.01-.16-.03-.317-.05-.46-.023-.15-.047-.294-.074-.427-.027-.137-.06-.262-.09-.38h.774c.074.26.132.548.18.872.042.325.066.66.066 1.008 0 .465-.063.867-.192 1.203-.125.336-.308.614-.55.828-.24.215-.536.375-.883.477-.348.103-.743.153-1.184.153-.384 0-.747-.054-1.09-.164-.34-.11-.64-.27-.9-.48-.26-.212-.464-.474-.616-.782-.153-.31-.227-.657-.227-1.047 0-.378.06-.714.176-1.007.12-.293.29-.54.508-.742.22-.2.485-.35.798-.452.312-.106.664-.157 1.05-.157zm-.136.982c-.243-.012-.46.015-.664.07-.2.06-.372.148-.516.27-.145.12-.258.273-.34.453-.082.18-.12.39-.12.63 0 .206.038.393.116.565.078.168.192.316.336.438.145.124.32.222.524.3.203.075.42.12.664.14zm0 0"/></symbol><symbol overflow="visible" id="l"><path d="M-2.61-.59c-.39 0-.76-.055-1.113-.156-.35-.102-.66-.262-.925-.477-.266-.214-.477-.492-.63-.828-.156-.337-.234-.74-.234-1.204 0-.183.016-.367.043-.55.03-.18.075-.372.138-.575l-.21-.835h7.765v.95H.168L-1-4.314C-.27-3.8.098-3.188.098-2.48c0 .32-.067.597-.196.832-.13.234-.316.43-.554.585-.24.16-.524.278-.856.356-.332.078-.7.117-1.1.117zm-.058-.97c.305 0 .574-.018.816-.065.243-.047.45-.113.618-.207.168-.09.296-.207.386-.348.09-.136.137-.3.137-.488 0-.238-.106-.492-.32-.758-.216-.265-.532-.547-.95-.84h-2.528c-.07.145-.125.31-.168.493-.043.183-.066.378-.066.582 0 .53.176.936.527 1.213.352.282.867.418 1.547.418zm0 0"/></symbol><symbol overflow="visible" id="m"><path d="M0-5.246v.848l-.88.03c.19.165.345.317.47.466.125.144.226.29.3.433.08.146.13.294.16.44.032.147.048.3.048.464 0 .562-.164.984-.493 1.27-.332.284-.828.43-1.492.43h-3.558v-.947h3.48c.836 0 1.254-.312 1.254-.945 0-.113-.017-.226-.052-.336-.035-.11-.093-.226-.18-.347-.085-.123-.2-.255-.343-.392-.145-.14-.328-.297-.547-.47h-3.613v-.944zm0 0"/></symbol><symbol overflow="visible" id="n"><path d="M-1.488-5.18c.19 0 .363.032.515.098.153.062.29.152.407.266.117.11.218.242.3.39.082.15.153.305.207.473.056.168.095.34.12.52.026.175.038.35.038.52 0 .37-.016.706-.047 1.018-.034.31-.085.61-.16.907h-.867c.09-.317.16-.633.207-.95.047-.312.07-.625.07-.937 0-.453-.062-.79-.183-1.004-.125-.218-.3-.323-.527-.323-.098 0-.188.016-.262.05-.078.036-.152.098-.223.188-.07.09-.144.23-.222.418-.074.192-.16.45-.258.78-.074.247-.156.474-.25.68-.09.208-.2.388-.328.54-.125.152-.274.274-.442.36-.17.085-.37.128-.605.128-.152 0-.316-.034-.496-.104-.184-.07-.352-.19-.508-.36-.156-.17-.28-.402-.387-.69-.102-.29-.153-.65-.153-1.083 0-.215.012-.453.035-.71.024-.263.063-.536.12-.817h.84c-.07.297-.124.578-.16.844-.034.265-.05.496-.05.69 0 .235.02.435.055.595.035.16.086.293.148.39.063.102.137.172.223.215.086.043.176.067.273.067.1 0 .19-.02.267-.06.078-.034.156-.104.23-.21.075-.102.15-.246.223-.43.074-.183.156-.425.242-.722.094-.32.192-.594.297-.813.1-.222.214-.402.343-.54.125-.136.27-.233.43-.292.156-.062.34-.09.54-.09zm0 0"/></symbol><symbol overflow="visible" id="o"><path d="M-.074-5.258c.054.215.09.434.113.664.022.227.034.457.034.692 0 .683-.152 1.195-.46 1.53-.31.337-.786.505-1.427.505h-2.843v1.523h-.79v-1.523h-1.5l-.242-.942h1.743v-2.448h.79v2.45h2.768c.39 0 .68-.106.875-.313.196-.208.29-.517.29-.923 0-.172-.012-.363-.04-.57-.027-.203-.07-.418-.13-.645zm0 0"/></symbol><symbol overflow="visible" id="q"><path d="M-2.82-5.523c.484 0 .906.066 1.27.203.36.136.66.324.898.562.238.238.418.52.54.848.116.324.178.676.178 1.055 0 .175-.01.347-.027.52-.02.17-.052.347-.095.522h2.278v.946h-7.668v-.844l.91-.06c-.37-.27-.633-.558-.785-.867-.15-.308-.223-.64-.223-1 0-.308.063-.582.195-.816.13-.234.313-.434.55-.594.236-.16.52-.277.857-.355.335-.082.706-.12 1.12-.12zm.043.964c-.285 0-.547.025-.79.064-.238.043-.44.11-.61.2-.17.09-.303.206-.4.347-.095.14-.142.31-.142.505 0 .12.02.242.056.363.04.125.1.25.19.383.09.134.208.27.353.42.147.143.327.303.546.467h2.64c.075-.17.13-.355.172-.546.043-.19.063-.378.063-.566 0-.508-.17-.91-.52-1.2-.343-.288-.862-.433-1.557-.433zm0 0"/></symbol><symbol overflow="visible" id="r"><path d="M-.2-5.102c.095.247.165.5.208.758.047.258.066.528.066.8 0 .86-.23 1.524-.7 1.99-.464.464-1.147.7-2.042.7-.43 0-.824-.072-1.172-.205-.35-.13-.652-.32-.902-.56-.25-.243-.442-.532-.578-.872-.137-.336-.203-.707-.203-1.11 0-.28.02-.546.058-.793.04-.246.106-.48.195-.707h.903c-.125.235-.21.477-.27.72-.054.245-.082.5-.082.757 0 .242.044.473.138.688.094.214.227.402.398.566.176.163.387.292.637.386.25.093.53.14.844.14.66 0 1.152-.16 1.48-.48.328-.32.49-.766.49-1.332 0-.258-.03-.508-.087-.746-.06-.243-.145-.473-.258-.7zm0 0"/></symbol><symbol overflow="visible" id="s"><path d="M-2.766-5.61c.422 0 .81.06 1.164.18.352.117.653.29.907.516.25.223.445.496.586.816C.028-3.773.1-3.41.1-3c0 .39-.063.742-.184 1.05-.12.31-.297.57-.53.786-.236.215-.53.38-.876.492-.348.113-.746.172-1.2.172-.42 0-.808-.06-1.156-.18-.35-.117-.652-.29-.902-.515-.25-.223-.445-.496-.586-.817-.14-.324-.207-.687-.207-1.097 0-.39.06-.738.18-1.05.12-.31.297-.57.53-.785.235-.215.524-.38.872-.492.347-.114.745-.172 1.194-.172zm.043.965c-.336 0-.632.04-.882.114-.25.073-.46.178-.63.315-.167.137-.296.305-.378.5-.086.2-.13.418-.13.66 0 .282.056.524.165.723.113.203.258.367.445.496.184.13.4.223.64.28.247.06.5.09.77.09.336 0 .63-.034.883-.108.254-.074.465-.184.633-.32.168-.137.293-.305.38-.5.085-.196.128-.415.128-.66 0-.282-.054-.524-.167-.723-.11-.203-.258-.368-.442-.496-.182-.13-.397-.223-.64-.282-.245-.058-.503-.09-.773-.09zm0 0"/></symbol><symbol overflow="visible" id="t"><path d="M-5.445-.867v-.844l.88-.036c-.19-.16-.35-.313-.474-.46-.124-.15-.222-.298-.3-.44-.074-.143-.13-.288-.16-.436-.03-.148-.043-.3-.043-.46 0-.56.164-.985.496-1.274.328-.286.828-.43 1.492-.43H0v.945h-3.477c-.425 0-.742.077-.95.237-.202.16-.303.395-.303.71 0 .115.015.228.05.337.035.114.094.227.18.348.086.117.2.246.344.387.144.14.324.296.543.467H0v.946zm0 0"/></symbol><symbol overflow="visible" id="u"><path d="M-2.61-.59c-.464 0-.874-.066-1.234-.19-.36-.126-.664-.306-.91-.54-.25-.235-.437-.516-.566-.84-.13-.328-.192-.695-.192-1.094 0-.176.012-.348.032-.516.023-.167.058-.332.105-.496h-2.293v-.95H0v.85l-1.03.03c.382.266.667.55.85.86.184.308.278.64.278.996 0 .312-.067.585-.196.824-.13.234-.312.433-.55.59-.24.156-.524.277-.856.355-.332.077-.7.12-1.105.12zm-.058-.97c.656 0 1.148-.092 1.473-.288.324-.19.484-.468.484-.82 0-.238-.106-.492-.32-.758-.216-.265-.532-.547-.95-.84h-2.528c-.074.157-.13.329-.168.516-.035.188-.054.375-.054.56 0 .514.164.913.5 1.202.332.29.85.43 1.562.43zm0 0"/></symbol><symbol overflow="visible" id="v"><path d="M5.738-.227c-.277.106-.562.184-.85.235-.294.05-.595.078-.904.078-.968 0-1.71-.262-2.234-.79-.523-.523-.785-1.288-.785-2.3 0-.484.074-.922.226-1.316.15-.395.36-.735.634-1.016.274-.28.598-.496.977-.648.38-.153.798-.23 1.255-.23.316 0 .613.023.89.07.278.042.54.117.793.218v1.012c-.265-.137-.535-.238-.808-.3-.274-.063-.56-.095-.852-.095-.273 0-.53.052-.773.154-.243.105-.453.254-.637.45-.184.194-.328.433-.434.714-.105.28-.16.597-.16.953 0 .743.18 1.294.543 1.665.36.367.86.55 1.496.55.29 0 .57-.03.84-.097.27-.066.53-.164.785-.293zm0 0"/></symbol><symbol overflow="visible" id="w"><path d="M6.313-3.113c0 .476-.07.914-.204 1.308-.133.4-.33.74-.58 1.02-.253.285-.56.504-.92.66C4.245.03 3.835.11 3.374.11c-.438 0-.832-.067-1.18-.204-.347-.136-.644-.336-.886-.6C1.065-.962.882-1.29.753-1.68c-.13-.39-.192-.84-.192-1.347 0-.477.067-.91.2-1.305.136-.39.328-.73.582-1.012.25-.28.558-.504.922-.66.36-.156.773-.234 1.23-.234.442 0 .836.07 1.184.203.347.137.64.336.883.6.242.263.43.587.554.978.13.39.196.84.196 1.344zm-1.086.05c0-.378-.043-.71-.13-.992-.08-.285-.2-.52-.355-.71-.156-.188-.344-.33-.562-.426-.223-.095-.473-.146-.742-.146-.317 0-.59.063-.817.188-.225.125-.41.29-.554.496-.144.207-.25.45-.316.726-.066.274-.102.563-.102.864 0 .378.043.707.125.992.082.285.204.523.356.71.155.192.343.333.56.43.22.094.47.14.748.14.316 0 .585-.058.812-.183.227-.125.41-.29.555-.5.144-.207.254-.445.32-.722.066-.274.102-.563.102-.868zm0 0"/></symbol><symbol overflow="visible" id="x"><path d="M6.652-6.13L5.762 0h-1.29L3.59-2.563l-.18-.624-.2.66L2.364 0H1.11L.226-6.13h1.035l.515 4.165.11.926.26-.808.892-2.754h.76l.962 2.715.273.813.09-.86.477-4.195zm0 0"/></symbol><symbol overflow="visible" id="y"><path d="M6.215-3.172c0 .508-.07.96-.21 1.363-.142.4-.34.74-.6 1.02-.257.278-.573.493-.944.642-.37.148-.784.222-1.25.222-.362 0-.733-.035-1.108-.105-.38-.072-.754-.18-1.125-.33v-8.265H2.04v2.375l-.052 1.137c.305-.41.633-.703.98-.87.348-.17.723-.255 1.122-.255.348 0 .656.074.922.218.265.15.484.356.664.622.18.265.312.585.402.964.09.375.137.797.137 1.262zm-1.09.047c0-.32-.02-.617-.066-.887-.048-.265-.122-.496-.224-.687-.102-.19-.234-.34-.39-.448-.16-.11-.352-.16-.57-.16-.134 0-.27.02-.407.062-.142.043-.286.113-.435.215-.148.096-.305.23-.47.393-.163.164-.338.37-.526.614v2.972c.206.08.417.144.632.19.215.047.422.07.617.07.245 0 .476-.034.698-.112.223-.078.418-.207.586-.387.168-.183.305-.42.403-.722.1-.297.148-.668.148-1.113zm0 0"/></symbol><symbol overflow="visible" id="z"><path d="M6.426-6.13L4.34-.647c-.215.558-.438 1.04-.668 1.44-.23.403-.48.735-.754.993-.273.258-.57.45-.898.57-.325.122-.688.184-1.09.184-.106 0-.203-.005-.29-.01-.085-.003-.18-.007-.28-.014V1.55c.09.012.187.024.292.032.106.012.22.016.336.016.196 0 .38-.028.547-.082.168-.06.328-.153.48-.282.15-.13.294-.293.434-.496.136-.203.27-.45.402-.738L.402-6.13H1.61l1.55 4.056.313.95.355-.978L5.262-6.13zm0 0"/></symbol><symbol overflow="visible" id="A"><path d="M5.262-2.824H1.61v-1.004H5.26zm0 0"/></symbol><symbol overflow="visible" id="B"><path d="M6.086 0H1.074v-.988h2.05v-5.825l-1.91 1.04-.39-.903 2.54-1.34h.94v7.028h1.782zm0 0"/></symbol><symbol overflow="visible" id="C"><path d="M3.387-1.922c.14 0 .27.027.394.078.126.055.232.125.325.22.09.093.165.202.215.327.055.125.082.258.082.4 0 .14-.027.268-.082.39-.05.12-.125.23-.215.32-.093.093-.2.164-.324.218-.124.052-.253.08-.393.08S3.113.08 2.992.03c-.125-.053-.23-.124-.32-.217-.094-.09-.164-.196-.22-.32-.05-.122-.077-.25-.077-.39 0-.142.027-.275.078-.4.055-.125.125-.234.22-.328.09-.094.194-.164.32-.22.12-.05.253-.077.394-.077zm0 0"/></symbol><symbol overflow="visible" id="D"><path d="M6.152 0H.898v-.953l2.063-2.05c.337-.333.614-.622.825-.868.21-.243.375-.466.492-.67.118-.198.2-.39.24-.57.042-.18.06-.37.06-.577 0-.196-.026-.383-.077-.56-.055-.175-.137-.33-.246-.468-.11-.133-.254-.238-.426-.316-.176-.08-.387-.118-.63-.118-.34 0-.643.078-.92.226-.278.152-.532.348-.762.586L.93-7.04c.3-.315.644-.57 1.04-.76.39-.192.846-.286 1.37-.286.35 0 .676.05.965.156.293.106.543.258.754.46.21.2.374.443.49.732.118.29.177.613.177.976 0 .305-.043.59-.125.848-.082.262-.204.52-.368.777-.164.258-.37.528-.625.805-.25.277-.544.578-.887.91l-1.446 1.41h3.875zm0 0"/></symbol><symbol overflow="visible" id="F"><path d="M.402-6.13H1.61l1.503 4.056.325.988.335-1.016 1.49-4.027h1.163L4.023 0H2.8zm0 0"/></symbol><symbol overflow="visible" id="G"><path d="M5.828-1.672c0 .215-.035.41-.11.578-.073.172-.17.324-.296.457-.13.133-.274.242-.442.336-.168.093-.343.17-.535.234-.187.058-.383.105-.582.132-.2.028-.394.043-.586.043-.414 0-.797-.02-1.144-.055C1.785.02 1.445-.04 1.11-.12V-1.1c.36.102.714.18 1.07.23.35.055.707.08 1.054.08.508 0 .887-.067 1.13-.208.245-.137.366-.336.366-.59 0-.11-.02-.21-.058-.297-.04-.086-.11-.172-.21-.25-.103-.078-.26-.164-.474-.246-.215-.085-.504-.183-.875-.292-.277-.082-.53-.176-.765-.277-.235-.105-.438-.23-.61-.37-.172-.14-.304-.31-.402-.5-.098-.192-.145-.418-.145-.68 0-.168.04-.355.12-.56.077-.202.213-.393.405-.57.19-.175.45-.32.777-.433.324-.117.73-.175 1.22-.175.237 0 .507.015.8.04.293.026.597.073.914.136v.95c-.332-.083-.65-.146-.95-.18-.296-.04-.558-.06-.777-.06-.266 0-.49.02-.67.06-.178.042-.327.097-.44.167-.11.07-.192.156-.238.25-.05.098-.075.2-.075.31 0 .108.02.21.063.3s.12.175.238.257c.117.086.277.168.485.25.207.086.48.176.812.274.363.105.668.214.918.332.246.117.45.246.602.386.156.145.265.305.332.485.066.178.1.382.1.608zm0 0"/></symbol><symbol overflow="visible" id="H"><path d="M6.336-3.984c0 .61-.063 1.164-.184 1.668-.12.503-.308.933-.554 1.293-.25.36-.56.64-.926.835-.367.2-.8.297-1.297.297C2.95.11 2.56.03 2.21-.134c-.35-.16-.65-.406-.897-.738-.25-.337-.442-.763-.575-1.278-.133-.516-.2-1.13-.2-1.836 0-.61.06-1.168.185-1.672s.308-.938.554-1.297c.246-.36.555-.64.926-.84.37-.195.8-.293 1.293-.293.43 0 .817.078 1.168.238.348.16.65.41.895.746.25.336.44.762.573 1.278.137.52.203 1.13.203 1.84zm-1.074.035c0-.136-.004-.277-.016-.41-.012-.136-.02-.27-.035-.402L1.837-2.254c.062.21.14.41.234.586.094.18.207.336.336.46.133.13.285.23.453.302.167.07.36.105.578.105.277 0 .527-.067.753-.2.228-.137.42-.336.576-.598.16-.265.28-.593.367-.988.086-.39.13-.848.13-1.363zM1.61-4.022l.003.378c.004.125.012.25.024.368l3.375-2.496c-.063-.207-.14-.4-.235-.567-.093-.172-.203-.32-.332-.445-.133-.125-.28-.22-.45-.29-.163-.07-.35-.105-.558-.105-.277 0-.527.07-.753.203-.227.133-.418.336-.58.602-.16.266-.28.598-.366.988-.086.395-.13.848-.13 1.364zm0 0"/></symbol><symbol overflow="visible" id="I"><path d="M1.227-6.13h.968L2.227-5c.363-.434.718-.75 1.074-.945.352-.196.708-.293 1.063-.293.637 0 1.117.207 1.446.617.327.41.475 1.018.452 1.83H5.188c.01-.538-.067-.93-.235-1.17-.168-.243-.418-.36-.742-.36-.14 0-.284.023-.43.074-.143.05-.292.133-.444.246-.152.11-.316.254-.484.43-.172.175-.356.386-.55.633V0H1.226zm0 0"/></symbol><symbol overflow="visible" id="J"><path d="M5.902 0H4.84v-3.914c0-.473-.09-.824-.266-1.06-.176-.233-.43-.346-.758-.346-.144 0-.277.015-.402.054-.125.04-.254.106-.387.204-.132.093-.28.222-.44.386-.157.164-.34.367-.548.61V0H.976v-8.625H2.04v2.496L2-5.163c.168-.2.332-.367.492-.504.16-.137.324-.246.485-.332.16-.086.324-.145.492-.184.163-.035.335-.054.514-.054.61 0 1.082.187 1.418.558.332.37.5.934.5 1.684zm0 0"/></symbol><symbol overflow="visible" id="L"><path d="M5.246 0H4.3v-3.477c0-.42-.077-.734-.234-.94-.156-.208-.382-.313-.675-.313-.124 0-.245.015-.355.05-.11.035-.226.094-.344.18-.12.086-.25.2-.39.344-.14.144-.304.324-.487.543V0H.867v-7.668h.946v2.223l-.032.855c.15-.176.294-.328.435-.45.144-.12.29-.218.43-.292.144-.078.29-.133.437-.164.148-.03.3-.047.46-.047.544 0 .962.164 1.26.496.296.328.444.828.444 1.492zm0 0"/></symbol><symbol overflow="visible" id="M"><path d="M5.47 0H.796v-.848l1.836-1.82c.3-.297.543-.555.73-.773.188-.216.336-.415.442-.595.105-.18.175-.348.21-.508.036-.156.055-.328.055-.512 0-.175-.023-.34-.07-.5-.047-.156-.12-.293-.22-.414-.096-.116-.22-.21-.378-.28-.156-.07-.343-.102-.558-.102-.3 0-.574.067-.82.2-.247.132-.473.308-.68.52l-.52-.622c.27-.285.578-.512.926-.68.348-.17.754-.253 1.22-.253.31 0 .6.046.858.14.258.094.48.23.668.406.188.175.336.394.438.652.105.254.156.543.156.867 0 .268-.035.522-.11.753-.074.23-.183.46-.328.69-.148.232-.332.47-.554.716-.223.245-.485.515-.79.808L2.024-.902H5.47zm0 0"/></symbol><symbol overflow="visible" id="N"><path d="M5.61-2.766c0 .422-.06.81-.18 1.164-.117.352-.29.653-.516.907-.223.25-.496.445-.816.586C3.773.028 3.41.1 3 .1c-.39 0-.742-.063-1.05-.184-.31-.12-.57-.297-.786-.53-.215-.236-.38-.53-.492-.876C.56-1.84.5-2.238.5-2.692c0-.42.06-.808.18-1.156.117-.35.29-.652.515-.902.223-.25.496-.445.817-.586.324-.14.687-.207 1.097-.207.39 0 .738.06 1.05.18.31.12.57.297.785.53.215.235.38.524.492.872.114.347.172.745.172 1.194zm-.965.043c0-.336-.04-.632-.114-.882-.073-.25-.178-.46-.315-.63-.137-.167-.305-.296-.5-.378-.2-.086-.418-.13-.66-.13-.282 0-.524.056-.723.165-.203.113-.367.258-.496.445-.13.184-.223.4-.28.64-.06.247-.09.5-.09.77 0 .336.034.63.108.883.074.254.184.465.32.633.137.168.305.293.5.38.196.085.415.128.66.128.282 0 .524-.054.723-.167.203-.11.368-.258.496-.442.13-.182.223-.397.282-.64.058-.245.09-.503.09-.773zm0 0"/></symbol><symbol overflow="visible" id="O"><path d="M3.012-1.71c.12 0 .238.026.347.073.113.047.206.11.288.196.082.08.145.178.192.288.047.11.07.226.07.355 0 .12-.023.238-.07.348-.047.11-.11.204-.192.286-.082.082-.175.144-.29.19C3.25.075 3.134.1 3.013.1c-.13 0-.246-.024-.352-.07-.11-.048-.207-.114-.285-.192-.082-.082-.148-.18-.195-.285-.047-.11-.07-.226-.07-.347 0-.13.023-.246.07-.355.047-.11.113-.207.195-.29.082-.085.176-.148.285-.195.106-.047.223-.074.352-.074zm0 0"/></symbol><symbol overflow="visible" id="P"><path d="M5.633-3.543c0 .543-.055 1.04-.164 1.484-.11.447-.275.83-.493 1.15-.223.32-.497.57-.825.746-.328.176-.71.262-1.152.262-.38 0-.727-.07-1.035-.215-.313-.14-.578-.363-.797-.66C.945-1.074.778-1.45.656-1.91c-.12-.46-.18-1.004-.18-1.633 0-.543.055-1.04.17-1.488.108-.45.272-.833.49-1.154.22-.32.493-.566.82-.742.333-.176.716-.26 1.153-.26.378-.002.726.07 1.035.213.312.14.578.364.796.66.224.297.392.676.513 1.137.117.46.18 1.004.18 1.633zm-.957.03c0-.12-.004-.24-.012-.362-.008-.12-.02-.242-.03-.355l-3 2.226c.054.188.124.363.206.524.082.16.183.296.3.41.118.113.25.203.403.265.148.063.32.094.512.094.246 0 .468-.06.668-.18.203-.118.375-.297.515-.532.14-.234.25-.527.324-.875.075-.348.114-.754.114-1.215zm-3.242-.06v.335c.004.113.007.218.02.324l3-2.22c-.056-.182-.122-.35-.204-.503-.086-.152-.184-.285-.3-.394-.118-.11-.247-.197-.395-.26-.15-.062-.317-.09-.5-.09-.246 0-.47.06-.672.177-.2.12-.37.3-.512.535-.14.238-.25.53-.323.88-.078.35-.113.753-.113 1.214zm0 0"/></symbol><symbol overflow="visible" id="Q"><path d="M6.055 0h-1.05l-.497-1.547h-2.95L1.06 0H.056L2.41-7.09h1.324zM4.23-2.41l-1.2-3.793L1.833-2.41zm0 0"/></symbol><symbol overflow="visible" id="R"><path d="M6.086-7.09L3.68 0H2.375L.023-7.09h1.09L2.64-2.313 3.08-.91l.442-1.402L5.055-7.09zm0 0"/></symbol><symbol overflow="visible" id="S"><path d="M5.457-5.875c-.262-.14-.535-.25-.812-.328-.278-.078-.582-.117-.91-.117-.38 0-.712.066-1.005.2-.292.132-.542.323-.742.565-.2.246-.355.54-.46.883-.106.344-.16.723-.16 1.14 0 .434.042.82.128 1.165.086.344.223.637.41.875.184.238.418.422.707.547.285.13.633.19 1.032.19.07 0 .144-.003.222-.01.082-.008.16-.016.238-.028.082-.016.157-.03.23-.047.075-.02.142-.04.2-.062v-2.254h-1.45v-.8h2.407v3.624c-.148.07-.304.133-.472.184-.165.054-.332.1-.504.136-.172.035-.34.063-.512.082-.172.02-.336.028-.492.028C3.027.098 2.59.023 2.2-.13c-.388-.15-.72-.378-.993-.675-.273-.3-.484-.672-.63-1.117C.43-2.367.36-2.882.36-3.47c0-.58.08-1.1.242-1.56.164-.462.39-.853.687-1.173.292-.32.647-.567 1.062-.734.414-.168.87-.25 1.37-.25.317 0 .622.027.907.082.288.054.565.144.827.27zm0 0"/></symbol><symbol overflow="visible" id="T"><path d="M5.43-6.21L2.457 0H1.38l3.085-6.21H.637v-.88H5.43zm0 0"/></symbol><symbol overflow="visible" id="U"><path d="M5.47-1.78c0 .3-.064.57-.185.8-.125.234-.297.43-.515.59-.223.16-.48.28-.782.363-.3.082-.625.125-.976.125-.387 0-.727-.043-1.024-.13-.293-.085-.543-.21-.742-.363-.2-.156-.348-.34-.45-.554-.1-.214-.15-.448-.15-.706 0-.434.12-.81.362-1.12.242-.318.617-.603 1.125-.86-.465-.235-.8-.497-1.016-.782-.215-.29-.32-.617-.32-.992 0-.227.047-.45.14-.66.094-.215.24-.403.426-.57.192-.17.43-.3.715-.4.285-.1.62-.147 1.008-.147.367 0 .687.04.965.117.278.078.51.187.696.332.188.144.332.32.426.527.094.206.14.433.14.687 0 .414-.117.76-.343 1.054-.232.29-.56.54-.982.76.21.105.407.218.586.347.18.125.336.265.473.422.133.155.238.327.312.522.074.19.11.402.11.637zM4.347-5.446c0-.325-.114-.563-.34-.723-.227-.156-.543-.234-.953-.234-.407 0-.723.078-.946.234-.227.156-.34.387-.34.7 0 .14.027.27.082.39.054.12.136.23.25.336.113.105.257.207.425.308.172.102.375.207.61.31.406-.192.71-.392.91-.6.2-.206.3-.448.3-.72zm.097 3.734c0-.134-.023-.263-.066-.392-.044-.125-.122-.25-.235-.37-.114-.126-.262-.247-.45-.372-.187-.12-.425-.25-.715-.38-.246.122-.453.24-.625.357-.167.117-.3.238-.406.36-.102.12-.177.245-.22.374-.042.13-.066.27-.066.414 0 .16.035.306.106.43.07.126.167.23.292.317.122.086.27.153.438.196.172.043.355.066.555.066.19 0 .37-.02.543-.06.168-.04.316-.1.44-.183.126-.082.224-.184.298-.31.07-.124.11-.272.11-.448zm0 0"/></symbol><symbol overflow="visible" id="V"><path d="M5.41 0H.953v-.88h1.824v-5.175l-1.7.922-.343-.8 2.254-1.192h.836V-.88H5.41zm0 0"/></symbol><symbol overflow="visible" id="W"><path d="M5.844 0h-.946l-.14-4.422-.06-1.7-.33.99-1.048 2.82h-.668l-.996-2.71-.332-1.1L1.3-4.347 1.177 0h-.91l.347-7.09h1.145l.953 2.668.313.902.297-.902L4.324-7.09H5.5zm0 0"/></symbol><symbol overflow="visible" id="X"><path d="M2.566-6.277H.934v-.813h4.242v.813H3.543v5.453h1.633V0H.934v-.824h1.632zm0 0"/></symbol><symbol overflow="visible" id="Y"><path d="M5.47 0H4.21L2.146-4.422l-.598-1.422V0H.645v-7.09h1.242L3.86-2.902l.706 1.62V-7.09h.903zm0 0"/></symbol><symbol overflow="visible" id="Z"><path d="M5.332-2.152c0 .308-.062.6-.187.875-.13.273-.317.51-.57.714-.255.204-.57.368-.958.485-.383.117-.828.176-1.34.176-.28 0-.535-.008-.757-.028C1.297.05 1.086.027.89 0v-.848c.223.04.462.07.712.094.25.024.503.03.765.03.352 0 .656-.03.906-.092.25-.063.457-.157.618-.274.16-.12.274-.265.348-.433.07-.172.11-.364.11-.58 0-.194-.047-.362-.133-.506-.086-.144-.207-.265-.367-.363-.157-.097-.344-.172-.563-.218-.22-.052-.457-.076-.72-.076H1.76v-.777h.82c.21 0 .406-.027.582-.082.176-.06.324-.137.45-.242.124-.106.222-.235.288-.387.067-.156.102-.328.102-.523 0-.383-.117-.657-.348-.832-.23-.17-.574-.26-1.02-.26-.237 0-.484.022-.737.07-.254.046-.528.12-.817.214v-.824c.125-.043.254-.086.395-.117.14-.035.277-.067.418-.09.14-.024.278-.04.415-.05.136-.017.27-.02.398-.02.375 0 .707.04.992.12.285.083.524.2.715.352.192.152.336.336.434.55.097.22.148.462.148.735 0 .407-.105.742-.312 1.02-.207.273-.492.492-.856.656.184.027.367.086.547.172.18.086.34.2.482.336.144.137.26.293.347.48.09.184.132.387.132.614zm0 0"/></symbol><symbol overflow="visible" id="aa"><path d="M5.82-1.566H4.613V0h-.968v-1.566H.235v-.832l3.02-4.692h1.358v4.692H5.82zM3.645-6.18l-2.47 3.782h2.47zm0 0"/></symbol><symbol overflow="visible" id="ab"><path d="M5.98 0H4.758L3.03-2.863 1.3 0H.1l2.36-3.625L.287-7.09h1.146l1.62 2.668L4.69-7.09H5.8L3.626-3.668zm0 0"/></symbol><symbol overflow="visible" id="ac"><path d="M5.43-3.945c0 .69-.082 1.285-.25 1.785-.164.496-.41.902-.735 1.223-.328.32-.73.558-1.21.71-.48.153-1.036.227-1.67.227H.978v-.824h.656c.465 0 .87-.047 1.21-.14.34-.095.622-.235.848-.415.228-.183.4-.405.52-.667.118-.262.192-.562.224-.898l.02-.223c-.227.133-.49.242-.786.324-.297.082-.617.12-.965.12-.36 0-.676-.053-.945-.16-.27-.104-.496-.25-.676-.436-.18-.188-.312-.41-.402-.672-.09-.258-.137-.54-.137-.844 0-.328.06-.633.18-.922.117-.285.285-.53.5-.746.214-.21.472-.38.773-.5.3-.125.633-.184.992-.184.352 0 .676.06.977.172.297.118.555.305.773.563.215.258.387.594.508 1.008.125.41.184.91.184 1.5zm-2.485-2.47c-.203 0-.39.036-.562.103-.172.066-.32.164-.442.292-.124.13-.225.286-.295.477-.075.188-.11.402-.11.645 0 .218.028.418.078.59.055.175.133.32.246.44.11.122.25.216.425.282.172.066.38.098.617.098.133 0 .274-.012.414-.04.145-.023.286-.058.418-.1.137-.044.266-.095.39-.153.122-.06.23-.122.33-.185 0-.47-.032-.86-.102-1.172-.07-.312-.168-.562-.297-.754-.133-.188-.29-.325-.477-.403-.187-.078-.398-.12-.633-.12zm0 0"/></symbol><symbol overflow="visible" id="ad"><path d="M5.41-1.922c0 .336-.07.633-.207.887-.137.254-.328.46-.574.633-.247.168-.544.293-.888.375-.347.082-.726.125-1.144.125-.188 0-.375-.008-.56-.024-.186-.01-.366-.03-.538-.05-.172-.024-.332-.047-.484-.08C.863-.08.726-.112.602-.147v-.93c.273.1.578.18.914.238.34.06.722.086 1.152.086.312 0 .578-.023.797-.074.22-.047.398-.12.535-.215.14-.098.242-.215.305-.352.062-.136.093-.292.093-.472 0-.192-.05-.356-.16-.488-.105-.137-.246-.258-.418-.368-.175-.105-.37-.203-.593-.293-.223-.086-.45-.18-.684-.273-.23-.093-.457-.194-.68-.304-.222-.11-.422-.242-.593-.39-.172-.153-.313-.329-.422-.532-.106-.203-.16-.44-.16-.718 0-.243.05-.48.152-.72.1-.234.258-.44.473-.624.214-.184.488-.332.824-.442.332-.113.73-.168 1.195-.168.117 0 .246.004.387.016.14.012.28.027.42.047.145.02.286.043.426.066.137.025.27.052.387.083v.868c-.277-.077-.558-.14-.836-.18-.277-.042-.547-.062-.808-.062-.556 0-.962.09-1.22.274-.262.183-.39.433-.39.746 0 .19.05.355.16.492.105.137.245.262.417.37.176.107.37.208.594.294l.685.274c.23.093.457.2.68.312.222.11.42.242.593.4.176.15.313.33.422.538.105.207.16.45.16.73zm0 0"/></symbol><symbol overflow="visible" id="ae"><path d="M5.64-6.266H3.544V0h-.977v-6.266h-2.1v-.824H5.64zm0 0"/></symbol><symbol overflow="visible" id="af"><path d="M5.715-3.625c0 .34-.027.668-.082.977-.05.312-.137.6-.25.867-.117.268-.266.51-.45.73-.187.218-.413.405-.68.562-.27.156-.577.277-.933.36C2.965-.044 2.563 0 2.11 0H.59v-7.09h1.828c1.11 0 1.934.285 2.477.852.546.57.82 1.44.82 2.613zm-1.016.07c0-.504-.048-.925-.14-1.273-.095-.348-.24-.63-.43-.84-.192-.215-.435-.37-.724-.465-.29-.097-.63-.144-1.02-.144H1.56v5.44h.717C3.89-.836 4.7-1.74 4.7-3.554zm0 0"/></symbol><symbol overflow="visible" id="ag"><path d="M5.12 0H1.09v-7.09h4.03v.813H2.056v2.2h2.95v.81h-2.95v2.443H5.12zm0 0"/></symbol><symbol overflow="visible" id="ah"><path d="M5.555-2.246c0 .324-.06.633-.176.918-.118.285-.286.535-.5.746-.22.21-.482.375-.786.496-.305.12-.645.184-1.016.184-.39 0-.738-.063-1.04-.188-.3-.125-.55-.316-.753-.574-.203-.258-.355-.586-.46-.98-.106-.395-.157-.86-.157-1.4 0-.362.023-.714.07-1.054.047-.34.125-.66.235-.957.11-.3.25-.578.433-.828.18-.25.407-.46.676-.64.27-.18.586-.32.95-.418.366-.103.788-.15 1.27-.15h.702v.824h-.762c-.422 0-.79.05-1.1.153-.314.1-.572.242-.783.426-.212.187-.372.41-.48.667-.114.262-.185.55-.216.875l-.02.223c.227-.133.493-.242.79-.324.296-.082.62-.12.968-.12.36 0 .672.05.942.155.27.105.492.25.672.437.18.187.312.41.406.67.09.26.133.544.133.857zm-.99.058c0-.214-.022-.414-.077-.585-.05-.176-.133-.325-.246-.446-.113-.12-.254-.214-.426-.284-.17-.066-.375-.098-.617-.098-.138 0-.274.012-.415.036-.14.027-.28.062-.418.11-.137.042-.265.093-.387.15-.125.06-.234.122-.335.185 0 .468.03.858.097 1.17.067.313.16.563.29.75.128.188.288.32.476.403.187.078.402.117.648.117.207 0 .4-.03.567-.097.172-.067.32-.168.445-.297.125-.13.223-.29.293-.477.07-.184.106-.4.106-.637zm0 0"/></symbol><symbol overflow="visible" id="ai"><path d="M5.102-.2c-.247.095-.5.165-.758.208-.258.047-.528.066-.8.066-.86 0-1.524-.23-1.99-.7-.464-.464-.7-1.147-.7-2.042 0-.43.072-.824.205-1.172.13-.35.32-.652.56-.902.243-.25.532-.442.872-.578.336-.137.707-.203 1.11-.203.28 0 .546.02.793.058.246.04.48.106.707.195v.903c-.235-.125-.477-.21-.72-.27-.245-.054-.5-.082-.757-.082-.242 0-.473.044-.688.138-.214.094-.402.227-.566.398-.163.176-.292.387-.386.637-.093.25-.14.53-.14.844 0 .66.16 1.152.48 1.48.32.328.766.49 1.332.49.258 0 .508-.03.746-.087.243-.06.473-.145.7-.258zm0 0"/></symbol><symbol overflow="visible" id="aj"><path d="M5.914-5.445L5.12 0H3.978L3.19-2.277l-.16-.555-.175.586L2.102 0H.988l-.79-5.445h.927l.453 3.7.098.823.234-.723.793-2.445h.676l.85 2.414.247.723.082-.766.42-3.725zm0 0"/></symbol><symbol overflow="visible" id="ak"><path d="M5.523-2.82c0 .453-.062.855-.187 1.21-.125.356-.3.66-.53.907-.232.25-.51.437-.84.57-.33.133-.7.2-1.11.2-.325 0-.653-.032-.99-.094-.335-.063-.67-.16-1-.293v-7.348h.947v2.113L1.77-4.547c.27-.363.562-.62.87-.773.31-.15.64-.223.997-.223.308 0 .582.063.816.195.234.13.434.313.594.55.16.236.277.52.355.857.082.335.12.706.12 1.12zm-.964.043c0-.285-.025-.547-.064-.79-.043-.238-.11-.44-.2-.61-.09-.17-.206-.303-.347-.4-.14-.095-.31-.142-.505-.142-.12 0-.242.02-.363.056-.125.04-.25.1-.383.19-.134.09-.27.208-.42.353-.143.147-.303.327-.467.546v2.64c.183.075.37.13.562.172.19.043.375.063.55.063.216 0 .423-.034.622-.105.195-.066.37-.183.52-.343.148-.16.27-.375.36-.64.085-.267.132-.595.132-.99zm0 0"/></symbol><symbol overflow="visible" id="al"><path d="M5.715-5.445L3.86-.575C3.667-.077 3.47.35 3.26.708c-.203.356-.426.648-.668.88-.242.23-.508.397-.797.507-.29.11-.613.164-.973.164-.094 0-.18-.004-.254-.008-.078-.004-.16-.008-.25-.016V1.38c.078.01.168.018.262.026.094.012.19.016.297.016.17 0 .335-.027.483-.078.153-.05.293-.133.426-.246.132-.114.26-.262.386-.442.12-.18.242-.398.36-.656L.358-5.445h1.074l1.375 3.6.276.845.316-.867 1.274-3.578zm0 0"/></symbol><symbol overflow="visible" id="am"><path d="M4.676-2.512H1.434v-.89h3.242zm0 0"/></symbol><symbol overflow="visible" id="an"><path d="M1.09-5.445h.863l.027 1c.32-.387.64-.664.954-.84.312-.172.628-.258.945-.258.56 0 .99.18 1.284.547.29.363.426.906.402 1.625h-.953c.008-.478-.058-.82-.21-1.036-.15-.215-.372-.324-.66-.324-.126 0-.255.023-.384.066-.13.047-.258.117-.395.22-.137.096-.277.225-.43.38-.152.158-.316.345-.488.564V0H1.09zm0 0"/></symbol><symbol overflow="visible" id="ao"><path d="M5.18-1.488c0 .19-.032.363-.098.515-.062.153-.152.29-.266.407-.11.117-.242.218-.39.3-.15.082-.305.153-.473.207-.168.056-.34.095-.52.12-.175.026-.35.038-.52.038-.37 0-.706-.016-1.018-.047-.31-.034-.61-.085-.907-.16v-.867c.317.09.633.16.95.207.312.047.625.07.937.07.453 0 .79-.062 1.004-.183.218-.125.323-.3.323-.527 0-.098-.016-.188-.05-.262-.036-.078-.098-.152-.188-.223-.09-.07-.23-.144-.418-.222-.192-.074-.45-.16-.78-.258-.247-.074-.474-.156-.68-.25-.208-.09-.388-.2-.54-.328-.152-.125-.274-.274-.36-.442-.085-.17-.128-.37-.128-.605 0-.152.034-.316.104-.496.07-.184.19-.352.36-.508.17-.156.402-.28.69-.387.29-.102.65-.153 1.083-.153.215 0 .453.012.71.035.263.024.536.063.817.12v.84c-.297-.07-.578-.124-.844-.16-.265-.034-.496-.05-.69-.05-.235 0-.435.02-.595.055-.16.035-.293.086-.39.148-.102.063-.172.137-.215.223-.043.086-.067.176-.067.273 0 .1.02.19.06.267.034.078.104.156.21.23.102.075.246.15.43.223.183.074.425.156.722.242.32.094.594.192.813.297.222.1.402.214.54.343.136.125.233.27.292.43.062.156.09.34.09.54zm0 0"/></symbol><symbol overflow="visible" id="ap"><path d="M5.258-.074c-.215.054-.434.09-.664.113-.227.022-.457.034-.692.034-.683 0-1.195-.152-1.53-.46-.337-.31-.505-.786-.505-1.427v-2.843H.344v-.79h1.523v-1.5l.942-.242v1.743h2.448v.79h-2.45v2.768c0 .39.106.68.313.875.208.196.517.29.923.29.172 0 .363-.012.57-.04.203-.027.418-.07.645-.13zm0 0"/></symbol><symbol overflow="visible" id="aq"><path d="M5.47-3.012c0 .133 0 .246-.005.336-.004.09-.012.176-.02.258H1.62c0 .555.157.984.47 1.28.308.298.758.45 1.344.45.16 0 .32-.007.476-.02.16-.01.317-.03.46-.05.15-.023.294-.047.427-.074.137-.027.262-.06.38-.09v.774c-.26.074-.548.132-.872.18-.325.042-.66.066-1.008.066-.465 0-.867-.063-1.203-.192-.336-.125-.614-.308-.828-.55C1.05-.885.89-1.18.79-1.528.686-1.875.636-2.27.636-2.71c0-.384.054-.747.164-1.09.11-.34.27-.64.48-.9.212-.26.474-.464.782-.616.31-.153.657-.227 1.047-.227.378 0 .714.06 1.007.176.293.12.54.29.742.508.2.22.35.485.452.798.106.312.157.664.157 1.05zm-.982-.136c.012-.243-.015-.46-.07-.664-.06-.2-.148-.372-.27-.516-.12-.145-.273-.258-.453-.34-.18-.082-.39-.12-.63-.12-.206 0-.393.038-.565.116-.168.078-.316.192-.438.336-.124.145-.222.32-.3.524-.075.203-.12.42-.14.664zm0 0"/></symbol><symbol overflow="visible" id="ar"><path d="M4.367 0l-.02-.734c-.296.293-.597.507-.906.636-.303.13-.624.196-.96.196-.312 0-.578-.04-.796-.12-.223-.08-.403-.19-.547-.33C.992-.488.89-.652.82-.84c-.066-.187-.097-.394-.097-.613 0-.547.203-.977.61-1.285.405-.31 1.007-.46 1.804-.46h1.13v-.482c0-.32-.107-.578-.31-.773-.207-.192-.523-.29-.945-.29-.31 0-.61.036-.91.102-.297.07-.606.167-.926.292v-.85c.12-.044.254-.087.398-.126.15-.043.305-.078.465-.114.163-.03.33-.058.51-.078.177-.02.356-.027.536-.027.328 0 .625.035.89.106.266.074.49.183.672.332.18.148.32.335.418.558.098.223.15.488.15.793V0zm-.1-2.48h-1.2c-.235 0-.438.023-.61.07-.168.047-.31.113-.418.203-.11.086-.188.19-.243.312-.05.122-.078.258-.078.407 0 .105.014.207.05.304.03.094.085.18.156.254.074.075.168.133.28.176.118.043.26.067.427.067.215 0 .465-.067.746-.2.276-.133.573-.34.886-.63zm0 0"/></symbol><symbol overflow="visible" id="as"><path d="M4.754 0v-3.91c0-.172-.008-.313-.02-.418-.01-.11-.035-.195-.058-.258-.028-.062-.063-.11-.106-.133-.043-.026-.093-.038-.152-.038-.074 0-.14.02-.203.067-.063.042-.125.112-.2.21-.07.097-.144.226-.23.386-.086.16-.187.36-.3.594V0H2.62v-3.81c0-.198-.007-.358-.018-.483-.012-.12-.032-.22-.06-.285-.026-.07-.062-.117-.104-.14-.043-.028-.098-.04-.16-.04-.063 0-.126.02-.184.055-.06.035-.12.1-.192.195-.07.094-.148.223-.238.383-.086.164-.187.37-.31.625V0H.49v-5.445h.723l.044 1.035c.094-.207.183-.383.273-.527.09-.145.18-.262.274-.348.095-.09.196-.156.302-.195.105-.043.226-.063.355-.063.293 0 .516.094.668.285.152.192.227.488.227.89.086-.187.17-.355.257-.503.08-.146.17-.27.265-.368.098-.098.203-.176.32-.227.114-.055.25-.078.4-.078.682 0 1.026.523 1.026 1.578V0zm0 0"/></symbol><symbol overflow="visible" id="at"><path d="M5.29-2.27c0 .352-.075.672-.228.96-.152.29-.363.54-.628.748-.266.207-.58.37-.942.488-.36.113-.75.172-1.172.172-.105 0-.215-.004-.336-.008-.12-.004-.242-.012-.363-.024C1.505.06 1.388.05 1.274.04 1.16.026 1.055.015.965 0v-.855c.195.046.418.078.672.1.25.025.504.032.76.032.29 0 .552-.035.783-.1.23-.072.43-.17.59-.298.164-.13.29-.282.375-.466.085-.184.128-.39.128-.617 0-.442-.156-.762-.472-.96-.316-.204-.773-.306-1.362-.306H1.09v-3.62h3.82v.824H1.98v1.993h.618c.34 0 .672.027.992.09.324.062.61.167.863.324.25.153.453.36.606.618.15.258.23.582.23.972zm0 0"/></symbol><symbol overflow="visible" id="au"><path d="M.867-5.445h.844l.036.88c.16-.19.313-.35.46-.474.15-.124.298-.222.44-.3.143-.074.288-.13.436-.16.148-.03.3-.043.46-.043.56 0 .985.164 1.274.496.286.328.43.828.43 1.492V0H4.3v-3.477c0-.425-.077-.742-.237-.95-.16-.202-.395-.303-.71-.303-.115 0-.228.015-.337.05-.114.035-.227.094-.348.18-.117.086-.246.2-.387.344-.14.144-.296.324-.467.543V0H.867zm0 0"/></symbol><symbol overflow="visible" id="av"><path d="M.59-2.61c0-.464.066-.874.19-1.234.126-.36.306-.664.54-.91.235-.25.516-.437.84-.566.328-.13.695-.192 1.094-.192.176 0 .348.012.516.032.167.023.332.058.496.105v-2.293h.95V0h-.85l-.03-1.03c-.266.382-.55.667-.86.85-.308.184-.64.278-.996.278-.312 0-.585-.067-.824-.196-.234-.13-.433-.312-.59-.55C.91-.888.79-1.172.71-1.504c-.077-.332-.12-.7-.12-1.105zm.97-.058c0 .656.092 1.148.288 1.473.19.324.468.484.82.484.238 0 .492-.106.758-.32.265-.216.547-.532.84-.95v-2.528c-.157-.074-.329-.13-.516-.168-.188-.035-.375-.054-.56-.054-.514 0-.913.164-1.202.5-.29.332-.43.85-.43 1.562zm0 0"/></symbol><symbol overflow="visible" id="aw"><path d="M2.723-6.89h-1.61v-.778H3.68v6.883H5.3V0H.935v-.785h1.79zm0 0"/></symbol></defs><path fill="#F2F2F2" d="M0 0h697v312H0z"/><path d="M67 233h600V33H67zm0 0" fill="#FFF"/><path d="M68 58.492V233.2h596V112.647h-2v-1.59h-2v.712h-2v4.25h-2v-9.22h-2v-2.83h-2v.772h-2v-.32h-2v1.492h-2v-5.297h-2v2.738h-2v2.89h-2v.77h-2v1.477h-2v-2.87h-2v1.753h-2v-.668h-2v.82h-2v6.848h-2v-7.078h-2v3.75h-2v3.09h-2v.68h-2v-2.305h-2v-.895h-2v.617h-2v-3.062h-2v-2.207h-2v.383h-2v-1.508h-2v-1.2h-2v-1.578h-2v.21h-2v4.033h-2v1.187h-2v-1.324h-2v.53h-2v-1.39h-2v5.372h-2v-1.883h-2v1.047h-2v.597h-2v-.877h-2v2.09h-2v-3.548h-2v1.43h-2v-5.383h-2v-.187h-2v2.734h-2V98.56h-2v1.872h-2v-1.46h-2v3.975h-2v5.886h-2v-4.715h-2v5.63h-2v1.422h-2v-2.7h-2v3.65h-2v-.134h-2v-1.62h-2v-4.462h-2v2.012h-2v5.445h-2v-8.265h-2v-4.23h-2v-.86h-2v-.863h-2v7.968h-2v-4.078h-2v-.058h-2v-1.22h-2v-.523h-2v4.348h-2v1.648h-2v-.937h-2v-.398h-2v1.117h-2v10.218h-2v-7.29h-2v.665h-2v-1.78h-2v-1.915h-2v5.32h-2v-2.32h-2v-2.47h-2v.056h-2v-.055h-2v4.107h-2v-8.11h-2v.98h-2v-.92h-2v-.76h-2v7.036h-2v-7.078h-2v-.367h-2v-.484h-2v.03h-2v3.13h-2v5.133h-2v-5.196h-2v-3.635h-2v-3.942h-2v4.067h-2v-.895h-2v3.203h-2v1.235h-2v-1.082h-2v7.176h-2v-9.25h-2v-.39h-2v-.567h-2v-1.337h-2v2.508h-2v3.302h-2v2.188h-2v-1.11h-2v-1.418h-2v5.918h-2v-3.426h-2v-.078h-2v-.59h-2v-.355h-2v5.052h-2v-6.094h-2v.363h-2v-.905h-2v3.117h-2v-7.25h-2v-5.69h-2v.37h-2v-1.45h-2v10.684h-2v1.05h-2V94.142h-2v1.653h-2v5.703h-2v-.215h-2v5.204h-2v-2.64h-2v.176h-2v-1.05h-2v-.4h-2v-.2h-2v-3.788h-2v4.668h-2v-2.055h-2v-4.91h-2v3.613h-2v-.796h-2v1.6h-2v-.378h-2v1.24h-2v2.54h-2v-5.702h-2v-1.44h-2v-.478h-2v-.293h-2v5.84h-2v-2.807h-2v.25h-2v.44h-2v-4.026h-2v.39h-2v-2.04h-2v1.63h-2v.086h-2V97.7h-2v5.62h-2v-7.836h-2v.137h-2v-.905h-2v-4.37h-2v6.182h-2v-8.71h-2V98.19h-2v.915h-2v2.012h-2V92.79h-2v.42h-2v3.435h-2v1.402h-2v-1.543h-2v4.75h-2V97.55h-2V94.58h-2v.367h-2v-4.01h-2v7.46h-2v-1.48h-2v1.077h-2v1.176h-2v-.625h-2v-3.578h-2v-1.45h-2V91.1h-2v1.687h-2v1.324h-2v-1.727h-2v-.14h-2v-.583h-2v.043h-2v-2.45h-2v4.028h-2v-4.413h-2v-.445h-2v3.922h-2v1.12h-2v6.09h-2V98.06h-2v-.392h-2v2.355h-2V98.09h-2v2.023h-2v-2.648h-2v-3.18h-2v-5.832h-2v2.57h-2v3.715h-2v-9.133h-2v-.02h-2v-.23h-2v-2.23h-2V81.06h-2v-2.29h-2v7.906h-2V84.87h-2v-1.14h-2v6.442h-2v-2.57h-2v-4.344h-2v4.59h-2V84.27h-2v-.3h-2v-4.58h-2v1.227h-2v-.762h-2v1.165h-2v10.156h-2v6.91h-2v7.375h-2V89.4h-2v-9.183h-2v2.816h-2V72.747h-2v-.055h-2v6.775h-2v-2.977h-2v1.54h-2v.02h-2v-4.72h-2V72.32h-2v-3.562h-2v.484h-2v-4.297h-2v.512h-2v-.02h-2v1.645h-2v.71h-2V62.52h-2v-3.71h-2v2.776h-2V79.78h-2V66.188h-2v-8.92h-2v1.01h-2v.864h-2v-4.804h-2v7.625h-2v-1.624h-2v.543h-2v-5.94h-2v4.345h-2v1.344h-2v-3.993h-2V55h-2v-3.645h-2v9.59h-2V45.113h-2v8.492h-2v-13.93h-2v18.477h-2V42.578h-2v-9h-2v9.797h-2v-.88h-2v-.272h-2V52.3h-2v-8.866h-2v1.234h-2v29.508h-2v-1.68h-2V66.88h-2V48.706h-2v-5.31h-2v2.49h-2v8.953h-2v3.652zm0 0" fill="#DE48EC"/><path d="M68 192.082V233.2h596v-29.587h-2v3.86h-2v-.66h-2v-2.57h-2v.866h-2v-.602h-2v2.137h-2v-.18h-2v.41h-2v-1.332h-2v1.215h-2v1.41h-2v-.586h-2v-.957h-2v.29h-2v-1.138h-2v-.26h-2v-.353h-2v1.168h-2v-.746h-2v-.688h-2V205h-2v-1.62h-2v.03h-2v.766h-2v3.488h-2v-3.973h-2v-.678h-2v2.547h-2v-1.943h-2v-.945h-2v.29h-2v-.66h-2v-1.786h-2v4.144h-2v-2.308h-2v-.075h-2v6.157h-2v-4.118h-2v-2.01h-2v1.323h-2v4.272h-2v-4.293h-2v3.73h-2v-3.73h-2v-.512h-2v2.414h-2v2.097h-2v-4.305h-2v3.863h-2v-3.258h-2v1.645h-2v-2.52h-2v.606h-2v-.324h-2v-.582h-2v-.527h-2v1.016h-2v-.52h-2v4.488h-2v1.025h-2v-4.195h-2v-2.11h-2v4.555h-2v.07h-2v-2.637h-2v1.98h-2v-1.694h-2v.164h-2v1.195h-2v-1.582h-2v-1.753h-2v1.606h-2v2.144h-2v-3.992h-2v5.37h-2v-5.194h-2v.817h-2v6.828h-2v-7.04h-2v2.32h-2v-.686h-2v-.032h-2v.922h-2v.714h-2v-3.117h-2v-1.34h-2v2.938h-2v-3.535h-2v.88h-2v1.01h-2v.426h-2v-1.19h-2v2.128h-2v2.312h-2v-3.062h-2v.023h-2v.37h-2v-1.284h-2v.394h-2v-2.042h-2v1.488h-2v1.992h-2v-.71h-2v2.67h-2V205h-2v2.727h-2v-5.547h-2v.773h-2v5.61h-2v-5.64h-2v-1.876h-2v.37h-2v-.58h-2v.917h-2v.012h-2v1.14h-2v-2.27h-2v2.083h-2v-1.915h-2v-.778h-2v1.957h-2v3.192h-2v-1.848h-2v-1.71h-2v3.148h-2v-.727h-2v-2.18h-2v2.355h-2v.19h-2v1.673h-2v-3h-2v-1.3h-2v-.524h-2v-.133h-2v-1.097h-2v2.028h-2v1.31h-2v-1.997h-2v3.785h-2v-1.074h-2V202.8h-2v.708h-2v5.254h-2v-2.766h-2v-3.512h-2v4.086h-2v-3.062h-2v-3.965h-2v5.863h-2v-2.27h-2v-1.265h-2v1.497h-2v.81h-2v.346h-2v-.468h-2v-2.168h-2v.328h-2v-.817h-2v-.136h-2v-1.703h-2v2.897h-2v-.61h-2v2.758h-2v.325h-2v-1.422h-2v-1.055h-2v1.47h-2v-2.712h-2v2.06h-2v2.218h-2v-1.058h-2v-2.633h-2v4.6h-2v-2.104h-2v.047h-2v.5h-2v-5.07h-2v2.023h-2v-.324h-2v3.21h-2v-2.032h-2v.29h-2v4.746h-2v-5.91h-2v1.003h-2v-.828h-2v.058h-2v-.485h-2v-1.675h-2v.402h-2v7.012h-2v-4.684h-2v5.59h-2v-2.356h-2v-1.605h-2v-2.45h-2v.173h-2v-.328h-2v-.184h-2v3.047h-2v-2.86h-2v-.437h-2v1.527h-2v-2.972h-2v4.625h-2v-3.016h-2v.13h-2v.097h-2v.893h-2v-1.527h-2v4.96h-2v-5.702h-2v.414h-2v.57h-2v.965h-2v.605h-2v-.125h-2v-3.742h-2v1.423h-2v.72h-2v-1.798h-2v1.742h-2v-1.766h-2v.025h-2v1.55h-2v.278h-2v-.48h-2v-1.153h-2v-.515h-2v.964h-2v2.218h-2v-2.652h-2V199h-2v-.652h-2v-.653h-2v.133h-2v4.215h-2v-.895h-2v-3.878h-2v.42h-2v-.35h-2v2.69h-2v2.185h-2v-5.043h-2v-.563h-2v1.382h-2v.785h-2v-2.675h-2v2.785h-2v.593h-2v2.325h-2v-1.27h-2v-.867h-2v-2.06h-2v.533h-2v2.83h-2v-.536h-2v-1.95h-2v.22h-2v-1.587h-2v6.55h-2v-8.77h-2v4.857h-2v2.426h-2v-4.946h-2V195.8h-2v2.684h-2v-4.558h-2v5.496h-2v-6.156h-2v2.047h-2v-4.532h-2v2.193h-2v-2.543h-2v4.293h-2v2.12h-2v-1.784h-2v2.573h-2v.242h-2v-.242h-2v-3.7h-2v.45h-2v.79h-2v-2.333h-2v-1.016h-2v-3.78h-2v6.397h-2v-4.706h-2v1.098h-2v4.188h-2v2.14h-2v-6.77h-2v-.577h-2v2.28h-2v.57h-2v.817h-2v-1.398zm0 0" fill="#54EC48"/><path d="M68 198.676V233.2h596V212.83h-2v1.402h-2v-.832h-2v1.758h-2v.63h-2v-.93h-2v-.602h-2v1.168h-2v-.992h-2v1.117h-2v-1.218h-2v-.906h-2v.152h-2v-.207h-2v-1.304h-2v-.855h-2v.235h-2v.868h-2v1.132h-2v-.95h-2v-1.335h-2v-.38h-2v-.366h-2v.65h-2v-1.54h-2v.097h-2v-.073h-2v1.348h-2v.09h-2v-.333h-2v.153h-2v-.825h-2v.083h-2v.03h-2v.337h-2v-.196h-2v.024h-2v-.328h-2v-.09h-2v.13h-2v.19h-2v.012h-2v-.086h-2v-.274h-2v-.343h-2v-.638h-2v-.355h-2v.375h-2v1.144h-2v-.668h-2v.145h-2v.222h-2v-.597h-2v.29h-2v1.975h-2v.3h-2v.22h-2v-.254h-2v.218h-2v.418h-2v-1.09h-2v-.696h-2v.442h-2v.094h-2v1.132h-2v-.925h-2v.75h-2v-1.2h-2v.625h-2v-.484h-2v-1.035h-2v1.124h-2v-.727h-2v.13h-2v.097h-2v.57h-2v-.867h-2v1.16h-2v.188h-2v.38h-2v.01h-2v-.457h-2v.227h-2v-.43h-2v-.32h-2v-.938h-2v.618h-2v-1.008h-2v-.215h-2v.117h-2v.542h-2v-.027h-2v.04h-2v-.09h-2v-.067h-2v.89h-2v-.605h-2v.26h-2v-.05h-2v.208h-2v.3h-2v1.314h-2v.312h-2v.457h-2v.15h-2v.042h-2v2.488h-2v-.504h-2v-.81h-2v-1.464h-2v-.41h-2v1.078h-2v-.74h-2v.576h-2v1.355h-2v-1.222h-2v2.445h-2v.437h-2v-.66h-2v-.586h-2v.366h-2v-.27h-4v.184h-2v.79h-2v-1.024h-2v.563h-2v.627h-2v-.41h-2v-1.394h-2v.04h-2v.386h-2v.483h-2v-.637h-2v-1.476h-2V215h-2v-.285h-2v.113h-2v.785h-2v-.375h-2v1.22h-2v-1.2h-2v-.516h-2v.946h-2v-.493h-2v-.113h-2v-1.465h-2v.426h-2v-.422h-2v-.03h-2v.082h-2v.926h-2v-2.325h-2v-.398h-2v-.16h-2v-.28h-2v1.72h-2v-.21h-2v-1.558h-2v.656h-2v-.977h-2v.446h-2v-1.57h-2v.32h-2v-.05h-2v.132h-2v-1.328h-2v-.625h-2v.8h-2v-.506h-2v.13h-2v.002h-2v-.218h-2v.945h-2v.32h-2v-.785h-2v.973h-2v1.33h-2v2.073h-2v-.324h-2v-.18h-2v-.028h-2v1.703h-2v-1.56h-2v.447h-2v-.637h-2v-1.004h-2v.29h-2v.524h-2v-.067h-2v-.133h-2v.18h-2v-.594h-2v2.176h-2v-.226h-2v-.954h-2v.282h-2v.824h-2v.44h-2v-.092h-2v-1.05h-2v.725h-2v-.285h-2v-.77h-2v1.49h-2v-1.325h-2v.84h-2v-.52h-2v-.457h-2v.57h-2v-2.25h-2v1.742h-2v-.92h-2v-.01h-2v-.78h-2v-.727h-2v.625h-2v.12h-2v-.78h-2v1.086h-2v-.903h-2v-.1h-2v.937h-2v.055h-2v-.68h-2v.813h-2v-.676h-2v.35h-2v-.288h-2v.07h-2v-.984h-2v.09h-2v-1.282h-2v.953h-2v1.464h-2v-1.738h-2v.89h-2v-1.484h-2v1.633h-2v-.563h-2v.672h-2v-1.62h-2v.327h-2v-.718h-2v1.29h-2v-1.59h-2v.527h-2v.417h-2v.043h-2v.5h-2v-.352h-2v1.043h-2v-1.05h-2v.395h-2v-.3h-2v-.95h-2v.817h-2v-.204h-2v-.32h-2v.59h-2v-.98h-2v-.633h-2v.297h-2v1.01h-2v-.655h-2v-2.648h-2v-1.517h-2v-.12h-2v1.155h-2v2h-2v-.1h-2v-.27h-2v-1.04h-2v-1.195h-2v-1.477h-2v-.184h-2v-1.003h-2v.417h-2v.808h-2v-.11h-2v.65h-2v-.352h-2v-1.426h-2v3.355h-2v-5.172h-2v1.653h-2v4.644h-2v-5.125h-2v.262h-2v5.418h-2v-7.172h-2v.68h-2v1.336h-2v-2.746h-2v-.625h-2v-.227h-2v-.84h-2v.688zm0 0" fill="#48C4EC"/><path d="M68 212.316V233.2h596v-12.673h-2v-.105h-2v.09h-2v.883h-2v.136h-2v-1.323h-2v.293h-2v.445h-2v2.137h-2v-.816h-2v-.254h-2v.73h-2v.84h-2v-.922h-2v1.09h-2v.316h-2v-.09h-2v-.2h-2v-.706h-2v-.457h-2v.47h-2v-.216h-2v1.21h-2v.017h-2v-.813h-2v.853h-2v.086h-2v-.443h-2v-.2h-2v1.177h-2v.055h-2v-.607h-2v-.926h-2v.594h-2v.232h-2v-.75h-2v.707h-2v-1.314h-2v-.012h-2v-1.746h-2v-.45h-2v1.16h-2v-.194h-2v-.133h-2v.454h-2v-.72h-2v.998h-2v.78h-2v-1.112h-2v.79h-2v-.697h-2v1.25h-2v-.277h-2v-.89h-2v-.434h-2v-.23h-2v.593h-2v.23h-2v-.195h-2v-1.308h-2v.968h-2v.864h-2v.152h-2v-.164h-2v-.45h-2v.133h-2v.383h-2v-.78h-2v.097h-2v-.532h-2v1.88h-2v-.356h-2v-.188h-2v-1.33h-2v.38h-2v-.273h-2v1.19h-2v-1.74h-2v-.274h-2v.617h-2v.773h-2v-.984h-2v-.02h-2v.374h-2v1.188h-2v-.754h-2v.246h-2v-2.145h-2v1.374h-2v.203h-2v.83h-2v.452h-2v-.77h-2v-.184h-2v-.008h-2v-2.055h-2v1.617h-2v.55h-2v.583h-2v-.398h-2v-.766h-2v.593h-2v-.594h-2v-1.868h-2v1.562h-2v-.425h-2v.01h-2v.297h-2v.207h-2v.645h-2v-.59h-2v.14h-2v-1.692h-2v2.606h-2v-.977h-2v-.62h-2v.58h-2v-.343h-2v-.35h-2v.323h-2v.066h-2v.325h-2v.05h-2v-1.816h-2v1.176h-2v-.344h-2v.434h-2v1.69h-2v-.784h-2v-.39h-2v-.052h-2v.016h-2v-1.625h-2v1.21h-2v.864h-2v.723h-2v-.117h-2v.886h-2v-1.465h-2v-.153h-2v-.45h-2v-.534h-2v1.168h-2v-1.203h-2v1.328h-2v-.073h-2v-.942h-2v.606h-2v-.105h-2v.758h-2v-.488h-2v-.61h-2v-.574h-2v.536h-2v-.05h-2v1.03h-2v.247h-2v-1.887h-2v.637h-2v.187h-2v-.3h-2v.296h-2v-.726h-2v1.07h-2v-.367h-2v-.055h-2v1.817h-2v-.332h-2v-2.31h-2v1.42h-2v.32h-2v1.18h-2v.054h-2v-.735h-2v-.23h-2v1.613h-2v.09h-2v.81h-2v-2.31h-2v1.098h-2v-.024h-2v.24h-2v-.08h-2v.33h-2v.376h-2v-1.66h-2v1.153h-2v-2.966h-2v.39h-2v-1.043h-2v.873h-2v.082h-2v.35h-2v1h-2v.388h-2v-.06h-2v-.19h-2v-2.12h-2v1.397h-2v1.473h-2v-.957h-2v-.87h-2v-.345h-2v.145h-2v.61h-2v-.844h-2v-.378h-2v.15h-2v-.013h-2v-.165h-2v.418h-2v-.582h-2v.544h-2v-.024h-2v-.808h-2v.504h-2v.14h-2v.836h-2v.88h-2v.108h-2v.508h-2v-1.097h-2v1.15h-2v.253h-2v.617h-2v.176h-2v-.38h-2v.907h-2v-.96h-2v-1.376h-2v.586h-2v-.195h-2v.375h-2V224h-2v.145h-2v.402h-2v-.527h-2v.882h-2v-.87h-2v.163h-2v-.246h-2v.74h-2v-.014h-2v-1.145h-2v.2h-2v-.523h-2v.02h-2v.078h-2v.16h-2v.465h-2v-1.266h-2v.34h-2v.207h-2v-.015h-2v-.004h-2v.94h-2v-.185h-2v-.722h-2v-1.602h-2v.16h-2v1h-2v.365h-2v-.215h-2v-.235h-2v.996h-2v.564h-2v-.32h-2v.078h-2v-1.485h-2V222h-2v.156h-2v.547h-2v.13h-2v-.657h-2v.976h-2v.477h-2v.655h-2v-.328h-2v-.207h-2v.168h-2v.246h-2v-1.32h-2v1.472h-2v-.218h-2v-.676h-2v-.067h-2v-1.78h-2v1.323h-2v.606h-2v-.07h-2v.55h-2v-1.964h-2v-.532h-2v-.96h-2v-1.235h-2v-1.586h-2v-1.77h-2v-3.62zm0 0" fill="#7648EC"/><path d="M68 212.52h2v3.617h2v1.77h2v1.585h2v1.235h2v.96h2v.532h2v1.968h2v-.555h2v.07h2v-.6h2v-1.326h2v1.778h2v.066h2v.677h2v.22h2v-1.474h2v1.32h2v-.246h2v-.168h2v.206h2v.328h2v-.656h2v-.476h2v-.977h2v.656h2v-.128h2v-.543h2v-.16h2v.527h2v1.484h2v-.073h2v.316h2v-.562h2v-.995h2v.234h2v.214h2v-.364h2v-1h2v-.16h2v1.602h2v.723h2v.183h2v-.937h2v.005h2v.015h2v-.207h2v-.34h2v1.27h2v-.465h2v-.164h2v-.078h2v-.02h2v.524h2v-.2h2v1.145h2v.02h2v-.747h2v.247h2v-.165h2v.872h2v-.883h2v.526h2v-.402h2v-.145h2v-.708h2v-.375h2v.196h2v-.586h2v1.378h2v.96h2v-.905h2v.375h2v-.176h2v-.618h2v-.254h2v-1.148h2v1.097h2v-.507h2v-.11h2v-.88h2v-.835h2v-.14h2v-.504h2v.81h2v.023h2v-.543h2v.586h2v-.422h2v.164h2v.012h2v-.15h2v.384h2v.84h2v-.605h2v-.15h2v.344h2v.87h2v.962h2v-1.477h2v-1.4h2v2.122h2v.195h2v.06h2v-.392h2v-1h2v-.35h2v-.08h2v-.87h2v1.04h2v-.392h2v2.965h2v-1.153h2v1.66h2v-.374h2v-.33h2v.08h2v-.242h2v.028h2v-1.102h2v2.31h2v-.806h2v-.094h2v-1.613h2v.232h2v.734h2v-.05h2V222.1h2v-.317h2v-1.422h2v2.313h2v.328h2v-1.816h2v.058h2v.367h2v-1.07h2v.723h2v-.297h2v.303h2v-.19h2v-.638h2v1.887h2v-.246h2v-1.03h2v.05h2v-.536h2v.575h2v.613h2v.484h2v-.758h2v.106h2v-.606h2v.942h2v.078h2v-1.328h2v1.2h2v-1.165h2v.532h2v.45h2v.152h2v1.465h2v-.888h2v.12h2v-.722h2v-.867h2v-1.21h2v1.624h2v-.015h2v.05h2v.39h2v.786h2v-1.69h2v-.435h2v.344h2v-1.176h2v1.82h2v-.053h2v-.325h2v-.066h2v-.324h2v.35h2v.35h2v-.583h2v.616h2v.98h2v-2.61h2v1.693h2v-.142h2v.59h2v-.645h2v-.207h2v-.296h2v-.012h2v.426h2v-1.563h2v1.868h2v.594h2v-.594h2v.766h2v.398h2v-.582h2v-.55h2v-1.618h2v2.055h2v.008h2v.183h2v.774h2v-.457h2v-.828h2v-.203h2v-1.375h2v2.147h2v-.25h2v.754h2v-1.187h2v-.37h2v.015h2v.984h2v-.773h2v-.618h2v.273h2v1.742h2v-1.187h2v.27h2v-.38h2v1.33h2v.186h2v.356h2v-1.875h2v.527h2v-.098h2v.78h2v-.38h2v-.13h2v.445h2v.17h2v-.153h2v-.864h2v-.968h2v1.304h2v.2h2v-.236h2v-.594h2v.235h2v.433h2v.887h2v.278h2v-1.25h2v.7h2v-.794h2v1.116h2v-.785h2v-.995h2v.722h2v-.453h2v.13h2v.198h2v-1.164h2v.45h2v1.746h2v.01h2v1.314h2v-.707h2v.75h2v-.226h2v-.597h2v.93h2v.6h2v-.054h2v-1.176h2v.2h2v.44h2v-.085h2v-.852h2v.817h2v-.02h2v-1.21h2v.214h2v-.468h2v.458h2v.707h2v.2h2v.09h2v-.318h2v-1.09h2v.92h2v-.84h2v-.73h2v.255h2v.816h2v-2.132h2v-.45h2v-.292h2v1.324h2v-.136h2v-.88h2v-.093h2v.11h2" fill="none" stroke-linecap="round" stroke-linejoin="round" stroke="#4D18E4" stroke-miterlimit="10"/><path d="M68 198.875h2v-.688h2v.844h2v.224h2v.625h2v2.745h2v-1.336h2v-.677h2v7.172h2v-5.422h2v-.26h2v5.124h2v-4.645h2v-1.648h2v5.168h2v-3.356h2v1.426h2v.35h2v-.647h2v.11h2v-.81h2v-.417h2v1.008h2v.18h2v1.476h2v1.195h2v1.04h2v.27h2v.1h2v-1.996h2v-1.16h2v.126h2v1.512h2v2.648h2v.66h2V208.8h2v-.296h2v.637h2v.977h2v-.59h2v.325h2v.2h2v-.818h2v.95h2v.3h2v-.394h2v1.05h2V210.1h2v.35h2v-.5h2v-.042h2v-.418h2v-.527h2v1.59h2v-1.288h2v.718h2v-.328h2v1.625h2v-.675h2v.566h2v-1.637h2v1.486h2v-.89h2v1.737h2v-1.465h2v-.953h2v1.282h2v-.09h2v.984h2v-.07h2v.29h2v-.352h2v.676h2v-.812h2v.68h2v-.055h2v-.938h2v.105h2v.898h2v-1.082h2v.778h2v-.12h2v-.622h2v.727h2v.777h2v.012h2v.918h2v-1.74h2v2.25h2v-.573h2v.457h2v.52h2v-.84h2v1.324h2v-1.488h2v.773h2v.282h2v-.727h2v1.05h2v.095h2v-.442h2v-.823h2v-.28h2v.952h2v.225h2v-2.175h2v.593h2v-.18h2v.133h2v.067h2v-.52h2v-.293h2v1.004h2v.637h2v-.444h2v1.558h2v-1.703h2v.028h2v.18h2v.324h2v-2.074h2v-1.328h2v-.97h2v.782h2v-.32h2v-.945h2v.223h2v-.008h2v-.13h2v.51h2v-.798h2v.62h2v1.33h2v-.134h2v.055h2v-.324h2v1.57h2v-.444h2v.976h2v-.652h2v1.558h2v.207h2v-1.722h2v.285h2v.156h2v.4h2v2.323h2v-.926h2v-.077h2v.03h2v.42h2v-.427h2v1.465h2v.115h2v.492h2v-.946h2v.517h2v1.2h2v-1.22h2v.375h2v-.785h2v-.11h2v.282h2v-1.57h2v1.475h2v.637h2v-.484h2v-.387h2v-.038h2v1.398h2v.407h2v-.63h2v-.562h2v1.024h2v-.79h2v-.184h4v.27h2v-.368h2v.586h2v.66h2v-.437h2v-2.445h2v1.222h2v-1.355h2v-.575h2v.738h2v-1.074h2v.405h2v1.465h2v.812h2v.5h2v-2.488h2v-.043h2v-.147h2v-.457h2v-.313h2v-1.312h2v-.3h2v-.207h2v.05h2v-.26h2v.608h2v-.893h2v.07h2v.09h2v-.043h2v.027h2v-.538h2v-.12h2v.214h2v1.008h2v-.617h2v.937h2v.32h2v.43h2v-.223h2v.455h2v-.012h2v-.38h2v-.187h2v-1.156h2v.863h2v-.57h2v-.098h2v-.128h2v.726h2v-1.125h2v1.035h2v.49h2v-.63h2v1.2h2v-.75h2v.925h2v-1.133h2v-.094h2v-.44h2v.695h2v1.09h2v-.414h2v-.222h2v.254h2v-.22h2v-.3h2v-1.976h2v-.29h2v.602h2v-.226h2v-.145h2v.668h2v-1.144h2v-.374h2v.36h2v.632h2v.344h2v.273h2v.09h2v-.016h2v-.192h2v-.13h2v.09h2v.333h2v-.026h2v.2h2v-.34h2v-.032h2v-.078h2v.824h2v-.153h2v.333h2v-.094h2v-1.348h2v.074h2v-.093h2v1.535h2v-.65h2v.368h2v.38h2v1.335h2v.95h2v-1.133h2v-.867h2v-.23h2v.85h2v1.305h2v.207h2v-.152h2v.906h2v1.22h2v-1.117h2v.992h2v-1.168h2v.602h2v.932h2v-.633h2V213.6h2v.832h2v-1.403h2" fill="none" stroke-linecap="round" stroke-linejoin="round" stroke="#1598C3" stroke-miterlimit="10"/><path d="M68 192.28h2v1.4h2v-.817h2v-.566h2v-2.285h2v.578h2v6.773h2v-2.144h2v-4.19h2v-1.096h2v4.707h2v-6.394h2v3.777h2v1.016h2v2.33h2v-.788h2v-.45h2v3.7h2v.246h2v-.246h2v-2.57h2v1.78h2v-2.116h2v-4.297h2v2.542h2v-2.192h2v4.532h2v-2.047h2v6.16h2v-5.5h2v4.56h2V196h2v1.438h2v4.94h2v-2.425h2v-4.85h2v8.764h2v-6.547h2v1.582h2v-.218h2v1.95h2v.534h2v-2.828h2v-.53h2v2.057h2v.867h2v1.27h2v-2.324h2v-.594h2V196.3h2v2.68h2v-.79h2v-1.38h2v.56h2v5.044h2v-2.18h2v-2.695h2v.35h2v-.42h2v3.878h2v.894h2v-4.215h2v-.132h2v.652h2v.656h2v.422h2v2.652h2v-2.218h2v-.966h2v.515h2v1.156h2v.476h2v-.277h2v-1.547h2v-.027h2v1.77h2v-1.746h2v1.797h2v-.718h2v-1.422h2v3.743h2v.125h2v-.606h2v-.965h2v-.57h2v-.414h2v5.703h2v-4.96h2v1.53h2v-.894h2v-.098h2v-.133h2v3.02h2v-4.628h2v2.973h2v-1.528h2v.438h2v2.86h2v-3.048h2v.184h2v.33h2v-.173h2v2.45h2v1.605h2v2.36h2v-5.595h2v4.684h2v-7.01h2v-.403h2v1.68h2v.484h2v-.058h2v.828h2v-1.007h2v5.91h2v-4.746h2v-.29h2v2.036h2v-3.215h2v.328h2v-2.027h2v5.07h2v-.5h2v-.048h2v2.106h2v-4.602h2v2.633h2v1.06h2v-2.217h2v-2.063h2v2.71h2v-1.468h2v1.055h2v1.422h2v-.325h2v-2.758h2v.61h2v-2.9h2v1.704h2v.138h2v.816h2v-.328h2v2.168h2v.47h2v-.35h2v-.808h2v-1.492h2v1.262h2v2.27h2v-5.86h2v3.96h2v3.064h2v-4.086h2v3.51h2v2.767h2v-5.253h2V203h2v1.273h2v1.08h2v-3.787h2v1.993h2v-1.31h2v-2.023h2v1.093h2v.137h2v.52h2v1.304h2v2.997h2v-1.672h2v-.19h2v-2.356h2v2.178h2v.73h2v-3.152h2v1.715h2v1.845h2v-3.19h2v-1.958h2v.777h2v1.914h2v-2.082h2v2.27h2v-1.14h2v-.01h2v-.92h2v.58h2v-.37h2v1.875h2v5.642h2v-5.61h2v-.773h2v5.55h2v-2.73h2v1.34h2v-2.677h2v.71h2v-1.99h2v-1.49h2v2.044h2v-.395h2v1.285h2v-.367h2v-.027h2v3.062h2v-2.308h2v-2.13h2v1.188h2v-.425h2v-1.008h2v-.883h2v3.534h2v-2.937h2v1.34h2v3.12h2v-.718h2v-.923h2v.03h2v.69h2v-2.322h2v7.04h2v-6.83h2v-.815h2v5.195h2v-5.37h2v3.99h2v-2.14h2v-1.61h2v1.755h2v1.582h2v-1.195h2v-.164h2v1.695h2v-1.976h2v2.632h2v-.07h2v-4.55h2v2.105h2v4.194h2v-1.023h2v-4.484h2v.516h2v-1.016h2v.53h2v.58h2v.324h2v-.606h2v2.52h2v-1.645h2v3.257h2v-3.863h2v4.305h2v-2.1h2v-2.413h2v.512h2v3.73h2v-3.73h2v4.292h2v-4.274h2v-1.32h2v2.008h2v4.12h2v-6.16h2v.08h2v2.303h2v-4.145h2v1.79h2v.66h2v-.29h2v.94h2v1.947h2v-2.547h2v.676h2v3.973h2v-3.488h2v-.762h2v-.03h2v1.616h2v-.102h2v.687h2v.746h2v-1.163h2v.348h2v.262h2v1.136h2v-.285h2v.953h2v.587h2v-1.41h2v-1.215h2v1.332h2v-.41h2v.18h2v-2.137h2v.602h2v-.87h2v2.576h2v.656h2v-3.86h2" fill="none" stroke-linecap="round" stroke-linejoin="round" stroke="#24BC14" stroke-miterlimit="10"/><path d="M68 58.69h2v-3.647h2v-8.957h2v-2.488h2v5.308h2v18.172h2v5.617h2v1.68h2V44.867h2v-1.23h2V52.5h2V42.422h2v.273h2v.88h2v-9.798h2v9h2v15.578h2v-18.48h2V53.81h2V45.31h2v15.833h2V51.56h2v3.64h2v1.636h2v3.992h2v-1.344h2V55.14h2v5.938h2v-.543h2v1.625h2v-7.625h2v4.81h2v-.868h2v-1.012h2v8.926h2v13.59h2V61.785h2v-2.777h2v3.715h2v5.273h2v-.715h2v-1.64h2v.016h2v-.51h2v4.295h2v-.483h2v3.563h2v1.007h2v4.72h2v-.02h2v-1.54h2v2.977h2v-6.77h2v.05h2V83.23h2v-2.816h2v9.184h2v16.062h2v-7.375h2V91.38h2V81.22h2v-1.165h2v.76h2V79.59h2v4.578h2v.3h2v3.583h2v-4.593h2V87.8h2v2.57h2v-6.44h2v1.144h2v1.8h2V78.97h2v2.288h2v2.066h2v2.23h2v.23h2v.02h2v9.133h2v-3.714h2v-2.57h2v5.83h2v3.185h2v2.648h2v-2.023h2v1.93h2v-2.356h2v.39h2v1.5h2v-6.093h2v-1.12h2V88.62h2v.446h2v4.418h2v-4.03h2V91.9h2v-.043h2v.58h2v.142h2v1.727h2v-1.326h2v-1.687h2v2.418h2v1.453h2v3.574h2v.625h2V98.19h2v-1.077h2v1.48h2v-7.46h2v4.012h2v-.368h2v2.973h2v3.703h2v-4.75h2v1.543h2v-1.402h2v-3.43h2v-.426h2v8.328h2v-2.01h2v-.915h2V88.017h2v8.71h2v-6.183h2v4.37h2v.907h2v-.136h2v7.836h2v-5.622h2v-1.746h2v-.086h2v-1.63h2v2.04h2v-.39h2v4.027h2v-.44h2v-.25h2v2.807h2v-5.84h2v.294h2v.476h2v1.442h2v5.707h2v-2.548h2v-1.24h2v.384h2V99.3h2v.802h2v-3.618h2v4.91h2v2.06h2v-4.67h2v3.786h2v.2h2v.398h2v1.05h2v-.17h2v2.636h2v-5.204h2v.215h2v-5.703h2V94.34h2v11.566h2v-1.05h2v-10.68h2v1.445h2v-.37h2v5.69h2v7.25h2v-3.116h2v.906h2v-.36h2v6.095h2v-5.05h2v.355h2v.585h2v.082h2v3.422h2v-5.92h2v1.42h2v1.11h2v-2.19h2v-3.3h2v-2.507h2v1.336h2v.565h2v.39h2v9.25h2v-7.175h2v1.086h2v-1.24h2v-3.198h2v.89h2v-4.066h2v3.946h2v3.633h2v5.196h2v-5.133h2v-3.13h2v-.026h2v.48h2v.368h2v7.078h2v-7.032h2v.755h2v.926h2v-.983h2v8.11h2v-4.106h2v.055h2v-.05h2v2.464h2v2.324h2v-5.325h2v1.913h2v1.786h2v-.67h2v7.29h2v-10.22h2V106.1h2v.398h2v.934h2v-1.645h2v-4.35h2v.526h2v1.216h2v.062h2v4.075h2v-7.97h2v.864h2v.86h2v4.234h2v8.263h2v-5.446h2v-2.012h2v4.46h2v1.623h2v.132h2v-3.648h2v2.703h2v-1.422h2v-5.633h2v4.715h2v-5.887h2v-3.976h2v1.46h2v-1.87h2v9.136h2v-2.734h2v.188h2v5.382h2v-1.43h2v3.548h2v-2.086h2v.875h2v-.597h2v-1.047h2v1.883h2v-5.368h2v1.39h2v-.535h2v1.324h2v-1.186h2v-4.03h2v-.208h2v1.574h2v1.203h2v1.504h2v-.383h2v2.21h2v3.06h2v-.618h2v.895h2v2.306h2v-.676h2v-3.094h2V107.5h2v7.078h2v-6.85h2v-.822h2v.668h2v-1.754h2v2.875h2v-1.48h2v-.77h2v-2.89h2v-2.735h2v5.293h2v-1.492h2v.32h2v-.772h2V107h2v9.223h2v-4.25h2v-.715h2v1.59h2" fill="none" stroke-linecap="round" stroke-linejoin="round" stroke="#B415C7" stroke-miterlimit="10"/><path d="M87 31v2M87 233v2" fill="none" stroke-width=".4" stroke="#8F8F8F" stroke-opacity=".75" stroke-miterlimit="10"/><path d="M87 234V32" fill="none" stroke-width=".4" stroke="#8F8F8F" stroke-opacity=".75" stroke-dasharray="1,1" stroke-miterlimit="10"/><path d="M107 31v2M107 233v2" fill="none" stroke-width=".4" stroke="#8F8F8F" stroke-opacity=".75" stroke-miterlimit="10"/><path d="M107 234V32" fill="none" stroke-width=".4" stroke="#8F8F8F" stroke-opacity=".75" stroke-dasharray="1,1" stroke-miterlimit="10"/><path d="M127 31v2M127 233v2" fill="none" stroke-width=".4" stroke="#8F8F8F" stroke-opacity=".75" stroke-miterlimit="10"/><path d="M127 234V32" fill="none" stroke-width=".4" stroke="#8F8F8F" stroke-opacity=".75" stroke-dasharray="1,1" stroke-miterlimit="10"/><path d="M147 31v2M147 233v2" fill="none" stroke-width=".4" stroke="#8F8F8F" stroke-opacity=".75" stroke-miterlimit="10"/><path d="M147 234V32" fill="none" stroke-width=".4" stroke="#8F8F8F" stroke-opacity=".75" stroke-dasharray="1,1" stroke-miterlimit="10"/><path d="M167 31v2M167 233v2" fill="none" stroke-width=".4" stroke="#8F8F8F" stroke-opacity=".75" stroke-miterlimit="10"/><path d="M167 234V32" fill="none" stroke-width=".4" stroke="#8F8F8F" stroke-opacity=".75" stroke-dasharray="1,1" stroke-miterlimit="10"/><path d="M207 31v2M207 233v2" fill="none" stroke-width=".4" stroke="#8F8F8F" stroke-opacity=".75" stroke-miterlimit="10"/><path d="M207 234V32" fill="none" stroke-width=".4" stroke="#8F8F8F" stroke-opacity=".75" stroke-dasharray="1,1" stroke-miterlimit="10"/><path d="M227 31v2M227 233v2" fill="none" stroke-width=".4" stroke="#8F8F8F" stroke-opacity=".75" stroke-miterlimit="10"/><path d="M227 234V32" fill="none" stroke-width=".4" stroke="#8F8F8F" stroke-opacity=".75" stroke-dasharray="1,1" stroke-miterlimit="10"/><path d="M247 31v2M247 233v2" fill="none" stroke-width=".4" stroke="#8F8F8F" stroke-opacity=".75" stroke-miterlimit="10"/><path d="M247 234V32" fill="none" stroke-width=".4" stroke="#8F8F8F" stroke-opacity=".75" stroke-dasharray="1,1" stroke-miterlimit="10"/><path d="M267 31v2M267 233v2" fill="none" stroke-width=".4" stroke="#8F8F8F" stroke-opacity=".75" stroke-miterlimit="10"/><path d="M267 234V32" fill="none" stroke-width=".4" stroke="#8F8F8F" stroke-opacity=".75" stroke-dasharray="1,1" stroke-miterlimit="10"/><path d="M287 31v2M287 233v2" fill="none" stroke-width=".4" stroke="#8F8F8F" stroke-opacity=".75" stroke-miterlimit="10"/><path d="M287 234V32" fill="none" stroke-width=".4" stroke="#8F8F8F" stroke-opacity=".75" stroke-dasharray="1,1" stroke-miterlimit="10"/><path d="M327 31v2M327 233v2" fill="none" stroke-width=".4" stroke="#8F8F8F" stroke-opacity=".75" stroke-miterlimit="10"/><path d="M327 234V32" fill="none" stroke-width=".4" stroke="#8F8F8F" stroke-opacity=".75" stroke-dasharray="1,1" stroke-miterlimit="10"/><path d="M347 31v2M347 233v2" fill="none" stroke-width=".4" stroke="#8F8F8F" stroke-opacity=".75" stroke-miterlimit="10"/><path d="M347 234V32" fill="none" stroke-width=".4" stroke="#8F8F8F" stroke-opacity=".75" stroke-dasharray="1,1" stroke-miterlimit="10"/><path d="M367 31v2M367 233v2" fill="none" stroke-width=".4" stroke="#8F8F8F" stroke-opacity=".75" stroke-miterlimit="10"/><path d="M367 234V32" fill="none" stroke-width=".4" stroke="#8F8F8F" stroke-opacity=".75" stroke-dasharray="1,1" stroke-miterlimit="10"/><path d="M387 31v2M387 233v2" fill="none" stroke-width=".4" stroke="#8F8F8F" stroke-opacity=".75" stroke-miterlimit="10"/><path d="M387 234V32" fill="none" stroke-width=".4" stroke="#8F8F8F" stroke-opacity=".75" stroke-dasharray="1,1" stroke-miterlimit="10"/><path d="M407 31v2M407 233v2" fill="none" stroke-width=".4" stroke="#8F8F8F" stroke-opacity=".75" stroke-miterlimit="10"/><path d="M407 234V32" fill="none" stroke-width=".4" stroke="#8F8F8F" stroke-opacity=".75" stroke-dasharray="1,1" stroke-miterlimit="10"/><path d="M447 31v2M447 233v2" fill="none" stroke-width=".4" stroke="#8F8F8F" stroke-opacity=".75" stroke-miterlimit="10"/><path d="M447 234V32" fill="none" stroke-width=".4" stroke="#8F8F8F" stroke-opacity=".75" stroke-dasharray="1,1" stroke-miterlimit="10"/><path d="M467 31v2M467 233v2" fill="none" stroke-width=".4" stroke="#8F8F8F" stroke-opacity=".75" stroke-miterlimit="10"/><path d="M467 234V32" fill="none" stroke-width=".4" stroke="#8F8F8F" stroke-opacity=".75" stroke-dasharray="1,1" stroke-miterlimit="10"/><path d="M487 31v2M487 233v2" fill="none" stroke-width=".4" stroke="#8F8F8F" stroke-opacity=".75" stroke-miterlimit="10"/><path d="M487 234V32" fill="none" stroke-width=".4" stroke="#8F8F8F" stroke-opacity=".75" stroke-dasharray="1,1" stroke-miterlimit="10"/><path d="M507 31v2M507 233v2" fill="none" stroke-width=".4" stroke="#8F8F8F" stroke-opacity=".75" stroke-miterlimit="10"/><path d="M507 234V32" fill="none" stroke-width=".4" stroke="#8F8F8F" stroke-opacity=".75" stroke-dasharray="1,1" stroke-miterlimit="10"/><path d="M527 31v2M527 233v2" fill="none" stroke-width=".4" stroke="#8F8F8F" stroke-opacity=".75" stroke-miterlimit="10"/><path d="M527 234V32" fill="none" stroke-width=".4" stroke="#8F8F8F" stroke-opacity=".75" stroke-dasharray="1,1" stroke-miterlimit="10"/><path d="M567 31v2M567 233v2" fill="none" stroke-width=".4" stroke="#8F8F8F" stroke-opacity=".75" stroke-miterlimit="10"/><path d="M567 234V32" fill="none" stroke-width=".4" stroke="#8F8F8F" stroke-opacity=".75" stroke-dasharray="1,1" stroke-miterlimit="10"/><path d="M587 31v2M587 233v2" fill="none" stroke-width=".4" stroke="#8F8F8F" stroke-opacity=".75" stroke-miterlimit="10"/><path d="M587 234V32" fill="none" stroke-width=".4" stroke="#8F8F8F" stroke-opacity=".75" stroke-dasharray="1,1" stroke-miterlimit="10"/><path d="M607 31v2M607 233v2" fill="none" stroke-width=".4" stroke="#8F8F8F" stroke-opacity=".75" stroke-miterlimit="10"/><path d="M607 234V32" fill="none" stroke-width=".4" stroke="#8F8F8F" stroke-opacity=".75" stroke-dasharray="1,1" stroke-miterlimit="10"/><path d="M627 31v2M627 233v2" fill="none" stroke-width=".4" stroke="#8F8F8F" stroke-opacity=".75" stroke-miterlimit="10"/><path d="M627 234V32" fill="none" stroke-width=".4" stroke="#8F8F8F" stroke-opacity=".75" stroke-dasharray="1,1" stroke-miterlimit="10"/><path d="M647 31v2M647 233v2" fill="none" stroke-width=".4" stroke="#8F8F8F" stroke-opacity=".75" stroke-miterlimit="10"/><path d="M647 234V32" fill="none" stroke-width=".4" stroke="#8F8F8F" stroke-opacity=".75" stroke-dasharray="1,1" stroke-miterlimit="10"/><path d="M67 31v2M67 233v3" fill="none" stroke-width=".6" stroke="#DE4F4F" stroke-opacity=".6" stroke-miterlimit="10"/><path d="M67 236V31" fill="none" stroke-width=".6" stroke="#DE4F4F" stroke-opacity=".6" stroke-dasharray="1,1" stroke-miterlimit="10"/><path d="M187 31v2M187 233v3" fill="none" stroke-width=".6" stroke="#DE4F4F" stroke-opacity=".6" stroke-miterlimit="10"/><path d="M187 236V31" fill="none" stroke-width=".6" stroke="#DE4F4F" stroke-opacity=".6" stroke-dasharray="1,1" stroke-miterlimit="10"/><path d="M307 31v2M307 233v3" fill="none" stroke-width=".6" stroke="#DE4F4F" stroke-opacity=".6" stroke-miterlimit="10"/><path d="M307 236V31" fill="none" stroke-width=".6" stroke="#DE4F4F" stroke-opacity=".6" stroke-dasharray="1,1" stroke-miterlimit="10"/><path d="M427 31v2M427 233v3" fill="none" stroke-width=".6" stroke="#DE4F4F" stroke-opacity=".6" stroke-miterlimit="10"/><path d="M427 236V31" fill="none" stroke-width=".6" stroke="#DE4F4F" stroke-opacity=".6" stroke-dasharray="1,1" stroke-miterlimit="10"/><path d="M547 31v2M547 233v3" fill="none" stroke-width=".6" stroke="#DE4F4F" stroke-opacity=".6" stroke-miterlimit="10"/><path d="M547 236V31" fill="none" stroke-width=".6" stroke="#DE4F4F" stroke-opacity=".6" stroke-dasharray="1,1" stroke-miterlimit="10"/><use xlink:href="#a" x="54" y="243.221"/><use xlink:href="#a" x="59.346" y="243.221"/><use xlink:href="#b" x="64.691" y="243.221"/><use xlink:href="#a" x="70.037" y="243.221"/><use xlink:href="#a" x="75.383" y="243.221"/><use xlink:href="#a" x="174" y="243.221"/><use xlink:href="#a" x="179.346" y="243.221"/><use xlink:href="#b" x="184.691" y="243.221"/><use xlink:href="#a" x="190.037" y="243.221"/><use xlink:href="#c" x="195.383" y="243.221"/><use xlink:href="#a" x="294" y="243.221"/><use xlink:href="#a" x="299.346" y="243.221"/><use xlink:href="#b" x="304.691" y="243.221"/><use xlink:href="#a" x="310.037" y="243.221"/><use xlink:href="#d" x="315.383" y="243.221"/><use xlink:href="#a" x="414" y="243.221"/><use xlink:href="#a" x="419.346" y="243.221"/><use xlink:href="#b" x="424.691" y="243.221"/><use xlink:href="#a" x="430.037" y="243.221"/><use xlink:href="#e" x="435.383" y="243.221"/><use xlink:href="#a" x="534" y="243.221"/><use xlink:href="#a" x="539.346" y="243.221"/><use xlink:href="#b" x="544.691" y="243.221"/><use xlink:href="#a" x="550.037" y="243.221"/><use xlink:href="#f" x="555.383" y="243.221"/><use xlink:href="#a" x="654" y="243.221"/><use xlink:href="#a" x="659.346" y="243.221"/><use xlink:href="#b" x="664.691" y="243.221"/><use xlink:href="#a" x="670.037" y="243.221"/><use xlink:href="#g" x="675.383" y="243.221"/><use xlink:href="#h" x="27" y="235.221"/><use xlink:href="#h" x="32.346" y="235.221"/><use xlink:href="#h" x="37.691" y="235.221"/><use xlink:href="#a" x="43.037" y="235.221"/><use xlink:href="#h" x="48.383" y="235.221"/><use xlink:href="#h" x="53.729" y="235.221"/><path d="M65 233h2M667 233h2" fill="none" stroke-width=".6" stroke="#DE4F4F" stroke-opacity=".6" stroke-miterlimit="10"/><path d="M65 233h604" fill="none" stroke-width=".6" stroke="#DE4F4F" stroke-opacity=".6" stroke-dasharray="1,1" stroke-miterlimit="10"/><path d="M65 228h2M667 228h2" fill="none" stroke-width=".4" stroke="#8F8F8F" stroke-opacity=".75" stroke-miterlimit="10"/><path d="M66 228h602" fill="none" stroke-width=".4" stroke="#8F8F8F" stroke-opacity=".75" stroke-dasharray="1,1" stroke-miterlimit="10"/><path d="M65 223h2M667 223h2" fill="none" stroke-width=".4" stroke="#8F8F8F" stroke-opacity=".75" stroke-miterlimit="10"/><path d="M66 223h602" fill="none" stroke-width=".4" stroke="#8F8F8F" stroke-opacity=".75" stroke-dasharray="1,1" stroke-miterlimit="10"/><path d="M65 218h2M667 218h2" fill="none" stroke-width=".4" stroke="#8F8F8F" stroke-opacity=".75" stroke-miterlimit="10"/><path d="M66 218h602" fill="none" stroke-width=".4" stroke="#8F8F8F" stroke-opacity=".75" stroke-dasharray="1,1" stroke-miterlimit="10"/><path d="M65 213h2M667 213h2" fill="none" stroke-width=".4" stroke="#8F8F8F" stroke-opacity=".75" stroke-miterlimit="10"/><path d="M66 213h602" fill="none" stroke-width=".4" stroke="#8F8F8F" stroke-opacity=".75" stroke-dasharray="1,1" stroke-miterlimit="10"/><use xlink:href="#h" x="27" y="210.221"/><use xlink:href="#h" x="32.346" y="210.221"/><use xlink:href="#g" x="37.691" y="210.221"/><use xlink:href="#a" x="43.037" y="210.221"/><use xlink:href="#h" x="48.383" y="210.221"/><use xlink:href="#i" x="53.729" y="210.221"/><path d="M65 208h2M667 208h2" fill="none" stroke-width=".6" stroke="#DE4F4F" stroke-opacity=".6" stroke-miterlimit="10"/><path d="M65 208h604" fill="none" stroke-width=".6" stroke="#DE4F4F" stroke-opacity=".6" stroke-dasharray="1,1" stroke-miterlimit="10"/><path d="M65 203h2M667 203h2" fill="none" stroke-width=".4" stroke="#8F8F8F" stroke-opacity=".75" stroke-miterlimit="10"/><path d="M66 203h602" fill="none" stroke-width=".4" stroke="#8F8F8F" stroke-opacity=".75" stroke-dasharray="1,1" stroke-miterlimit="10"/><path d="M65 198h2M667 198h2" fill="none" stroke-width=".4" stroke="#8F8F8F" stroke-opacity=".75" stroke-miterlimit="10"/><path d="M66 198h602" fill="none" stroke-width=".4" stroke="#8F8F8F" stroke-opacity=".75" stroke-dasharray="1,1" stroke-miterlimit="10"/><path d="M65 193h2M667 193h2" fill="none" stroke-width=".4" stroke="#8F8F8F" stroke-opacity=".75" stroke-miterlimit="10"/><path d="M66 193h602" fill="none" stroke-width=".4" stroke="#8F8F8F" stroke-opacity=".75" stroke-dasharray="1,1" stroke-miterlimit="10"/><path d="M65 188h2M667 188h2" fill="none" stroke-width=".4" stroke="#8F8F8F" stroke-opacity=".75" stroke-miterlimit="10"/><path d="M66 188h602" fill="none" stroke-width=".4" stroke="#8F8F8F" stroke-opacity=".75" stroke-dasharray="1,1" stroke-miterlimit="10"/><use xlink:href="#h" x="27" y="185.221"/><use xlink:href="#c" x="32.346" y="185.221"/><use xlink:href="#a" x="37.691" y="185.221"/><use xlink:href="#a" x="43.037" y="185.221"/><use xlink:href="#h" x="48.383" y="185.221"/><use xlink:href="#i" x="53.729" y="185.221"/><path d="M65 183h2M667 183h2" fill="none" stroke-width=".6" stroke="#DE4F4F" stroke-opacity=".6" stroke-miterlimit="10"/><path d="M65 183h604" fill="none" stroke-width=".6" stroke="#DE4F4F" stroke-opacity=".6" stroke-dasharray="1,1" stroke-miterlimit="10"/><path d="M65 178h2M667 178h2" fill="none" stroke-width=".4" stroke="#8F8F8F" stroke-opacity=".75" stroke-miterlimit="10"/><path d="M66 178h602" fill="none" stroke-width=".4" stroke="#8F8F8F" stroke-opacity=".75" stroke-dasharray="1,1" stroke-miterlimit="10"/><path d="M65 173h2M667 173h2" fill="none" stroke-width=".4" stroke="#8F8F8F" stroke-opacity=".75" stroke-miterlimit="10"/><path d="M66 173h602" fill="none" stroke-width=".4" stroke="#8F8F8F" stroke-opacity=".75" stroke-dasharray="1,1" stroke-miterlimit="10"/><path d="M65 168h2M667 168h2" fill="none" stroke-width=".4" stroke="#8F8F8F" stroke-opacity=".75" stroke-miterlimit="10"/><path d="M66 168h602" fill="none" stroke-width=".4" stroke="#8F8F8F" stroke-opacity=".75" stroke-dasharray="1,1" stroke-miterlimit="10"/><path d="M65 163h2M667 163h2" fill="none" stroke-width=".4" stroke="#8F8F8F" stroke-opacity=".75" stroke-miterlimit="10"/><path d="M66 163h602" fill="none" stroke-width=".4" stroke="#8F8F8F" stroke-opacity=".75" stroke-dasharray="1,1" stroke-miterlimit="10"/><use xlink:href="#h" x="27" y="160.221"/><use xlink:href="#c" x="32.346" y="160.221"/><use xlink:href="#g" x="37.691" y="160.221"/><use xlink:href="#a" x="43.037" y="160.221"/><use xlink:href="#h" x="48.383" y="160.221"/><use xlink:href="#i" x="53.729" y="160.221"/><path d="M65 158h2M667 158h2" fill="none" stroke-width=".6" stroke="#DE4F4F" stroke-opacity=".6" stroke-miterlimit="10"/><path d="M65 158h604" fill="none" stroke-width=".6" stroke="#DE4F4F" stroke-opacity=".6" stroke-dasharray="1,1" stroke-miterlimit="10"/><path d="M65 153h2M667 153h2" fill="none" stroke-width=".4" stroke="#8F8F8F" stroke-opacity=".75" stroke-miterlimit="10"/><path d="M66 153h602" fill="none" stroke-width=".4" stroke="#8F8F8F" stroke-opacity=".75" stroke-dasharray="1,1" stroke-miterlimit="10"/><path d="M65 148h2M667 148h2" fill="none" stroke-width=".4" stroke="#8F8F8F" stroke-opacity=".75" stroke-miterlimit="10"/><path d="M66 148h602" fill="none" stroke-width=".4" stroke="#8F8F8F" stroke-opacity=".75" stroke-dasharray="1,1" stroke-miterlimit="10"/><path d="M65 143h2M667 143h2" fill="none" stroke-width=".4" stroke="#8F8F8F" stroke-opacity=".75" stroke-miterlimit="10"/><path d="M66 143h602" fill="none" stroke-width=".4" stroke="#8F8F8F" stroke-opacity=".75" stroke-dasharray="1,1" stroke-miterlimit="10"/><path d="M65 138h2M667 138h2" fill="none" stroke-width=".4" stroke="#8F8F8F" stroke-opacity=".75" stroke-miterlimit="10"/><path d="M66 138h602" fill="none" stroke-width=".4" stroke="#8F8F8F" stroke-opacity=".75" stroke-dasharray="1,1" stroke-miterlimit="10"/><use xlink:href="#h" x="27" y="135.221"/><use xlink:href="#d" x="32.346" y="135.221"/><use xlink:href="#a" x="37.691" y="135.221"/><use xlink:href="#a" x="43.037" y="135.221"/><use xlink:href="#h" x="48.383" y="135.221"/><use xlink:href="#i" x="53.729" y="135.221"/><path d="M65 133h2M667 133h2" fill="none" stroke-width=".6" stroke="#DE4F4F" stroke-opacity=".6" stroke-miterlimit="10"/><path d="M65 133h604" fill="none" stroke-width=".6" stroke="#DE4F4F" stroke-opacity=".6" stroke-dasharray="1,1" stroke-miterlimit="10"/><path d="M65 128h2M667 128h2" fill="none" stroke-width=".4" stroke="#8F8F8F" stroke-opacity=".75" stroke-miterlimit="10"/><path d="M66 128h602" fill="none" stroke-width=".4" stroke="#8F8F8F" stroke-opacity=".75" stroke-dasharray="1,1" stroke-miterlimit="10"/><path d="M65 123h2M667 123h2" fill="none" stroke-width=".4" stroke="#8F8F8F" stroke-opacity=".75" stroke-miterlimit="10"/><path d="M66 123h602" fill="none" stroke-width=".4" stroke="#8F8F8F" stroke-opacity=".75" stroke-dasharray="1,1" stroke-miterlimit="10"/><path d="M65 118h2M667 118h2" fill="none" stroke-width=".4" stroke="#8F8F8F" stroke-opacity=".75" stroke-miterlimit="10"/><path d="M66 118h602" fill="none" stroke-width=".4" stroke="#8F8F8F" stroke-opacity=".75" stroke-dasharray="1,1" stroke-miterlimit="10"/><path d="M65 113h2M667 113h2" fill="none" stroke-width=".4" stroke="#8F8F8F" stroke-opacity=".75" stroke-miterlimit="10"/><path d="M66 113h602" fill="none" stroke-width=".4" stroke="#8F8F8F" stroke-opacity=".75" stroke-dasharray="1,1" stroke-miterlimit="10"/><use xlink:href="#h" x="27" y="110.221"/><use xlink:href="#d" x="32.346" y="110.221"/><use xlink:href="#g" x="37.691" y="110.221"/><use xlink:href="#a" x="43.037" y="110.221"/><use xlink:href="#h" x="48.383" y="110.221"/><use xlink:href="#i" x="53.729" y="110.221"/><path d="M65 108h2M667 108h2" fill="none" stroke-width=".6" stroke="#DE4F4F" stroke-opacity=".6" stroke-miterlimit="10"/><path d="M65 108h604" fill="none" stroke-width=".6" stroke="#DE4F4F" stroke-opacity=".6" stroke-dasharray="1,1" stroke-miterlimit="10"/><path d="M65 103h2M667 103h2" fill="none" stroke-width=".4" stroke="#8F8F8F" stroke-opacity=".75" stroke-miterlimit="10"/><path d="M66 103h602" fill="none" stroke-width=".4" stroke="#8F8F8F" stroke-opacity=".75" stroke-dasharray="1,1" stroke-miterlimit="10"/><path d="M65 98h2M667 98h2" fill="none" stroke-width=".4" stroke="#8F8F8F" stroke-opacity=".75" stroke-miterlimit="10"/><path d="M66 98h602" fill="none" stroke-width=".4" stroke="#8F8F8F" stroke-opacity=".75" stroke-dasharray="1,1" stroke-miterlimit="10"/><path d="M65 93h2M667 93h2" fill="none" stroke-width=".4" stroke="#8F8F8F" stroke-opacity=".75" stroke-miterlimit="10"/><path d="M66 93h602" fill="none" stroke-width=".4" stroke="#8F8F8F" stroke-opacity=".75" stroke-dasharray="1,1" stroke-miterlimit="10"/><path d="M65 88h2M667 88h2" fill="none" stroke-width=".4" stroke="#8F8F8F" stroke-opacity=".75" stroke-miterlimit="10"/><path d="M66 88h602" fill="none" stroke-width=".4" stroke="#8F8F8F" stroke-opacity=".75" stroke-dasharray="1,1" stroke-miterlimit="10"/><use xlink:href="#h" x="27" y="85.221"/><use xlink:href="#e" x="32.346" y="85.221"/><use xlink:href="#a" x="37.691" y="85.221"/><use xlink:href="#a" x="43.037" y="85.221"/><use xlink:href="#h" x="48.383" y="85.221"/><use xlink:href="#i" x="53.729" y="85.221"/><path d="M65 83h2M667 83h2" fill="none" stroke-width=".6" stroke="#DE4F4F" stroke-opacity=".6" stroke-miterlimit="10"/><path d="M65 83h604" fill="none" stroke-width=".6" stroke="#DE4F4F" stroke-opacity=".6" stroke-dasharray="1,1" stroke-miterlimit="10"/><path d="M65 78h2M667 78h2" fill="none" stroke-width=".4" stroke="#8F8F8F" stroke-opacity=".75" stroke-miterlimit="10"/><path d="M66 78h602" fill="none" stroke-width=".4" stroke="#8F8F8F" stroke-opacity=".75" stroke-dasharray="1,1" stroke-miterlimit="10"/><path d="M65 73h2M667 73h2" fill="none" stroke-width=".4" stroke="#8F8F8F" stroke-opacity=".75" stroke-miterlimit="10"/><path d="M66 73h602" fill="none" stroke-width=".4" stroke="#8F8F8F" stroke-opacity=".75" stroke-dasharray="1,1" stroke-miterlimit="10"/><path d="M65 68h2M667 68h2" fill="none" stroke-width=".4" stroke="#8F8F8F" stroke-opacity=".75" stroke-miterlimit="10"/><path d="M66 68h602" fill="none" stroke-width=".4" stroke="#8F8F8F" stroke-opacity=".75" stroke-dasharray="1,1" stroke-miterlimit="10"/><path d="M65 63h2M667 63h2" fill="none" stroke-width=".4" stroke="#8F8F8F" stroke-opacity=".75" stroke-miterlimit="10"/><path d="M66 63h602" fill="none" stroke-width=".4" stroke="#8F8F8F" stroke-opacity=".75" stroke-dasharray="1,1" stroke-miterlimit="10"/><g><use xlink:href="#h" x="27" y="60.221"/><use xlink:href="#e" x="32.346" y="60.221"/><use xlink:href="#g" x="37.691" y="60.221"/><use xlink:href="#a" x="43.037" y="60.221"/><use xlink:href="#h" x="48.383" y="60.221"/><use xlink:href="#i" x="53.729" y="60.221"/></g><path d="M65 58h2M667 58h2" fill="none" stroke-width=".6" stroke="#DE4F4F" stroke-opacity=".6" stroke-miterlimit="10"/><path d="M65 58h604" fill="none" stroke-width=".6" stroke="#DE4F4F" stroke-opacity=".6" stroke-dasharray="1,1" stroke-miterlimit="10"/><path d="M65 53h2M667 53h2" fill="none" stroke-width=".4" stroke="#8F8F8F" stroke-opacity=".75" stroke-miterlimit="10"/><path d="M66 53h602" fill="none" stroke-width=".4" stroke="#8F8F8F" stroke-opacity=".75" stroke-dasharray="1,1" stroke-miterlimit="10"/><path d="M65 48h2M667 48h2" fill="none" stroke-width=".4" stroke="#8F8F8F" stroke-opacity=".75" stroke-miterlimit="10"/><path d="M66 48h602" fill="none" stroke-width=".4" stroke="#8F8F8F" stroke-opacity=".75" stroke-dasharray="1,1" stroke-miterlimit="10"/><path d="M65 43h2M667 43h2" fill="none" stroke-width=".4" stroke="#8F8F8F" stroke-opacity=".75" stroke-miterlimit="10"/><path d="M66 43h602" fill="none" stroke-width=".4" stroke="#8F8F8F" stroke-opacity=".75" stroke-dasharray="1,1" stroke-miterlimit="10"/><path d="M65 38h2M667 38h2" fill="none" stroke-width=".4" stroke="#8F8F8F" stroke-opacity=".75" stroke-miterlimit="10"/><path d="M66 38h602" fill="none" stroke-width=".4" stroke="#8F8F8F" stroke-opacity=".75" stroke-dasharray="1,1" stroke-miterlimit="10"/><g><use xlink:href="#h" x="27" y="35.221"/><use xlink:href="#f" x="32.346" y="35.221"/><use xlink:href="#a" x="37.691" y="35.221"/><use xlink:href="#a" x="43.037" y="35.221"/><use xlink:href="#h" x="48.383" y="35.221"/><use xlink:href="#i" x="53.729" y="35.221"/></g><path d="M65 33h2M667 33h2" fill="none" stroke-width=".6" stroke="#DE4F4F" stroke-opacity=".6" stroke-miterlimit="10"/><path d="M65 33h604" fill="none" stroke-width=".6" stroke="#DE4F4F" stroke-opacity=".6" stroke-dasharray="1,1" stroke-miterlimit="10"/><g><use xlink:href="#j" x="12.252" y="191"/><use xlink:href="#k" x="12.252" y="184.891"/><use xlink:href="#l" x="12.252" y="178.781"/><use xlink:href="#m" x="12.252" y="172.672"/><use xlink:href="#k" x="12.252" y="166.563"/><use xlink:href="#n" x="12.252" y="160.453"/><use xlink:href="#o" x="12.252" y="154.344"/><use xlink:href="#n" x="12.252" y="148.234"/><use xlink:href="#p" x="12.252" y="142.125"/><use xlink:href="#q" x="12.252" y="136.016"/><use xlink:href="#k" x="12.252" y="129.906"/><use xlink:href="#j" x="12.252" y="123.797"/><use xlink:href="#p" x="12.252" y="117.688"/><use xlink:href="#n" x="12.252" y="111.578"/><use xlink:href="#k" x="12.252" y="105.469"/><use xlink:href="#r" x="12.252" y="99.359"/><use xlink:href="#s" x="12.252" y="93.25"/><use xlink:href="#t" x="12.252" y="87.141"/><use xlink:href="#u" x="12.252" y="81.031"/></g><g><use xlink:href="#v" x="190" y="15.283"/><use xlink:href="#w" x="196.873" y="15.283"/><use xlink:href="#x" x="203.746" y="15.283"/><use xlink:href="#y" x="210.619" y="15.283"/><use xlink:href="#w" x="217.492" y="15.283"/><use xlink:href="#z" x="224.365" y="15.283"/><use xlink:href="#A" x="231.238" y="15.283"/><use xlink:href="#B" x="238.111" y="15.283"/><use xlink:href="#C" x="244.984" y="15.283"/><use xlink:href="#B" x="251.857" y="15.283"/><use xlink:href="#C" x="258.73" y="15.283"/><use xlink:href="#D" x="265.604" y="15.283"/><use xlink:href="#E" x="272.477" y="15.283"/><use xlink:href="#F" x="279.35" y="15.283"/><use xlink:href="#G" x="286.223" y="15.283"/><use xlink:href="#E" x="293.096" y="15.283"/><use xlink:href="#v" x="299.969" y="15.283"/><use xlink:href="#w" x="306.842" y="15.283"/><use xlink:href="#x" x="313.715" y="15.283"/><use xlink:href="#y" x="320.588" y="15.283"/><use xlink:href="#w" x="327.461" y="15.283"/><use xlink:href="#z" x="334.334" y="15.283"/><use xlink:href="#A" x="341.207" y="15.283"/><use xlink:href="#D" x="348.08" y="15.283"/><use xlink:href="#C" x="354.953" y="15.283"/><use xlink:href="#H" x="361.826" y="15.283"/><use xlink:href="#C" x="368.699" y="15.283"/><use xlink:href="#H" x="375.572" y="15.283"/><use xlink:href="#A" x="382.445" y="15.283"/><use xlink:href="#I" x="389.318" y="15.283"/><use xlink:href="#v" x="396.191" y="15.283"/><use xlink:href="#C" x="403.064" y="15.283"/><use xlink:href="#B" x="409.938" y="15.283"/><use xlink:href="#E" x="416.811" y="15.283"/><use xlink:href="#F" x="423.684" y="15.283"/><use xlink:href="#G" x="430.557" y="15.283"/><use xlink:href="#E" x="437.43" y="15.283"/><use xlink:href="#J" x="444.303" y="15.283"/><use xlink:href="#D" x="451.176" y="15.283"/><use xlink:href="#w" x="458.049" y="15.283"/><use xlink:href="#A" x="464.922" y="15.283"/><use xlink:href="#D" x="471.795" y="15.283"/><use xlink:href="#C" x="478.668" y="15.283"/><use xlink:href="#D" x="485.541" y="15.283"/><use xlink:href="#C" x="492.414" y="15.283"/><use xlink:href="#H" x="499.287" y="15.283"/></g><g><use xlink:href="#K" x="16" y="262.252"/><use xlink:href="#K" x="22.109" y="262.252"/><use xlink:href="#K" x="28.219" y="262.252"/><use xlink:href="#L" x="34.328" y="262.252"/><use xlink:href="#M" x="40.438" y="262.252"/><use xlink:href="#N" x="46.547" y="262.252"/><use xlink:href="#K" x="52.656" y="262.252"/><use xlink:href="#M" x="58.766" y="262.252"/><use xlink:href="#O" x="64.875" y="262.252"/><use xlink:href="#M" x="70.984" y="262.252"/><use xlink:href="#O" x="77.094" y="262.252"/><use xlink:href="#P" x="83.203" y="262.252"/></g><path d="M16 254.238v8.403h8.398v-8.402zm0 0" fill="#F2F2F2"/><path d="M16 254.238v8.403h8.398v-8.402zm0 0" fill="#DE48EC"/><path d="M16 262.64h8.398v-8.402H16zm0 0" fill="none" stroke="#000" stroke-miterlimit="10"/><g><use xlink:href="#Q" x="373" y="262.252"/><use xlink:href="#R" x="379.109" y="262.252"/><use xlink:href="#S" x="385.219" y="262.252"/><use xlink:href="#K" x="391.328" y="262.252"/><use xlink:href="#M" x="397.438" y="262.252"/><use xlink:href="#T" x="403.547" y="262.252"/><use xlink:href="#U" x="409.656" y="262.252"/><use xlink:href="#T" x="415.766" y="262.252"/><use xlink:href="#V" x="421.875" y="262.252"/><use xlink:href="#P" x="427.984" y="262.252"/></g><g><use xlink:href="#W" x="451" y="262.252"/><use xlink:href="#X" x="457.109" y="262.252"/><use xlink:href="#Y" x="463.219" y="262.252"/><use xlink:href="#K" x="469.328" y="262.252"/><use xlink:href="#M" x="475.438" y="262.252"/><use xlink:href="#Z" x="481.547" y="262.252"/><use xlink:href="#V" x="487.656" y="262.252"/><use xlink:href="#V" x="493.766" y="262.252"/><use xlink:href="#aa" x="499.875" y="262.252"/><use xlink:href="#Z" x="505.984" y="262.252"/></g><g><use xlink:href="#W" x="529" y="262.252"/><use xlink:href="#Q" x="535.109" y="262.252"/><use xlink:href="#ab" x="541.219" y="262.252"/><use xlink:href="#K" x="547.328" y="262.252"/><use xlink:href="#Z" x="553.438" y="262.252"/><use xlink:href="#ac" x="559.547" y="262.252"/><use xlink:href="#U" x="565.656" y="262.252"/><use xlink:href="#aa" x="571.766" y="262.252"/><use xlink:href="#aa" x="577.875" y="262.252"/><use xlink:href="#T" x="583.984" y="262.252"/></g><g><use xlink:href="#ad" x="607" y="262.252"/><use xlink:href="#ae" x="613.109" y="262.252"/><use xlink:href="#af" x="619.219" y="262.252"/><use xlink:href="#ag" x="625.328" y="262.252"/><use xlink:href="#R" x="631.438" y="262.252"/><use xlink:href="#K" x="637.547" y="262.252"/><use xlink:href="#K" x="643.656" y="262.252"/><use xlink:href="#Z" x="649.766" y="262.252"/><use xlink:href="#ah" x="655.875" y="262.252"/><use xlink:href="#aa" x="661.984" y="262.252"/><use xlink:href="#V" x="668.094" y="262.252"/><use xlink:href="#T" x="674.203" y="262.252"/></g><g><use xlink:href="#K" x="16" y="276.252"/><use xlink:href="#K" x="22.109" y="276.252"/><use xlink:href="#K" x="28.219" y="276.252"/><use xlink:href="#ai" x="34.328" y="276.252"/><use xlink:href="#N" x="40.438" y="276.252"/><use xlink:href="#aj" x="46.547" y="276.252"/><use xlink:href="#ak" x="52.656" y="276.252"/><use xlink:href="#N" x="58.766" y="276.252"/><use xlink:href="#al" x="64.875" y="276.252"/><use xlink:href="#K" x="70.984" y="276.252"/><use xlink:href="#M" x="77.094" y="276.252"/><use xlink:href="#O" x="83.203" y="276.252"/><use xlink:href="#P" x="89.313" y="276.252"/><use xlink:href="#O" x="95.422" y="276.252"/><use xlink:href="#P" x="101.531" y="276.252"/><use xlink:href="#am" x="107.641" y="276.252"/><use xlink:href="#an" x="113.75" y="276.252"/><use xlink:href="#ai" x="119.859" y="276.252"/><use xlink:href="#O" x="125.969" y="276.252"/><use xlink:href="#V" x="132.078" y="276.252"/><use xlink:href="#K" x="138.188" y="276.252"/><use xlink:href="#ao" x="144.297" y="276.252"/><use xlink:href="#ap" x="150.406" y="276.252"/><use xlink:href="#an" x="156.516" y="276.252"/><use xlink:href="#aq" x="162.625" y="276.252"/><use xlink:href="#ar" x="168.734" y="276.252"/><use xlink:href="#as" x="174.844" y="276.252"/></g><path d="M16 268.238v8.403h8.398v-8.402zm0 0" fill="#F2F2F2"/><path d="M16 268.238v8.403h8.398v-8.402zm0 0" fill="#54EC48"/><path d="M16 276.64h8.398v-8.402H16zm0 0" fill="none" stroke="#000" stroke-miterlimit="10"/><g><use xlink:href="#Q" x="373" y="275.252"/><use xlink:href="#R" x="379.109" y="275.252"/><use xlink:href="#S" x="385.219" y="275.252"/><use xlink:href="#K" x="391.328" y="275.252"/><use xlink:href="#K" x="397.438" y="275.252"/><use xlink:href="#ah" x="403.547" y="275.252"/><use xlink:href="#V" x="409.656" y="275.252"/><use xlink:href="#T" x="415.766" y="275.252"/><use xlink:href="#M" x="421.875" y="275.252"/><use xlink:href="#ac" x="427.984" y="275.252"/></g><g><use xlink:href="#W" x="451" y="275.252"/><use xlink:href="#X" x="457.109" y="275.252"/><use xlink:href="#Y" x="463.219" y="275.252"/><use xlink:href="#K" x="469.328" y="275.252"/><use xlink:href="#K" x="475.438" y="275.252"/><use xlink:href="#aa" x="481.547" y="275.252"/><use xlink:href="#ah" x="487.656" y="275.252"/><use xlink:href="#P" x="493.766" y="275.252"/><use xlink:href="#Z" x="499.875" y="275.252"/><use xlink:href="#M" x="505.984" y="275.252"/></g><g><use xlink:href="#W" x="529" y="275.252"/><use xlink:href="#Q" x="535.109" y="275.252"/><use xlink:href="#ab" x="541.219" y="275.252"/><use xlink:href="#K" x="547.328" y="275.252"/><use xlink:href="#K" x="553.438" y="275.252"/><use xlink:href="#U" x="559.547" y="275.252"/><use xlink:href="#ac" x="565.656" y="275.252"/><use xlink:href="#at" x="571.766" y="275.252"/><use xlink:href="#V" x="577.875" y="275.252"/><use xlink:href="#V" x="583.984" y="275.252"/></g><g><use xlink:href="#ad" x="607" y="275.252"/><use xlink:href="#ae" x="613.109" y="275.252"/><use xlink:href="#af" x="619.219" y="275.252"/><use xlink:href="#ag" x="625.328" y="275.252"/><use xlink:href="#R" x="631.438" y="275.252"/><use xlink:href="#K" x="637.547" y="275.252"/><use xlink:href="#K" x="643.656" y="275.252"/><use xlink:href="#K" x="649.766" y="275.252"/><use xlink:href="#T" x="655.875" y="275.252"/><use xlink:href="#T" x="661.984" y="275.252"/><use xlink:href="#at" x="668.094" y="275.252"/><use xlink:href="#M" x="674.203" y="275.252"/></g><g><use xlink:href="#K" x="16" y="289.252"/><use xlink:href="#K" x="22.109" y="289.252"/><use xlink:href="#K" x="28.219" y="289.252"/><use xlink:href="#ai" x="34.328" y="289.252"/><use xlink:href="#N" x="40.438" y="289.252"/><use xlink:href="#aj" x="46.547" y="289.252"/><use xlink:href="#ak" x="52.656" y="289.252"/><use xlink:href="#N" x="58.766" y="289.252"/><use xlink:href="#al" x="64.875" y="289.252"/><use xlink:href="#K" x="70.984" y="289.252"/><use xlink:href="#M" x="77.094" y="289.252"/><use xlink:href="#O" x="83.203" y="289.252"/><use xlink:href="#P" x="89.313" y="289.252"/><use xlink:href="#O" x="95.422" y="289.252"/><use xlink:href="#P" x="101.531" y="289.252"/><use xlink:href="#am" x="107.641" y="289.252"/><use xlink:href="#an" x="113.75" y="289.252"/><use xlink:href="#ai" x="119.859" y="289.252"/><use xlink:href="#O" x="125.969" y="289.252"/><use xlink:href="#V" x="132.078" y="289.252"/><use xlink:href="#K" x="138.188" y="289.252"/><use xlink:href="#L" x="144.297" y="289.252"/><use xlink:href="#ar" x="150.406" y="289.252"/><use xlink:href="#au" x="156.516" y="289.252"/><use xlink:href="#av" x="162.625" y="289.252"/><use xlink:href="#aw" x="168.734" y="289.252"/><use xlink:href="#aq" x="174.844" y="289.252"/><use xlink:href="#an" x="180.953" y="289.252"/></g><path d="M16 281.238v8.403h8.398v-8.402zm0 0" fill="#F2F2F2"/><path d="M16 281.238v8.403h8.398v-8.402zm0 0" fill="#48C4EC"/><path d="M16 289.64h8.398v-8.402H16zm0 0" fill="none" stroke="#000" stroke-miterlimit="10"/><g><use xlink:href="#Q" x="373" y="288.252"/><use xlink:href="#R" x="379.109" y="288.252"/><use xlink:href="#S" x="385.219" y="288.252"/><use xlink:href="#K" x="391.328" y="288.252"/><use xlink:href="#K" x="397.438" y="288.252"/><use xlink:href="#aa" x="403.547" y="288.252"/><use xlink:href="#Z" x="409.656" y="288.252"/><use xlink:href="#T" x="415.766" y="288.252"/><use xlink:href="#M" x="421.875" y="288.252"/><use xlink:href="#P" x="427.984" y="288.252"/></g><g><use xlink:href="#W" x="451" y="288.252"/><use xlink:href="#X" x="457.109" y="288.252"/><use xlink:href="#Y" x="463.219" y="288.252"/><use xlink:href="#K" x="469.328" y="288.252"/><use xlink:href="#K" x="475.438" y="288.252"/><use xlink:href="#Z" x="481.547" y="288.252"/><use xlink:href="#M" x="487.656" y="288.252"/><use xlink:href="#ah" x="493.766" y="288.252"/><use xlink:href="#U" x="499.875" y="288.252"/><use xlink:href="#at" x="505.984" y="288.252"/></g><g><use xlink:href="#W" x="529" y="288.252"/><use xlink:href="#Q" x="535.109" y="288.252"/><use xlink:href="#ab" x="541.219" y="288.252"/><use xlink:href="#K" x="547.328" y="288.252"/><use xlink:href="#K" x="553.438" y="288.252"/><use xlink:href="#ah" x="559.547" y="288.252"/><use xlink:href="#ac" x="565.656" y="288.252"/><use xlink:href="#ah" x="571.766" y="288.252"/><use xlink:href="#M" x="577.875" y="288.252"/><use xlink:href="#ah" x="583.984" y="288.252"/></g><g><use xlink:href="#ad" x="607" y="288.252"/><use xlink:href="#ae" x="613.109" y="288.252"/><use xlink:href="#af" x="619.219" y="288.252"/><use xlink:href="#ag" x="625.328" y="288.252"/><use xlink:href="#R" x="631.438" y="288.252"/><use xlink:href="#K" x="637.547" y="288.252"/><use xlink:href="#K" x="643.656" y="288.252"/><use xlink:href="#K" x="649.766" y="288.252"/><use xlink:href="#ah" x="655.875" y="288.252"/><use xlink:href="#U" x="661.984" y="288.252"/><use xlink:href="#aa" x="668.094" y="288.252"/><use xlink:href="#V" x="674.203" y="288.252"/></g><g><use xlink:href="#K" x="16" y="302.252"/><use xlink:href="#K" x="22.109" y="302.252"/><use xlink:href="#K" x="28.219" y="302.252"/><use xlink:href="#ai" x="34.328" y="302.252"/><use xlink:href="#N" x="40.438" y="302.252"/><use xlink:href="#aj" x="46.547" y="302.252"/><use xlink:href="#ak" x="52.656" y="302.252"/><use xlink:href="#N" x="58.766" y="302.252"/><use xlink:href="#al" x="64.875" y="302.252"/><use xlink:href="#K" x="70.984" y="302.252"/><use xlink:href="#V" x="77.094" y="302.252"/><use xlink:href="#O" x="83.203" y="302.252"/><use xlink:href="#V" x="89.313" y="302.252"/><use xlink:href="#O" x="95.422" y="302.252"/><use xlink:href="#M" x="101.531" y="302.252"/></g><path d="M16 294.238v8.403h8.398v-8.402zm0 0" fill="#F2F2F2"/><path d="M16 294.238v8.403h8.398v-8.402zm0 0" fill="#7648EC"/><path d="M16 302.64h8.398v-8.402H16zm0 0" fill="none" stroke="#000" stroke-miterlimit="10"/><g><use xlink:href="#Q" x="373" y="301.252"/><use xlink:href="#R" x="379.109" y="301.252"/><use xlink:href="#S" x="385.219" y="301.252"/><use xlink:href="#K" x="391.328" y="301.252"/><use xlink:href="#K" x="397.438" y="301.252"/><use xlink:href="#M" x="403.547" y="301.252"/><use xlink:href="#V" x="409.656" y="301.252"/><use xlink:href="#M" x="415.766" y="301.252"/><use xlink:href="#ac" x="421.875" y="301.252"/><use xlink:href="#ac" x="427.984" y="301.252"/></g><g><use xlink:href="#W" x="451" y="301.252"/><use xlink:href="#X" x="457.109" y="301.252"/><use xlink:href="#Y" x="463.219" y="301.252"/><use xlink:href="#K" x="469.328" y="301.252"/><use xlink:href="#K" x="475.438" y="301.252"/><use xlink:href="#V" x="481.547" y="301.252"/><use xlink:href="#at" x="487.656" y="301.252"/><use xlink:href="#T" x="493.766" y="301.252"/><use xlink:href="#ac" x="499.875" y="301.252"/><use xlink:href="#at" x="505.984" y="301.252"/></g><g><use xlink:href="#W" x="529" y="301.252"/><use xlink:href="#Q" x="535.109" y="301.252"/><use xlink:href="#ab" x="541.219" y="301.252"/><use xlink:href="#K" x="547.328" y="301.252"/><use xlink:href="#K" x="553.438" y="301.252"/><use xlink:href="#aa" x="559.547" y="301.252"/><use xlink:href="#P" x="565.656" y="301.252"/><use xlink:href="#ac" x="571.766" y="301.252"/><use xlink:href="#ah" x="577.875" y="301.252"/><use xlink:href="#aa" x="583.984" y="301.252"/></g><g><use xlink:href="#ad" x="607" y="301.252"/><use xlink:href="#ae" x="613.109" y="301.252"/><use xlink:href="#af" x="619.219" y="301.252"/><use xlink:href="#ag" x="625.328" y="301.252"/><use xlink:href="#R" x="631.438" y="301.252"/><use xlink:href="#K" x="637.547" y="301.252"/><use xlink:href="#K" x="643.656" y="301.252"/><use xlink:href="#K" x="649.766" y="301.252"/><use xlink:href="#M" x="655.875" y="301.252"/><use xlink:href="#ac" x="661.984" y="301.252"/><use xlink:href="#M" x="668.094" y="301.252"/><use xlink:href="#U" x="674.203" y="301.252"/></g><path d="M63 233h608M67 237V29" fill="none" stroke-width=".6" stroke="#1F1F1F" stroke-miterlimit="10"/><path d="M669 230v6l5-3zm0 0M64 31h6l-3-5zm0 0" fill="#7F1F1F"/></svg>