<svg xmlns="http://www.w3.org/2000/svg" xmlns:xlink="http://www.w3.org/1999/xlink" viewBox="0 0 697 273"><defs><symbol overflow="visible" id="b"><path d="M4.93-3.102c0 .477-.05.91-.145 1.3-.094.392-.238.728-.433 1.005-.192.28-.43.5-.72.652-.284.153-.62.23-1.007.23-.332 0-.633-.062-.906-.187-.275-.125-.505-.316-.7-.578-.192-.257-.34-.59-.446-.992-.105-.402-.156-.88-.156-1.43 0-.472.047-.906.145-1.3.097-.39.242-.727.433-1.008.192-.28.43-.496.72-.65.288-.155.62-.23 1.003-.23.33 0 .635.063.91.188.268.125.503.317.694.58.196.26.344.592.446.995.105.402.16.875.16 1.425zm-.836.032c0-.11-.004-.215-.012-.32-.008-.106-.02-.212-.027-.313L1.43-1.75c.047.164.105.316.18.453.074.14.16.258.26.36.107.1.224.175.353.234.132.055.28.082.45.082.214 0 .41-.056.585-.157.176-.106.328-.262.45-.465.124-.207.218-.465.284-.77.067-.304.102-.656.102-1.058zm-2.84-.06v.294c.004.098.008.195.02.285l2.624-1.942c-.046-.16-.11-.31-.18-.442-.073-.132-.16-.246-.26-.343-.103-.098-.22-.172-.35-.227-.128-.05-.272-.078-.436-.078-.215 0-.41.05-.586.156s-.324.262-.45.47c-.12.206-.218.46-.284.765-.067.303-.098.66-.098 1.06zm0 0"/></symbol><symbol overflow="visible" id="c"><path d="M2.672-4.852c.098 0 .19.02.28.06.09.038.165.093.232.16.066.066.12.144.16.23.04.09.058.183.058.28 0 .102-.02.196-.058.282-.04.09-.09.164-.16.23-.067.067-.14.122-.23.157-.09.04-.184.058-.282.058-.102 0-.195-.02-.28-.058-.087-.035-.165-.09-.232-.156-.066-.066-.117-.14-.156-.23-.04-.086-.06-.18-.06-.28 0-.1.02-.192.06-.282.04-.086.09-.164.156-.23.067-.067.145-.122.23-.16.087-.04.18-.06.282-.06zm0 3.48c.098 0 .19.02.28.06.09.04.165.093.232.16.066.066.12.144.16.23.04.09.058.184.058.28 0 .103-.02.197-.058.283-.04.087-.09.165-.16.23-.067.068-.14.122-.23.157-.09.04-.184.06-.282.06-.102 0-.195-.02-.28-.06-.087-.04-.165-.09-.232-.156-.066-.065-.117-.14-.156-.23-.04-.085-.06-.18-.06-.28 0-.098.02-.192.06-.282.04-.09.09-.164.156-.23.067-.067.145-.12.23-.16.087-.04.18-.06.282-.06zm0 0"/></symbol><symbol overflow="visible" id="d"><path d="M4.734 0H.836v-.77H2.43v-4.527l-1.485.805-.304-.703 1.977-1.04h.73V-.77h1.387zm0 0"/></symbol><symbol overflow="visible" id="e"><path d="M4.785 0H.7v-.742l1.6-1.594c.266-.258.477-.484.645-.676.164-.187.29-.36.383-.52.09-.155.152-.304.184-.44.03-.14.047-.29.047-.454 0-.152-.02-.297-.06-.433-.043-.136-.105-.257-.19-.363-.087-.105-.197-.187-.333-.246-.137-.057-.3-.09-.49-.09-.26 0-.503.06-.717.177-.215.117-.41.27-.594.453l-.453-.543c.234-.246.504-.445.808-.593.306-.15.66-.223 1.068-.223.273 0 .523.04.75.122.226.082.422.203.59.356.164.156.29.347.378.57.09.226.137.48.137.762 0 .238-.03.457-.094.66-.063.203-.16.402-.29.605-.13.2-.29.406-.484.62-.195.216-.426.454-.69.712L1.77-.79h3.015zm0 0"/></symbol><symbol overflow="visible" id="f"><path d="M4.668-1.883c0 .27-.06.528-.168.766-.11.238-.277.445-.496.625-.223.18-.5.32-.836.422-.336.105-.727.156-1.176.156-.246 0-.465-.008-.664-.023C1.133.046.948.022.778 0v-.742c.195.035.406.062.624.082.22.02.442.027.668.027.31 0 .575-.027.793-.082.223-.055.403-.137.54-.238.14-.106.242-.23.304-.383.063-.148.094-.316.094-.5 0-.172-.034-.32-.112-.45-.075-.124-.18-.23-.32-.316-.138-.086-.302-.148-.493-.19-.19-.044-.402-.067-.63-.067H1.54v-.675h.714c.187 0 .36-.027.512-.074.152-.05.285-.12.394-.21.11-.094.192-.207.25-.34.06-.137.09-.29.09-.46 0-.333-.102-.575-.305-.724-.203-.152-.5-.23-.894-.23-.206 0-.42.02-.644.062-.222.043-.457.102-.71.184v-.72c.105-.038.222-.073.343-.1.12-.032.24-.06.366-.08.12-.018.242-.034.364-.045.117-.012.234-.016.343-.016.328 0 .62.036.87.106s.458.172.626.305c.167.134.292.298.378.485.086.192.13.407.13.64 0 .357-.09.653-.274.896-.18.243-.43.434-.746.575.16.023.32.074.476.152.156.074.297.172.422.293.125.117.227.258.305.418.08.16.118.34.118.54zm0 0"/></symbol><symbol overflow="visible" id="g"><path d="M5.094-1.37h-1.06V0h-.843v-1.37H.204V-2.1l2.645-4.105h1.187v4.105h1.06zM3.19-5.407L1.03-2.098h2.16zm0 0"/></symbol><symbol overflow="visible" id="h"><path d="M4.63-1.984c0 .308-.067.586-.2.84-.133.253-.317.472-.547.652-.235.183-.508.324-.824.426-.318.1-.662.152-1.03.152-.09 0-.19-.004-.296-.008-.105-.004-.21-.012-.316-.02L1.113.036C1.013.023.926.012.843 0v-.75c.173.043.368.07.587.09.222.02.445.027.668.027.254 0 .48-.027.683-.09.204-.058.376-.144.52-.257.14-.114.25-.25.33-.407.073-.16.112-.34.112-.54 0-.385-.14-.667-.418-.843-.277-.175-.672-.265-1.19-.265H.953v-3.168h3.343v.72H1.734v1.74h.54c.296 0 .585.028.87.083.282.055.532.148.75.28.22.138.4.317.532.544.136.227.203.508.203.852zm0 0"/></symbol><symbol overflow="visible" id="i"><path d="M4.094-2.2h-2.84v-.777h2.84zm0 0"/></symbol><symbol overflow="visible" id="j"><path d="M2.637-1.496c.105 0 .207.02.304.062.1.043.18.098.25.172.072.07.13.157.17.254.042.098.062.2.062.31 0 .108-.02.21-.063.303-.04.094-.094.18-.17.25-.07.07-.15.13-.25.168-.096.043-.198.063-.303.063-.114 0-.215-.02-.31-.063-.097-.04-.18-.097-.25-.168-.07-.07-.128-.156-.167-.25-.043-.093-.062-.195-.062-.304 0-.11.02-.214.062-.308.04-.097.094-.183.168-.254.07-.074.152-.13.25-.172.094-.043.195-.062.31-.062zm0 0"/></symbol><symbol overflow="visible" id="k"><path d="M4.785-1.56c0 .263-.055.498-.16.705-.11.203-.258.375-.453.51-.192.142-.418.247-.684.322-.26.074-.547.11-.85.11-.34 0-.642-.04-.9-.114-.258-.078-.472-.184-.644-.32C.918-.485.784-.646.7-.833.61-1.02.565-1.222.565-1.45c0-.378.106-.706.317-.98.21-.277.54-.527.984-.75-.406-.207-.703-.433-.89-.687C.79-4.117.7-4.407.7-4.734c0-.2.038-.39.12-.58.082-.186.207-.35.375-.498.164-.145.37-.262.62-.348.25-.086.548-.13.888-.13.32 0 .598.032.84.103.242.066.445.164.61.292.163.125.288.278.37.457.082.18.125.383.125.606 0 .36-.1.668-.3.922-.203.254-.49.473-.86.664.184.09.356.19.516.3.156.114.293.235.41.372.117.136.21.29.274.457.066.168.097.355.097.558zM3.8-4.765c0-.28-.097-.492-.292-.63-.2-.135-.477-.206-.836-.206-.356 0-.63.067-.828.204-.2.136-.297.34-.297.613 0 .125.023.238.07.34.047.105.12.203.223.297.097.09.222.18.37.27.15.09.33.18.532.27.36-.17.625-.34.8-.525.173-.183.26-.394.26-.633zm.087 3.27c0-.117-.02-.23-.055-.34-.04-.113-.105-.223-.203-.328-.1-.11-.232-.215-.396-.324-.164-.106-.375-.22-.63-.332-.213.105-.393.207-.542.312-.148.102-.265.207-.355.313-.09.105-.156.215-.19.328-.04.113-.06.234-.06.363 0 .14.03.266.094.375.063.11.145.204.255.278.105.08.234.133.383.172.148.04.312.06.484.06.168 0 .328-.02.476-.056.15-.035.278-.086.387-.156.11-.07.195-.164.258-.273.062-.11.094-.24.094-.39zm0 0"/></symbol><symbol overflow="visible" id="l"><path d="M4.86-1.965c0 .285-.05.55-.153.8-.102.25-.25.47-.437.653-.192.188-.422.332-.688.438-.266.105-.562.16-.89.16-.34 0-.645-.055-.907-.164-.262-.11-.484-.277-.66-.504C.95-.81.812-1.094.723-1.438.63-1.78.583-2.19.583-2.663c0-.316.022-.62.062-.922.042-.297.11-.574.207-.84.093-.26.218-.504.378-.72.157-.217.356-.405.59-.56.235-.157.516-.282.832-.368.32-.086.692-.13 1.114-.13h.613v.72h-.67c-.37 0-.69.046-.96.132-.273.09-.5.215-.684.375-.183.165-.324.356-.42.586-.1.226-.162.48-.19.76l-.018.196c.2-.117.43-.21.69-.28.263-.07.544-.106.85-.106.31 0 .588.043.823.136.235.09.43.22.59.383.157.163.274.355.352.585.078.227.117.477.117.75zm-.864.05c0-.187-.023-.358-.066-.515-.047-.152-.118-.28-.22-.386-.097-.106-.222-.192-.37-.247-.15-.058-.328-.09-.54-.09-.12 0-.24.012-.366.036-.122.02-.243.05-.364.09-.117.04-.23.086-.336.136-.11.05-.207.105-.296.16 0 .41.03.75.085 1.023.06.273.14.492.254.656.114.163.25.284.414.35.165.07.357.106.572.106.18 0 .347-.027.496-.086.152-.058.28-.144.39-.26.11-.115.196-.25.258-.415.063-.165.09-.348.09-.56zm0 0"/></symbol><symbol overflow="visible" id="n"><path d="M-1.488-5.18c.19 0 .363.032.515.098.153.062.29.152.407.266.117.11.218.242.3.39.082.15.153.305.207.473.056.168.095.34.12.52.026.175.038.35.038.52 0 .37-.016.706-.047 1.018-.034.31-.085.61-.16.907h-.867c.09-.317.16-.633.207-.95.047-.312.07-.625.07-.937 0-.453-.062-.79-.183-1.004-.125-.218-.3-.323-.527-.323-.098 0-.188.016-.262.05-.078.036-.152.098-.223.188-.07.09-.144.23-.222.418-.074.192-.16.45-.258.78-.074.247-.156.474-.25.68-.09.208-.2.388-.328.54-.125.152-.274.274-.442.36-.17.085-.37.128-.605.128-.152 0-.316-.034-.496-.104-.184-.07-.352-.19-.508-.36-.156-.17-.28-.402-.387-.69-.102-.29-.153-.65-.153-1.083 0-.215.012-.453.035-.71.024-.263.063-.536.12-.817h.84c-.07.297-.124.578-.16.844-.034.265-.05.496-.05.69 0 .235.02.435.055.595.035.16.086.293.148.39.063.102.137.172.223.215.086.043.176.067.273.067.1 0 .19-.02.267-.06.078-.034.156-.104.23-.21.075-.102.15-.246.223-.43.074-.183.156-.425.242-.722.094-.32.192-.594.297-.813.1-.222.214-.402.343-.54.125-.136.27-.233.43-.292.156-.062.34-.09.54-.09zm0 0"/></symbol><symbol overflow="visible" id="o"><path d="M-.2-5.102c.095.247.165.5.208.758.047.258.066.528.066.8 0 .86-.23 1.524-.7 1.99-.464.464-1.147.7-2.042.7-.43 0-.824-.072-1.172-.205-.35-.13-.652-.32-.902-.56-.25-.243-.442-.532-.578-.872-.137-.336-.203-.707-.203-1.11 0-.28.02-.546.058-.793.04-.246.106-.48.195-.707h.903c-.125.235-.21.477-.27.72-.054.245-.082.5-.082.757 0 .242.044.473.138.688.094.214.227.402.398.566.176.163.387.292.637.386.25.093.53.14.844.14.66 0 1.152-.16 1.48-.48.328-.32.49-.766.49-1.332 0-.258-.03-.508-.087-.746-.06-.243-.145-.473-.258-.7zm0 0"/></symbol><symbol overflow="visible" id="p"><path d="M0-5.246v.945h-3.477c-.42 0-.734.077-.94.234-.208.156-.313.382-.313.675 0 .124.015.245.05.355.035.11.094.226.18.344.086.12.2.25.344.39.144.14.324.304.543.487H0v.946h-7.668v-.946h2.223l.855.032c-.176-.15-.328-.294-.45-.435-.12-.144-.218-.29-.292-.43-.078-.144-.133-.29-.164-.437-.03-.148-.047-.3-.047-.46 0-.544.164-.962.496-1.26.328-.296.828-.444 1.492-.444zm0 0"/></symbol><symbol overflow="visible" id="q"><path d="M-3.012-5.47c.133 0 .246 0 .336.005.09.004.176.012.258.02v3.824c.555 0 .984-.157 1.28-.47.298-.308.45-.758.45-1.344 0-.16-.007-.32-.02-.476-.01-.16-.03-.317-.05-.46-.023-.15-.047-.294-.074-.427-.027-.137-.06-.262-.09-.38h.774c.074.26.132.548.18.872.042.325.066.66.066 1.008 0 .465-.063.867-.192 1.203-.125.336-.308.614-.55.828-.24.215-.536.375-.883.477-.348.103-.743.153-1.184.153-.384 0-.747-.054-1.09-.164-.34-.11-.64-.27-.9-.48-.26-.212-.464-.474-.616-.782-.153-.31-.227-.657-.227-1.047 0-.378.06-.714.176-1.007.12-.293.29-.54.508-.742.22-.2.485-.35.798-.452.312-.106.664-.157 1.05-.157zm-.136.982c-.243-.012-.46.015-.664.07-.2.06-.372.148-.516.27-.145.12-.258.273-.34.453-.082.18-.12.39-.12.63 0 .206.038.393.116.565.078.168.192.316.336.438.145.124.32.222.524.3.203.075.42.12.664.14zm0 0"/></symbol><symbol overflow="visible" id="r"><path d="M-2.61-.59c-.464 0-.874-.066-1.234-.19-.36-.126-.664-.306-.91-.54-.25-.235-.437-.516-.566-.84-.13-.328-.192-.695-.192-1.094 0-.176.012-.348.032-.516.023-.167.058-.332.105-.496h-2.293v-.95H0v.85l-1.03.03c.382.266.667.55.85.86.184.308.278.64.278.996 0 .312-.067.585-.196.824-.13.234-.312.433-.55.59-.24.156-.524.277-.856.355-.332.077-.7.12-1.105.12zm-.058-.97c.656 0 1.148-.092 1.473-.288.324-.19.484-.468.484-.82 0-.238-.106-.492-.32-.758-.216-.265-.532-.547-.95-.84h-2.528c-.074.157-.13.329-.168.516-.035.188-.054.375-.054.56 0 .514.164.913.5 1.202.332.29.85.43 1.562.43zm0 0"/></symbol><symbol overflow="visible" id="s"><path d="M0-5.246v.848l-.88.03c.19.165.345.317.47.466.125.144.226.29.3.433.08.146.13.294.16.44.032.147.048.3.048.464 0 .562-.164.984-.493 1.27-.332.284-.828.43-1.492.43h-3.558v-.947h3.48c.836 0 1.254-.312 1.254-.945 0-.113-.017-.226-.052-.336-.035-.11-.093-.226-.18-.347-.085-.123-.2-.255-.343-.392-.145-.14-.328-.297-.547-.47h-3.613v-.944zm0 0"/></symbol><symbol overflow="visible" id="t"><path d="M-6.89-2.723v1.61h-.778V-3.68h6.883V-5.3H0v4.366h-.785v-1.79zm0 0"/></symbol><symbol overflow="visible" id="u"><path d="M-5.445-1.09v-.863l1-.027c-.387-.32-.664-.64-.84-.954-.172-.312-.258-.628-.258-.945 0-.56.18-.99.547-1.284.363-.29.906-.426 1.625-.402v.953c-.478-.008-.82.058-1.036.21-.215.15-.324.372-.324.66 0 .126.023.255.066.384.047.13.117.258.22.395.096.137.225.277.38.43.158.152.345.316.564.488H0v.957zm0 0"/></symbol><symbol overflow="visible" id="w"><path d="M0-4.367l-.734.02c.293.296.507.597.636.906.13.303.196.624.196.96 0 .312-.04.578-.12.796-.08.223-.19.403-.33.547-.136.145-.3.246-.488.317-.187.066-.394.097-.613.097-.547 0-.977-.203-1.285-.61-.31-.405-.46-1.007-.46-1.804v-1.13h-.482c-.32 0-.578.107-.773.31-.192.207-.29.523-.29.945 0 .31.036.61.102.91.07.297.167.606.292.926h-.85c-.044-.12-.087-.254-.126-.398-.043-.15-.078-.305-.114-.465-.03-.163-.058-.33-.078-.51-.02-.177-.027-.356-.027-.536 0-.328.035-.625.106-.89.074-.266.183-.49.332-.672.148-.18.335-.32.558-.418.223-.098.488-.15.793-.15H0zm-2.48.1v1.2c0 .235.023.438.07.61.047.168.113.31.203.418.086.11.19.188.312.243.122.05.258.078.407.078.105 0 .207-.014.304-.05.094-.03.18-.085.254-.156.075-.074.133-.168.176-.28.043-.118.067-.26.067-.427 0-.215-.067-.465-.2-.746-.133-.276-.34-.573-.63-.886zm0 0"/></symbol><symbol overflow="visible" id="x"><path d="M-4.676-4.79c.125-.1.274-.18.442-.237.168-.055.35-.082.546-.082.282 0 .54.05.77.153.234.105.434.25.602.437.168.188.296.415.386.676.094.262.14.55.14.864 0 .23-.026.44-.073.64-.05.2-.11.36-.184.473.102.07.2.13.29.176.09.045.19.07.304.07.137 0 .25-.067.34-.2.09-.133.14-.305.148-.524l.055-1.433c.008-.27.04-.52.1-.75.064-.23.15-.426.267-.59.117-.164.258-.293.43-.387.168-.094.367-.137.59-.137.242 0 .472.05.69.156.216.105.407.265.57.484.165.22.298.496.396.832.097.336.144.738.144 1.2 0 .44-.035.816-.105 1.124-.07.31-.168.567-.293.766-.126.2-.275.344-.446.433-.172.09-.36.133-.567.133C.605-.512.37-.57.172-.695c-.2-.12-.39-.313-.574-.57-.043.093-.098.175-.16.245-.067.07-.137.125-.215.168-.078.043-.16.075-.25.098-.086.024-.168.03-.254.03-.236 0-.45-.053-.646-.163-.195-.11-.38-.242-.554-.394-.083.07-.165.128-.243.182-.082.05-.168.098-.257.133-.094.04-.192.07-.3.09-.107.02-.228.027-.365.027-.28 0-.542-.05-.773-.152-.234-.105-.434-.25-.602-.434-.164-.187-.293-.41-.386-.675-.094-.26-.137-.55-.137-.87 0-.133.008-.262.023-.383.02-.125.043-.23.075-.325v-1.976h.77zm5.46 3.274c.26 0 .446-.132.564-.398.117-.27.175-.64.175-1.117 0-.302-.027-.556-.082-.76-.053-.202-.124-.37-.21-.495-.09-.125-.19-.21-.304-.266-.114-.055-.23-.083-.352-.083-.22 0-.383.09-.488.27-.106.183-.164.457-.184.832l-.05 1.42c.082.118.16.215.234.294.078.078.152.14.23.183.08.043.157.074.235.094.08.017.157.024.235.024zM-3.667-1.8c.176 0 .332-.032.477-.087.143-.058.268-.14.37-.246.1-.105.18-.226.234-.37.055-.145.086-.302.086-.477 0-.188-.03-.352-.098-.5-.062-.145-.148-.27-.257-.368-.106-.1-.23-.175-.372-.23-.14-.05-.29-.078-.44-.078-.173 0-.333.027-.478.086-.144.058-.27.14-.37.246-.102.105-.18.226-.235.37-.055.145-.086.302-.086.474 0 .187.035.355.098.503.066.145.152.27.258.368.11.102.23.176.375.23.14.052.285.08.437.08zm0 0"/></symbol><symbol overflow="visible" id="y"><path d="M5.738-.227c-.277.106-.562.184-.85.235-.294.05-.595.078-.904.078-.968 0-1.71-.262-2.234-.79-.523-.523-.785-1.288-.785-2.3 0-.484.074-.922.226-1.316.15-.395.36-.735.634-1.016.274-.28.598-.496.977-.648.38-.153.798-.23 1.255-.23.316 0 .613.023.89.07.278.042.54.117.793.218v1.012c-.265-.137-.535-.238-.808-.3-.274-.063-.56-.095-.852-.095-.273 0-.53.052-.773.154-.243.105-.453.254-.637.45-.184.194-.328.433-.434.714-.105.28-.16.597-.16.953 0 .743.18 1.294.543 1.665.36.367.86.55 1.496.55.29 0 .57-.03.84-.097.27-.066.53-.164.785-.293zm0 0"/></symbol><symbol overflow="visible" id="z"><path d="M6.313-3.113c0 .476-.07.914-.204 1.308-.133.4-.33.74-.58 1.02-.253.285-.56.504-.92.66C4.245.03 3.835.11 3.374.11c-.438 0-.832-.067-1.18-.204-.347-.136-.644-.336-.886-.6C1.065-.962.882-1.29.753-1.68c-.13-.39-.192-.84-.192-1.347 0-.477.067-.91.2-1.305.136-.39.328-.73.582-1.012.25-.28.558-.504.922-.66.36-.156.773-.234 1.23-.234.442 0 .836.07 1.184.203.347.137.64.336.883.6.242.263.43.587.554.978.13.39.196.84.196 1.344zm-1.086.05c0-.378-.043-.71-.13-.992-.08-.285-.2-.52-.355-.71-.156-.188-.344-.33-.562-.426-.223-.095-.473-.146-.742-.146-.317 0-.59.063-.817.188-.225.125-.41.29-.554.496-.144.207-.25.45-.316.726-.066.274-.102.563-.102.864 0 .378.043.707.125.992.082.285.204.523.356.71.155.192.343.333.56.43.22.094.47.14.748.14.316 0 .585-.058.812-.183.227-.125.41-.29.555-.5.144-.207.254-.445.32-.722.066-.274.102-.563.102-.868zm0 0"/></symbol><symbol overflow="visible" id="A"><path d="M6.652-6.13L5.762 0h-1.29L3.59-2.563l-.18-.624-.2.66L2.364 0H1.11L.226-6.13h1.035l.515 4.165.11.926.26-.808.892-2.754h.76l.962 2.715.273.813.09-.86.477-4.195zm0 0"/></symbol><symbol overflow="visible" id="B"><path d="M6.215-3.172c0 .508-.07.96-.21 1.363-.142.4-.34.74-.6 1.02-.257.278-.573.493-.944.642-.37.148-.784.222-1.25.222-.362 0-.733-.035-1.108-.105-.38-.072-.754-.18-1.125-.33v-8.265H2.04v2.375l-.052 1.137c.305-.41.633-.703.98-.87.348-.17.723-.255 1.122-.255.348 0 .656.074.922.218.265.15.484.356.664.622.18.265.312.585.402.964.09.375.137.797.137 1.262zm-1.09.047c0-.32-.02-.617-.066-.887-.048-.265-.122-.496-.224-.687-.102-.19-.234-.34-.39-.448-.16-.11-.352-.16-.57-.16-.134 0-.27.02-.407.062-.142.043-.286.113-.435.215-.148.096-.305.23-.47.393-.163.164-.338.37-.526.614v2.972c.206.08.417.144.632.19.215.047.422.07.617.07.245 0 .476-.034.698-.112.223-.078.418-.207.586-.387.168-.183.305-.42.403-.722.1-.297.148-.668.148-1.113zm0 0"/></symbol><symbol overflow="visible" id="C"><path d="M6.426-6.13L4.34-.647c-.215.558-.438 1.04-.668 1.44-.23.403-.48.735-.754.993-.273.258-.57.45-.898.57-.325.122-.688.184-1.09.184-.106 0-.203-.005-.29-.01-.085-.003-.18-.007-.28-.014V1.55c.09.012.187.024.292.032.106.012.22.016.336.016.196 0 .38-.028.547-.082.168-.06.328-.153.48-.282.15-.13.294-.293.434-.496.136-.203.27-.45.402-.738L.402-6.13H1.61l1.55 4.056.313.95.355-.978L5.262-6.13zm0 0"/></symbol><symbol overflow="visible" id="D"><path d="M5.262-2.824H1.61v-1.004H5.26zm0 0"/></symbol><symbol overflow="visible" id="E"><path d="M6.152 0H.898v-.953l2.063-2.05c.337-.333.614-.622.825-.868.21-.243.375-.466.492-.67.118-.198.2-.39.24-.57.042-.18.06-.37.06-.577 0-.196-.026-.383-.077-.56-.055-.175-.137-.33-.246-.468-.11-.133-.254-.238-.426-.316-.176-.08-.387-.118-.63-.118-.34 0-.643.078-.92.226-.278.152-.532.348-.762.586L.93-7.04c.3-.315.644-.57 1.04-.76.39-.192.846-.286 1.37-.286.35 0 .676.05.965.156.293.106.543.258.754.46.21.2.374.443.49.732.118.29.177.613.177.976 0 .305-.043.59-.125.848-.082.262-.204.52-.368.777-.164.258-.37.528-.625.805-.25.277-.544.578-.887.91l-1.446 1.41h3.875zm0 0"/></symbol><symbol overflow="visible" id="F"><path d="M3.387-1.922c.14 0 .27.027.394.078.126.055.232.125.325.22.09.093.165.202.215.327.055.125.082.258.082.4 0 .14-.027.268-.082.39-.05.12-.125.23-.215.32-.093.093-.2.164-.324.218-.124.052-.253.08-.393.08S3.113.08 2.992.03c-.125-.053-.23-.124-.32-.217-.094-.09-.164-.196-.22-.32-.05-.122-.077-.25-.077-.39 0-.142.027-.275.078-.4.055-.125.125-.234.22-.328.09-.094.194-.164.32-.22.12-.05.253-.077.394-.077zm0 0"/></symbol><symbol overflow="visible" id="G"><path d="M6.336-3.984c0 .61-.063 1.164-.184 1.668-.12.503-.308.933-.554 1.293-.25.36-.56.64-.926.835-.367.2-.8.297-1.297.297C2.95.11 2.56.03 2.21-.134c-.35-.16-.65-.406-.897-.738-.25-.337-.442-.763-.575-1.278-.133-.516-.2-1.13-.2-1.836 0-.61.06-1.168.185-1.672s.308-.938.554-1.297c.246-.36.555-.64.926-.84.37-.195.8-.293 1.293-.293.43 0 .817.078 1.168.238.348.16.65.41.895.746.25.336.44.762.573 1.278.137.52.203 1.13.203 1.84zm-1.074.035c0-.136-.004-.277-.016-.41-.012-.136-.02-.27-.035-.402L1.837-2.254c.062.21.14.41.234.586.094.18.207.336.336.46.133.13.285.23.453.302.167.07.36.105.578.105.277 0 .527-.067.753-.2.228-.137.42-.336.576-.598.16-.265.28-.593.367-.988.086-.39.13-.848.13-1.363zM1.61-4.022l.003.378c.004.125.012.25.024.368l3.375-2.496c-.063-.207-.14-.4-.235-.567-.093-.172-.203-.32-.332-.445-.133-.125-.28-.22-.45-.29-.163-.07-.35-.105-.558-.105-.277 0-.527.07-.753.203-.227.133-.418.336-.58.602-.16.266-.28.598-.366.988-.086.395-.13.848-.13 1.364zm0 0"/></symbol><symbol overflow="visible" id="H"><path d="M1.227-6.13h.968L2.227-5c.363-.434.718-.75 1.074-.945.352-.196.708-.293 1.063-.293.637 0 1.117.207 1.446.617.327.41.475 1.018.452 1.83H5.188c.01-.538-.067-.93-.235-1.17-.168-.243-.418-.36-.742-.36-.14 0-.284.023-.43.074-.143.05-.292.133-.444.246-.152.11-.316.254-.484.43-.172.175-.356.386-.55.633V0H1.226zm0 0"/></symbol><symbol overflow="visible" id="I"><path d="M6.086 0H1.074v-.988h2.05v-5.825l-1.91 1.04-.39-.903 2.54-1.34h.94v7.028h1.782zm0 0"/></symbol><symbol overflow="visible" id="J"><path d="M5.828-1.672c0 .215-.035.41-.11.578-.073.172-.17.324-.296.457-.13.133-.274.242-.442.336-.168.093-.343.17-.535.234-.187.058-.383.105-.582.132-.2.028-.394.043-.586.043-.414 0-.797-.02-1.144-.055C1.785.02 1.445-.04 1.11-.12V-1.1c.36.102.714.18 1.07.23.35.055.707.08 1.054.08.508 0 .887-.067 1.13-.208.245-.137.366-.336.366-.59 0-.11-.02-.21-.058-.297-.04-.086-.11-.172-.21-.25-.103-.078-.26-.164-.474-.246-.215-.085-.504-.183-.875-.292-.277-.082-.53-.176-.765-.277-.235-.105-.438-.23-.61-.37-.172-.14-.304-.31-.402-.5-.098-.192-.145-.418-.145-.68 0-.168.04-.355.12-.56.077-.202.213-.393.405-.57.19-.175.45-.32.777-.433.324-.117.73-.175 1.22-.175.237 0 .507.015.8.04.293.026.597.073.914.136v.95c-.332-.083-.65-.146-.95-.18-.296-.04-.558-.06-.777-.06-.266 0-.49.02-.67.06-.178.042-.327.097-.44.167-.11.07-.192.156-.238.25-.05.098-.075.2-.075.31 0 .108.02.21.063.3s.12.175.238.257c.117.086.277.168.485.25.207.086.48.176.812.274.363.105.668.214.918.332.246.117.45.246.602.386.156.145.265.305.332.485.066.178.1.382.1.608zm0 0"/></symbol><symbol overflow="visible" id="K"><path d="M5.914-.086c-.238.063-.488.106-.746.133-.254.027-.516.04-.78.04-.77 0-1.34-.177-1.72-.524-.38-.348-.566-.883-.566-1.602v-3.198H.382v-.89h1.72v-1.684l1.058-.274v1.957h2.754v.892H3.16v3.113c0 .44.117.77.352.988.234.215.578.325 1.035.325.195 0 .41-.016.64-.047.23-.03.473-.078.727-.14zm0 0"/></symbol><symbol overflow="visible" id="L"><path d="M6.152-3.387c0 .15-.004.278-.007.38-.004.1-.008.195-.016.284H1.823c0 .63.176 1.11.528 1.446.347.336.85.504 1.51.504.18 0 .36-.008.54-.024.18-.015.352-.03.516-.058.168-.024.328-.05.48-.083.153-.03.293-.062.426-.1v.874c-.29.082-.617.148-.98.2-.364.05-.742.073-1.133.073-.522 0-.976-.07-1.355-.215-.378-.14-.687-.348-.93-.618-.24-.27-.42-.6-.538-.996-.114-.39-.172-.835-.172-1.33 0-.434.062-.84.183-1.227.125-.383.31-.72.547-1.012.24-.288.528-.522.875-.69.344-.172.74-.258 1.176-.258.43 0 .81.066 1.137.203.328.133.605.324.832.57.226.246.398.543.512.895.117.35.175.746.175 1.183zM5.047-3.54c.012-.272-.012-.522-.078-.75-.068-.226-.17-.417-.302-.58-.137-.165-.31-.29-.512-.384-.203-.09-.437-.137-.707-.137-.23 0-.446.046-.638.136-.19.09-.355.215-.492.38-.14.16-.25.354-.336.585-.086.228-.14.478-.16.75zm0 0"/></symbol><symbol overflow="visible" id="M"><path d="M4.914 0L4.89-.824c-.335.328-.675.566-1.02.715-.343.145-.702.22-1.08.22-.353 0-.65-.044-.9-.133-.245-.09-.452-.215-.613-.372-.16-.156-.277-.34-.35-.55C.85-1.155.81-1.387.81-1.637c0-.613.227-1.093.688-1.44.457-.35 1.133-.525 2.027-.525h1.27v-.535c0-.363-.117-.652-.348-.87-.23-.22-.587-.33-1.063-.33-.344 0-.688.04-1.024.118-.336.08-.68.19-1.04.33v-.958c.134-.047.286-.097.45-.144.165-.047.34-.086.524-.125.183-.035.37-.067.57-.086.2-.024.403-.035.606-.035.37 0 .703.043 1 .12.297.083.55.208.754.376.207.164.363.375.472.63.11.25.167.546.167.89V0zm-.117-2.79H3.45c-.266 0-.493.028-.684.08-.192.054-.348.128-.47.226-.124.097-.214.214-.273.35-.058.138-.09.29-.09.462 0 .117.02.23.055.34.04.105.098.203.18.285.082.082.187.15.316.2.13.046.29.074.477.074.243 0 .524-.075.84-.223.317-.15.65-.387.997-.707zm0 0"/></symbol><symbol overflow="visible" id="N"><path d="M5.348 0v-4.402c0-.192-.008-.348-.024-.47-.01-.12-.035-.218-.066-.288-.03-.07-.07-.12-.117-.15-.046-.03-.1-.042-.17-.042-.083 0-.157.024-.228.07-.07.052-.144.13-.222.24-.08.108-.168.257-.262.437-.098.18-.21.402-.34.668V0h-.97v-4.285c0-.223-.007-.406-.022-.543-.012-.137-.035-.246-.067-.324-.032-.078-.07-.13-.118-.157-.05-.03-.11-.042-.18-.042-.074 0-.14.02-.207.06-.066.042-.136.112-.214.222-.08.105-.167.25-.265.43-.098.183-.215.417-.348.702V0H.55v-6.13h.81l.05 1.17c.106-.235.207-.43.31-.595.096-.164.202-.293.307-.394.106-.097.22-.17.336-.218.12-.047.254-.07.403-.07.328 0 .578.11.75.324.17.215.257.55.257 1 .098-.21.192-.4.286-.563.092-.164.194-.304.3-.418.11-.11.226-.195.36-.253.128-.06.28-.09.448-.09.77 0 1.156.593 1.156 1.777V0zm0 0"/></symbol><symbol overflow="visible" id="P"><path d="M5.12 0H1.09v-7.09h4.03v.813H2.056v2.2h2.95v.81h-2.95v2.443H5.12zm0 0"/></symbol><symbol overflow="visible" id="Q"><path d="M1.09-5.445h.863l.027 1c.32-.387.64-.664.954-.84.312-.172.628-.258.945-.258.56 0 .99.18 1.284.547.29.363.426.906.402 1.625h-.953c.008-.478-.058-.82-.21-1.036-.15-.215-.372-.324-.66-.324-.126 0-.255.023-.384.066-.13.047-.258.117-.395.22-.137.096-.277.225-.43.38-.152.158-.316.345-.488.564V0H1.09zm0 0"/></symbol><symbol overflow="visible" id="R"><path d="M5.61-2.766c0 .422-.06.81-.18 1.164-.117.352-.29.653-.516.907-.223.25-.496.445-.816.586C3.773.028 3.41.1 3 .1c-.39 0-.742-.063-1.05-.184-.31-.12-.57-.297-.786-.53-.215-.236-.38-.53-.492-.876C.56-1.84.5-2.238.5-2.692c0-.42.06-.808.18-1.156.117-.35.29-.652.515-.902.223-.25.496-.445.817-.586.324-.14.687-.207 1.097-.207.39 0 .738.06 1.05.18.31.12.57.297.785.53.215.235.38.524.492.872.114.347.172.745.172 1.194zm-.965.043c0-.336-.04-.632-.114-.882-.073-.25-.178-.46-.315-.63-.137-.167-.305-.296-.5-.378-.2-.086-.418-.13-.66-.13-.282 0-.524.056-.723.165-.203.113-.367.258-.496.445-.13.184-.223.4-.28.64-.06.247-.09.5-.09.77 0 .336.034.63.108.883.074.254.184.465.32.633.137.168.305.293.5.38.196.085.415.128.66.128.282 0 .524-.054.723-.167.203-.11.368-.258.496-.442.13-.182.223-.397.282-.64.058-.245.09-.503.09-.773zm0 0"/></symbol><symbol overflow="visible" id="S"><path d="M5.47 0H4.21L2.146-4.422l-.598-1.422V0H.645v-7.09h1.242L3.86-2.902l.706 1.62V-7.09h.903zm0 0"/></symbol><symbol overflow="visible" id="T"><path d="M4.754 0v-3.91c0-.172-.008-.313-.02-.418-.01-.11-.035-.195-.058-.258-.028-.062-.063-.11-.106-.133-.043-.026-.093-.038-.152-.038-.074 0-.14.02-.203.067-.063.042-.125.112-.2.21-.07.097-.144.226-.23.386-.086.16-.187.36-.3.594V0H2.62v-3.81c0-.198-.007-.358-.018-.483-.012-.12-.032-.22-.06-.285-.026-.07-.062-.117-.104-.14-.043-.028-.098-.04-.16-.04-.063 0-.126.02-.184.055-.06.035-.12.1-.192.195-.07.094-.148.223-.238.383-.086.164-.187.37-.31.625V0H.49v-5.445h.723l.044 1.035c.094-.207.183-.383.273-.527.09-.145.18-.262.274-.348.095-.09.196-.156.302-.195.105-.043.226-.063.355-.063.293 0 .516.094.668.285.152.192.227.488.227.89.086-.187.17-.355.257-.503.08-.146.17-.27.265-.368.098-.098.203-.176.32-.227.114-.055.25-.078.4-.078.682 0 1.026.523 1.026 1.578V0zm0 0"/></symbol><symbol overflow="visible" id="U"><path d="M4.367 0l-.02-.734c-.296.293-.597.507-.906.636-.303.13-.624.196-.96.196-.312 0-.578-.04-.796-.12-.223-.08-.403-.19-.547-.33C.992-.488.89-.652.82-.84c-.066-.187-.097-.394-.097-.613 0-.547.203-.977.61-1.285.405-.31 1.007-.46 1.804-.46h1.13v-.482c0-.32-.107-.578-.31-.773-.207-.192-.523-.29-.945-.29-.31 0-.61.036-.91.102-.297.07-.606.167-.926.292v-.85c.12-.044.254-.087.398-.126.15-.043.305-.078.465-.114.163-.03.33-.058.51-.078.177-.02.356-.027.536-.027.328 0 .625.035.89.106.266.074.49.183.672.332.18.148.32.335.418.558.098.223.15.488.15.793V0zm-.1-2.48h-1.2c-.235 0-.438.023-.61.07-.168.047-.31.113-.418.203-.11.086-.188.19-.243.312-.05.122-.078.258-.078.407 0 .105.014.207.05.304.03.094.085.18.156.254.074.075.168.133.28.176.118.043.26.067.427.067.215 0 .465-.067.746-.2.276-.133.573-.34.886-.63zm0 0"/></symbol><symbol overflow="visible" id="V"><path d="M2.723-6.89h-1.61v-.778H3.68v6.883H5.3V0H.935v-.785h1.79zm0 0"/></symbol><symbol overflow="visible" id="W"><path d="M5.715-3.625c0 .34-.027.668-.082.977-.05.312-.137.6-.25.867-.117.268-.266.51-.45.73-.187.218-.413.405-.68.562-.27.156-.577.277-.933.36C2.965-.044 2.563 0 2.11 0H.59v-7.09h1.828c1.11 0 1.934.285 2.477.852.546.57.82 1.44.82 2.613zm-1.016.07c0-.504-.048-.925-.14-1.273-.095-.348-.24-.63-.43-.84-.192-.215-.435-.37-.724-.465-.29-.097-.63-.144-1.02-.144H1.56v5.44h.717C3.89-.836 4.7-1.74 4.7-3.554zm0 0"/></symbol><symbol overflow="visible" id="X"><path d="M2.723-4.664h-1.61v-.78H3.68v4.66H5.3V0H.935v-.785h1.79zm.332-3.066c.105 0 .203.02.293.054.09.04.168.094.234.16.066.07.12.15.16.24.035.088.055.182.055.288 0 .1-.02.2-.055.29-.04.09-.09.167-.16.237-.066.065-.144.12-.234.16-.09.038-.188.054-.293.054-.106 0-.203-.02-.293-.055-.09-.04-.168-.095-.235-.16-.066-.07-.12-.15-.16-.24-.04-.09-.054-.187-.054-.288 0-.106.02-.203.054-.29.04-.09.09-.167.16-.238.067-.066.145-.12.235-.16.09-.035.187-.054.293-.054zm0 0"/></symbol><symbol overflow="visible" id="Y"><path d="M5.258-.074c-.215.054-.434.09-.664.113-.227.022-.457.034-.692.034-.683 0-1.195-.152-1.53-.46-.337-.31-.505-.786-.505-1.427v-2.843H.344v-.79h1.523v-1.5l.942-.242v1.743h2.448v.79h-2.45v2.768c0 .39.106.68.313.875.208.196.517.29.923.29.172 0 .363-.012.57-.04.203-.027.418-.07.645-.13zm0 0"/></symbol><symbol overflow="visible" id="Z"><path d="M5.715-5.445L3.86-.575C3.667-.077 3.47.35 3.26.708c-.203.356-.426.648-.668.88-.242.23-.508.397-.797.507-.29.11-.613.164-.973.164-.094 0-.18-.004-.254-.008-.078-.004-.16-.008-.25-.016V1.38c.078.01.168.018.262.026.094.012.19.016.297.016.17 0 .335-.027.483-.078.153-.05.293-.133.426-.246.132-.114.26-.262.386-.442.12-.18.242-.398.36-.656L.358-5.445h1.074l1.375 3.6.276.845.316-.867 1.274-3.578zm0 0"/></symbol><clipPath id="a"><path d="M67 44h600v24H67zm0 0"/></clipPath></defs><path fill="#F2F2F2" d="M0 0h697v273H0z"/><path d="M67 233h600V33H67zm0 0" fill="#FFF"/><path d="M67 58.06v75.14h599V52.35h-2v2.367h-2v-10h-2v10.3h-2v1.95h-2V52.5h-2v-.28h-2v-5.2h-2v7.25h-2v-4.82h-2v1.92h-2v-3.448h-2v1.25h-2v1.2h-2V46.75h-2v3.32h-2v1.23h-2v.39h-2V50.08h-2v-2.976h-2v2.527h-2v-.18h-2v-.462h-2v.602h-2v3.172h-2v2.18h-2V55h-2v.238h-2v-1.566h-2v.61h-2v1.706h-2V49.78h-2v1.19h-2v.97h-2v-.37h-2v1.07h-2v1.008h-2v-.09h-2v1.833h-2v4.83h-2V55.51h-2v-.692h-2v1.11h-2v6.88h-2V50.66h-2v1.28h-2v2.77h-2v.368h-2v5.184h-2v-2.82h-2v-4.52h-2v.898h-2v2.86h-2v-1.14h-2v-2.302h-2v2.73h-2v-1.73h-2v-.027h-2v-1.14h-2v.918h-2v1.852h-2v4.95h-2v-5h-2v-5.18h-2v4.09h-2v-4.11h-2v2.32h-2v-2.52h-2v4.13h-2v-1.668h-2v-.563h-2v-.02h-2v.41h-2v-1.06h-2v2.302h-2v-1.66h-2v-.422h-2v3.148h-2v-4.316h-2v3.75h-2v-3.23h-2v.417h-2v3.62h-2V53.7h-2v-.09h-2v.07h-2v-5.7h-2v5.622h-2v2.367h-2v-5.99h-2v2.23h-2v2.42h-2v-6.052h-2v3.742h-2v.77h-2v3.37h-2v-.76h-2V53.42h-2V50.84h-2v4.488h-2v-5.34h-2v2.602h-2v-4.55h-2v.39h-2v2.29h-2v1.41h-2v3.53h-2v-2.058h-2v.457h-2v-4.83h-2v2.88h-2v2.96h-2v-1.59h-2v-3.64h-2v2.77h-2v-2.282h-2v4.602h-2v-3.57h-2v-.64h-2v1.792h-2v.258h-2v2.11h-2V44.43h-2v9.89h-2v-.23h-2v.13h-2v-3.232h-2v.14h-2v3.41h-2v-1.436h-2v4.726h-2v-.558h-2v-2.49h-2v1.28h-2v-2.4h-2v-2.058h-2v2.058h-2v-2.59h-2v.36h-2v.71h-2v1.39h-2v2h-2V49.33h-2v3.16h-2v6.942h-2v.558h-2V51.55h-2v-2.8h-2v13.148h-2v-6.77h-2v-.308h-2v2.57h-2v-9.91h-2v5.21h-2v-.87h-2v4.46h-2v-1.358h-2V48.06h-2v2.01h-2v1.24h-2v.56h-2v.67h-2V48.42h-2v2.726h-2v3.442h-2v-.2h-2v1.72h-2V54.17h-2v.098h-2v-1.348h-2v1.457h-2v2.19h-2v-2.968h-2v1.07h-2v-3.62h-2v5.75h-2v-1.224h-2V54.02h-2v-2.08h-2v.87h-2v1.042h-2v2.597h-2v-5.56h-2v6.49h-2v-6.13h-2v5.5h-2v-1.66h-2v.012h-2v-.46h-2v-1.083h-2v-1.732h-2v3.113h-2v-.39h-2V50.8h-2v2.08h-2v.37h-2v-1.59h-2v.262h-2V50.48h-2v.668h-2v.332h-2v.442h-2v-.492h-2v2.02h-2V57h-2v-8.89h-2v4.93h-2v-3.2h-2v.988h-2v-2.72h-2v8.43h-2v-1.667h-2v-5.4h-2V47.92h-2v7.558h-2v-3.43h-2v.848h-2v2.46h-2V53.75h-2v-.512h-2v-.84h-2v-1.7h-2v6.04h-2V50.84h-2v-.23h-2v3.95h-2v-3.6h-2v1.712h-2v-1.89h-2v.288h-2v3.442h-2v-2.16h-2v1.57h-2v-.762h-2v.09h-2v.2h-2v-4.14h-2v6.018h-2V49.18h-2v7h-2v-4.04h-2v-3.02h-2v-1.26h-2v6.08h-2v3.01h-2v-1.22h-2v-1.902h-2V50.82h-2v2.71h-2v4.822h-2v-5.954h-2v1.512h-2v-.6h-2v1.268h-2v3.71h-2v-3.05h-2v-1.86h-2v1.41h-2v3.923h-2v-5.64h-2v.918h-2v-3.316h-2v6.656h-2V47.68h-2v5.04h-2v11.75h-2v-6.09h-2v-2.27h-2v.878h-2v-5.7h-2v4.34h-2v.493h-2V52.5h-2v1.31h-2v-1.26h-2v2.4h-2v-1.4h-2v4.372h-2v3.027h-2v-7.02h-2v.76h-2v9.982h-2v-9.71h-2v3.788h-2v-3.422h-2V53.96h-2v-1.34h-2v2.83h-2v-5.24h-2v4.73h-2v2.28h-2v-4.33h-2V67.24h-2V56.172h-2v-2.53h-2v-1.263h-2v4.15h-2v1.6h-2v-3.27h-2v3.2zm0 0" fill="#48C4EC" fill-opacity=".627"/><g clip-path="url(#a)"><path d="M67 58.262h1V55.06h2v3.268h2V56.73h2v-4.152h2v1.262h2v2.53h2v11.07h2V53.09h2v4.332h2v-2.28h2V50.41h2v5.238h2V52.82h2v1.34h2v1.37h2v3.42h2v-3.79h2v9.71h2v-9.98h2v-.76h2v7.018h2V58.12h2v-4.37h2v1.398h2V52.75h2v1.262h2V52.7h2v3.62h2v-.492h2v-4.34h2v5.703h2v-.88h2v2.268h2v6.094h2v-11.75h2V47.88h2v9.65h2v-6.66h2v3.32h2v-.92h2v5.64h2v-3.922h2v-1.41h2v1.863h2v3.048h2V54.78h2v-1.268h2v.597h2V52.6h2v5.95h2V53.73h2v-2.71h2v3.01h2v1.9h2v1.218h2V54.14h2v-6.08h2v1.26h2v3.02h2v4.04h2v-7h2v6.15h2v-6.018h2v4.136h2v-.2h2v-.09h2v.763h2v-1.57h2v2.16h2v-3.44h2v-.29h2v1.89h2v-1.71h2v3.602h2V50.81h2v.23h2v5.9h2V50.9h2v1.704h2v.84h2v.507h2v1.61h2V53.1h2v-.852h2v3.43h2v-7.56h2v1.552h2v5.398h2v1.668h2v-8.43h2v2.723h2v-.99h2v3.198h2v-4.93h2v8.89h2v-3.55h2v-2.02h2v.493h2v-.44h2v-.328h2v-.672h2v1.44h2v-.26h2v1.59h2v-.372h2V51h2v3.75h2v.39h2v-3.11h2v1.732h2v1.078h2v.46h2v-.01h2v1.66h2v-5.5h2v6.128h2V51.09h2v5.558h2V54.05h2v-1.038h2v-.87h2v2.077h2v1.56h2V57h2v-5.75h2v3.62h2V53.8h2v2.97h2v-2.192h2V53.12h2v1.35h2v-.1h2v1.94h2v-1.72h2v.2h2V51.35h2v-2.73h2v4.116h2v-.668h2v-.558h2V50.27h2v-2.008h2v6.86h2v1.358h2v-4.46h2v.87h2v-5.21h2v9.91h2v-2.57h2v.308h2v6.774h2V48.95h2v2.8h2v8.44h2v-.56h2v-6.94h2v-3.16h2v6.2h2v-2h2v-1.39h2v-.71h2v-.36h2v2.59h2V51.8h2v2.06h2v2.402h2V54.98h2v2.49h2v.56h2V53.3h2v1.438h2v-3.41h2v-.137h2v3.232h2v-.133h2v.23h2v-9.89h2v10.448h2v-2.11h2v-.257h2v-1.788h2v.637h2v3.57h2v-4.6h2v2.28h2v-2.77h2v3.64h2v1.59h2v-2.96h2v-2.88h2v4.832h2v-.46h2v2.057h2v-3.532h2v-1.406h2V48.63h2v-.392h2v4.55h2v-2.597h2v5.34h2v-4.49h2v2.58h2V55.9h2v.762h2v-3.37h2v-.77h2v-3.74h2v6.048h2V52.41h2v-2.23h2v5.992h2v-2.37h2V48.18h2v5.7h2v-.07h2v.088h2v1.532h2v-3.62h2v-.42h2v3.23h2v-3.75h2v4.32h2v-3.15h2v.42h2v1.66h2v-2.3h2v1.06h2v-.41h2v.018h2v.563h2v1.67h2v-4.13h2v2.52h2v-2.32h2v4.108h2v-4.09h2v5.18h2v5h2v-4.95h2v-1.847h2v-.92h2v1.14h2v.03h2v1.732h2v-2.73h2v2.296h2v1.14h2V54.02h2v-.9h2v4.52h2v2.82h2v-5.18h2v-.37h2v-2.77h2v-1.28h2V63.01h2V56.13h2v-1.11h2v.69h2v4.712h2V55.59h2v-1.828h2v.09h2V52.84h2v-1.07h2v.37h2v-.968h2V49.98h2v6.21h2v-1.71h2v-.61h2v1.57h2v-.24h2v-.06h2v-2.18h2v-3.17h2v-.6h2v.458h2v.18h2V47.3h2v2.98h2v1.61h2v-.39h2v-1.23h2v-3.32h2v3.62h2v-1.2h2v-1.25h2v3.45h2v-1.922h2v4.82h2v-7.25h2v5.204h2v.277h2v4.472h2V55.22h2V44.92h2v10h2v-2.37h2" fill="none" stroke-linecap="round" stroke-linejoin="round" stroke="#1598C3" stroke-miterlimit="10"/></g><path d="M87 31v2M87 233v2" fill="none" stroke-width=".4" stroke="#8F8F8F" stroke-opacity=".75" stroke-miterlimit="10"/><path d="M87 234V32" fill="none" stroke-width=".4" stroke="#8F8F8F" stroke-opacity=".75" stroke-dasharray="1,1" stroke-miterlimit="10"/><path d="M107 31v2M107 233v2" fill="none" stroke-width=".4" stroke="#8F8F8F" stroke-opacity=".75" stroke-miterlimit="10"/><path d="M107 234V32" fill="none" stroke-width=".4" stroke="#8F8F8F" stroke-opacity=".75" stroke-dasharray="1,1" stroke-miterlimit="10"/><path d="M127 31v2M127 233v2" fill="none" stroke-width=".4" stroke="#8F8F8F" stroke-opacity=".75" stroke-miterlimit="10"/><path d="M127 234V32" fill="none" stroke-width=".4" stroke="#8F8F8F" stroke-opacity=".75" stroke-dasharray="1,1" stroke-miterlimit="10"/><path d="M147 31v2M147 233v2" fill="none" stroke-width=".4" stroke="#8F8F8F" stroke-opacity=".75" stroke-miterlimit="10"/><path d="M147 234V32" fill="none" stroke-width=".4" stroke="#8F8F8F" stroke-opacity=".75" stroke-dasharray="1,1" stroke-miterlimit="10"/><path d="M167 31v2M167 233v2" fill="none" stroke-width=".4" stroke="#8F8F8F" stroke-opacity=".75" stroke-miterlimit="10"/><path d="M167 234V32" fill="none" stroke-width=".4" stroke="#8F8F8F" stroke-opacity=".75" stroke-dasharray="1,1" stroke-miterlimit="10"/><path d="M207 31v2M207 233v2" fill="none" stroke-width=".4" stroke="#8F8F8F" stroke-opacity=".75" stroke-miterlimit="10"/><path d="M207 234V32" fill="none" stroke-width=".4" stroke="#8F8F8F" stroke-opacity=".75" stroke-dasharray="1,1" stroke-miterlimit="10"/><path d="M227 31v2M227 233v2" fill="none" stroke-width=".4" stroke="#8F8F8F" stroke-opacity=".75" stroke-miterlimit="10"/><path d="M227 234V32" fill="none" stroke-width=".4" stroke="#8F8F8F" stroke-opacity=".75" stroke-dasharray="1,1" stroke-miterlimit="10"/><path d="M247 31v2M247 233v2" fill="none" stroke-width=".4" stroke="#8F8F8F" stroke-opacity=".75" stroke-miterlimit="10"/><path d="M247 234V32" fill="none" stroke-width=".4" stroke="#8F8F8F" stroke-opacity=".75" stroke-dasharray="1,1" stroke-miterlimit="10"/><path d="M267 31v2M267 233v2" fill="none" stroke-width=".4" stroke="#8F8F8F" stroke-opacity=".75" stroke-miterlimit="10"/><path d="M267 234V32" fill="none" stroke-width=".4" stroke="#8F8F8F" stroke-opacity=".75" stroke-dasharray="1,1" stroke-miterlimit="10"/><path d="M287 31v2M287 233v2" fill="none" stroke-width=".4" stroke="#8F8F8F" stroke-opacity=".75" stroke-miterlimit="10"/><path d="M287 234V32" fill="none" stroke-width=".4" stroke="#8F8F8F" stroke-opacity=".75" stroke-dasharray="1,1" stroke-miterlimit="10"/><path d="M327 31v2M327 233v2" fill="none" stroke-width=".4" stroke="#8F8F8F" stroke-opacity=".75" stroke-miterlimit="10"/><path d="M327 234V32" fill="none" stroke-width=".4" stroke="#8F8F8F" stroke-opacity=".75" stroke-dasharray="1,1" stroke-miterlimit="10"/><path d="M347 31v2M347 233v2" fill="none" stroke-width=".4" stroke="#8F8F8F" stroke-opacity=".75" stroke-miterlimit="10"/><path d="M347 234V32" fill="none" stroke-width=".4" stroke="#8F8F8F" stroke-opacity=".75" stroke-dasharray="1,1" stroke-miterlimit="10"/><path d="M367 31v2M367 233v2" fill="none" stroke-width=".4" stroke="#8F8F8F" stroke-opacity=".75" stroke-miterlimit="10"/><path d="M367 234V32" fill="none" stroke-width=".4" stroke="#8F8F8F" stroke-opacity=".75" stroke-dasharray="1,1" stroke-miterlimit="10"/><path d="M387 31v2M387 233v2" fill="none" stroke-width=".4" stroke="#8F8F8F" stroke-opacity=".75" stroke-miterlimit="10"/><path d="M387 234V32" fill="none" stroke-width=".4" stroke="#8F8F8F" stroke-opacity=".75" stroke-dasharray="1,1" stroke-miterlimit="10"/><path d="M407 31v2M407 233v2" fill="none" stroke-width=".4" stroke="#8F8F8F" stroke-opacity=".75" stroke-miterlimit="10"/><path d="M407 234V32" fill="none" stroke-width=".4" stroke="#8F8F8F" stroke-opacity=".75" stroke-dasharray="1,1" stroke-miterlimit="10"/><path d="M447 31v2M447 233v2" fill="none" stroke-width=".4" stroke="#8F8F8F" stroke-opacity=".75" stroke-miterlimit="10"/><path d="M447 234V32" fill="none" stroke-width=".4" stroke="#8F8F8F" stroke-opacity=".75" stroke-dasharray="1,1" stroke-miterlimit="10"/><path d="M467 31v2M467 233v2" fill="none" stroke-width=".4" stroke="#8F8F8F" stroke-opacity=".75" stroke-miterlimit="10"/><path d="M467 234V32" fill="none" stroke-width=".4" stroke="#8F8F8F" stroke-opacity=".75" stroke-dasharray="1,1" stroke-miterlimit="10"/><path d="M487 31v2M487 233v2" fill="none" stroke-width=".4" stroke="#8F8F8F" stroke-opacity=".75" stroke-miterlimit="10"/><path d="M487 234V32" fill="none" stroke-width=".4" stroke="#8F8F8F" stroke-opacity=".75" stroke-dasharray="1,1" stroke-miterlimit="10"/><path d="M507 31v2M507 233v2" fill="none" stroke-width=".4" stroke="#8F8F8F" stroke-opacity=".75" stroke-miterlimit="10"/><path d="M507 234V32" fill="none" stroke-width=".4" stroke="#8F8F8F" stroke-opacity=".75" stroke-dasharray="1,1" stroke-miterlimit="10"/><path d="M527 31v2M527 233v2" fill="none" stroke-width=".4" stroke="#8F8F8F" stroke-opacity=".75" stroke-miterlimit="10"/><path d="M527 234V32" fill="none" stroke-width=".4" stroke="#8F8F8F" stroke-opacity=".75" stroke-dasharray="1,1" stroke-miterlimit="10"/><path d="M567 31v2M567 233v2" fill="none" stroke-width=".4" stroke="#8F8F8F" stroke-opacity=".75" stroke-miterlimit="10"/><path d="M567 234V32" fill="none" stroke-width=".4" stroke="#8F8F8F" stroke-opacity=".75" stroke-dasharray="1,1" stroke-miterlimit="10"/><path d="M587 31v2M587 233v2" fill="none" stroke-width=".4" stroke="#8F8F8F" stroke-opacity=".75" stroke-miterlimit="10"/><path d="M587 234V32" fill="none" stroke-width=".4" stroke="#8F8F8F" stroke-opacity=".75" stroke-dasharray="1,1" stroke-miterlimit="10"/><path d="M607 31v2M607 233v2" fill="none" stroke-width=".4" stroke="#8F8F8F" stroke-opacity=".75" stroke-miterlimit="10"/><path d="M607 234V32" fill="none" stroke-width=".4" stroke="#8F8F8F" stroke-opacity=".75" stroke-dasharray="1,1" stroke-miterlimit="10"/><path d="M627 31v2M627 233v2" fill="none" stroke-width=".4" stroke="#8F8F8F" stroke-opacity=".75" stroke-miterlimit="10"/><path d="M627 234V32" fill="none" stroke-width=".4" stroke="#8F8F8F" stroke-opacity=".75" stroke-dasharray="1,1" stroke-miterlimit="10"/><path d="M647 31v2M647 233v2" fill="none" stroke-width=".4" stroke="#8F8F8F" stroke-opacity=".75" stroke-miterlimit="10"/><path d="M647 234V32" fill="none" stroke-width=".4" stroke="#8F8F8F" stroke-opacity=".75" stroke-dasharray="1,1" stroke-miterlimit="10"/><path d="M67 31v2M67 233v3" fill="none" stroke-width=".6" stroke="#DE4F4F" stroke-opacity=".6" stroke-miterlimit="10"/><path d="M67 236V31" fill="none" stroke-width=".6" stroke="#DE4F4F" stroke-opacity=".6" stroke-dasharray="1,1" stroke-miterlimit="10"/><path d="M187 31v2M187 233v3" fill="none" stroke-width=".6" stroke="#DE4F4F" stroke-opacity=".6" stroke-miterlimit="10"/><path d="M187 236V31" fill="none" stroke-width=".6" stroke="#DE4F4F" stroke-opacity=".6" stroke-dasharray="1,1" stroke-miterlimit="10"/><path d="M307 31v2M307 233v3" fill="none" stroke-width=".6" stroke="#DE4F4F" stroke-opacity=".6" stroke-miterlimit="10"/><path d="M307 236V31" fill="none" stroke-width=".6" stroke="#DE4F4F" stroke-opacity=".6" stroke-dasharray="1,1" stroke-miterlimit="10"/><path d="M427 31v2M427 233v3" fill="none" stroke-width=".6" stroke="#DE4F4F" stroke-opacity=".6" stroke-miterlimit="10"/><path d="M427 236V31" fill="none" stroke-width=".6" stroke="#DE4F4F" stroke-opacity=".6" stroke-dasharray="1,1" stroke-miterlimit="10"/><path d="M547 31v2M547 233v3" fill="none" stroke-width=".6" stroke="#DE4F4F" stroke-opacity=".6" stroke-miterlimit="10"/><path d="M547 236V31" fill="none" stroke-width=".6" stroke="#DE4F4F" stroke-opacity=".6" stroke-dasharray="1,1" stroke-miterlimit="10"/><use xlink:href="#b" x="54" y="243.221"/><use xlink:href="#b" x="59.346" y="243.221"/><use xlink:href="#c" x="64.691" y="243.221"/><use xlink:href="#b" x="70.037" y="243.221"/><use xlink:href="#b" x="75.383" y="243.221"/><use xlink:href="#b" x="174" y="243.221"/><use xlink:href="#b" x="179.346" y="243.221"/><use xlink:href="#c" x="184.691" y="243.221"/><use xlink:href="#b" x="190.037" y="243.221"/><use xlink:href="#d" x="195.383" y="243.221"/><use xlink:href="#b" x="294" y="243.221"/><use xlink:href="#b" x="299.346" y="243.221"/><use xlink:href="#c" x="304.691" y="243.221"/><use xlink:href="#b" x="310.037" y="243.221"/><use xlink:href="#e" x="315.383" y="243.221"/><use xlink:href="#b" x="414" y="243.221"/><use xlink:href="#b" x="419.346" y="243.221"/><use xlink:href="#c" x="424.691" y="243.221"/><use xlink:href="#b" x="430.037" y="243.221"/><use xlink:href="#f" x="435.383" y="243.221"/><use xlink:href="#b" x="534" y="243.221"/><use xlink:href="#b" x="539.346" y="243.221"/><use xlink:href="#c" x="544.691" y="243.221"/><use xlink:href="#b" x="550.037" y="243.221"/><use xlink:href="#g" x="555.383" y="243.221"/><use xlink:href="#b" x="654" y="243.221"/><use xlink:href="#b" x="659.346" y="243.221"/><use xlink:href="#c" x="664.691" y="243.221"/><use xlink:href="#b" x="670.037" y="243.221"/><use xlink:href="#h" x="675.383" y="243.221"/><use xlink:href="#i" x="38" y="235.221"/><use xlink:href="#d" x="43.346" y="235.221"/><use xlink:href="#j" x="48.691" y="235.221"/><use xlink:href="#b" x="54.037" y="235.221"/><path d="M65 233h2M667 233h2" fill="none" stroke-width=".6" stroke="#DE4F4F" stroke-opacity=".6" stroke-miterlimit="10"/><path d="M65 233h604" fill="none" stroke-width=".6" stroke="#DE4F4F" stroke-opacity=".6" stroke-dasharray="1,1" stroke-miterlimit="10"/><path d="M65 223h2M667 223h2" fill="none" stroke-width=".4" stroke="#8F8F8F" stroke-opacity=".75" stroke-miterlimit="10"/><path d="M66 223h602" fill="none" stroke-width=".4" stroke="#8F8F8F" stroke-opacity=".75" stroke-dasharray="1,1" stroke-miterlimit="10"/><use xlink:href="#i" x="38" y="215.221"/><use xlink:href="#b" x="43.346" y="215.221"/><use xlink:href="#j" x="48.691" y="215.221"/><use xlink:href="#k" x="54.037" y="215.221"/><path d="M65 213h2M667 213h2" fill="none" stroke-width=".6" stroke="#DE4F4F" stroke-opacity=".6" stroke-miterlimit="10"/><path d="M65 213h604" fill="none" stroke-width=".6" stroke="#DE4F4F" stroke-opacity=".6" stroke-dasharray="1,1" stroke-miterlimit="10"/><path d="M65 203h2M667 203h2" fill="none" stroke-width=".4" stroke="#8F8F8F" stroke-opacity=".75" stroke-miterlimit="10"/><path d="M66 203h602" fill="none" stroke-width=".4" stroke="#8F8F8F" stroke-opacity=".75" stroke-dasharray="1,1" stroke-miterlimit="10"/><use xlink:href="#i" x="38" y="195.221"/><use xlink:href="#b" x="43.346" y="195.221"/><use xlink:href="#j" x="48.691" y="195.221"/><use xlink:href="#l" x="54.037" y="195.221"/><path d="M65 193h2M667 193h2" fill="none" stroke-width=".6" stroke="#DE4F4F" stroke-opacity=".6" stroke-miterlimit="10"/><path d="M65 193h604" fill="none" stroke-width=".6" stroke="#DE4F4F" stroke-opacity=".6" stroke-dasharray="1,1" stroke-miterlimit="10"/><path d="M65 183h2M667 183h2" fill="none" stroke-width=".4" stroke="#8F8F8F" stroke-opacity=".75" stroke-miterlimit="10"/><path d="M66 183h602" fill="none" stroke-width=".4" stroke="#8F8F8F" stroke-opacity=".75" stroke-dasharray="1,1" stroke-miterlimit="10"/><use xlink:href="#i" x="38" y="175.221"/><use xlink:href="#b" x="43.346" y="175.221"/><use xlink:href="#j" x="48.691" y="175.221"/><use xlink:href="#g" x="54.037" y="175.221"/><path d="M65 173h2M667 173h2" fill="none" stroke-width=".6" stroke="#DE4F4F" stroke-opacity=".6" stroke-miterlimit="10"/><path d="M65 173h604" fill="none" stroke-width=".6" stroke="#DE4F4F" stroke-opacity=".6" stroke-dasharray="1,1" stroke-miterlimit="10"/><path d="M65 163h2M667 163h2" fill="none" stroke-width=".4" stroke="#8F8F8F" stroke-opacity=".75" stroke-miterlimit="10"/><path d="M66 163h602" fill="none" stroke-width=".4" stroke="#8F8F8F" stroke-opacity=".75" stroke-dasharray="1,1" stroke-miterlimit="10"/><use xlink:href="#i" x="38" y="155.221"/><use xlink:href="#b" x="43.346" y="155.221"/><use xlink:href="#j" x="48.691" y="155.221"/><use xlink:href="#e" x="54.037" y="155.221"/><path d="M65 153h2M667 153h2" fill="none" stroke-width=".6" stroke="#DE4F4F" stroke-opacity=".6" stroke-miterlimit="10"/><path d="M65 153h604" fill="none" stroke-width=".6" stroke="#DE4F4F" stroke-opacity=".6" stroke-dasharray="1,1" stroke-miterlimit="10"/><path d="M65 143h2M667 143h2" fill="none" stroke-width=".4" stroke="#8F8F8F" stroke-opacity=".75" stroke-miterlimit="10"/><path d="M66 143h602" fill="none" stroke-width=".4" stroke="#8F8F8F" stroke-opacity=".75" stroke-dasharray="1,1" stroke-miterlimit="10"/><use xlink:href="#m" x="38" y="135.221"/><use xlink:href="#b" x="43.346" y="135.221"/><use xlink:href="#j" x="48.691" y="135.221"/><use xlink:href="#b" x="54.037" y="135.221"/><path d="M65 133h2M667 133h2" fill="none" stroke-width=".6" stroke="#DE4F4F" stroke-opacity=".6" stroke-miterlimit="10"/><path d="M65 133h604" fill="none" stroke-width=".6" stroke="#DE4F4F" stroke-opacity=".6" stroke-dasharray="1,1" stroke-miterlimit="10"/><path d="M65 123h2M667 123h2" fill="none" stroke-width=".4" stroke="#8F8F8F" stroke-opacity=".75" stroke-miterlimit="10"/><path d="M66 123h602" fill="none" stroke-width=".4" stroke="#8F8F8F" stroke-opacity=".75" stroke-dasharray="1,1" stroke-miterlimit="10"/><use xlink:href="#m" x="38" y="115.221"/><use xlink:href="#b" x="43.346" y="115.221"/><use xlink:href="#j" x="48.691" y="115.221"/><use xlink:href="#e" x="54.037" y="115.221"/><path d="M65 113h2M667 113h2" fill="none" stroke-width=".6" stroke="#DE4F4F" stroke-opacity=".6" stroke-miterlimit="10"/><path d="M65 113h604" fill="none" stroke-width=".6" stroke="#DE4F4F" stroke-opacity=".6" stroke-dasharray="1,1" stroke-miterlimit="10"/><path d="M65 103h2M667 103h2" fill="none" stroke-width=".4" stroke="#8F8F8F" stroke-opacity=".75" stroke-miterlimit="10"/><path d="M66 103h602" fill="none" stroke-width=".4" stroke="#8F8F8F" stroke-opacity=".75" stroke-dasharray="1,1" stroke-miterlimit="10"/><g><use xlink:href="#m" x="38" y="95.221"/><use xlink:href="#b" x="43.346" y="95.221"/><use xlink:href="#j" x="48.691" y="95.221"/><use xlink:href="#g" x="54.037" y="95.221"/></g><path d="M65 93h2M667 93h2" fill="none" stroke-width=".6" stroke="#DE4F4F" stroke-opacity=".6" stroke-miterlimit="10"/><path d="M65 93h604" fill="none" stroke-width=".6" stroke="#DE4F4F" stroke-opacity=".6" stroke-dasharray="1,1" stroke-miterlimit="10"/><path d="M65 83h2M667 83h2" fill="none" stroke-width=".4" stroke="#8F8F8F" stroke-opacity=".75" stroke-miterlimit="10"/><path d="M66 83h602" fill="none" stroke-width=".4" stroke="#8F8F8F" stroke-opacity=".75" stroke-dasharray="1,1" stroke-miterlimit="10"/><g><use xlink:href="#m" x="38" y="75.221"/><use xlink:href="#b" x="43.346" y="75.221"/><use xlink:href="#j" x="48.691" y="75.221"/><use xlink:href="#l" x="54.037" y="75.221"/></g><path d="M65 73h2M667 73h2" fill="none" stroke-width=".6" stroke="#DE4F4F" stroke-opacity=".6" stroke-miterlimit="10"/><path d="M65 73h604" fill="none" stroke-width=".6" stroke="#DE4F4F" stroke-opacity=".6" stroke-dasharray="1,1" stroke-miterlimit="10"/><path d="M65 63h2M667 63h2" fill="none" stroke-width=".4" stroke="#8F8F8F" stroke-opacity=".75" stroke-miterlimit="10"/><path d="M66 63h602" fill="none" stroke-width=".4" stroke="#8F8F8F" stroke-opacity=".75" stroke-dasharray="1,1" stroke-miterlimit="10"/><g><use xlink:href="#m" x="38" y="55.221"/><use xlink:href="#b" x="43.346" y="55.221"/><use xlink:href="#j" x="48.691" y="55.221"/><use xlink:href="#k" x="54.037" y="55.221"/></g><path d="M65 53h2M667 53h2" fill="none" stroke-width=".6" stroke="#DE4F4F" stroke-opacity=".6" stroke-miterlimit="10"/><path d="M65 53h604" fill="none" stroke-width=".6" stroke="#DE4F4F" stroke-opacity=".6" stroke-dasharray="1,1" stroke-miterlimit="10"/><path d="M65 43h2M667 43h2" fill="none" stroke-width=".4" stroke="#8F8F8F" stroke-opacity=".75" stroke-miterlimit="10"/><path d="M66 43h602" fill="none" stroke-width=".4" stroke="#8F8F8F" stroke-opacity=".75" stroke-dasharray="1,1" stroke-miterlimit="10"/><g><use xlink:href="#m" x="38" y="35.221"/><use xlink:href="#d" x="43.346" y="35.221"/><use xlink:href="#j" x="48.691" y="35.221"/><use xlink:href="#b" x="54.037" y="35.221"/></g><path d="M65 33h2M667 33h2" fill="none" stroke-width=".6" stroke="#DE4F4F" stroke-opacity=".6" stroke-miterlimit="10"/><path d="M65 33h604" fill="none" stroke-width=".6" stroke="#DE4F4F" stroke-opacity=".6" stroke-dasharray="1,1" stroke-miterlimit="10"/><g><use xlink:href="#n" x="12.252" y="179"/><use xlink:href="#o" x="12.252" y="172.891"/><use xlink:href="#p" x="12.252" y="166.781"/><use xlink:href="#q" x="12.252" y="160.672"/><use xlink:href="#r" x="12.252" y="154.563"/><use xlink:href="#s" x="12.252" y="148.453"/><use xlink:href="#t" x="12.252" y="142.344"/><use xlink:href="#q" x="12.252" y="136.234"/><use xlink:href="#u" x="12.252" y="130.125"/><use xlink:href="#v" x="12.252" y="124.016"/><use xlink:href="#s" x="12.252" y="117.906"/><use xlink:href="#n" x="12.252" y="111.797"/><use xlink:href="#w" x="12.252" y="105.688"/><use xlink:href="#x" x="12.252" y="99.578"/><use xlink:href="#q" x="12.252" y="93.469"/></g><g><use xlink:href="#y" x="266" y="15.283"/><use xlink:href="#z" x="272.873" y="15.283"/><use xlink:href="#A" x="279.746" y="15.283"/><use xlink:href="#B" x="286.619" y="15.283"/><use xlink:href="#z" x="293.492" y="15.283"/><use xlink:href="#C" x="300.365" y="15.283"/><use xlink:href="#D" x="307.238" y="15.283"/><use xlink:href="#E" x="314.111" y="15.283"/><use xlink:href="#F" x="320.984" y="15.283"/><use xlink:href="#G" x="327.857" y="15.283"/><use xlink:href="#F" x="334.73" y="15.283"/><use xlink:href="#G" x="341.604" y="15.283"/><use xlink:href="#D" x="348.477" y="15.283"/><use xlink:href="#H" x="355.35" y="15.283"/><use xlink:href="#y" x="362.223" y="15.283"/><use xlink:href="#F" x="369.096" y="15.283"/><use xlink:href="#I" x="375.969" y="15.283"/><use xlink:href="#D" x="382.842" y="15.283"/><use xlink:href="#J" x="389.715" y="15.283"/><use xlink:href="#K" x="396.588" y="15.283"/><use xlink:href="#H" x="403.461" y="15.283"/><use xlink:href="#L" x="410.334" y="15.283"/><use xlink:href="#M" x="417.207" y="15.283"/><use xlink:href="#N" x="424.08" y="15.283"/></g><g><use xlink:href="#O" x="16" y="262.252"/><use xlink:href="#O" x="22.109" y="262.252"/><use xlink:href="#P" x="28.219" y="262.252"/><use xlink:href="#Q" x="34.328" y="262.252"/><use xlink:href="#Q" x="40.438" y="262.252"/><use xlink:href="#R" x="46.547" y="262.252"/><use xlink:href="#Q" x="52.656" y="262.252"/></g><path d="M16 254.238v8.403h8.398v-8.402zm0 0" fill="#F2F2F2"/><path d="M16 254.238v8.403h8.398v-8.402zm0 0" fill="#E60073" fill-opacity=".627"/><path d="M16 262.64h8.398v-8.402H16zm0 0" fill="none" stroke="#000" stroke-miterlimit="10"/><g><use xlink:href="#O" x="318" y="262.252"/><use xlink:href="#O" x="324.109" y="262.252"/><use xlink:href="#O" x="330.219" y="262.252"/><use xlink:href="#S" x="336.328" y="262.252"/><use xlink:href="#R" x="342.438" y="262.252"/><use xlink:href="#Q" x="348.547" y="262.252"/><use xlink:href="#T" x="354.656" y="262.252"/><use xlink:href="#U" x="360.766" y="262.252"/><use xlink:href="#V" x="366.875" y="262.252"/></g><path d="M318 254.238v8.403h8.398v-8.402zm0 0" fill="#F2F2F2"/><path d="M318 254.238v8.403h8.398v-8.402zm0 0" fill="#48C4EC" fill-opacity=".627"/><path d="M318 262.64h8.398v-8.402H318zm0 0" fill="none" stroke="#000" stroke-miterlimit="10"/><g><use xlink:href="#O" x="632" y="262.252"/><use xlink:href="#O" x="638.109" y="262.252"/><use xlink:href="#O" x="644.219" y="262.252"/><use xlink:href="#W" x="650.328" y="262.252"/><use xlink:href="#X" x="656.438" y="262.252"/><use xlink:href="#Q" x="662.547" y="262.252"/><use xlink:href="#Y" x="668.656" y="262.252"/><use xlink:href="#Z" x="674.766" y="262.252"/></g><path d="M632 254.238v8.403h8.398v-8.402zm0 0" fill="#F2F2F2"/><path d="M632 254.238v8.403h8.398v-8.402zm0 0" fill="#54EC48" fill-opacity=".627"/><path d="M632 262.64h8.398v-8.402H632zm0 0" fill="none" stroke="#000" stroke-miterlimit="10"/><path d="M63 233h608M67 237V29" fill="none" stroke-width=".6" stroke="#1F1F1F" stroke-miterlimit="10"/><path d="M669 230v6l5-3zm0 0M64 31h6l-3-5zm0 0" fill="#7F1F1F"/><path d="M67 133h600" fill="none" stroke="#000" stroke-dasharray="3,5" stroke-dashoffset="5" stroke-miterlimit="10"/></svg>