<svg xmlns="http://www.w3.org/2000/svg" xmlns:xlink="http://www.w3.org/1999/xlink" viewBox="0 0 697 273"><defs><symbol overflow="visible" id="a"><path d="M4.93-3.102c0 .477-.05.91-.145 1.3-.094.392-.238.728-.433 1.005-.192.28-.43.5-.72.652-.284.153-.62.23-1.007.23-.332 0-.633-.062-.906-.187-.275-.125-.505-.316-.7-.578-.192-.257-.34-.59-.446-.992-.105-.402-.156-.88-.156-1.43 0-.472.047-.906.145-1.3.097-.39.242-.727.433-1.008.192-.28.43-.496.72-.65.288-.155.62-.23 1.003-.23.33 0 .635.063.91.188.268.125.503.317.694.58.196.26.344.592.446.995.105.402.16.875.16 1.425zm-.836.032c0-.11-.004-.215-.012-.32-.008-.106-.02-.212-.027-.313L1.43-1.75c.047.164.105.316.18.453.074.14.16.258.26.36.107.1.224.175.353.234.132.055.28.082.45.082.214 0 .41-.056.585-.157.176-.106.328-.262.45-.465.124-.207.218-.465.284-.77.067-.304.102-.656.102-1.058zm-2.84-.06v.294c.004.098.008.195.02.285l2.624-1.942c-.046-.16-.11-.31-.18-.442-.073-.132-.16-.246-.26-.343-.103-.098-.22-.172-.35-.227-.128-.05-.272-.078-.436-.078-.215 0-.41.05-.586.156s-.324.262-.45.47c-.12.206-.218.46-.284.765-.067.303-.098.66-.098 1.06zm0 0"/></symbol><symbol overflow="visible" id="b"><path d="M2.672-4.852c.098 0 .19.02.28.06.09.038.165.093.232.16.066.066.12.144.16.23.04.09.058.183.058.28 0 .102-.02.196-.058.282-.04.09-.09.164-.16.23-.067.067-.14.122-.23.157-.09.04-.184.058-.282.058-.102 0-.195-.02-.28-.058-.087-.035-.165-.09-.232-.156-.066-.066-.117-.14-.156-.23-.04-.086-.06-.18-.06-.28 0-.1.02-.192.06-.282.04-.086.09-.164.156-.23.067-.067.145-.122.23-.16.087-.04.18-.06.282-.06zm0 3.48c.098 0 .19.02.28.06.09.04.165.093.232.16.066.066.12.144.16.23.04.09.058.184.058.28 0 .103-.02.197-.058.283-.04.087-.09.165-.16.23-.067.068-.14.122-.23.157-.09.04-.184.06-.282.06-.102 0-.195-.02-.28-.06-.087-.04-.165-.09-.232-.156-.066-.065-.117-.14-.156-.23-.04-.085-.06-.18-.06-.28 0-.098.02-.192.06-.282.04-.09.09-.164.156-.23.067-.067.145-.12.23-.16.087-.04.18-.06.282-.06zm0 0"/></symbol><symbol overflow="visible" id="c"><path d="M4.734 0H.836v-.77H2.43v-4.527l-1.485.805-.304-.703 1.977-1.04h.73V-.77h1.387zm0 0"/></symbol><symbol overflow="visible" id="d"><path d="M4.785 0H.7v-.742l1.6-1.594c.266-.258.477-.484.645-.676.164-.187.29-.36.383-.52.09-.155.152-.304.184-.44.03-.14.047-.29.047-.454 0-.152-.02-.297-.06-.433-.043-.136-.105-.257-.19-.363-.087-.105-.197-.187-.333-.246-.137-.057-.3-.09-.49-.09-.26 0-.503.06-.717.177-.215.117-.41.27-.594.453l-.453-.543c.234-.246.504-.445.808-.593.306-.15.66-.223 1.068-.223.273 0 .523.04.75.122.226.082.422.203.59.356.164.156.29.347.378.57.09.226.137.48.137.762 0 .238-.03.457-.094.66-.063.203-.16.402-.29.605-.13.2-.29.406-.484.62-.195.216-.426.454-.69.712L1.77-.79h3.015zm0 0"/></symbol><symbol overflow="visible" id="e"><path d="M4.668-1.883c0 .27-.06.528-.168.766-.11.238-.277.445-.496.625-.223.18-.5.32-.836.422-.336.105-.727.156-1.176.156-.246 0-.465-.008-.664-.023C1.133.046.948.022.778 0v-.742c.195.035.406.062.624.082.22.02.442.027.668.027.31 0 .575-.027.793-.082.223-.055.403-.137.54-.238.14-.106.242-.23.304-.383.063-.148.094-.316.094-.5 0-.172-.034-.32-.112-.45-.075-.124-.18-.23-.32-.316-.138-.086-.302-.148-.493-.19-.19-.044-.402-.067-.63-.067H1.54v-.675h.714c.187 0 .36-.027.512-.074.152-.05.285-.12.394-.21.11-.094.192-.207.25-.34.06-.137.09-.29.09-.46 0-.333-.102-.575-.305-.724-.203-.152-.5-.23-.894-.23-.206 0-.42.02-.644.062-.222.043-.457.102-.71.184v-.72c.105-.038.222-.073.343-.1.12-.032.24-.06.366-.08.12-.018.242-.034.364-.045.117-.012.234-.016.343-.016.328 0 .62.036.87.106s.458.172.626.305c.167.134.292.298.378.485.086.192.13.407.13.64 0 .357-.09.653-.274.896-.18.243-.43.434-.746.575.16.023.32.074.476.152.156.074.297.172.422.293.125.117.227.258.305.418.08.16.118.34.118.54zm0 0"/></symbol><symbol overflow="visible" id="f"><path d="M5.094-1.37h-1.06V0h-.843v-1.37H.204V-2.1l2.645-4.105h1.187v4.105h1.06zM3.19-5.407L1.03-2.098h2.16zm0 0"/></symbol><symbol overflow="visible" id="g"><path d="M4.63-1.984c0 .308-.067.586-.2.84-.133.253-.317.472-.547.652-.235.183-.508.324-.824.426-.318.1-.662.152-1.03.152-.09 0-.19-.004-.296-.008-.105-.004-.21-.012-.316-.02L1.113.036C1.013.023.926.012.843 0v-.75c.173.043.368.07.587.09.222.02.445.027.668.027.254 0 .48-.027.683-.09.204-.058.376-.144.52-.257.14-.114.25-.25.33-.407.073-.16.112-.34.112-.54 0-.385-.14-.667-.418-.843-.277-.175-.672-.265-1.19-.265H.953v-3.168h3.343v.72H1.734v1.74h.54c.296 0 .585.028.87.083.282.055.532.148.75.28.22.138.4.317.532.544.136.227.203.508.203.852zm0 0"/></symbol><symbol overflow="visible" id="i"><path d="M5.047 0H3.91L1.69-2.555V0H.864v-6.707h.828v4.12l2.142-2.18h1.09l-2.234 2.2zm0 0"/></symbol><symbol overflow="visible" id="j"><path d="M4.86-1.965c0 .285-.05.55-.153.8-.102.25-.25.47-.437.653-.192.188-.422.332-.688.438-.266.105-.562.16-.89.16-.34 0-.645-.055-.907-.164-.262-.11-.484-.277-.66-.504C.95-.81.812-1.094.723-1.438.63-1.78.583-2.19.583-2.663c0-.316.022-.62.062-.922.042-.297.11-.574.207-.84.093-.26.218-.504.378-.72.157-.217.356-.405.59-.56.235-.157.516-.282.832-.368.32-.086.692-.13 1.114-.13h.613v.72h-.67c-.37 0-.69.046-.96.132-.273.09-.5.215-.684.375-.183.165-.324.356-.42.586-.1.226-.162.48-.19.76l-.018.196c.2-.117.43-.21.69-.28.263-.07.544-.106.85-.106.31 0 .588.043.823.136.235.09.43.22.59.383.157.163.274.355.352.585.078.227.117.477.117.75zm-.864.05c0-.187-.023-.358-.066-.515-.047-.152-.118-.28-.22-.386-.097-.106-.222-.192-.37-.247-.15-.058-.328-.09-.54-.09-.12 0-.24.012-.366.036-.122.02-.243.05-.364.09-.117.04-.23.086-.336.136-.11.05-.207.105-.296.16 0 .41.03.75.085 1.023.06.273.14.492.254.656.114.163.25.284.414.35.165.07.357.106.572.106.18 0 .347-.027.496-.086.152-.058.28-.144.39-.26.11-.115.196-.25.258-.415.063-.165.09-.348.09-.56zm0 0"/></symbol><symbol overflow="visible" id="k"><path d="M4.754-5.438L2.152 0h-.945l2.7-5.438H.554v-.765h4.2zm0 0"/></symbol><symbol overflow="visible" id="l"><path d="M4.785-1.56c0 .263-.055.498-.16.705-.11.203-.258.375-.453.51-.192.142-.418.247-.684.322-.26.074-.547.11-.85.11-.34 0-.642-.04-.9-.114-.258-.078-.472-.184-.644-.32C.918-.485.784-.646.7-.833.61-1.02.565-1.222.565-1.45c0-.378.106-.706.317-.98.21-.277.54-.527.984-.75-.406-.207-.703-.433-.89-.687C.79-4.117.7-4.407.7-4.734c0-.2.038-.39.12-.58.082-.186.207-.35.375-.498.164-.145.37-.262.62-.348.25-.086.548-.13.888-.13.32 0 .598.032.84.103.242.066.445.164.61.292.163.125.288.278.37.457.082.18.125.383.125.606 0 .36-.1.668-.3.922-.203.254-.49.473-.86.664.184.09.356.19.516.3.156.114.293.235.41.372.117.136.21.29.274.457.066.168.097.355.097.558zM3.8-4.765c0-.28-.097-.492-.292-.63-.2-.135-.477-.206-.836-.206-.356 0-.63.067-.828.204-.2.136-.297.34-.297.613 0 .125.023.238.07.34.047.105.12.203.223.297.097.09.222.18.37.27.15.09.33.18.532.27.36-.17.625-.34.8-.525.173-.183.26-.394.26-.633zm.087 3.27c0-.117-.02-.23-.055-.34-.04-.113-.105-.223-.203-.328-.1-.11-.232-.215-.396-.324-.164-.106-.375-.22-.63-.332-.213.105-.393.207-.542.312-.148.102-.265.207-.355.313-.09.105-.156.215-.19.328-.04.113-.06.234-.06.363 0 .14.03.266.094.375.063.11.145.204.255.278.105.08.234.133.383.172.148.04.312.06.484.06.168 0 .328-.02.476-.056.15-.035.278-.086.387-.156.11-.07.195-.164.258-.273.062-.11.094-.24.094-.39zm0 0"/></symbol><symbol overflow="visible" id="m"><path d="M4.754-3.453c0 .605-.074 1.125-.22 1.562-.147.433-.362.792-.647 1.07-.285.28-.637.488-1.06.62-.42.134-.905.2-1.456.2H.856v-.723h.575c.406 0 .76-.04 1.058-.12.297-.083.543-.204.742-.364.2-.16.348-.355.454-.586.105-.23.168-.492.195-.785l.018-.195c-.2.117-.43.21-.687.285-.26.07-.542.105-.847.105-.312 0-.586-.047-.824-.137-.24-.093-.435-.222-.595-.386-.156-.164-.273-.36-.35-.586-.08-.227-.118-.473-.118-.738 0-.29.05-.555.156-.805.1-.25.25-.47.437-.656.188-.185.414-.33.676-.44.262-.108.555-.16.87-.16.306 0 .59.052.853.153.26.102.483.262.675.49.19.225.34.518.445.88.11.36.164.798.164 1.314zm-2.176-2.16c-.176 0-.34.03-.492.09-.148.058-.28.144-.39.257-.11.11-.196.25-.258.414-.063.165-.094.352-.094.567 0 .19.023.363.07.515.043.153.117.282.21.387.1.106.224.188.376.246.152.055.332.086.54.086.116 0 .237-.013.362-.036s.246-.05.368-.09c.117-.04.23-.082.34-.133.105-.05.203-.104.288-.16 0-.41-.03-.75-.09-1.022-.062-.274-.148-.496-.26-.66-.114-.168-.255-.285-.415-.356-.164-.07-.348-.105-.555-.105zm0 0"/></symbol><symbol overflow="visible" id="n"><path d="M-5.445-1.09v-.863l1-.027c-.387-.32-.664-.64-.84-.954-.172-.312-.258-.628-.258-.945 0-.56.18-.99.547-1.284.363-.29.906-.426 1.625-.402v.953c-.478-.008-.82.058-1.036.21-.215.15-.324.372-.324.66 0 .126.023.255.066.384.047.13.117.258.22.395.096.137.225.277.38.43.158.152.345.316.564.488H0v.957zm0 0"/></symbol><symbol overflow="visible" id="o"><path d="M-3.012-5.47c.133 0 .246 0 .336.005.09.004.176.012.258.02v3.824c.555 0 .984-.157 1.28-.47.298-.308.45-.758.45-1.344 0-.16-.007-.32-.02-.476-.01-.16-.03-.317-.05-.46-.023-.15-.047-.294-.074-.427-.027-.137-.06-.262-.09-.38h.774c.074.26.132.548.18.872.042.325.066.66.066 1.008 0 .465-.063.867-.192 1.203-.125.336-.308.614-.55.828-.24.215-.536.375-.883.477-.348.103-.743.153-1.184.153-.384 0-.747-.054-1.09-.164-.34-.11-.64-.27-.9-.48-.26-.212-.464-.474-.616-.782-.153-.31-.227-.657-.227-1.047 0-.378.06-.714.176-1.007.12-.293.29-.54.508-.742.22-.2.485-.35.798-.452.312-.106.664-.157 1.05-.157zm-.136.982c-.243-.012-.46.015-.664.07-.2.06-.372.148-.516.27-.145.12-.258.273-.34.453-.082.18-.12.39-.12.63 0 .206.038.393.116.565.078.168.192.316.336.438.145.124.32.222.524.3.203.075.42.12.664.14zm0 0"/></symbol><symbol overflow="visible" id="p"><path d="M-2.61-.59c-.39 0-.76-.055-1.113-.156-.35-.102-.66-.262-.925-.477-.266-.214-.477-.492-.63-.828-.156-.337-.234-.74-.234-1.204 0-.183.016-.367.043-.55.03-.18.075-.372.138-.575l-.21-.835h7.765v.95H.168L-1-4.314C-.27-3.8.098-3.188.098-2.48c0 .32-.067.597-.196.832-.13.234-.316.43-.554.585-.24.16-.524.278-.856.356-.332.078-.7.117-1.1.117zm-.058-.97c.305 0 .574-.018.816-.065.243-.047.45-.113.618-.207.168-.09.296-.207.386-.348.09-.136.137-.3.137-.488 0-.238-.106-.492-.32-.758-.216-.265-.532-.547-.95-.84h-2.528c-.07.145-.125.31-.168.493-.043.183-.066.378-.066.582 0 .53.176.936.527 1.213.352.282.867.418 1.547.418zm0 0"/></symbol><symbol overflow="visible" id="q"><path d="M0-5.246v.848l-.88.03c.19.165.345.317.47.466.125.144.226.29.3.433.08.146.13.294.16.44.032.147.048.3.048.464 0 .562-.164.984-.493 1.27-.332.284-.828.43-1.492.43h-3.558v-.947h3.48c.836 0 1.254-.312 1.254-.945 0-.113-.017-.226-.052-.336-.035-.11-.093-.226-.18-.347-.085-.123-.2-.255-.343-.392-.145-.14-.328-.297-.547-.47h-3.613v-.944zm0 0"/></symbol><symbol overflow="visible" id="r"><path d="M-1.488-5.18c.19 0 .363.032.515.098.153.062.29.152.407.266.117.11.218.242.3.39.082.15.153.305.207.473.056.168.095.34.12.52.026.175.038.35.038.52 0 .37-.016.706-.047 1.018-.034.31-.085.61-.16.907h-.867c.09-.317.16-.633.207-.95.047-.312.07-.625.07-.937 0-.453-.062-.79-.183-1.004-.125-.218-.3-.323-.527-.323-.098 0-.188.016-.262.05-.078.036-.152.098-.223.188-.07.09-.144.23-.222.418-.074.192-.16.45-.258.78-.074.247-.156.474-.25.68-.09.208-.2.388-.328.54-.125.152-.274.274-.442.36-.17.085-.37.128-.605.128-.152 0-.316-.034-.496-.104-.184-.07-.352-.19-.508-.36-.156-.17-.28-.402-.387-.69-.102-.29-.153-.65-.153-1.083 0-.215.012-.453.035-.71.024-.263.063-.536.12-.817h.84c-.07.297-.124.578-.16.844-.034.265-.05.496-.05.69 0 .235.02.435.055.595.035.16.086.293.148.39.063.102.137.172.223.215.086.043.176.067.273.067.1 0 .19-.02.267-.06.078-.034.156-.104.23-.21.075-.102.15-.246.223-.43.074-.183.156-.425.242-.722.094-.32.192-.594.297-.813.1-.222.214-.402.343-.54.125-.136.27-.233.43-.292.156-.062.34-.09.54-.09zm0 0"/></symbol><symbol overflow="visible" id="s"><path d="M-.074-5.258c.054.215.09.434.113.664.022.227.034.457.034.692 0 .683-.152 1.195-.46 1.53-.31.337-.786.505-1.427.505h-2.843v1.523h-.79v-1.523h-1.5l-.242-.942h1.743v-2.448h.79v2.45h2.768c.39 0 .68-.106.875-.313.196-.208.29-.517.29-.923 0-.172-.012-.363-.04-.57-.027-.203-.07-.418-.13-.645zm0 0"/></symbol><symbol overflow="visible" id="u"><path d="M-2.82-5.523c.484 0 .906.066 1.27.203.36.136.66.324.898.562.238.238.418.52.54.848.116.324.178.676.178 1.055 0 .175-.01.347-.027.52-.02.17-.052.347-.095.522h2.278v.946h-7.668v-.844l.91-.06c-.37-.27-.633-.558-.785-.867-.15-.308-.223-.64-.223-1 0-.308.063-.582.195-.816.13-.234.313-.434.55-.594.236-.16.52-.277.857-.355.335-.082.706-.12 1.12-.12zm.043.964c-.285 0-.547.025-.79.064-.238.043-.44.11-.61.2-.17.09-.303.206-.4.347-.095.14-.142.31-.142.505 0 .12.02.242.056.363.04.125.1.25.19.383.09.134.208.27.353.42.147.143.327.303.546.467h2.64c.075-.17.13-.355.172-.546.043-.19.063-.378.063-.566 0-.508-.17-.91-.52-1.2-.343-.288-.862-.433-1.557-.433zm0 0"/></symbol><symbol overflow="visible" id="v"><path d="M-.2-5.102c.095.247.165.5.208.758.047.258.066.528.066.8 0 .86-.23 1.524-.7 1.99-.464.464-1.147.7-2.042.7-.43 0-.824-.072-1.172-.205-.35-.13-.652-.32-.902-.56-.25-.243-.442-.532-.578-.872-.137-.336-.203-.707-.203-1.11 0-.28.02-.546.058-.793.04-.246.106-.48.195-.707h.903c-.125.235-.21.477-.27.72-.054.245-.082.5-.082.757 0 .242.044.473.138.688.094.214.227.402.398.566.176.163.387.292.637.386.25.093.53.14.844.14.66 0 1.152-.16 1.48-.48.328-.32.49-.766.49-1.332 0-.258-.03-.508-.087-.746-.06-.243-.145-.473-.258-.7zm0 0"/></symbol><symbol overflow="visible" id="w"><path d="M-2.766-5.61c.422 0 .81.06 1.164.18.352.117.653.29.907.516.25.223.445.496.586.816C.028-3.773.1-3.41.1-3c0 .39-.063.742-.184 1.05-.12.31-.297.57-.53.786-.236.215-.53.38-.876.492-.348.113-.746.172-1.2.172-.42 0-.808-.06-1.156-.18-.35-.117-.652-.29-.902-.515-.25-.223-.445-.496-.586-.817-.14-.324-.207-.687-.207-1.097 0-.39.06-.738.18-1.05.12-.31.297-.57.53-.785.235-.215.524-.38.872-.492.347-.114.745-.172 1.194-.172zm.043.965c-.336 0-.632.04-.882.114-.25.073-.46.178-.63.315-.167.137-.296.305-.378.5-.086.2-.13.418-.13.66 0 .282.056.524.165.723.113.203.258.367.445.496.184.13.4.223.64.28.247.06.5.09.77.09.336 0 .63-.034.883-.108.254-.074.465-.184.633-.32.168-.137.293-.305.38-.5.085-.196.128-.415.128-.66 0-.282-.054-.524-.167-.723-.11-.203-.258-.368-.442-.496-.182-.13-.397-.223-.64-.282-.245-.058-.503-.09-.773-.09zm0 0"/></symbol><symbol overflow="visible" id="x"><path d="M-5.445-.867v-.844l.88-.036c-.19-.16-.35-.313-.474-.46-.124-.15-.222-.298-.3-.44-.074-.143-.13-.288-.16-.436-.03-.148-.043-.3-.043-.46 0-.56.164-.985.496-1.274.328-.286.828-.43 1.492-.43H0v.945h-3.477c-.425 0-.742.077-.95.237-.202.16-.303.395-.303.71 0 .115.015.228.05.337.035.114.094.227.18.348.086.117.2.246.344.387.144.14.324.296.543.467H0v.946zm0 0"/></symbol><symbol overflow="visible" id="y"><path d="M-2.61-.59c-.464 0-.874-.066-1.234-.19-.36-.126-.664-.306-.91-.54-.25-.235-.437-.516-.566-.84-.13-.328-.192-.695-.192-1.094 0-.176.012-.348.032-.516.023-.167.058-.332.105-.496h-2.293v-.95H0v.85l-1.03.03c.382.266.667.55.85.86.184.308.278.64.278.996 0 .312-.067.585-.196.824-.13.234-.312.433-.55.59-.24.156-.524.277-.856.355-.332.077-.7.12-1.105.12zm-.058-.97c.656 0 1.148-.092 1.473-.288.324-.19.484-.468.484-.82 0-.238-.106-.492-.32-.758-.216-.265-.532-.547-.95-.84h-2.528c-.074.157-.13.329-.168.516-.035.188-.054.375-.054.56 0 .514.164.913.5 1.202.332.29.85.43 1.562.43zm0 0"/></symbol><symbol overflow="visible" id="z"><path d="M5.738-.227c-.277.106-.562.184-.85.235-.294.05-.595.078-.904.078-.968 0-1.71-.262-2.234-.79-.523-.523-.785-1.288-.785-2.3 0-.484.074-.922.226-1.316.15-.395.36-.735.634-1.016.274-.28.598-.496.977-.648.38-.153.798-.23 1.255-.23.316 0 .613.023.89.07.278.042.54.117.793.218v1.012c-.265-.137-.535-.238-.808-.3-.274-.063-.56-.095-.852-.095-.273 0-.53.052-.773.154-.243.105-.453.254-.637.45-.184.194-.328.433-.434.714-.105.28-.16.597-.16.953 0 .743.18 1.294.543 1.665.36.367.86.55 1.496.55.29 0 .57-.03.84-.097.27-.066.53-.164.785-.293zm0 0"/></symbol><symbol overflow="visible" id="A"><path d="M6.313-3.113c0 .476-.07.914-.204 1.308-.133.4-.33.74-.58 1.02-.253.285-.56.504-.92.66C4.245.03 3.835.11 3.374.11c-.438 0-.832-.067-1.18-.204-.347-.136-.644-.336-.886-.6C1.065-.962.882-1.29.753-1.68c-.13-.39-.192-.84-.192-1.347 0-.477.067-.91.2-1.305.136-.39.328-.73.582-1.012.25-.28.558-.504.922-.66.36-.156.773-.234 1.23-.234.442 0 .836.07 1.184.203.347.137.64.336.883.6.242.263.43.587.554.978.13.39.196.84.196 1.344zm-1.086.05c0-.378-.043-.71-.13-.992-.08-.285-.2-.52-.355-.71-.156-.188-.344-.33-.562-.426-.223-.095-.473-.146-.742-.146-.317 0-.59.063-.817.188-.225.125-.41.29-.554.496-.144.207-.25.45-.316.726-.066.274-.102.563-.102.864 0 .378.043.707.125.992.082.285.204.523.356.71.155.192.343.333.56.43.22.094.47.14.748.14.316 0 .585-.058.812-.183.227-.125.41-.29.555-.5.144-.207.254-.445.32-.722.066-.274.102-.563.102-.868zm0 0"/></symbol><symbol overflow="visible" id="B"><path d="M6.652-6.13L5.762 0h-1.29L3.59-2.563l-.18-.624-.2.66L2.364 0H1.11L.226-6.13h1.035l.515 4.165.11.926.26-.808.892-2.754h.76l.962 2.715.273.813.09-.86.477-4.195zm0 0"/></symbol><symbol overflow="visible" id="C"><path d="M6.215-3.172c0 .508-.07.96-.21 1.363-.142.4-.34.74-.6 1.02-.257.278-.573.493-.944.642-.37.148-.784.222-1.25.222-.362 0-.733-.035-1.108-.105-.38-.072-.754-.18-1.125-.33v-8.265H2.04v2.375l-.052 1.137c.305-.41.633-.703.98-.87.348-.17.723-.255 1.122-.255.348 0 .656.074.922.218.265.15.484.356.664.622.18.265.312.585.402.964.09.375.137.797.137 1.262zm-1.09.047c0-.32-.02-.617-.066-.887-.048-.265-.122-.496-.224-.687-.102-.19-.234-.34-.39-.448-.16-.11-.352-.16-.57-.16-.134 0-.27.02-.407.062-.142.043-.286.113-.435.215-.148.096-.305.23-.47.393-.163.164-.338.37-.526.614v2.972c.206.08.417.144.632.19.215.047.422.07.617.07.245 0 .476-.034.698-.112.223-.078.418-.207.586-.387.168-.183.305-.42.403-.722.1-.297.148-.668.148-1.113zm0 0"/></symbol><symbol overflow="visible" id="D"><path d="M6.426-6.13L4.34-.647c-.215.558-.438 1.04-.668 1.44-.23.403-.48.735-.754.993-.273.258-.57.45-.898.57-.325.122-.688.184-1.09.184-.106 0-.203-.005-.29-.01-.085-.003-.18-.007-.28-.014V1.55c.09.012.187.024.292.032.106.012.22.016.336.016.196 0 .38-.028.547-.082.168-.06.328-.153.48-.282.15-.13.294-.293.434-.496.136-.203.27-.45.402-.738L.402-6.13H1.61l1.55 4.056.313.95.355-.978L5.262-6.13zm0 0"/></symbol><symbol overflow="visible" id="E"><path d="M5.262-2.824H1.61v-1.004H5.26zm0 0"/></symbol><symbol overflow="visible" id="F"><path d="M6.086 0H1.074v-.988h2.05v-5.825l-1.91 1.04-.39-.903 2.54-1.34h.94v7.028h1.782zm0 0"/></symbol><symbol overflow="visible" id="G"><path d="M3.387-1.922c.14 0 .27.027.394.078.126.055.232.125.325.22.09.093.165.202.215.327.055.125.082.258.082.4 0 .14-.027.268-.082.39-.05.12-.125.23-.215.32-.093.093-.2.164-.324.218-.124.052-.253.08-.393.08S3.113.08 2.992.03c-.125-.053-.23-.124-.32-.217-.094-.09-.164-.196-.22-.32-.05-.122-.077-.25-.077-.39 0-.142.027-.275.078-.4.055-.125.125-.234.22-.328.09-.094.194-.164.32-.22.12-.05.253-.077.394-.077zm0 0"/></symbol><symbol overflow="visible" id="H"><path d="M6.152 0H.898v-.953l2.063-2.05c.337-.333.614-.622.825-.868.21-.243.375-.466.492-.67.118-.198.2-.39.24-.57.042-.18.06-.37.06-.577 0-.196-.026-.383-.077-.56-.055-.175-.137-.33-.246-.468-.11-.133-.254-.238-.426-.316-.176-.08-.387-.118-.63-.118-.34 0-.643.078-.92.226-.278.152-.532.348-.762.586L.93-7.04c.3-.315.644-.57 1.04-.76.39-.192.846-.286 1.37-.286.35 0 .676.05.965.156.293.106.543.258.754.46.21.2.374.443.49.732.118.29.177.613.177.976 0 .305-.043.59-.125.848-.082.262-.204.52-.368.777-.164.258-.37.528-.625.805-.25.277-.544.578-.887.91l-1.446 1.41h3.875zm0 0"/></symbol><symbol overflow="visible" id="J"><path d="M5.102-.2c-.247.095-.5.165-.758.208-.258.047-.528.066-.8.066-.86 0-1.524-.23-1.99-.7-.464-.464-.7-1.147-.7-2.042 0-.43.072-.824.205-1.172.13-.35.32-.652.56-.902.243-.25.532-.442.872-.578.336-.137.707-.203 1.11-.203.28 0 .546.02.793.058.246.04.48.106.707.195v.903c-.235-.125-.477-.21-.72-.27-.245-.054-.5-.082-.757-.082-.242 0-.473.044-.688.138-.214.094-.402.227-.566.398-.163.176-.292.387-.386.637-.093.25-.14.53-.14.844 0 .66.16 1.152.48 1.48.32.328.766.49 1.332.49.258 0 .508-.03.746-.087.243-.06.473-.145.7-.258zm0 0"/></symbol><symbol overflow="visible" id="K"><path d="M5.61-2.766c0 .422-.06.81-.18 1.164-.117.352-.29.653-.516.907-.223.25-.496.445-.816.586C3.773.028 3.41.1 3 .1c-.39 0-.742-.063-1.05-.184-.31-.12-.57-.297-.786-.53-.215-.236-.38-.53-.492-.876C.56-1.84.5-2.238.5-2.692c0-.42.06-.808.18-1.156.117-.35.29-.652.515-.902.223-.25.496-.445.817-.586.324-.14.687-.207 1.097-.207.39 0 .738.06 1.05.18.31.12.57.297.785.53.215.235.38.524.492.872.114.347.172.745.172 1.194zm-.965.043c0-.336-.04-.632-.114-.882-.073-.25-.178-.46-.315-.63-.137-.167-.305-.296-.5-.378-.2-.086-.418-.13-.66-.13-.282 0-.524.056-.723.165-.203.113-.367.258-.496.445-.13.184-.223.4-.28.64-.06.247-.09.5-.09.77 0 .336.034.63.108.883.074.254.184.465.32.633.137.168.305.293.5.38.196.085.415.128.66.128.282 0 .524-.054.723-.167.203-.11.368-.258.496-.442.13-.182.223-.397.282-.64.058-.245.09-.503.09-.773zm0 0"/></symbol><symbol overflow="visible" id="L"><path d="M5.914-5.445L5.12 0H3.978L3.19-2.277l-.16-.555-.175.586L2.102 0H.988l-.79-5.445h.927l.453 3.7.098.823.234-.723.793-2.445h.676l.85 2.414.247.723.082-.766.42-3.725zm0 0"/></symbol><symbol overflow="visible" id="M"><path d="M5.523-2.82c0 .453-.062.855-.187 1.21-.125.356-.3.66-.53.907-.232.25-.51.437-.84.57-.33.133-.7.2-1.11.2-.325 0-.653-.032-.99-.094-.335-.063-.67-.16-1-.293v-7.348h.947v2.113L1.77-4.547c.27-.363.562-.62.87-.773.31-.15.64-.223.997-.223.308 0 .582.063.816.195.234.13.434.313.594.55.16.236.277.52.355.857.082.335.12.706.12 1.12zm-.964.043c0-.285-.025-.547-.064-.79-.043-.238-.11-.44-.2-.61-.09-.17-.206-.303-.347-.4-.14-.095-.31-.142-.505-.142-.12 0-.242.02-.363.056-.125.04-.25.1-.383.19-.134.09-.27.208-.42.353-.143.147-.303.327-.467.546v2.64c.183.075.37.13.562.172.19.043.375.063.55.063.216 0 .423-.034.622-.105.195-.066.37-.183.52-.343.148-.16.27-.375.36-.64.085-.267.132-.595.132-.99zm0 0"/></symbol><symbol overflow="visible" id="N"><path d="M5.715-5.445L3.86-.575C3.667-.077 3.47.35 3.26.708c-.203.356-.426.648-.668.88-.242.23-.508.397-.797.507-.29.11-.613.164-.973.164-.094 0-.18-.004-.254-.008-.078-.004-.16-.008-.25-.016V1.38c.078.01.168.018.262.026.094.012.19.016.297.016.17 0 .335-.027.483-.078.153-.05.293-.133.426-.246.132-.114.26-.262.386-.442.12-.18.242-.398.36-.656L.358-5.445h1.074l1.375 3.6.276.845.316-.867 1.274-3.578zm0 0"/></symbol><symbol overflow="visible" id="O"><path d="M5.41 0H.953v-.88h1.824v-5.175l-1.7.922-.343-.8 2.254-1.192h.836V-.88H5.41zm0 0"/></symbol><symbol overflow="visible" id="P"><path d="M3.012-1.71c.12 0 .238.026.347.073.113.047.206.11.288.196.082.08.145.178.192.288.047.11.07.226.07.355 0 .12-.023.238-.07.348-.047.11-.11.204-.192.286-.082.082-.175.144-.29.19C3.25.075 3.134.1 3.013.1c-.13 0-.246-.024-.352-.07-.11-.048-.207-.114-.285-.192-.082-.082-.148-.18-.195-.285-.047-.11-.07-.226-.07-.347 0-.13.023-.246.07-.355.047-.11.113-.207.195-.29.082-.085.176-.148.285-.195.106-.047.223-.074.352-.074zm0 0"/></symbol><symbol overflow="visible" id="Q"><path d="M5.47 0H.796v-.848l1.836-1.82c.3-.297.543-.555.73-.773.188-.216.336-.415.442-.595.105-.18.175-.348.21-.508.036-.156.055-.328.055-.512 0-.175-.023-.34-.07-.5-.047-.156-.12-.293-.22-.414-.096-.116-.22-.21-.378-.28-.156-.07-.343-.102-.558-.102-.3 0-.574.067-.82.2-.247.132-.473.308-.68.52l-.52-.622c.27-.285.578-.512.926-.68.348-.17.754-.253 1.22-.253.31 0 .6.046.858.14.258.094.48.23.668.406.188.175.336.394.438.652.105.254.156.543.156.867 0 .268-.035.522-.11.753-.074.23-.183.46-.328.69-.148.232-.332.47-.554.716-.223.245-.485.515-.79.808L2.024-.902H5.47zm0 0"/></symbol><symbol overflow="visible" id="R"><path d="M6.055 0h-1.05l-.497-1.547h-2.95L1.06 0H.056L2.41-7.09h1.324zM4.23-2.41l-1.2-3.793L1.833-2.41zm0 0"/></symbol><symbol overflow="visible" id="S"><path d="M6.086-7.09L3.68 0H2.375L.023-7.09h1.09L2.64-2.313 3.08-.91l.442-1.402L5.055-7.09zm0 0"/></symbol><symbol overflow="visible" id="T"><path d="M5.457-5.875c-.262-.14-.535-.25-.812-.328-.278-.078-.582-.117-.91-.117-.38 0-.712.066-1.005.2-.292.132-.542.323-.742.565-.2.246-.355.54-.46.883-.106.344-.16.723-.16 1.14 0 .434.042.82.128 1.165.086.344.223.637.41.875.184.238.418.422.707.547.285.13.633.19 1.032.19.07 0 .144-.003.222-.01.082-.008.16-.016.238-.028.082-.016.157-.03.23-.047.075-.02.142-.04.2-.062v-2.254h-1.45v-.8h2.407v3.624c-.148.07-.304.133-.472.184-.165.054-.332.1-.504.136-.172.035-.34.063-.512.082-.172.02-.336.028-.492.028C3.027.098 2.59.023 2.2-.13c-.388-.15-.72-.378-.993-.675-.273-.3-.484-.672-.63-1.117C.43-2.367.36-2.882.36-3.47c0-.58.08-1.1.242-1.56.164-.462.39-.853.687-1.173.292-.32.647-.567 1.062-.734.414-.168.87-.25 1.37-.25.317 0 .622.027.907.082.288.054.565.144.827.27zm0 0"/></symbol><symbol overflow="visible" id="U"><path d="M5.43-3.945c0 .69-.082 1.285-.25 1.785-.164.496-.41.902-.735 1.223-.328.32-.73.558-1.21.71-.48.153-1.036.227-1.67.227H.978v-.824h.656c.465 0 .87-.047 1.21-.14.34-.095.622-.235.848-.415.228-.183.4-.405.52-.667.118-.262.192-.562.224-.898l.02-.223c-.227.133-.49.242-.786.324-.297.082-.617.12-.965.12-.36 0-.676-.053-.945-.16-.27-.104-.496-.25-.676-.436-.18-.188-.312-.41-.402-.672-.09-.258-.137-.54-.137-.844 0-.328.06-.633.18-.922.117-.285.285-.53.5-.746.214-.21.472-.38.773-.5.3-.125.633-.184.992-.184.352 0 .676.06.977.172.297.118.555.305.773.563.215.258.387.594.508 1.008.125.41.184.91.184 1.5zm-2.485-2.47c-.203 0-.39.036-.562.103-.172.066-.32.164-.442.292-.124.13-.225.286-.295.477-.075.188-.11.402-.11.645 0 .218.028.418.078.59.055.175.133.32.246.44.11.122.25.216.425.282.172.066.38.098.617.098.133 0 .274-.012.414-.04.145-.023.286-.058.418-.1.137-.044.266-.095.39-.153.122-.06.23-.122.33-.185 0-.47-.032-.86-.102-1.172-.07-.312-.168-.562-.297-.754-.133-.188-.29-.325-.477-.403-.187-.078-.398-.12-.633-.12zm0 0"/></symbol><symbol overflow="visible" id="V"><path d="M5.844 0h-.946l-.14-4.422-.06-1.7-.33.99-1.048 2.82h-.668l-.996-2.71-.332-1.1L1.3-4.347 1.177 0h-.91l.347-7.09h1.145l.953 2.668.313.902.297-.902L4.324-7.09H5.5zm0 0"/></symbol><symbol overflow="visible" id="W"><path d="M2.566-6.277H.934v-.813h4.242v.813H3.543v5.453h1.633V0H.934v-.824h1.632zm0 0"/></symbol><symbol overflow="visible" id="X"><path d="M5.47 0H4.21L2.146-4.422l-.598-1.422V0H.645v-7.09h1.242L3.86-2.902l.706 1.62V-7.09h.903zm0 0"/></symbol><symbol overflow="visible" id="Y"><path d="M5.29-2.27c0 .352-.075.672-.228.96-.152.29-.363.54-.628.748-.266.207-.58.37-.942.488-.36.113-.75.172-1.172.172-.105 0-.215-.004-.336-.008-.12-.004-.242-.012-.363-.024C1.505.06 1.388.05 1.274.04 1.16.026 1.055.015.965 0v-.855c.195.046.418.078.672.1.25.025.504.032.76.032.29 0 .552-.035.783-.1.23-.072.43-.17.59-.298.164-.13.29-.282.375-.466.085-.184.128-.39.128-.617 0-.442-.156-.762-.472-.96-.316-.204-.773-.306-1.362-.306H1.09v-3.62h3.82v.824H1.98v1.993h.618c.34 0 .672.027.992.09.324.062.61.167.863.324.25.153.453.36.606.618.15.258.23.582.23.972zm0 0"/></symbol><symbol overflow="visible" id="Z"><path d="M5.43-6.21L2.457 0H1.38l3.085-6.21H.637v-.88H5.43zm0 0"/></symbol><symbol overflow="visible" id="aa"><path d="M5.98 0H4.758L3.03-2.863 1.3 0H.1l2.36-3.625L.287-7.09h1.146l1.62 2.668L4.69-7.09H5.8L3.626-3.668zm0 0"/></symbol><symbol overflow="visible" id="ab"><path d="M5.82-1.566H4.613V0h-.968v-1.566H.235v-.832l3.02-4.692h1.358v4.692H5.82zM3.645-6.18l-2.47 3.782h2.47zm0 0"/></symbol><symbol overflow="visible" id="ac"><path d="M5.633-3.543c0 .543-.055 1.04-.164 1.484-.11.447-.275.83-.493 1.15-.223.32-.497.57-.825.746-.328.176-.71.262-1.152.262-.38 0-.727-.07-1.035-.215-.313-.14-.578-.363-.797-.66C.945-1.074.778-1.45.656-1.91c-.12-.46-.18-1.004-.18-1.633 0-.543.055-1.04.17-1.488.108-.45.272-.833.49-1.154.22-.32.493-.566.82-.742.333-.176.716-.26 1.153-.26.378-.002.726.07 1.035.213.312.14.578.364.796.66.224.297.392.676.513 1.137.117.46.18 1.004.18 1.633zm-.957.03c0-.12-.004-.24-.012-.362-.008-.12-.02-.242-.03-.355l-3 2.226c.054.188.124.363.206.524.082.16.183.296.3.41.118.113.25.203.403.265.148.063.32.094.512.094.246 0 .468-.06.668-.18.203-.118.375-.297.515-.532.14-.234.25-.527.324-.875.075-.348.114-.754.114-1.215zm-3.242-.06v.335c.004.113.007.218.02.324l3-2.22c-.056-.182-.122-.35-.204-.503-.086-.152-.184-.285-.3-.394-.118-.11-.247-.197-.395-.26-.15-.062-.317-.09-.5-.09-.246 0-.47.06-.672.177-.2.12-.37.3-.512.535-.14.238-.25.53-.323.88-.078.35-.113.753-.113 1.214zm0 0"/></symbol><symbol overflow="visible" id="ad"><path d="M5.555-2.246c0 .324-.06.633-.176.918-.118.285-.286.535-.5.746-.22.21-.482.375-.786.496-.305.12-.645.184-1.016.184-.39 0-.738-.063-1.04-.188-.3-.125-.55-.316-.753-.574-.203-.258-.355-.586-.46-.98-.106-.395-.157-.86-.157-1.4 0-.362.023-.714.07-1.054.047-.34.125-.66.235-.957.11-.3.25-.578.433-.828.18-.25.407-.46.676-.64.27-.18.586-.32.95-.418.366-.103.788-.15 1.27-.15h.702v.824h-.762c-.422 0-.79.05-1.1.153-.314.1-.572.242-.783.426-.212.187-.372.41-.48.667-.114.262-.185.55-.216.875l-.02.223c.227-.133.493-.242.79-.324.296-.082.62-.12.968-.12.36 0 .672.05.942.155.27.105.492.25.672.437.18.187.312.41.406.67.09.26.133.544.133.857zm-.99.058c0-.214-.022-.414-.077-.585-.05-.176-.133-.325-.246-.446-.113-.12-.254-.214-.426-.284-.17-.066-.375-.098-.617-.098-.138 0-.274.012-.415.036-.14.027-.28.062-.418.11-.137.042-.265.093-.387.15-.125.06-.234.122-.335.185 0 .468.03.858.097 1.17.067.313.16.563.29.75.128.188.288.32.476.403.187.078.402.117.648.117.207 0 .4-.03.567-.097.172-.067.32-.168.445-.297.125-.13.223-.29.293-.477.07-.184.106-.4.106-.637zm0 0"/></symbol><symbol overflow="visible" id="ae"><path d="M5.41-1.922c0 .336-.07.633-.207.887-.137.254-.328.46-.574.633-.247.168-.544.293-.888.375-.347.082-.726.125-1.144.125-.188 0-.375-.008-.56-.024-.186-.01-.366-.03-.538-.05-.172-.024-.332-.047-.484-.08C.863-.08.726-.112.602-.147v-.93c.273.1.578.18.914.238.34.06.722.086 1.152.086.312 0 .578-.023.797-.074.22-.047.398-.12.535-.215.14-.098.242-.215.305-.352.062-.136.093-.292.093-.472 0-.192-.05-.356-.16-.488-.105-.137-.246-.258-.418-.368-.175-.105-.37-.203-.593-.293-.223-.086-.45-.18-.684-.273-.23-.093-.457-.194-.68-.304-.222-.11-.422-.242-.593-.39-.172-.153-.313-.329-.422-.532-.106-.203-.16-.44-.16-.718 0-.243.05-.48.152-.72.1-.234.258-.44.473-.624.214-.184.488-.332.824-.442.332-.113.73-.168 1.195-.168.117 0 .246.004.387.016.14.012.28.027.42.047.145.02.286.043.426.066.137.025.27.052.387.083v.868c-.277-.077-.558-.14-.836-.18-.277-.042-.547-.062-.808-.062-.556 0-.962.09-1.22.274-.262.183-.39.433-.39.746 0 .19.05.355.16.492.105.137.245.262.417.37.176.107.37.208.594.294l.685.274c.23.093.457.2.68.312.222.11.42.242.593.4.176.15.313.33.422.538.105.207.16.45.16.73zm0 0"/></symbol><symbol overflow="visible" id="af"><path d="M5.64-6.266H3.544V0h-.977v-6.266h-2.1v-.824H5.64zm0 0"/></symbol><symbol overflow="visible" id="ag"><path d="M5.715-3.625c0 .34-.027.668-.082.977-.05.312-.137.6-.25.867-.117.268-.266.51-.45.73-.187.218-.413.405-.68.562-.27.156-.577.277-.933.36C2.965-.044 2.563 0 2.11 0H.59v-7.09h1.828c1.11 0 1.934.285 2.477.852.546.57.82 1.44.82 2.613zm-1.016.07c0-.504-.048-.925-.14-1.273-.095-.348-.24-.63-.43-.84-.192-.215-.435-.37-.724-.465-.29-.097-.63-.144-1.02-.144H1.56v5.44h.717C3.89-.836 4.7-1.74 4.7-3.554zm0 0"/></symbol><symbol overflow="visible" id="ah"><path d="M5.12 0H1.09v-7.09h4.03v.813H2.056v2.2h2.95v.81h-2.95v2.443H5.12zm0 0"/></symbol><symbol overflow="visible" id="ai"><path d="M5.47-1.78c0 .3-.064.57-.185.8-.125.234-.297.43-.515.59-.223.16-.48.28-.782.363-.3.082-.625.125-.976.125-.387 0-.727-.043-1.024-.13-.293-.085-.543-.21-.742-.363-.2-.156-.348-.34-.45-.554-.1-.214-.15-.448-.15-.706 0-.434.12-.81.362-1.12.242-.318.617-.603 1.125-.86-.465-.235-.8-.497-1.016-.782-.215-.29-.32-.617-.32-.992 0-.227.047-.45.14-.66.094-.215.24-.403.426-.57.192-.17.43-.3.715-.4.285-.1.62-.147 1.008-.147.367 0 .687.04.965.117.278.078.51.187.696.332.188.144.332.32.426.527.094.206.14.433.14.687 0 .414-.117.76-.343 1.054-.232.29-.56.54-.982.76.21.105.407.218.586.347.18.125.336.265.473.422.133.155.238.327.312.522.074.19.11.402.11.637zM4.347-5.446c0-.325-.114-.563-.34-.723-.227-.156-.543-.234-.953-.234-.407 0-.723.078-.946.234-.227.156-.34.387-.34.7 0 .14.027.27.082.39.054.12.136.23.25.336.113.105.257.207.425.308.172.102.375.207.61.31.406-.192.71-.392.91-.6.2-.206.3-.448.3-.72zm.097 3.734c0-.134-.023-.263-.066-.392-.044-.125-.122-.25-.235-.37-.114-.126-.262-.247-.45-.372-.187-.12-.425-.25-.715-.38-.246.122-.453.24-.625.357-.167.117-.3.238-.406.36-.102.12-.177.245-.22.374-.042.13-.066.27-.066.414 0 .16.035.306.106.43.07.126.167.23.292.317.122.086.27.153.438.196.172.043.355.066.555.066.19 0 .37-.02.543-.06.168-.04.316-.1.44-.183.126-.082.224-.184.298-.31.07-.124.11-.272.11-.448zm0 0"/></symbol></defs><path fill="#F2F2F2" d="M0 0h697v273H0z"/><path d="M67 233h600V33H67zm0 0" fill="#FFF"/><path d="M68 141.77v91.43h596V178.26h-2v-.485h-2v.414h-2v3.923h-2v.606h-2v-5.892h-2v1.305h-2v1.988h-2v9.485h-2v-3.628h-2v-1.125h-2v3.246h-2v3.734h-2v-4.105h-2v4.855h-2v1.395h-2v-.387h-2v-.9h-2v-3.135h-2v-2.035h-2v2.09h-2v-.958h-2v5.387h-2v.073h-2v-3.617h-2v3.79h-2v.378h-2V192.7h-2v-.884h-2v5.223h-2v.237h-2v-2.68h-2v-4.124h-2v2.652h-2v1.008h-2v-3.32h-2v3.128h-2v-5.82h-2v-.065h-2v-7.75h-2v-2.008h-2v5.176h-2v-.88h-2v-.58h-2v2.014h-2v-3.2h-2v4.42h-2v3.483h-2v-4.96h-2v3.52h-2v-3.095h-2v5.55h-2v-1.23h-2v-3.952h-2v-1.926h-2v-1.032h-2v2.637h-2v1.03h-2v-.874h-2v-5.804h-2v4.304h-2v3.836h-2v.68h-2v-.738h-2v-1.988h-2v.574h-2v1.703h-2v-3.473h-2v.442h-2v-2.356h-2v8.344h-2v-1.586h-2v-.832h-2v-5.906h-2v1.69h-2v-1.206h-2v5.277h-2v-7.735h-2v-1.22h-2v2.74h-2v3.45h-2v-4.38h-2v-.078h-2v1.66h-2v5.27h-2v-3.348h-2v1.104h-2v-9.54h-2v6.107h-2v.91h-2v3.677h-2V188h-2v-3.43h-2v-.808h-2v-.035h-2v-9.13h-2v7.173h-2v2.46h-2v2.586h-2v-1.773h-2v-3.406h-2v2.636h-2v-2.628h-2v-8.3h-2v6.932h-2v-1.886h-2v.06h-2v1.32h-2v.914h-2v2.87h-2v-2.628h-2v.62h-2v-7.52h-2v11.6h-2v-4.356h-2v-2.75h-2v2.59h-2v-1.536h-2v-1.558h-2v1.437h-2v.293h-2v1.45h-2v.226h-2v-8.086h-2v5.23h-2v-1.523h-2v1.922h-2v7.512h-2V183h-2v-1.738h-2v-.235h-2v.075h-2v-7.215h-2v5.367h-2v3.85h-2v3.212h-2v-.527h-2v3.933h-2v-6.508h-2v-.672h-2v-1.996h-2v-2.37h-2v5.182h-2v-5.344h-2v5.906h-2v-.332h-2v-4.195h-2v2.69h-2v-.46h-2v3.36h-2v-2.157h-2v-2.72h-2v-2.553h-2v2.382h-2v-.234h-2v4.594h-2v1.09h-2V177h-2v2.832h-2v.844h-2v-1.348h-2v1.313h-2v-3.21h-2v4.757h-2v-1.632h-2v-.254h-2v8.075h-2v-1.465h-2v-10.265h-2v6.304h-2v1.417h-2v5.25h-2v.227h-2v-3.258h-2v-1.02h-2v7.164h-2v.41h-2v3.59h-2v-10.273h-2v4.895h-2v-.106h-2v1.07h-2v-.36h-2v1.466h-2v1.668h-2v-7.367h-2v5.11h-2v-13.177h-2v1.742h-2v-4.628h-2v3.87h-2v.352h-2v1.57h-2v4.446h-2v1.722h-2v-.257h-2v-.86h-2v-9.425h-2v6.203h-2v6.563h-2v-4.266h-2v-3.87h-2v-1.528h-2v.65h-2v2.7h-2v-3.738h-2v-1.687h-2v.644h-2v-.044h-2v-.73h-2v1.867h-2v-2.59h-2v2.407h-2v-.098h-2v-3.598h-2v2.238h-2v.63h-2v3.703h-2v3.914h-2v.487h-2v2.254h-2v-4.882h-2v5.117h-2v1.117h-2v2.754h-2v.77h-2v-1.672h-2v4.027h-2v-4.268h-2v-6.117h-2v2.605h-2v-.87h-2v1.667h-2v3.133h-2v.652h-2v1.79h-2v-2.345h-2v3.922h-2v-3.868h-2v.727h-2v-1.1h-2v3.31h-2v-.086h-2v-5.075h-2v.882h-2v-2.328h-2v.082h-2v.352h-2v.718h-2v2.067h-2v-5.633h-2v1.512h-2v.918h-2v-.067h-2v-.02h-2v4.17h-2v-.826h-2v-3.207h-2v-7.117h-2v.707h-2v4.457h-2v1.602h-2v-.95h-2v-1.035h-2v4.42h-2v2.498h-2v-1.41h-2v.34h-2v-6.598h-2v-2.348h-2v.707h-2v2.418h-2v.57h-2v-2.906h-2v4.336h-2v2.113h-2v2.922h-2V193.5h-2v-.922h-2v.738h-2v1.102h-2v-5.863h-2v6.547h-2v-.985h-2v-3.004h-2v-.297h-2v-7.902h-2v5.887h-2v2.684h-2v-.316h-2v2.457h-2v-8.746h-2v-2.357h-2v-4.265h-2v-5.496h-2v-7.047h-2v-7.863h-2V141.77zm0 0" fill="#7648EC"/><path d="M68 141.97h2v16.08h2v7.864h2v7.05h2v5.493h2v4.266h2v2.355h2v8.75h2v-2.46h2v.316h2V189h2v-5.887h2v7.903h2v.3h2v3h2v.985h2v-6.546h2v5.863h2v-1.1h2v-.736h2v.92h2v1.46h2v-2.922h2v-2.117h2v-4.335h2v2.906h2v-.57h2v-2.417h2v-.707h2v2.348h2v6.597h2v-.338h2v1.41h2v-2.496h2v-4.422h2v1.035h2v.948h2v-1.6h2v-4.458h2v-.708h2v7.122h2v3.203h2v.824h2v-4.167h2v.02h2v.07h2v-.922h2v-1.51h2v5.632h2v-2.066h2v-.72h2v-.35h2v-.083h2v2.328h2v-.88h2v5.077h2v.082h2v-3.31h2v1.098h2v-.727h2v3.868h2v-3.92h2v2.346h2v-1.79h2v-.65h2v-3.134h2v-1.672h2v.87h2v-2.604h2v6.117h2v4.274h2v-4.027h2v1.668h2v-.77h2v-2.753h2v-1.118h2v-5.113h2v4.88h2v-2.254h2v-.488h2v-3.91h2v-3.707h2v-.628h2v-2.24h2v3.6h2v.1h2v-2.41h2v2.59h2v-1.863h2v.726h2v.047h2v-.65h2v1.69h2v3.737h2v-2.7h2v-.652h2v1.528h2v3.875h2v4.262h2v-6.558h2v-6.207h2v9.425h2v.86h2v.258h2v-1.723h2v-4.445h2v-1.57h2v-.352h2v-3.87h2v4.628h2v-1.743h2v13.176h2v-5.108h2v7.367h2v-1.665h2v-1.47h2v.36h2v-1.07h2v.106h2v-4.894h2v10.278h2v-3.594h2v-.41h2v-7.164h2v1.02h2v3.257h2v-.227h2v-5.25h2v-1.418h2v-6.304h2v10.265h2v1.464h2V180.5h2v.254h2v1.633h2v-4.758h2v3.214h2v-1.317h2v1.348h2v-.844h2v-2.83h2v8.39h2v-1.094h2v-4.59h2v.23h2v-2.382h2v2.555h2v2.717h2v2.157h2v-3.36h2v.46h2V179.6h2v4.19h2v.333h2v-5.9h2v5.34h2v-5.185h2v2.37h2v1.997h2v.672h2v6.508h2v-3.934h2v.532h2v-3.21h2v-3.857h2v-5.367h2v7.215h2v-.073h2v.234h2v1.74h2v3.476h2v-7.512h2v-1.918h2v1.52h2v-5.23h2v8.085h2v-.225h2v-1.446h2v-.294h2v-1.44h2v1.557h2v1.536h2v-2.587h2v2.746h2v4.354h2V174.23h2v7.516h2v-.62h2v2.628h2v-2.87h2v-.915h2v-1.322h2v-.058h2v1.89h2v-6.933h2v8.297h2v2.63h2v-2.634h2v3.402h2v1.774h2v-2.586h2v-2.457h2v-7.176h2v9.133h2v.03h2v.813h2v3.426h2v-2.024h2V182.5h2v-.91h2v-6.102h2v9.535h2v-1.1h2v3.343h2v-5.27h2v-1.66h2v.078h2v4.38h2v-3.446h2v-2.743h2v1.22h2v7.738h2v-5.282h2v1.208h2v-1.69h2v5.905h2v.832h2v1.586h2v-8.343h2v2.356h2v-.442h2v3.474h2v-1.703h2v-.573h2v1.988h2v.738h2v-.68h2V183.1h2v-4.305h2v5.805h2v.875h2v-1.032h2v-2.635h2v1.03h2v1.927h2v3.953h2v1.23h2v-5.55h2v3.093h2v-3.52h2v4.962h2v-3.485h2v-4.418h2v3.2h2v-2.016h2v.583h2v.88h2V178.5h2v2.004h2v7.75h2v.066h2v5.825h2v-3.133h2v3.32h2v-1.008h2v-2.652h2v4.13h2v2.678h2v-.242h2v-5.222h2v.886h2v1.96h2v-.378h2v-3.79h2v3.62h2v-.076h2v-5.383h2v.958h2v-2.094h2v2.034h2v3.137h2v.9h2v.386h2v-1.395h2v-4.854h2v4.105h2v-3.733h2v-3.246h2v1.126h2v3.63h2v-9.486h2v-1.984h2v-1.31h2v5.892h2v-.606h2v-3.92h2v-.415h2v.484h2" fill="none" stroke-linecap="round" stroke-linejoin="round" stroke="#4D18E4" stroke-miterlimit="10"/><path d="M87 31v2M87 233v2" fill="none" stroke-width=".4" stroke="#8F8F8F" stroke-opacity=".75" stroke-miterlimit="10"/><path d="M87 234V32" fill="none" stroke-width=".4" stroke="#8F8F8F" stroke-opacity=".75" stroke-dasharray="1,1" stroke-miterlimit="10"/><path d="M107 31v2M107 233v2" fill="none" stroke-width=".4" stroke="#8F8F8F" stroke-opacity=".75" stroke-miterlimit="10"/><path d="M107 234V32" fill="none" stroke-width=".4" stroke="#8F8F8F" stroke-opacity=".75" stroke-dasharray="1,1" stroke-miterlimit="10"/><path d="M127 31v2M127 233v2" fill="none" stroke-width=".4" stroke="#8F8F8F" stroke-opacity=".75" stroke-miterlimit="10"/><path d="M127 234V32" fill="none" stroke-width=".4" stroke="#8F8F8F" stroke-opacity=".75" stroke-dasharray="1,1" stroke-miterlimit="10"/><path d="M147 31v2M147 233v2" fill="none" stroke-width=".4" stroke="#8F8F8F" stroke-opacity=".75" stroke-miterlimit="10"/><path d="M147 234V32" fill="none" stroke-width=".4" stroke="#8F8F8F" stroke-opacity=".75" stroke-dasharray="1,1" stroke-miterlimit="10"/><path d="M167 31v2M167 233v2" fill="none" stroke-width=".4" stroke="#8F8F8F" stroke-opacity=".75" stroke-miterlimit="10"/><path d="M167 234V32" fill="none" stroke-width=".4" stroke="#8F8F8F" stroke-opacity=".75" stroke-dasharray="1,1" stroke-miterlimit="10"/><path d="M207 31v2M207 233v2" fill="none" stroke-width=".4" stroke="#8F8F8F" stroke-opacity=".75" stroke-miterlimit="10"/><path d="M207 234V32" fill="none" stroke-width=".4" stroke="#8F8F8F" stroke-opacity=".75" stroke-dasharray="1,1" stroke-miterlimit="10"/><path d="M227 31v2M227 233v2" fill="none" stroke-width=".4" stroke="#8F8F8F" stroke-opacity=".75" stroke-miterlimit="10"/><path d="M227 234V32" fill="none" stroke-width=".4" stroke="#8F8F8F" stroke-opacity=".75" stroke-dasharray="1,1" stroke-miterlimit="10"/><path d="M247 31v2M247 233v2" fill="none" stroke-width=".4" stroke="#8F8F8F" stroke-opacity=".75" stroke-miterlimit="10"/><path d="M247 234V32" fill="none" stroke-width=".4" stroke="#8F8F8F" stroke-opacity=".75" stroke-dasharray="1,1" stroke-miterlimit="10"/><path d="M267 31v2M267 233v2" fill="none" stroke-width=".4" stroke="#8F8F8F" stroke-opacity=".75" stroke-miterlimit="10"/><path d="M267 234V32" fill="none" stroke-width=".4" stroke="#8F8F8F" stroke-opacity=".75" stroke-dasharray="1,1" stroke-miterlimit="10"/><path d="M287 31v2M287 233v2" fill="none" stroke-width=".4" stroke="#8F8F8F" stroke-opacity=".75" stroke-miterlimit="10"/><path d="M287 234V32" fill="none" stroke-width=".4" stroke="#8F8F8F" stroke-opacity=".75" stroke-dasharray="1,1" stroke-miterlimit="10"/><path d="M327 31v2M327 233v2" fill="none" stroke-width=".4" stroke="#8F8F8F" stroke-opacity=".75" stroke-miterlimit="10"/><path d="M327 234V32" fill="none" stroke-width=".4" stroke="#8F8F8F" stroke-opacity=".75" stroke-dasharray="1,1" stroke-miterlimit="10"/><path d="M347 31v2M347 233v2" fill="none" stroke-width=".4" stroke="#8F8F8F" stroke-opacity=".75" stroke-miterlimit="10"/><path d="M347 234V32" fill="none" stroke-width=".4" stroke="#8F8F8F" stroke-opacity=".75" stroke-dasharray="1,1" stroke-miterlimit="10"/><path d="M367 31v2M367 233v2" fill="none" stroke-width=".4" stroke="#8F8F8F" stroke-opacity=".75" stroke-miterlimit="10"/><path d="M367 234V32" fill="none" stroke-width=".4" stroke="#8F8F8F" stroke-opacity=".75" stroke-dasharray="1,1" stroke-miterlimit="10"/><path d="M387 31v2M387 233v2" fill="none" stroke-width=".4" stroke="#8F8F8F" stroke-opacity=".75" stroke-miterlimit="10"/><path d="M387 234V32" fill="none" stroke-width=".4" stroke="#8F8F8F" stroke-opacity=".75" stroke-dasharray="1,1" stroke-miterlimit="10"/><path d="M407 31v2M407 233v2" fill="none" stroke-width=".4" stroke="#8F8F8F" stroke-opacity=".75" stroke-miterlimit="10"/><path d="M407 234V32" fill="none" stroke-width=".4" stroke="#8F8F8F" stroke-opacity=".75" stroke-dasharray="1,1" stroke-miterlimit="10"/><path d="M447 31v2M447 233v2" fill="none" stroke-width=".4" stroke="#8F8F8F" stroke-opacity=".75" stroke-miterlimit="10"/><path d="M447 234V32" fill="none" stroke-width=".4" stroke="#8F8F8F" stroke-opacity=".75" stroke-dasharray="1,1" stroke-miterlimit="10"/><path d="M467 31v2M467 233v2" fill="none" stroke-width=".4" stroke="#8F8F8F" stroke-opacity=".75" stroke-miterlimit="10"/><path d="M467 234V32" fill="none" stroke-width=".4" stroke="#8F8F8F" stroke-opacity=".75" stroke-dasharray="1,1" stroke-miterlimit="10"/><path d="M487 31v2M487 233v2" fill="none" stroke-width=".4" stroke="#8F8F8F" stroke-opacity=".75" stroke-miterlimit="10"/><path d="M487 234V32" fill="none" stroke-width=".4" stroke="#8F8F8F" stroke-opacity=".75" stroke-dasharray="1,1" stroke-miterlimit="10"/><path d="M507 31v2M507 233v2" fill="none" stroke-width=".4" stroke="#8F8F8F" stroke-opacity=".75" stroke-miterlimit="10"/><path d="M507 234V32" fill="none" stroke-width=".4" stroke="#8F8F8F" stroke-opacity=".75" stroke-dasharray="1,1" stroke-miterlimit="10"/><path d="M527 31v2M527 233v2" fill="none" stroke-width=".4" stroke="#8F8F8F" stroke-opacity=".75" stroke-miterlimit="10"/><path d="M527 234V32" fill="none" stroke-width=".4" stroke="#8F8F8F" stroke-opacity=".75" stroke-dasharray="1,1" stroke-miterlimit="10"/><path d="M567 31v2M567 233v2" fill="none" stroke-width=".4" stroke="#8F8F8F" stroke-opacity=".75" stroke-miterlimit="10"/><path d="M567 234V32" fill="none" stroke-width=".4" stroke="#8F8F8F" stroke-opacity=".75" stroke-dasharray="1,1" stroke-miterlimit="10"/><path d="M587 31v2M587 233v2" fill="none" stroke-width=".4" stroke="#8F8F8F" stroke-opacity=".75" stroke-miterlimit="10"/><path d="M587 234V32" fill="none" stroke-width=".4" stroke="#8F8F8F" stroke-opacity=".75" stroke-dasharray="1,1" stroke-miterlimit="10"/><path d="M607 31v2M607 233v2" fill="none" stroke-width=".4" stroke="#8F8F8F" stroke-opacity=".75" stroke-miterlimit="10"/><path d="M607 234V32" fill="none" stroke-width=".4" stroke="#8F8F8F" stroke-opacity=".75" stroke-dasharray="1,1" stroke-miterlimit="10"/><path d="M627 31v2M627 233v2" fill="none" stroke-width=".4" stroke="#8F8F8F" stroke-opacity=".75" stroke-miterlimit="10"/><path d="M627 234V32" fill="none" stroke-width=".4" stroke="#8F8F8F" stroke-opacity=".75" stroke-dasharray="1,1" stroke-miterlimit="10"/><path d="M647 31v2M647 233v2" fill="none" stroke-width=".4" stroke="#8F8F8F" stroke-opacity=".75" stroke-miterlimit="10"/><path d="M647 234V32" fill="none" stroke-width=".4" stroke="#8F8F8F" stroke-opacity=".75" stroke-dasharray="1,1" stroke-miterlimit="10"/><path d="M67 31v2M67 233v3" fill="none" stroke-width=".6" stroke="#DE4F4F" stroke-opacity=".6" stroke-miterlimit="10"/><path d="M67 236V31" fill="none" stroke-width=".6" stroke="#DE4F4F" stroke-opacity=".6" stroke-dasharray="1,1" stroke-miterlimit="10"/><path d="M187 31v2M187 233v3" fill="none" stroke-width=".6" stroke="#DE4F4F" stroke-opacity=".6" stroke-miterlimit="10"/><path d="M187 236V31" fill="none" stroke-width=".6" stroke="#DE4F4F" stroke-opacity=".6" stroke-dasharray="1,1" stroke-miterlimit="10"/><path d="M307 31v2M307 233v3" fill="none" stroke-width=".6" stroke="#DE4F4F" stroke-opacity=".6" stroke-miterlimit="10"/><path d="M307 236V31" fill="none" stroke-width=".6" stroke="#DE4F4F" stroke-opacity=".6" stroke-dasharray="1,1" stroke-miterlimit="10"/><path d="M427 31v2M427 233v3" fill="none" stroke-width=".6" stroke="#DE4F4F" stroke-opacity=".6" stroke-miterlimit="10"/><path d="M427 236V31" fill="none" stroke-width=".6" stroke="#DE4F4F" stroke-opacity=".6" stroke-dasharray="1,1" stroke-miterlimit="10"/><path d="M547 31v2M547 233v3" fill="none" stroke-width=".6" stroke="#DE4F4F" stroke-opacity=".6" stroke-miterlimit="10"/><path d="M547 236V31" fill="none" stroke-width=".6" stroke="#DE4F4F" stroke-opacity=".6" stroke-dasharray="1,1" stroke-miterlimit="10"/><use xlink:href="#a" x="54" y="243.221"/><use xlink:href="#a" x="59.346" y="243.221"/><use xlink:href="#b" x="64.691" y="243.221"/><use xlink:href="#a" x="70.037" y="243.221"/><use xlink:href="#a" x="75.383" y="243.221"/><use xlink:href="#a" x="174" y="243.221"/><use xlink:href="#a" x="179.346" y="243.221"/><use xlink:href="#b" x="184.691" y="243.221"/><use xlink:href="#a" x="190.037" y="243.221"/><use xlink:href="#c" x="195.383" y="243.221"/><use xlink:href="#a" x="294" y="243.221"/><use xlink:href="#a" x="299.346" y="243.221"/><use xlink:href="#b" x="304.691" y="243.221"/><use xlink:href="#a" x="310.037" y="243.221"/><use xlink:href="#d" x="315.383" y="243.221"/><use xlink:href="#a" x="414" y="243.221"/><use xlink:href="#a" x="419.346" y="243.221"/><use xlink:href="#b" x="424.691" y="243.221"/><use xlink:href="#a" x="430.037" y="243.221"/><use xlink:href="#e" x="435.383" y="243.221"/><use xlink:href="#a" x="534" y="243.221"/><use xlink:href="#a" x="539.346" y="243.221"/><use xlink:href="#b" x="544.691" y="243.221"/><use xlink:href="#a" x="550.037" y="243.221"/><use xlink:href="#f" x="555.383" y="243.221"/><use xlink:href="#a" x="654" y="243.221"/><use xlink:href="#a" x="659.346" y="243.221"/><use xlink:href="#b" x="664.691" y="243.221"/><use xlink:href="#a" x="670.037" y="243.221"/><use xlink:href="#g" x="675.383" y="243.221"/><use xlink:href="#h" x="27" y="235.221"/><use xlink:href="#h" x="32.346" y="235.221"/><use xlink:href="#h" x="37.691" y="235.221"/><use xlink:href="#a" x="43.037" y="235.221"/><use xlink:href="#h" x="48.383" y="235.221"/><use xlink:href="#h" x="53.729" y="235.221"/><path d="M65 233h2M667 233h2" fill="none" stroke-width=".6" stroke="#DE4F4F" stroke-opacity=".6" stroke-miterlimit="10"/><path d="M65 233h604" fill="none" stroke-width=".6" stroke="#DE4F4F" stroke-opacity=".6" stroke-dasharray="1,1" stroke-miterlimit="10"/><path d="M65 221.89h2M667 221.89h2" fill="none" stroke-width=".4" stroke="#8F8F8F" stroke-opacity=".75" stroke-miterlimit="10"/><path d="M66 221.89h602" fill="none" stroke-width=".4" stroke="#8F8F8F" stroke-opacity=".75" stroke-dasharray="1,1" stroke-miterlimit="10"/><use xlink:href="#h" x="27" y="212.998"/><use xlink:href="#h" x="32.346" y="212.998"/><use xlink:href="#c" x="37.691" y="212.998"/><use xlink:href="#a" x="43.037" y="212.998"/><use xlink:href="#h" x="48.383" y="212.998"/><use xlink:href="#i" x="53.729" y="212.998"/><path d="M65 210.777h2M667 210.777h2" fill="none" stroke-width=".6" stroke="#DE4F4F" stroke-opacity=".6" stroke-miterlimit="10"/><path d="M65 210.777h604" fill="none" stroke-width=".6" stroke="#DE4F4F" stroke-opacity=".6" stroke-dasharray="1,1" stroke-miterlimit="10"/><path d="M65 199.668h2M667 199.668h2" fill="none" stroke-width=".4" stroke="#8F8F8F" stroke-opacity=".75" stroke-miterlimit="10"/><path d="M66 199.668h602" fill="none" stroke-width=".4" stroke="#8F8F8F" stroke-opacity=".75" stroke-dasharray="1,1" stroke-miterlimit="10"/><use xlink:href="#h" x="27" y="190.775"/><use xlink:href="#h" x="32.346" y="190.775"/><use xlink:href="#d" x="37.691" y="190.775"/><use xlink:href="#a" x="43.037" y="190.775"/><use xlink:href="#h" x="48.383" y="190.775"/><use xlink:href="#i" x="53.729" y="190.775"/><path d="M65 188.555h2M667 188.555h2" fill="none" stroke-width=".6" stroke="#DE4F4F" stroke-opacity=".6" stroke-miterlimit="10"/><path d="M65 188.555h604" fill="none" stroke-width=".6" stroke="#DE4F4F" stroke-opacity=".6" stroke-dasharray="1,1" stroke-miterlimit="10"/><path d="M65 177.445h2M667 177.445h2" fill="none" stroke-width=".4" stroke="#8F8F8F" stroke-opacity=".75" stroke-miterlimit="10"/><path d="M66 177.445h602" fill="none" stroke-width=".4" stroke="#8F8F8F" stroke-opacity=".75" stroke-dasharray="1,1" stroke-miterlimit="10"/><use xlink:href="#h" x="27" y="168.553"/><use xlink:href="#h" x="32.346" y="168.553"/><use xlink:href="#e" x="37.691" y="168.553"/><use xlink:href="#a" x="43.037" y="168.553"/><use xlink:href="#h" x="48.383" y="168.553"/><use xlink:href="#i" x="53.729" y="168.553"/><path d="M65 166.332h2M667 166.332h2" fill="none" stroke-width=".6" stroke="#DE4F4F" stroke-opacity=".6" stroke-miterlimit="10"/><path d="M65 166.332h604" fill="none" stroke-width=".6" stroke="#DE4F4F" stroke-opacity=".6" stroke-dasharray="1,1" stroke-miterlimit="10"/><path d="M65 155.223h2M667 155.223h2" fill="none" stroke-width=".4" stroke="#8F8F8F" stroke-opacity=".75" stroke-miterlimit="10"/><path d="M66 155.223h602" fill="none" stroke-width=".4" stroke="#8F8F8F" stroke-opacity=".75" stroke-dasharray="1,1" stroke-miterlimit="10"/><use xlink:href="#h" x="27" y="146.33"/><use xlink:href="#h" x="32.346" y="146.33"/><use xlink:href="#f" x="37.691" y="146.33"/><use xlink:href="#a" x="43.037" y="146.33"/><use xlink:href="#h" x="48.383" y="146.33"/><use xlink:href="#i" x="53.729" y="146.33"/><path d="M65 144.11h2M667 144.11h2" fill="none" stroke-width=".6" stroke="#DE4F4F" stroke-opacity=".6" stroke-miterlimit="10"/><path d="M65 144.11h604" fill="none" stroke-width=".6" stroke="#DE4F4F" stroke-opacity=".6" stroke-dasharray="1,1" stroke-miterlimit="10"/><path d="M65 133h2M667 133h2" fill="none" stroke-width=".4" stroke="#8F8F8F" stroke-opacity=".75" stroke-miterlimit="10"/><path d="M66 133h602" fill="none" stroke-width=".4" stroke="#8F8F8F" stroke-opacity=".75" stroke-dasharray="1,1" stroke-miterlimit="10"/><g><use xlink:href="#h" x="27" y="124.111"/><use xlink:href="#h" x="32.346" y="124.111"/><use xlink:href="#g" x="37.691" y="124.111"/><use xlink:href="#a" x="43.037" y="124.111"/><use xlink:href="#h" x="48.383" y="124.111"/><use xlink:href="#i" x="53.729" y="124.111"/></g><path d="M65 121.89h2M667 121.89h2" fill="none" stroke-width=".6" stroke="#DE4F4F" stroke-opacity=".6" stroke-miterlimit="10"/><path d="M65 121.89h604" fill="none" stroke-width=".6" stroke="#DE4F4F" stroke-opacity=".6" stroke-dasharray="1,1" stroke-miterlimit="10"/><path d="M65 110.777h2M667 110.777h2" fill="none" stroke-width=".4" stroke="#8F8F8F" stroke-opacity=".75" stroke-miterlimit="10"/><path d="M66 110.777h602" fill="none" stroke-width=".4" stroke="#8F8F8F" stroke-opacity=".75" stroke-dasharray="1,1" stroke-miterlimit="10"/><g><use xlink:href="#h" x="27" y="101.889"/><use xlink:href="#h" x="32.346" y="101.889"/><use xlink:href="#j" x="37.691" y="101.889"/><use xlink:href="#a" x="43.037" y="101.889"/><use xlink:href="#h" x="48.383" y="101.889"/><use xlink:href="#i" x="53.729" y="101.889"/></g><path d="M65 99.668h2M667 99.668h2" fill="none" stroke-width=".6" stroke="#DE4F4F" stroke-opacity=".6" stroke-miterlimit="10"/><path d="M65 99.668h604" fill="none" stroke-width=".6" stroke="#DE4F4F" stroke-opacity=".6" stroke-dasharray="1,1" stroke-miterlimit="10"/><path d="M65 88.555h2M667 88.555h2" fill="none" stroke-width=".4" stroke="#8F8F8F" stroke-opacity=".75" stroke-miterlimit="10"/><path d="M66 88.555h602" fill="none" stroke-width=".4" stroke="#8F8F8F" stroke-opacity=".75" stroke-dasharray="1,1" stroke-miterlimit="10"/><g><use xlink:href="#h" x="27" y="79.666"/><use xlink:href="#h" x="32.346" y="79.666"/><use xlink:href="#k" x="37.691" y="79.666"/><use xlink:href="#a" x="43.037" y="79.666"/><use xlink:href="#h" x="48.383" y="79.666"/><use xlink:href="#i" x="53.729" y="79.666"/></g><path d="M65 77.445h2M667 77.445h2" fill="none" stroke-width=".6" stroke="#DE4F4F" stroke-opacity=".6" stroke-miterlimit="10"/><path d="M65 77.445h604" fill="none" stroke-width=".6" stroke="#DE4F4F" stroke-opacity=".6" stroke-dasharray="1,1" stroke-miterlimit="10"/><path d="M65 66.332h2M667 66.332h2" fill="none" stroke-width=".4" stroke="#8F8F8F" stroke-opacity=".75" stroke-miterlimit="10"/><path d="M66 66.332h602" fill="none" stroke-width=".4" stroke="#8F8F8F" stroke-opacity=".75" stroke-dasharray="1,1" stroke-miterlimit="10"/><g><use xlink:href="#h" x="27" y="57.443"/><use xlink:href="#h" x="32.346" y="57.443"/><use xlink:href="#l" x="37.691" y="57.443"/><use xlink:href="#a" x="43.037" y="57.443"/><use xlink:href="#h" x="48.383" y="57.443"/><use xlink:href="#i" x="53.729" y="57.443"/></g><path d="M65 55.223h2M667 55.223h2" fill="none" stroke-width=".6" stroke="#DE4F4F" stroke-opacity=".6" stroke-miterlimit="10"/><path d="M65 55.223h604" fill="none" stroke-width=".6" stroke="#DE4F4F" stroke-opacity=".6" stroke-dasharray="1,1" stroke-miterlimit="10"/><path d="M65 44.11h2M667 44.11h2" fill="none" stroke-width=".4" stroke="#8F8F8F" stroke-opacity=".75" stroke-miterlimit="10"/><path d="M66 44.11h602" fill="none" stroke-width=".4" stroke="#8F8F8F" stroke-opacity=".75" stroke-dasharray="1,1" stroke-miterlimit="10"/><g><use xlink:href="#h" x="27" y="35.221"/><use xlink:href="#h" x="32.346" y="35.221"/><use xlink:href="#m" x="37.691" y="35.221"/><use xlink:href="#a" x="43.037" y="35.221"/><use xlink:href="#h" x="48.383" y="35.221"/><use xlink:href="#i" x="53.729" y="35.221"/></g><path d="M65 33h2M667 33h2" fill="none" stroke-width=".6" stroke="#DE4F4F" stroke-opacity=".6" stroke-miterlimit="10"/><path d="M65 33h604" fill="none" stroke-width=".6" stroke="#DE4F4F" stroke-opacity=".6" stroke-dasharray="1,1" stroke-miterlimit="10"/><g><use xlink:href="#n" x="12.252" y="191"/><use xlink:href="#o" x="12.252" y="184.891"/><use xlink:href="#p" x="12.252" y="178.781"/><use xlink:href="#q" x="12.252" y="172.672"/><use xlink:href="#o" x="12.252" y="166.563"/><use xlink:href="#r" x="12.252" y="160.453"/><use xlink:href="#s" x="12.252" y="154.344"/><use xlink:href="#r" x="12.252" y="148.234"/><use xlink:href="#t" x="12.252" y="142.125"/><use xlink:href="#u" x="12.252" y="136.016"/><use xlink:href="#o" x="12.252" y="129.906"/><use xlink:href="#n" x="12.252" y="123.797"/><use xlink:href="#t" x="12.252" y="117.688"/><use xlink:href="#r" x="12.252" y="111.578"/><use xlink:href="#o" x="12.252" y="105.469"/><use xlink:href="#v" x="12.252" y="99.359"/><use xlink:href="#w" x="12.252" y="93.25"/><use xlink:href="#x" x="12.252" y="87.141"/><use xlink:href="#y" x="12.252" y="81.031"/></g><g><use xlink:href="#z" x="307" y="15.283"/><use xlink:href="#A" x="313.873" y="15.283"/><use xlink:href="#B" x="320.746" y="15.283"/><use xlink:href="#C" x="327.619" y="15.283"/><use xlink:href="#A" x="334.492" y="15.283"/><use xlink:href="#D" x="341.365" y="15.283"/><use xlink:href="#E" x="348.238" y="15.283"/><use xlink:href="#F" x="355.111" y="15.283"/><use xlink:href="#G" x="361.984" y="15.283"/><use xlink:href="#F" x="368.857" y="15.283"/><use xlink:href="#G" x="375.73" y="15.283"/><use xlink:href="#H" x="382.604" y="15.283"/></g><g><use xlink:href="#I" x="16" y="262.252"/><use xlink:href="#I" x="22.109" y="262.252"/><use xlink:href="#I" x="28.219" y="262.252"/><use xlink:href="#J" x="34.328" y="262.252"/><use xlink:href="#K" x="40.438" y="262.252"/><use xlink:href="#L" x="46.547" y="262.252"/><use xlink:href="#M" x="52.656" y="262.252"/><use xlink:href="#K" x="58.766" y="262.252"/><use xlink:href="#N" x="64.875" y="262.252"/><use xlink:href="#I" x="70.984" y="262.252"/><use xlink:href="#O" x="77.094" y="262.252"/><use xlink:href="#P" x="83.203" y="262.252"/><use xlink:href="#O" x="89.313" y="262.252"/><use xlink:href="#P" x="95.422" y="262.252"/><use xlink:href="#Q" x="101.531" y="262.252"/></g><path d="M16 254.238v8.403h8.398v-8.402zm0 0" fill="#F2F2F2"/><path d="M16 254.238v8.403h8.398v-8.402zm0 0" fill="#7648EC"/><path d="M16 262.64h8.398v-8.402H16zm0 0" fill="none" stroke="#000" stroke-miterlimit="10"/><g><use xlink:href="#R" x="373" y="262.252"/><use xlink:href="#S" x="379.109" y="262.252"/><use xlink:href="#T" x="385.219" y="262.252"/><use xlink:href="#I" x="391.328" y="262.252"/><use xlink:href="#I" x="397.438" y="262.252"/><use xlink:href="#Q" x="403.547" y="262.252"/><use xlink:href="#O" x="409.656" y="262.252"/><use xlink:href="#Q" x="415.766" y="262.252"/><use xlink:href="#U" x="421.875" y="262.252"/><use xlink:href="#U" x="427.984" y="262.252"/></g><g><use xlink:href="#V" x="451" y="262.252"/><use xlink:href="#W" x="457.109" y="262.252"/><use xlink:href="#X" x="463.219" y="262.252"/><use xlink:href="#I" x="469.328" y="262.252"/><use xlink:href="#I" x="475.438" y="262.252"/><use xlink:href="#O" x="481.547" y="262.252"/><use xlink:href="#Y" x="487.656" y="262.252"/><use xlink:href="#Z" x="493.766" y="262.252"/><use xlink:href="#U" x="499.875" y="262.252"/><use xlink:href="#Y" x="505.984" y="262.252"/></g><g><use xlink:href="#V" x="529" y="262.252"/><use xlink:href="#R" x="535.109" y="262.252"/><use xlink:href="#aa" x="541.219" y="262.252"/><use xlink:href="#I" x="547.328" y="262.252"/><use xlink:href="#I" x="553.438" y="262.252"/><use xlink:href="#ab" x="559.547" y="262.252"/><use xlink:href="#ac" x="565.656" y="262.252"/><use xlink:href="#U" x="571.766" y="262.252"/><use xlink:href="#ad" x="577.875" y="262.252"/><use xlink:href="#ab" x="583.984" y="262.252"/></g><g><use xlink:href="#ae" x="607" y="262.252"/><use xlink:href="#af" x="613.109" y="262.252"/><use xlink:href="#ag" x="619.219" y="262.252"/><use xlink:href="#ah" x="625.328" y="262.252"/><use xlink:href="#S" x="631.438" y="262.252"/><use xlink:href="#I" x="637.547" y="262.252"/><use xlink:href="#I" x="643.656" y="262.252"/><use xlink:href="#I" x="649.766" y="262.252"/><use xlink:href="#Q" x="655.875" y="262.252"/><use xlink:href="#U" x="661.984" y="262.252"/><use xlink:href="#Q" x="668.094" y="262.252"/><use xlink:href="#ai" x="674.203" y="262.252"/></g><path d="M63 233h608M67 237V29" fill="none" stroke-width=".6" stroke="#1F1F1F" stroke-miterlimit="10"/><path d="M669 230v6l5-3zm0 0M64 31h6l-3-5zm0 0" fill="#7F1F1F"/></svg>