<svg xmlns="http://www.w3.org/2000/svg" xmlns:xlink="http://www.w3.org/1999/xlink" viewBox="0 0 697 273"><defs><symbol overflow="visible" id="bO"><path d="M4.93-3.102c0 .477-.05.91-.145 1.3-.094.392-.238.728-.433 1.005-.192.28-.43.5-.72.652-.284.153-.62.23-1.007.23-.332 0-.633-.062-.906-.187-.275-.125-.505-.316-.7-.578-.192-.257-.34-.59-.446-.992-.105-.402-.156-.88-.156-1.43 0-.472.047-.906.145-1.3.097-.39.242-.727.433-1.008.192-.28.43-.496.72-.65.288-.155.62-.23 1.003-.23.33 0 .635.063.91.188.268.125.503.317.694.58.196.26.344.592.446.995.105.402.16.875.16 1.425zm-.836.032c0-.11-.004-.215-.012-.32-.008-.106-.02-.212-.027-.313L1.43-1.75c.047.164.105.316.18.453.074.14.16.258.26.36.107.1.224.175.353.234.132.055.28.082.45.082.214 0 .41-.056.585-.157.176-.106.328-.262.45-.465.124-.207.218-.465.284-.77.067-.304.102-.656.102-1.058zm-2.84-.06v.294c.004.098.008.195.02.285l2.624-1.942c-.046-.16-.11-.31-.18-.442-.073-.132-.16-.246-.26-.343-.103-.098-.22-.172-.35-.227-.128-.05-.272-.078-.436-.078-.215 0-.41.05-.586.156s-.324.262-.45.47c-.12.206-.218.46-.284.765-.067.303-.098.66-.098 1.06zm0 0"/></symbol><symbol overflow="visible" id="bP"><path d="M2.672-4.852c.098 0 .19.02.28.06.09.038.165.093.232.16.066.066.12.144.16.23.04.09.058.183.058.28 0 .102-.02.196-.058.282-.04.09-.09.164-.16.23-.067.067-.14.122-.23.157-.09.04-.184.058-.282.058-.102 0-.195-.02-.28-.058-.087-.035-.165-.09-.232-.156-.066-.066-.117-.14-.156-.23-.04-.086-.06-.18-.06-.28 0-.1.02-.192.06-.282.04-.086.09-.164.156-.23.067-.067.145-.122.23-.16.087-.04.18-.06.282-.06zm0 3.48c.098 0 .19.02.28.06.09.04.165.093.232.16.066.066.12.144.16.23.04.09.058.184.058.28 0 .103-.02.197-.058.283-.04.087-.09.165-.16.23-.067.068-.14.122-.23.157-.09.04-.184.06-.282.06-.102 0-.195-.02-.28-.06-.087-.04-.165-.09-.232-.156-.066-.065-.117-.14-.156-.23-.04-.085-.06-.18-.06-.28 0-.098.02-.192.06-.282.04-.09.09-.164.156-.23.067-.067.145-.12.23-.16.087-.04.18-.06.282-.06zm0 0"/></symbol><symbol overflow="visible" id="bQ"><path d="M4.734 0H.836v-.77H2.43v-4.527l-1.485.805-.304-.703 1.977-1.04h.73V-.77h1.387zm0 0"/></symbol><symbol overflow="visible" id="bR"><path d="M4.785 0H.7v-.742l1.6-1.594c.266-.258.477-.484.645-.676.164-.187.29-.36.383-.52.09-.155.152-.304.184-.44.03-.14.047-.29.047-.454 0-.152-.02-.297-.06-.433-.043-.136-.105-.257-.19-.363-.087-.105-.197-.187-.333-.246-.137-.057-.3-.09-.49-.09-.26 0-.503.06-.717.177-.215.117-.41.27-.594.453l-.453-.543c.234-.246.504-.445.808-.593.306-.15.66-.223 1.068-.223.273 0 .523.04.75.122.226.082.422.203.59.356.164.156.29.347.378.57.09.226.137.48.137.762 0 .238-.03.457-.094.66-.063.203-.16.402-.29.605-.13.2-.29.406-.484.62-.195.216-.426.454-.69.712L1.77-.79h3.015zm0 0"/></symbol><symbol overflow="visible" id="bS"><path d="M4.668-1.883c0 .27-.06.528-.168.766-.11.238-.277.445-.496.625-.223.18-.5.32-.836.422-.336.105-.727.156-1.176.156-.246 0-.465-.008-.664-.023C1.133.046.948.022.778 0v-.742c.195.035.406.062.624.082.22.02.442.027.668.027.31 0 .575-.027.793-.082.223-.055.403-.137.54-.238.14-.106.242-.23.304-.383.063-.148.094-.316.094-.5 0-.172-.034-.32-.112-.45-.075-.124-.18-.23-.32-.316-.138-.086-.302-.148-.493-.19-.19-.044-.402-.067-.63-.067H1.54v-.675h.714c.187 0 .36-.027.512-.074.152-.05.285-.12.394-.21.11-.094.192-.207.25-.34.06-.137.09-.29.09-.46 0-.333-.102-.575-.305-.724-.203-.152-.5-.23-.894-.23-.206 0-.42.02-.644.062-.222.043-.457.102-.71.184v-.72c.105-.038.222-.073.343-.1.12-.032.24-.06.366-.08.12-.018.242-.034.364-.045.117-.012.234-.016.343-.016.328 0 .62.036.87.106s.458.172.626.305c.167.134.292.298.378.485.086.192.13.407.13.64 0 .357-.09.653-.274.896-.18.243-.43.434-.746.575.16.023.32.074.476.152.156.074.297.172.422.293.125.117.227.258.305.418.08.16.118.34.118.54zm0 0"/></symbol><symbol overflow="visible" id="bT"><path d="M5.094-1.37h-1.06V0h-.843v-1.37H.204V-2.1l2.645-4.105h1.187v4.105h1.06zM3.19-5.407L1.03-2.098h2.16zm0 0"/></symbol><symbol overflow="visible" id="bU"><path d="M4.63-1.984c0 .308-.067.586-.2.84-.133.253-.317.472-.547.652-.235.183-.508.324-.824.426-.318.1-.662.152-1.03.152-.09 0-.19-.004-.296-.008-.105-.004-.21-.012-.316-.02L1.113.036C1.013.023.926.012.843 0v-.75c.173.043.368.07.587.09.222.02.445.027.668.027.254 0 .48-.027.683-.09.204-.058.376-.144.52-.257.14-.114.25-.25.33-.407.073-.16.112-.34.112-.54 0-.385-.14-.667-.418-.843-.277-.175-.672-.265-1.19-.265H.953v-3.168h3.343v.72H1.734v1.74h.54c.296 0 .585.028.87.083.282.055.532.148.75.28.22.138.4.317.532.544.136.227.203.508.203.852zm0 0"/></symbol><symbol overflow="visible" id="bV"><path d="M4.094-2.2h-2.84v-.777h2.84zm0 0"/></symbol><symbol overflow="visible" id="bW"><path d="M4.785-1.56c0 .263-.055.498-.16.705-.11.203-.258.375-.453.51-.192.142-.418.247-.684.322-.26.074-.547.11-.85.11-.34 0-.642-.04-.9-.114-.258-.078-.472-.184-.644-.32C.918-.485.784-.646.7-.833.61-1.02.565-1.222.565-1.45c0-.378.106-.706.317-.98.21-.277.54-.527.984-.75-.406-.207-.703-.433-.89-.687C.79-4.117.7-4.407.7-4.734c0-.2.038-.39.12-.58.082-.186.207-.35.375-.498.164-.145.37-.262.62-.348.25-.086.548-.13.888-.13.32 0 .598.032.84.103.242.066.445.164.61.292.163.125.288.278.37.457.082.18.125.383.125.606 0 .36-.1.668-.3.922-.203.254-.49.473-.86.664.184.09.356.19.516.3.156.114.293.235.41.372.117.136.21.29.274.457.066.168.097.355.097.558zM3.8-4.765c0-.28-.097-.492-.292-.63-.2-.135-.477-.206-.836-.206-.356 0-.63.067-.828.204-.2.136-.297.34-.297.613 0 .125.023.238.07.34.047.105.12.203.223.297.097.09.222.18.37.27.15.09.33.18.532.27.36-.17.625-.34.8-.525.173-.183.26-.394.26-.633zm.087 3.27c0-.117-.02-.23-.055-.34-.04-.113-.105-.223-.203-.328-.1-.11-.232-.215-.396-.324-.164-.106-.375-.22-.63-.332-.213.105-.393.207-.542.312-.148.102-.265.207-.355.313-.09.105-.156.215-.19.328-.04.113-.06.234-.06.363 0 .14.03.266.094.375.063.11.145.204.255.278.105.08.234.133.383.172.148.04.312.06.484.06.168 0 .328-.02.476-.056.15-.035.278-.086.387-.156.11-.07.195-.164.258-.273.062-.11.094-.24.094-.39zm0 0"/></symbol><symbol overflow="visible" id="bX"><path d="M2.637-1.496c.105 0 .207.02.304.062.1.043.18.098.25.172.072.07.13.157.17.254.042.098.062.2.062.31 0 .108-.02.21-.063.303-.04.094-.094.18-.17.25-.07.07-.15.13-.25.168-.096.043-.198.063-.303.063-.114 0-.215-.02-.31-.063-.097-.04-.18-.097-.25-.168-.07-.07-.128-.156-.167-.25-.043-.093-.062-.195-.062-.304 0-.11.02-.214.062-.308.04-.097.094-.183.168-.254.07-.074.152-.13.25-.172.094-.043.195-.062.31-.062zm0 0"/></symbol><symbol overflow="visible" id="bY"><path d="M4.86-1.965c0 .285-.05.55-.153.8-.102.25-.25.47-.437.653-.192.188-.422.332-.688.438-.266.105-.562.16-.89.16-.34 0-.645-.055-.907-.164-.262-.11-.484-.277-.66-.504C.95-.81.812-1.094.723-1.438.63-1.78.583-2.19.583-2.663c0-.316.022-.62.062-.922.042-.297.11-.574.207-.84.093-.26.218-.504.378-.72.157-.217.356-.405.59-.56.235-.157.516-.282.832-.368.32-.086.692-.13 1.114-.13h.613v.72h-.67c-.37 0-.69.046-.96.132-.273.09-.5.215-.684.375-.183.165-.324.356-.42.586-.1.226-.162.48-.19.76l-.018.196c.2-.117.43-.21.69-.28.263-.07.544-.106.85-.106.31 0 .588.043.823.136.235.09.43.22.59.383.157.163.274.355.352.585.078.227.117.477.117.75zm-.864.05c0-.187-.023-.358-.066-.515-.047-.152-.118-.28-.22-.386-.097-.106-.222-.192-.37-.247-.15-.058-.328-.09-.54-.09-.12 0-.24.012-.366.036-.122.02-.243.05-.364.09-.117.04-.23.086-.336.136-.11.05-.207.105-.296.16 0 .41.03.75.085 1.023.06.273.14.492.254.656.114.163.25.284.414.35.165.07.357.106.572.106.18 0 .347-.027.496-.086.152-.058.28-.144.39-.26.11-.115.196-.25.258-.415.063-.165.09-.348.09-.56zm0 0"/></symbol><symbol overflow="visible" id="ca"><path d="M-1.488-5.18c.19 0 .363.032.515.098.153.062.29.152.407.266.117.11.218.242.3.39.082.15.153.305.207.473.056.168.095.34.12.52.026.175.038.35.038.52 0 .37-.016.706-.047 1.018-.034.31-.085.61-.16.907h-.867c.09-.317.16-.633.207-.95.047-.312.07-.625.07-.937 0-.453-.062-.79-.183-1.004-.125-.218-.3-.323-.527-.323-.098 0-.188.016-.262.05-.078.036-.152.098-.223.188-.07.09-.144.23-.222.418-.074.192-.16.45-.258.78-.074.247-.156.474-.25.68-.09.208-.2.388-.328.54-.125.152-.274.274-.442.36-.17.085-.37.128-.605.128-.152 0-.316-.034-.496-.104-.184-.07-.352-.19-.508-.36-.156-.17-.28-.402-.387-.69-.102-.29-.153-.65-.153-1.083 0-.215.012-.453.035-.71.024-.263.063-.536.12-.817h.84c-.07.297-.124.578-.16.844-.034.265-.05.496-.05.69 0 .235.02.435.055.595.035.16.086.293.148.39.063.102.137.172.223.215.086.043.176.067.273.067.1 0 .19-.02.267-.06.078-.034.156-.104.23-.21.075-.102.15-.246.223-.43.074-.183.156-.425.242-.722.094-.32.192-.594.297-.813.1-.222.214-.402.343-.54.125-.136.27-.233.43-.292.156-.062.34-.09.54-.09zm0 0"/></symbol><symbol overflow="visible" id="cb"><path d="M-.2-5.102c.095.247.165.5.208.758.047.258.066.528.066.8 0 .86-.23 1.524-.7 1.99-.464.464-1.147.7-2.042.7-.43 0-.824-.072-1.172-.205-.35-.13-.652-.32-.902-.56-.25-.243-.442-.532-.578-.872-.137-.336-.203-.707-.203-1.11 0-.28.02-.546.058-.793.04-.246.106-.48.195-.707h.903c-.125.235-.21.477-.27.72-.054.245-.082.5-.082.757 0 .242.044.473.138.688.094.214.227.402.398.566.176.163.387.292.637.386.25.093.53.14.844.14.66 0 1.152-.16 1.48-.48.328-.32.49-.766.49-1.332 0-.258-.03-.508-.087-.746-.06-.243-.145-.473-.258-.7zm0 0"/></symbol><symbol overflow="visible" id="cc"><path d="M0-5.246v.945h-3.477c-.42 0-.734.077-.94.234-.208.156-.313.382-.313.675 0 .124.015.245.05.355.035.11.094.226.18.344.086.12.2.25.344.39.144.14.324.304.543.487H0v.946h-7.668v-.946h2.223l.855.032c-.176-.15-.328-.294-.45-.435-.12-.144-.218-.29-.292-.43-.078-.144-.133-.29-.164-.437-.03-.148-.047-.3-.047-.46 0-.544.164-.962.496-1.26.328-.296.828-.444 1.492-.444zm0 0"/></symbol><symbol overflow="visible" id="cd"><path d="M-3.012-5.47c.133 0 .246 0 .336.005.09.004.176.012.258.02v3.824c.555 0 .984-.157 1.28-.47.298-.308.45-.758.45-1.344 0-.16-.007-.32-.02-.476-.01-.16-.03-.317-.05-.46-.023-.15-.047-.294-.074-.427-.027-.137-.06-.262-.09-.38h.774c.074.26.132.548.18.872.042.325.066.66.066 1.008 0 .465-.063.867-.192 1.203-.125.336-.308.614-.55.828-.24.215-.536.375-.883.477-.348.103-.743.153-1.184.153-.384 0-.747-.054-1.09-.164-.34-.11-.64-.27-.9-.48-.26-.212-.464-.474-.616-.782-.153-.31-.227-.657-.227-1.047 0-.378.06-.714.176-1.007.12-.293.29-.54.508-.742.22-.2.485-.35.798-.452.312-.106.664-.157 1.05-.157zm-.136.982c-.243-.012-.46.015-.664.07-.2.06-.372.148-.516.27-.145.12-.258.273-.34.453-.082.18-.12.39-.12.63 0 .206.038.393.116.565.078.168.192.316.336.438.145.124.32.222.524.3.203.075.42.12.664.14zm0 0"/></symbol><symbol overflow="visible" id="ce"><path d="M-2.61-.59c-.464 0-.874-.066-1.234-.19-.36-.126-.664-.306-.91-.54-.25-.235-.437-.516-.566-.84-.13-.328-.192-.695-.192-1.094 0-.176.012-.348.032-.516.023-.167.058-.332.105-.496h-2.293v-.95H0v.85l-1.03.03c.382.266.667.55.85.86.184.308.278.64.278.996 0 .312-.067.585-.196.824-.13.234-.312.433-.55.59-.24.156-.524.277-.856.355-.332.077-.7.12-1.105.12zm-.058-.97c.656 0 1.148-.092 1.473-.288.324-.19.484-.468.484-.82 0-.238-.106-.492-.32-.758-.216-.265-.532-.547-.95-.84h-2.528c-.074.157-.13.329-.168.516-.035.188-.054.375-.054.56 0 .514.164.913.5 1.202.332.29.85.43 1.562.43zm0 0"/></symbol><symbol overflow="visible" id="cf"><path d="M0-5.246v.848l-.88.03c.19.165.345.317.47.466.125.144.226.29.3.433.08.146.13.294.16.44.032.147.048.3.048.464 0 .562-.164.984-.493 1.27-.332.284-.828.43-1.492.43h-3.558v-.947h3.48c.836 0 1.254-.312 1.254-.945 0-.113-.017-.226-.052-.336-.035-.11-.093-.226-.18-.347-.085-.123-.2-.255-.343-.392-.145-.14-.328-.297-.547-.47h-3.613v-.944zm0 0"/></symbol><symbol overflow="visible" id="cg"><path d="M-6.89-2.723v1.61h-.778V-3.68h6.883V-5.3H0v4.366h-.785v-1.79zm0 0"/></symbol><symbol overflow="visible" id="ch"><path d="M-5.445-1.09v-.863l1-.027c-.387-.32-.664-.64-.84-.954-.172-.312-.258-.628-.258-.945 0-.56.18-.99.547-1.284.363-.29.906-.426 1.625-.402v.953c-.478-.008-.82.058-1.036.21-.215.15-.324.372-.324.66 0 .126.023.255.066.384.047.13.117.258.22.395.096.137.225.277.38.43.158.152.345.316.564.488H0v.957zm0 0"/></symbol><symbol overflow="visible" id="cj"><path d="M0-4.367l-.734.02c.293.296.507.597.636.906.13.303.196.624.196.96 0 .312-.04.578-.12.796-.08.223-.19.403-.33.547-.136.145-.3.246-.488.317-.187.066-.394.097-.613.097-.547 0-.977-.203-1.285-.61-.31-.405-.46-1.007-.46-1.804v-1.13h-.482c-.32 0-.578.107-.773.31-.192.207-.29.523-.29.945 0 .31.036.61.102.91.07.297.167.606.292.926h-.85c-.044-.12-.087-.254-.126-.398-.043-.15-.078-.305-.114-.465-.03-.163-.058-.33-.078-.51-.02-.177-.027-.356-.027-.536 0-.328.035-.625.106-.89.074-.266.183-.49.332-.672.148-.18.335-.32.558-.418.223-.098.488-.15.793-.15H0zm-2.48.1v1.2c0 .235.023.438.07.61.047.168.113.31.203.418.086.11.19.188.312.243.122.05.258.078.407.078.105 0 .207-.014.304-.05.094-.03.18-.085.254-.156.075-.074.133-.168.176-.28.043-.118.067-.26.067-.427 0-.215-.067-.465-.2-.746-.133-.276-.34-.573-.63-.886zm0 0"/></symbol><symbol overflow="visible" id="ck"><path d="M-4.676-4.79c.125-.1.274-.18.442-.237.168-.055.35-.082.546-.082.282 0 .54.05.77.153.234.105.434.25.602.437.168.188.296.415.386.676.094.262.14.55.14.864 0 .23-.026.44-.073.64-.05.2-.11.36-.184.473.102.07.2.13.29.176.09.045.19.07.304.07.137 0 .25-.067.34-.2.09-.133.14-.305.148-.524l.055-1.433c.008-.27.04-.52.1-.75.064-.23.15-.426.267-.59.117-.164.258-.293.43-.387.168-.094.367-.137.59-.137.242 0 .472.05.69.156.216.105.407.265.57.484.165.22.298.496.396.832.097.336.144.738.144 1.2 0 .44-.035.816-.105 1.124-.07.31-.168.567-.293.766-.126.2-.275.344-.446.433-.172.09-.36.133-.567.133C.605-.512.37-.57.172-.695c-.2-.12-.39-.313-.574-.57-.043.093-.098.175-.16.245-.067.07-.137.125-.215.168-.078.043-.16.075-.25.098-.086.024-.168.03-.254.03-.236 0-.45-.053-.646-.163-.195-.11-.38-.242-.554-.394-.083.07-.165.128-.243.182-.082.05-.168.098-.257.133-.094.04-.192.07-.3.09-.107.02-.228.027-.365.027-.28 0-.542-.05-.773-.152-.234-.105-.434-.25-.602-.434-.164-.187-.293-.41-.386-.675-.094-.26-.137-.55-.137-.87 0-.133.008-.262.023-.383.02-.125.043-.23.075-.325v-1.976h.77zm5.46 3.274c.26 0 .446-.132.564-.398.117-.27.175-.64.175-1.117 0-.302-.027-.556-.082-.76-.053-.202-.124-.37-.21-.495-.09-.125-.19-.21-.304-.266-.114-.055-.23-.083-.352-.083-.22 0-.383.09-.488.27-.106.183-.164.457-.184.832l-.05 1.42c.082.118.16.215.234.294.078.078.152.14.23.183.08.043.157.074.235.094.08.017.157.024.235.024zM-3.667-1.8c.176 0 .332-.032.477-.087.143-.058.268-.14.37-.246.1-.105.18-.226.234-.37.055-.145.086-.302.086-.477 0-.188-.03-.352-.098-.5-.062-.145-.148-.27-.257-.368-.106-.1-.23-.175-.372-.23-.14-.05-.29-.078-.44-.078-.173 0-.333.027-.478.086-.144.058-.27.14-.37.246-.102.105-.18.226-.235.37-.055.145-.086.302-.086.474 0 .187.035.355.098.503.066.145.152.27.258.368.11.102.23.176.375.23.14.052.285.08.437.08zm0 0"/></symbol><symbol overflow="visible" id="cl"><path d="M5.828-1.672c0 .215-.035.41-.11.578-.073.172-.17.324-.296.457-.13.133-.274.242-.442.336-.168.093-.343.17-.535.234-.187.058-.383.105-.582.132-.2.028-.394.043-.586.043-.414 0-.797-.02-1.144-.055C1.785.02 1.445-.04 1.11-.12V-1.1c.36.102.714.18 1.07.23.35.055.707.08 1.054.08.508 0 .887-.067 1.13-.208.245-.137.366-.336.366-.59 0-.11-.02-.21-.058-.297-.04-.086-.11-.172-.21-.25-.103-.078-.26-.164-.474-.246-.215-.085-.504-.183-.875-.292-.277-.082-.53-.176-.765-.277-.235-.105-.438-.23-.61-.37-.172-.14-.304-.31-.402-.5-.098-.192-.145-.418-.145-.68 0-.168.04-.355.12-.56.077-.202.213-.393.405-.57.19-.175.45-.32.777-.433.324-.117.73-.175 1.22-.175.237 0 .507.015.8.04.293.026.597.073.914.136v.95c-.332-.083-.65-.146-.95-.18-.296-.04-.558-.06-.777-.06-.266 0-.49.02-.67.06-.178.042-.327.097-.44.167-.11.07-.192.156-.238.25-.05.098-.075.2-.075.31 0 .108.02.21.063.3s.12.175.238.257c.117.086.277.168.485.25.207.086.48.176.812.274.363.105.668.214.918.332.246.117.45.246.602.386.156.145.265.305.332.485.066.178.1.382.1.608zm0 0"/></symbol><symbol overflow="visible" id="cm"><path d="M6.215-3.172c0 .543-.078 1.02-.23 1.426C5.83-1.34 5.62-1 5.35-.734c-.27.27-.586.472-.95.605-.367.138-.765.204-1.19.204-.196 0-.392-.01-.583-.03-.196-.02-.392-.056-.59-.106v2.566H.976V-6.13h.945L1.988-5.1c.305-.418.633-.714.977-.882.348-.168.723-.254 1.125-.254.348 0 .656.074.922.218.265.15.484.356.664.622.18.265.312.585.402.964.09.375.137.797.137 1.262zm-1.09.047c0-.32-.02-.617-.066-.887-.048-.265-.122-.496-.224-.687-.102-.19-.234-.34-.39-.448-.16-.11-.352-.16-.57-.16-.134 0-.27.02-.407.062-.142.043-.286.113-.435.215-.148.096-.305.23-.47.393-.163.164-.338.37-.526.614v2.972c.194.08.397.144.616.19.215.047.426.07.633.07.573 0 1.022-.19 1.35-.58.325-.388.485-.974.485-1.755zm0 0"/></symbol><symbol overflow="visible" id="cn"><path d="M3.063-5.25H1.25v-.88h2.887v5.243h1.828V0H1.05v-.887h2.013zm.374-3.45c.118 0 .227.024.33.067.1.043.19.102.264.18.075.078.134.164.177.265.043.098.066.208.066.33 0 .112-.023.217-.066.32-.043.1-.102.19-.176.268-.073.08-.163.137-.264.18-.102.043-.21.067-.329.067-.117 0-.23-.024-.332-.067-.1-.043-.187-.1-.265-.18-.074-.078-.133-.168-.176-.27-.043-.1-.062-.206-.062-.32 0-.12.02-.23.062-.327.043-.102.102-.188.176-.266.074-.078.164-.137.265-.18.102-.043.21-.066.333-.066zm0 0"/></symbol><symbol overflow="visible" id="co"><path d="M.977-6.13h.945l.043.99c.18-.212.35-.387.52-.528.167-.14.33-.254.492-.34.16-.086.324-.144.492-.18.163-.035.335-.05.514-.05.633 0 1.11.187 1.434.558.324.37.484.934.484 1.684V0H4.84v-3.914c0-.48-.09-.832-.27-1.063-.18-.23-.445-.343-.797-.343-.132 0-.257.015-.382.054-.124.04-.253.106-.386.204-.137.093-.28.222-.438.386-.156.164-.332.367-.527.61V0H.976zm0 0"/></symbol><symbol overflow="visible" id="cp"><path d="M3.063-7.75H1.25v-.875h2.887v7.738h1.828V0H1.05v-.887h2.013zm0 0"/></symbol><symbol overflow="visible" id="cq"><path d="M6.152-3.387c0 .15-.004.278-.007.38-.004.1-.008.195-.016.284H1.823c0 .63.176 1.11.528 1.446.347.336.85.504 1.51.504.18 0 .36-.008.54-.024.18-.015.352-.03.516-.058.168-.024.328-.05.48-.083.153-.03.293-.062.426-.1v.874c-.29.082-.617.148-.98.2-.364.05-.742.073-1.133.073-.522 0-.976-.07-1.355-.215-.378-.14-.687-.348-.93-.618-.24-.27-.42-.6-.538-.996-.114-.39-.172-.835-.172-1.33 0-.434.062-.84.183-1.227.125-.383.31-.72.547-1.012.24-.288.528-.522.875-.69.344-.172.74-.258 1.176-.258.43 0 .81.066 1.137.203.328.133.605.324.832.57.226.246.398.543.512.895.117.35.175.746.175 1.183zM5.047-3.54c.012-.272-.012-.522-.078-.75-.068-.226-.17-.417-.302-.58-.137-.165-.31-.29-.512-.384-.203-.09-.437-.137-.707-.137-.23 0-.446.046-.638.136-.19.09-.355.215-.492.38-.14.16-.25.354-.336.585-.086.228-.14.478-.16.75zm0 0"/></symbol><symbol overflow="visible" id="cr"><path d="M6.87 2.504H0v-.88h6.87zm0 0"/></symbol><symbol overflow="visible" id="cs"><path d="M5.914-.086c-.238.063-.488.106-.746.133-.254.027-.516.04-.78.04-.77 0-1.34-.177-1.72-.524-.38-.348-.566-.883-.566-1.602v-3.198H.382v-.89h1.72v-1.684l1.058-.274v1.957h2.754v.892H3.16v3.113c0 .44.117.77.352.988.234.215.578.325 1.035.325.195 0 .41-.016.64-.047.23-.03.473-.078.727-.14zm0 0"/></symbol><symbol overflow="visible" id="ct"><path d="M5.348 0v-4.402c0-.192-.008-.348-.024-.47-.01-.12-.035-.218-.066-.288-.03-.07-.07-.12-.117-.15-.046-.03-.1-.042-.17-.042-.083 0-.157.024-.228.07-.07.052-.144.13-.222.24-.08.108-.168.257-.262.437-.098.18-.21.402-.34.668V0h-.97v-4.285c0-.223-.007-.406-.022-.543-.012-.137-.035-.246-.067-.324-.032-.078-.07-.13-.118-.157-.05-.03-.11-.042-.18-.042-.074 0-.14.02-.207.06-.066.042-.136.112-.214.222-.08.105-.167.25-.265.43-.098.183-.215.417-.348.702V0H.55v-6.13h.81l.05 1.17c.106-.235.207-.43.31-.595.096-.164.202-.293.307-.394.106-.097.22-.17.336-.218.12-.047.254-.07.403-.07.328 0 .578.11.75.324.17.215.257.55.257 1 .098-.21.192-.4.286-.563.092-.164.194-.304.3-.418.11-.11.226-.195.36-.253.128-.06.28-.09.448-.09.77 0 1.156.593 1.156 1.777V0zm0 0"/></symbol><symbol overflow="visible" id="cu"><path d="M5.738-.227c-.277.106-.562.184-.85.235-.294.05-.595.078-.904.078-.968 0-1.71-.262-2.234-.79-.523-.523-.785-1.288-.785-2.3 0-.484.074-.922.226-1.316.15-.395.36-.735.634-1.016.274-.28.598-.496.977-.648.38-.153.798-.23 1.255-.23.316 0 .613.023.89.07.278.042.54.117.793.218v1.012c-.265-.137-.535-.238-.808-.3-.274-.063-.56-.095-.852-.095-.273 0-.53.052-.773.154-.243.105-.453.254-.637.45-.184.194-.328.433-.434.714-.105.28-.16.597-.16.953 0 .743.18 1.294.543 1.665.36.367.86.55 1.496.55.29 0 .57-.03.84-.097.27-.066.53-.164.785-.293zm0 0"/></symbol><symbol overflow="visible" id="cv"><path d="M.664-2.938c0-.52.074-.98.215-1.386.14-.406.343-.746.604-1.028.266-.277.58-.488.95-.632.367-.145.777-.22 1.23-.22.195 0 .387.016.574.04.192.023.375.062.56.117v-2.578h1.07V0h-.954l-.04-1.16c-.296.433-.616.75-.96.957C3.566.004 3.19.11 2.79.11c-.353 0-.657-.075-.927-.22-.265-.148-.488-.35-.664-.62-.177-.266-.31-.586-.4-.96C.71-2.067.665-2.48.665-2.94zm1.086-.066c0 .742.11 1.293.328 1.656.22.368.527.547.926.547.27 0 .55-.118.85-.36.298-.238.615-.594.943-1.067V-5.07c-.176-.082-.367-.145-.578-.188-.212-.043-.423-.062-.63-.062-.578 0-1.03.183-1.352.558-.324.375-.488.96-.488 1.758zm0 0"/></symbol><symbol overflow="visible" id="cw"><path d="M1.227-6.13h.968L2.227-5c.363-.434.718-.75 1.074-.945.352-.196.708-.293 1.063-.293.637 0 1.117.207 1.446.617.327.41.475 1.018.452 1.83H5.188c.01-.538-.067-.93-.235-1.17-.168-.243-.418-.36-.742-.36-.14 0-.284.023-.43.074-.143.05-.292.133-.444.246-.152.11-.316.254-.484.43-.172.175-.356.386-.55.633V0H1.226zm0 0"/></symbol><symbol overflow="visible" id="cx"><path d="M6.426-6.13L4.34-.647c-.215.558-.438 1.04-.668 1.44-.23.403-.48.735-.754.993-.273.258-.57.45-.898.57-.325.122-.688.184-1.09.184-.106 0-.203-.005-.29-.01-.085-.003-.18-.007-.28-.014V1.55c.09.012.187.024.292.032.106.012.22.016.336.016.196 0 .38-.028.547-.082.168-.06.328-.153.48-.282.15-.13.294-.293.434-.496.136-.203.27-.45.402-.738L.402-6.13H1.61l1.55 4.056.313.95.355-.978L5.262-6.13zm0 0"/></symbol><symbol overflow="visible" id="cy"><path d="M5.262-2.824H1.61v-1.004H5.26zm0 0"/></symbol><symbol overflow="visible" id="cz"><path d="M6.086 0H1.074v-.988h2.05v-5.825l-1.91 1.04-.39-.903 2.54-1.34h.94v7.028h1.782zm0 0"/></symbol><symbol overflow="visible" id="cB"><path d="M5.41 0H.953v-.88h1.824v-5.175l-1.7.922-.343-.8 2.254-1.192h.836V-.88H5.41zm0 0"/></symbol><symbol overflow="visible" id="cC"><path d="M5.777 0H4.523L3.055-2.078 1.602 0H.38L2.49-2.734.477-5.444h1.21l1.434 2.092 1.403-2.093H5.69L3.646-2.71zm0 0"/></symbol><symbol overflow="visible" id="cD"><path d="M5.633-3.543c0 .543-.055 1.04-.164 1.484-.11.447-.275.83-.493 1.15-.223.32-.497.57-.825.746-.328.176-.71.262-1.152.262-.38 0-.727-.07-1.035-.215-.313-.14-.578-.363-.797-.66C.945-1.074.778-1.45.656-1.91c-.12-.46-.18-1.004-.18-1.633 0-.543.055-1.04.17-1.488.108-.45.272-.833.49-1.154.22-.32.493-.566.82-.742.333-.176.716-.26 1.153-.26.378-.002.726.07 1.035.213.312.14.578.364.796.66.224.297.392.676.513 1.137.117.46.18 1.004.18 1.633zm-.957.03c0-.12-.004-.24-.012-.362-.008-.12-.02-.242-.03-.355l-3 2.226c.054.188.124.363.206.524.082.16.183.296.3.41.118.113.25.203.403.265.148.063.32.094.512.094.246 0 .468-.06.668-.18.203-.118.375-.297.515-.532.14-.234.25-.527.324-.875.075-.348.114-.754.114-1.215zm-3.242-.06v.335c.004.113.007.218.02.324l3-2.22c-.056-.182-.122-.35-.204-.503-.086-.152-.184-.285-.3-.394-.118-.11-.247-.197-.395-.26-.15-.062-.317-.09-.5-.09-.246 0-.47.06-.672.177-.2.12-.37.3-.512.535-.14.238-.25.53-.323.88-.078.35-.113.753-.113 1.214zm0 0"/></symbol><symbol overflow="visible" id="cE"><path d="M5.12 0H1.09v-7.09h4.03v.813H2.056v2.2h2.95v.81h-2.95v2.443H5.12zm0 0"/></symbol><symbol overflow="visible" id="cF"><path d="M1.09-5.445h.863l.027 1c.32-.387.64-.664.954-.84.312-.172.628-.258.945-.258.56 0 .99.18 1.284.547.29.363.426.906.402 1.625h-.953c.008-.478-.058-.82-.21-1.036-.15-.215-.372-.324-.66-.324-.126 0-.255.023-.384.066-.13.047-.258.117-.395.22-.137.096-.277.225-.43.38-.152.158-.316.345-.488.564V0H1.09zm0 0"/></symbol><symbol overflow="visible" id="cG"><path d="M5.61-2.766c0 .422-.06.81-.18 1.164-.117.352-.29.653-.516.907-.223.25-.496.445-.816.586C3.773.028 3.41.1 3 .1c-.39 0-.742-.063-1.05-.184-.31-.12-.57-.297-.786-.53-.215-.236-.38-.53-.492-.876C.56-1.84.5-2.238.5-2.692c0-.42.06-.808.18-1.156.117-.35.29-.652.515-.902.223-.25.496-.445.817-.586.324-.14.687-.207 1.097-.207.39 0 .738.06 1.05.18.31.12.57.297.785.53.215.235.38.524.492.872.114.347.172.745.172 1.194zm-.965.043c0-.336-.04-.632-.114-.882-.073-.25-.178-.46-.315-.63-.137-.167-.305-.296-.5-.378-.2-.086-.418-.13-.66-.13-.282 0-.524.056-.723.165-.203.113-.367.258-.496.445-.13.184-.223.4-.28.64-.06.247-.09.5-.09.77 0 .336.034.63.108.883.074.254.184.465.32.633.137.168.305.293.5.38.196.085.415.128.66.128.282 0 .524-.054.723-.167.203-.11.368-.258.496-.442.13-.182.223-.397.282-.64.058-.245.09-.503.09-.773zm0 0"/></symbol><symbol overflow="visible" id="cH"><path d="M5.47 0H4.21L2.146-4.422l-.598-1.422V0H.645v-7.09h1.242L3.86-2.902l.706 1.62V-7.09h.903zm0 0"/></symbol><symbol overflow="visible" id="cI"><path d="M4.754 0v-3.91c0-.172-.008-.313-.02-.418-.01-.11-.035-.195-.058-.258-.028-.062-.063-.11-.106-.133-.043-.026-.093-.038-.152-.038-.074 0-.14.02-.203.067-.063.042-.125.112-.2.21-.07.097-.144.226-.23.386-.086.16-.187.36-.3.594V0H2.62v-3.81c0-.198-.007-.358-.018-.483-.012-.12-.032-.22-.06-.285-.026-.07-.062-.117-.104-.14-.043-.028-.098-.04-.16-.04-.063 0-.126.02-.184.055-.06.035-.12.1-.192.195-.07.094-.148.223-.238.383-.086.164-.187.37-.31.625V0H.49v-5.445h.723l.044 1.035c.094-.207.183-.383.273-.527.09-.145.18-.262.274-.348.095-.09.196-.156.302-.195.105-.043.226-.063.355-.063.293 0 .516.094.668.285.152.192.227.488.227.89.086-.187.17-.355.257-.503.08-.146.17-.27.265-.368.098-.098.203-.176.32-.227.114-.055.25-.078.4-.078.682 0 1.026.523 1.026 1.578V0zm0 0"/></symbol><symbol overflow="visible" id="cJ"><path d="M4.367 0l-.02-.734c-.296.293-.597.507-.906.636-.303.13-.624.196-.96.196-.312 0-.578-.04-.796-.12-.223-.08-.403-.19-.547-.33C.992-.488.89-.652.82-.84c-.066-.187-.097-.394-.097-.613 0-.547.203-.977.61-1.285.405-.31 1.007-.46 1.804-.46h1.13v-.482c0-.32-.107-.578-.31-.773-.207-.192-.523-.29-.945-.29-.31 0-.61.036-.91.102-.297.07-.606.167-.926.292v-.85c.12-.044.254-.087.398-.126.15-.043.305-.078.465-.114.163-.03.33-.058.51-.078.177-.02.356-.027.536-.027.328 0 .625.035.89.106.266.074.49.183.672.332.18.148.32.335.418.558.098.223.15.488.15.793V0zm-.1-2.48h-1.2c-.235 0-.438.023-.61.07-.168.047-.31.113-.418.203-.11.086-.188.19-.243.312-.05.122-.078.258-.078.407 0 .105.014.207.05.304.03.094.085.18.156.254.074.075.168.133.28.176.118.043.26.067.427.067.215 0 .465-.067.746-.2.276-.133.573-.34.886-.63zm0 0"/></symbol><symbol overflow="visible" id="cK"><path d="M2.723-6.89h-1.61v-.778H3.68v6.883H5.3V0H.935v-.785h1.79zm0 0"/></symbol><symbol overflow="visible" id="cL"><path d="M5.715-3.625c0 .34-.027.668-.082.977-.05.312-.137.6-.25.867-.117.268-.266.51-.45.73-.187.218-.413.405-.68.562-.27.156-.577.277-.933.36C2.965-.044 2.563 0 2.11 0H.59v-7.09h1.828c1.11 0 1.934.285 2.477.852.546.57.82 1.44.82 2.613zm-1.016.07c0-.504-.048-.925-.14-1.273-.095-.348-.24-.63-.43-.84-.192-.215-.435-.37-.724-.465-.29-.097-.63-.144-1.02-.144H1.56v5.44h.717C3.89-.836 4.7-1.74 4.7-3.554zm0 0"/></symbol><symbol overflow="visible" id="cM"><path d="M2.723-4.664h-1.61v-.78H3.68v4.66H5.3V0H.935v-.785h1.79zm.332-3.066c.105 0 .203.02.293.054.09.04.168.094.234.16.066.07.12.15.16.24.035.088.055.182.055.288 0 .1-.02.2-.055.29-.04.09-.09.167-.16.237-.066.065-.144.12-.234.16-.09.038-.188.054-.293.054-.106 0-.203-.02-.293-.055-.09-.04-.168-.095-.235-.16-.066-.07-.12-.15-.16-.24-.04-.09-.054-.187-.054-.288 0-.106.02-.203.054-.29.04-.09.09-.167.16-.238.067-.066.145-.12.235-.16.09-.035.187-.054.293-.054zm0 0"/></symbol><symbol overflow="visible" id="cN"><path d="M5.258-.074c-.215.054-.434.09-.664.113-.227.022-.457.034-.692.034-.683 0-1.195-.152-1.53-.46-.337-.31-.505-.786-.505-1.427v-2.843H.344v-.79h1.523v-1.5l.942-.242v1.743h2.448v.79h-2.45v2.768c0 .39.106.68.313.875.208.196.517.29.923.29.172 0 .363-.012.57-.04.203-.027.418-.07.645-.13zm0 0"/></symbol><symbol overflow="visible" id="cO"><path d="M5.715-5.445L3.86-.575C3.667-.077 3.47.35 3.26.708c-.203.356-.426.648-.668.88-.242.23-.508.397-.797.507-.29.11-.613.164-.973.164-.094 0-.18-.004-.254-.008-.078-.004-.16-.008-.25-.016V1.38c.078.01.168.018.262.026.094.012.19.016.297.016.17 0 .335-.027.483-.078.153-.05.293-.133.426-.246.132-.114.26-.262.386-.442.12-.18.242-.398.36-.656L.358-5.445h1.074l1.375 3.6.276.845.316-.867 1.274-3.578zm0 0"/></symbol><clipPath id="a"><path d="M135 32h2v202h-2zm0 0"/></clipPath><clipPath id="b"><path d="M136 32h2v202h-2zm0 0"/></clipPath><clipPath id="c"><path d="M137 32h2v202h-2zm0 0"/></clipPath><clipPath id="d"><path d="M138 32h2v202h-2zm0 0"/></clipPath><clipPath id="e"><path d="M139 32h2v202h-2zm0 0"/></clipPath><clipPath id="f"><path d="M140 32h2v202h-2zm0 0"/></clipPath><clipPath id="g"><path d="M141 32h2v202h-2zm0 0"/></clipPath><clipPath id="h"><path d="M142 32h2v202h-2zm0 0"/></clipPath><clipPath id="i"><path d="M143 32h2v202h-2zm0 0"/></clipPath><clipPath id="j"><path d="M144 32h2v202h-2zm0 0"/></clipPath><clipPath id="k"><path d="M145 32h2v202h-2zm0 0"/></clipPath><clipPath id="l"><path d="M146 32h2v202h-2zm0 0"/></clipPath><clipPath id="m"><path d="M147 32h2v202h-2zm0 0"/></clipPath><clipPath id="n"><path d="M148 32h2v202h-2zm0 0"/></clipPath><clipPath id="o"><path d="M149 32h2v202h-2zm0 0"/></clipPath><clipPath id="p"><path d="M150 32h2v202h-2zm0 0"/></clipPath><clipPath id="q"><path d="M151 32h2v202h-2zm0 0"/></clipPath><clipPath id="r"><path d="M152 32h2v202h-2zm0 0"/></clipPath><clipPath id="s"><path d="M153 32h2v202h-2zm0 0"/></clipPath><clipPath id="t"><path d="M154 32h2v202h-2zm0 0"/></clipPath><clipPath id="u"><path d="M155 32h2v202h-2zm0 0"/></clipPath><clipPath id="v"><path d="M156 32h2v202h-2zm0 0"/></clipPath><clipPath id="w"><path d="M157 32h2v202h-2zm0 0"/></clipPath><clipPath id="x"><path d="M234 32h2v202h-2zm0 0"/></clipPath><clipPath id="y"><path d="M235 32h2v202h-2zm0 0"/></clipPath><clipPath id="z"><path d="M236 32h2v202h-2zm0 0"/></clipPath><clipPath id="A"><path d="M237 32h2v202h-2zm0 0"/></clipPath><clipPath id="B"><path d="M238 32h2v202h-2zm0 0"/></clipPath><clipPath id="C"><path d="M239 32h2v202h-2zm0 0"/></clipPath><clipPath id="D"><path d="M240 32h2v202h-2zm0 0"/></clipPath><clipPath id="E"><path d="M241 32h2v202h-2zm0 0"/></clipPath><clipPath id="F"><path d="M242 32h2v202h-2zm0 0"/></clipPath><clipPath id="G"><path d="M243 32h2v202h-2zm0 0"/></clipPath><clipPath id="H"><path d="M244 32h2v202h-2zm0 0"/></clipPath><clipPath id="I"><path d="M245 32h2v202h-2zm0 0"/></clipPath><clipPath id="J"><path d="M246 32h2v202h-2zm0 0"/></clipPath><clipPath id="K"><path d="M247 32h2v202h-2zm0 0"/></clipPath><clipPath id="L"><path d="M248 32h2v202h-2zm0 0"/></clipPath><clipPath id="M"><path d="M249 32h2v202h-2zm0 0"/></clipPath><clipPath id="N"><path d="M250 32h2v202h-2zm0 0"/></clipPath><clipPath id="O"><path d="M251 32h2v202h-2zm0 0"/></clipPath><clipPath id="P"><path d="M252 32h2v202h-2zm0 0"/></clipPath><clipPath id="Q"><path d="M253 32h2v202h-2zm0 0"/></clipPath><clipPath id="R"><path d="M254 32h2v202h-2zm0 0"/></clipPath><clipPath id="S"><path d="M255 32h2v202h-2zm0 0"/></clipPath><clipPath id="T"><path d="M256 32h2v202h-2zm0 0"/></clipPath><clipPath id="U"><path d="M257 32h2v202h-2zm0 0"/></clipPath><clipPath id="V"><path d="M258 32h2v202h-2zm0 0"/></clipPath><clipPath id="W"><path d="M259 32h2v202h-2zm0 0"/></clipPath><clipPath id="X"><path d="M260 32h2v202h-2zm0 0"/></clipPath><clipPath id="Y"><path d="M261 32h2v202h-2zm0 0"/></clipPath><clipPath id="Z"><path d="M262 32h2v202h-2zm0 0"/></clipPath><clipPath id="aa"><path d="M263 32h2v202h-2zm0 0"/></clipPath><clipPath id="ab"><path d="M340 32h2v202h-2zm0 0"/></clipPath><clipPath id="ac"><path d="M341 32h2v202h-2zm0 0"/></clipPath><clipPath id="ad"><path d="M342 32h2v202h-2zm0 0"/></clipPath><clipPath id="ae"><path d="M343 32h2v202h-2zm0 0"/></clipPath><clipPath id="af"><path d="M344 32h2v202h-2zm0 0"/></clipPath><clipPath id="ag"><path d="M345 32h2v202h-2zm0 0"/></clipPath><clipPath id="ah"><path d="M346 32h2v202h-2zm0 0"/></clipPath><clipPath id="ai"><path d="M347 32h2v202h-2zm0 0"/></clipPath><clipPath id="aj"><path d="M348 32h2v202h-2zm0 0"/></clipPath><clipPath id="ak"><path d="M349 32h2v202h-2zm0 0"/></clipPath><clipPath id="al"><path d="M350 32h2v202h-2zm0 0"/></clipPath><clipPath id="am"><path d="M351 32h2v202h-2zm0 0"/></clipPath><clipPath id="an"><path d="M352 32h2v202h-2zm0 0"/></clipPath><clipPath id="ao"><path d="M353 32h2v202h-2zm0 0"/></clipPath><clipPath id="ap"><path d="M354 32h2v202h-2zm0 0"/></clipPath><clipPath id="aq"><path d="M355 32h2v202h-2zm0 0"/></clipPath><clipPath id="ar"><path d="M356 32h2v202h-2zm0 0"/></clipPath><clipPath id="as"><path d="M357 32h2v202h-2zm0 0"/></clipPath><clipPath id="at"><path d="M358 32h2v202h-2zm0 0"/></clipPath><clipPath id="au"><path d="M359 32h2v202h-2zm0 0"/></clipPath><clipPath id="av"><path d="M360 32h2v202h-2zm0 0"/></clipPath><clipPath id="aw"><path d="M361 32h2v202h-2zm0 0"/></clipPath><clipPath id="ax"><path d="M362 32h2v202h-2zm0 0"/></clipPath><clipPath id="ay"><path d="M363 32h2v202h-2zm0 0"/></clipPath><clipPath id="az"><path d="M364 32h2v202h-2zm0 0"/></clipPath><clipPath id="aA"><path d="M365 32h2v202h-2zm0 0"/></clipPath><clipPath id="aB"><path d="M366 32h2v202h-2zm0 0"/></clipPath><clipPath id="aC"><path d="M367 32h2v202h-2zm0 0"/></clipPath><clipPath id="aD"><path d="M368 32h2v202h-2zm0 0"/></clipPath><clipPath id="aE"><path d="M369 32h2v202h-2zm0 0"/></clipPath><clipPath id="aF"><path d="M446 32h2v202h-2zm0 0"/></clipPath><clipPath id="aG"><path d="M447 32h2v202h-2zm0 0"/></clipPath><clipPath id="aH"><path d="M448 32h2v202h-2zm0 0"/></clipPath><clipPath id="aI"><path d="M449 32h2v202h-2zm0 0"/></clipPath><clipPath id="aJ"><path d="M450 32h2v202h-2zm0 0"/></clipPath><clipPath id="aK"><path d="M451 32h2v202h-2zm0 0"/></clipPath><clipPath id="aL"><path d="M452 32h2v202h-2zm0 0"/></clipPath><clipPath id="aM"><path d="M453 32h2v202h-2zm0 0"/></clipPath><clipPath id="aN"><path d="M454 32h2v202h-2zm0 0"/></clipPath><clipPath id="aO"><path d="M455 32h2v202h-2zm0 0"/></clipPath><clipPath id="aP"><path d="M456 32h2v202h-2zm0 0"/></clipPath><clipPath id="aQ"><path d="M457 32h2v202h-2zm0 0"/></clipPath><clipPath id="aR"><path d="M458 32h2v202h-2zm0 0"/></clipPath><clipPath id="aS"><path d="M459 32h2v202h-2zm0 0"/></clipPath><clipPath id="aT"><path d="M460 32h2v202h-2zm0 0"/></clipPath><clipPath id="aU"><path d="M461 32h2v202h-2zm0 0"/></clipPath><clipPath id="aV"><path d="M462 32h2v202h-2zm0 0"/></clipPath><clipPath id="aW"><path d="M463 32h2v202h-2zm0 0"/></clipPath><clipPath id="aX"><path d="M464 32h2v202h-2zm0 0"/></clipPath><clipPath id="aY"><path d="M465 32h2v202h-2zm0 0"/></clipPath><clipPath id="aZ"><path d="M466 32h2v202h-2zm0 0"/></clipPath><clipPath id="ba"><path d="M467 32h2v202h-2zm0 0"/></clipPath><clipPath id="bb"><path d="M468 32h2v202h-2zm0 0"/></clipPath><clipPath id="bc"><path d="M469 32h2v202h-2zm0 0"/></clipPath><clipPath id="bd"><path d="M470 32h2v202h-2zm0 0"/></clipPath><clipPath id="be"><path d="M471 32h2v202h-2zm0 0"/></clipPath><clipPath id="bf"><path d="M472 32h2v202h-2zm0 0"/></clipPath><clipPath id="bg"><path d="M473 32h2v202h-2zm0 0"/></clipPath><clipPath id="bh"><path d="M474 32h2v202h-2zm0 0"/></clipPath><clipPath id="bi"><path d="M475 32h2v202h-2zm0 0"/></clipPath><clipPath id="bj"><path d="M476 32h2v202h-2zm0 0"/></clipPath><clipPath id="bk"><path d="M553 32h2v202h-2zm0 0"/></clipPath><clipPath id="bl"><path d="M554 32h2v202h-2zm0 0"/></clipPath><clipPath id="bm"><path d="M555 32h2v202h-2zm0 0"/></clipPath><clipPath id="bn"><path d="M556 32h2v202h-2zm0 0"/></clipPath><clipPath id="bo"><path d="M557 32h2v202h-2zm0 0"/></clipPath><clipPath id="bp"><path d="M558 32h2v202h-2zm0 0"/></clipPath><clipPath id="bq"><path d="M559 32h2v202h-2zm0 0"/></clipPath><clipPath id="br"><path d="M560 32h2v202h-2zm0 0"/></clipPath><clipPath id="bs"><path d="M561 32h2v202h-2zm0 0"/></clipPath><clipPath id="bt"><path d="M562 32h2v202h-2zm0 0"/></clipPath><clipPath id="bu"><path d="M563 32h2v202h-2zm0 0"/></clipPath><clipPath id="bv"><path d="M564 32h2v202h-2zm0 0"/></clipPath><clipPath id="bw"><path d="M565 32h2v202h-2zm0 0"/></clipPath><clipPath id="bx"><path d="M566 32h2v202h-2zm0 0"/></clipPath><clipPath id="by"><path d="M567 32h2v202h-2zm0 0"/></clipPath><clipPath id="bz"><path d="M568 32h2v202h-2zm0 0"/></clipPath><clipPath id="bA"><path d="M569 32h2v202h-2zm0 0"/></clipPath><clipPath id="bB"><path d="M570 32h2v202h-2zm0 0"/></clipPath><clipPath id="bC"><path d="M571 32h2v202h-2zm0 0"/></clipPath><clipPath id="bD"><path d="M572 32h2v202h-2zm0 0"/></clipPath><clipPath id="bE"><path d="M573 32h2v202h-2zm0 0"/></clipPath><clipPath id="bF"><path d="M574 32h2v202h-2zm0 0"/></clipPath><clipPath id="bG"><path d="M575 32h2v202h-2zm0 0"/></clipPath><clipPath id="bH"><path d="M576 32h2v202h-2zm0 0"/></clipPath><clipPath id="bI"><path d="M577 32h2v202h-2zm0 0"/></clipPath><clipPath id="bJ"><path d="M578 32h2v202h-2zm0 0"/></clipPath><clipPath id="bK"><path d="M579 32h2v202h-2zm0 0"/></clipPath><clipPath id="bL"><path d="M580 32h2v202h-2zm0 0"/></clipPath><clipPath id="bM"><path d="M581 32h2v202h-2zm0 0"/></clipPath><clipPath id="bN"><path d="M582 32h2v202h-2zm0 0"/></clipPath></defs><path fill="#F2F2F2" d="M0 0h697v273H0z"/><path d="M67 233h600V33H67zm0 0" fill="#FFF"/><g clip-path="url(#a)"><path d="M136 234V33" fill="none" stroke="#000" stroke-opacity=".125" stroke-miterlimit="10"/></g><g clip-path="url(#b)"><path d="M137 234V33" fill="none" stroke="#000" stroke-opacity=".125" stroke-miterlimit="10"/></g><g clip-path="url(#c)"><path d="M138 234V33" fill="none" stroke="#000" stroke-opacity=".125" stroke-miterlimit="10"/></g><g clip-path="url(#d)"><path d="M139 234V33" fill="none" stroke="#000" stroke-opacity=".125" stroke-miterlimit="10"/></g><g clip-path="url(#e)"><path d="M140 234V33" fill="none" stroke="#000" stroke-opacity=".125" stroke-miterlimit="10"/></g><g clip-path="url(#f)"><path d="M141 234V33" fill="none" stroke="#000" stroke-opacity=".125" stroke-miterlimit="10"/></g><g clip-path="url(#g)"><path d="M142 234V33" fill="none" stroke="#000" stroke-opacity=".125" stroke-miterlimit="10"/></g><g clip-path="url(#h)"><path d="M143 234V33" fill="none" stroke="#000" stroke-opacity=".125" stroke-miterlimit="10"/></g><g clip-path="url(#i)"><path d="M144 234V33" fill="none" stroke="#000" stroke-opacity=".125" stroke-miterlimit="10"/></g><g clip-path="url(#j)"><path d="M145 234V33" fill="none" stroke="#000" stroke-opacity=".125" stroke-miterlimit="10"/></g><g clip-path="url(#k)"><path d="M146 234V33" fill="none" stroke="#000" stroke-opacity=".125" stroke-miterlimit="10"/></g><g clip-path="url(#l)"><path d="M147 234V33" fill="none" stroke="#000" stroke-opacity=".125" stroke-miterlimit="10"/></g><g clip-path="url(#m)"><path d="M148 234V33" fill="none" stroke="#000" stroke-opacity=".125" stroke-miterlimit="10"/></g><g clip-path="url(#n)"><path d="M149 234V33" fill="none" stroke="#000" stroke-opacity=".125" stroke-miterlimit="10"/></g><g clip-path="url(#o)"><path d="M150 234V33" fill="none" stroke="#000" stroke-opacity=".125" stroke-miterlimit="10"/></g><g clip-path="url(#p)"><path d="M151 234V33" fill="none" stroke="#000" stroke-opacity=".125" stroke-miterlimit="10"/></g><g clip-path="url(#q)"><path d="M152 234V33" fill="none" stroke="#000" stroke-opacity=".125" stroke-miterlimit="10"/></g><g clip-path="url(#r)"><path d="M153 234V33" fill="none" stroke="#000" stroke-opacity=".125" stroke-miterlimit="10"/></g><g clip-path="url(#s)"><path d="M154 234V33" fill="none" stroke="#000" stroke-opacity=".125" stroke-miterlimit="10"/></g><g clip-path="url(#t)"><path d="M155 234V33" fill="none" stroke="#000" stroke-opacity=".125" stroke-miterlimit="10"/></g><g clip-path="url(#u)"><path d="M156 234V33" fill="none" stroke="#000" stroke-opacity=".125" stroke-miterlimit="10"/></g><g clip-path="url(#v)"><path d="M157 234V33" fill="none" stroke="#000" stroke-opacity=".125" stroke-miterlimit="10"/></g><g clip-path="url(#w)"><path d="M158 234V33" fill="none" stroke="#000" stroke-opacity=".125" stroke-miterlimit="10"/></g><g clip-path="url(#x)"><path d="M235 234V33" fill="none" stroke="#000" stroke-opacity=".125" stroke-miterlimit="10"/></g><g clip-path="url(#y)"><path d="M236 234V33" fill="none" stroke="#000" stroke-opacity=".125" stroke-miterlimit="10"/></g><g clip-path="url(#z)"><path d="M237 234V33" fill="none" stroke="#000" stroke-opacity=".125" stroke-miterlimit="10"/></g><g clip-path="url(#A)"><path d="M238 234V33" fill="none" stroke="#000" stroke-opacity=".125" stroke-miterlimit="10"/></g><g clip-path="url(#B)"><path d="M239 234V33" fill="none" stroke="#000" stroke-opacity=".125" stroke-miterlimit="10"/></g><g clip-path="url(#C)"><path d="M240 234V33" fill="none" stroke="#000" stroke-opacity=".125" stroke-miterlimit="10"/></g><g clip-path="url(#D)"><path d="M241 234V33" fill="none" stroke="#000" stroke-opacity=".125" stroke-miterlimit="10"/></g><g clip-path="url(#E)"><path d="M242 234V33" fill="none" stroke="#000" stroke-opacity=".125" stroke-miterlimit="10"/></g><g clip-path="url(#F)"><path d="M243 234V33" fill="none" stroke="#000" stroke-opacity=".125" stroke-miterlimit="10"/></g><g clip-path="url(#G)"><path d="M244 234V33" fill="none" stroke="#000" stroke-opacity=".125" stroke-miterlimit="10"/></g><g clip-path="url(#H)"><path d="M245 234V33" fill="none" stroke="#000" stroke-opacity=".125" stroke-miterlimit="10"/></g><g clip-path="url(#I)"><path d="M246 234V33" fill="none" stroke="#000" stroke-opacity=".125" stroke-miterlimit="10"/></g><g clip-path="url(#J)"><path d="M247 234V33" fill="none" stroke="#000" stroke-opacity=".125" stroke-miterlimit="10"/></g><g clip-path="url(#K)"><path d="M248 234V33" fill="none" stroke="#000" stroke-opacity=".125" stroke-miterlimit="10"/></g><g clip-path="url(#L)"><path d="M249 234V33" fill="none" stroke="#000" stroke-opacity=".125" stroke-miterlimit="10"/></g><g clip-path="url(#M)"><path d="M250 234V33" fill="none" stroke="#000" stroke-opacity=".125" stroke-miterlimit="10"/></g><g clip-path="url(#N)"><path d="M251 234V33" fill="none" stroke="#000" stroke-opacity=".125" stroke-miterlimit="10"/></g><g clip-path="url(#O)"><path d="M252 234V33" fill="none" stroke="#000" stroke-opacity=".125" stroke-miterlimit="10"/></g><g clip-path="url(#P)"><path d="M253 234V33" fill="none" stroke="#000" stroke-opacity=".125" stroke-miterlimit="10"/></g><g clip-path="url(#Q)"><path d="M254 234V33" fill="none" stroke="#000" stroke-opacity=".125" stroke-miterlimit="10"/></g><g clip-path="url(#R)"><path d="M255 234V33" fill="none" stroke="#000" stroke-opacity=".125" stroke-miterlimit="10"/></g><g clip-path="url(#S)"><path d="M256 234V33" fill="none" stroke="#000" stroke-opacity=".125" stroke-miterlimit="10"/></g><g clip-path="url(#T)"><path d="M257 234V33" fill="none" stroke="#000" stroke-opacity=".125" stroke-miterlimit="10"/></g><g clip-path="url(#U)"><path d="M258 234V33" fill="none" stroke="#000" stroke-opacity=".125" stroke-miterlimit="10"/></g><g clip-path="url(#V)"><path d="M259 234V33" fill="none" stroke="#000" stroke-opacity=".125" stroke-miterlimit="10"/></g><g clip-path="url(#W)"><path d="M260 234V33" fill="none" stroke="#000" stroke-opacity=".125" stroke-miterlimit="10"/></g><g clip-path="url(#X)"><path d="M261 234V33" fill="none" stroke="#000" stroke-opacity=".125" stroke-miterlimit="10"/></g><g clip-path="url(#Y)"><path d="M262 234V33" fill="none" stroke="#000" stroke-opacity=".125" stroke-miterlimit="10"/></g><g clip-path="url(#Z)"><path d="M263 234V33" fill="none" stroke="#000" stroke-opacity=".125" stroke-miterlimit="10"/></g><g clip-path="url(#aa)"><path d="M264 234V33" fill="none" stroke="#000" stroke-opacity=".125" stroke-miterlimit="10"/></g><g clip-path="url(#ab)"><path d="M341 234V33" fill="none" stroke="#000" stroke-opacity=".125" stroke-miterlimit="10"/></g><g clip-path="url(#ac)"><path d="M342 234V33" fill="none" stroke="#000" stroke-opacity=".125" stroke-miterlimit="10"/></g><g clip-path="url(#ad)"><path d="M343 234V33" fill="none" stroke="#000" stroke-opacity=".125" stroke-miterlimit="10"/></g><g clip-path="url(#ae)"><path d="M344 234V33" fill="none" stroke="#000" stroke-opacity=".125" stroke-miterlimit="10"/></g><g clip-path="url(#af)"><path d="M345 234V33" fill="none" stroke="#000" stroke-opacity=".125" stroke-miterlimit="10"/></g><g clip-path="url(#ag)"><path d="M346 234V33" fill="none" stroke="#000" stroke-opacity=".125" stroke-miterlimit="10"/></g><g clip-path="url(#ah)"><path d="M347 234V33" fill="none" stroke="#000" stroke-opacity=".125" stroke-miterlimit="10"/></g><g clip-path="url(#ai)"><path d="M348 234V33" fill="none" stroke="#000" stroke-opacity=".125" stroke-miterlimit="10"/></g><g clip-path="url(#aj)"><path d="M349 234V33" fill="none" stroke="#000" stroke-opacity=".125" stroke-miterlimit="10"/></g><g clip-path="url(#ak)"><path d="M350 234V33" fill="none" stroke="#000" stroke-opacity=".125" stroke-miterlimit="10"/></g><g clip-path="url(#al)"><path d="M351 234V33" fill="none" stroke="#000" stroke-opacity=".125" stroke-miterlimit="10"/></g><g clip-path="url(#am)"><path d="M352 234V33" fill="none" stroke="#000" stroke-opacity=".125" stroke-miterlimit="10"/></g><g clip-path="url(#an)"><path d="M353 234V33" fill="none" stroke="#000" stroke-opacity=".125" stroke-miterlimit="10"/></g><g clip-path="url(#ao)"><path d="M354 234V33" fill="none" stroke="#000" stroke-opacity=".125" stroke-miterlimit="10"/></g><g clip-path="url(#ap)"><path d="M355 234V33" fill="none" stroke="#000" stroke-opacity=".125" stroke-miterlimit="10"/></g><g clip-path="url(#aq)"><path d="M356 234V33" fill="none" stroke="#000" stroke-opacity=".125" stroke-miterlimit="10"/></g><g clip-path="url(#ar)"><path d="M357 234V33" fill="none" stroke="#000" stroke-opacity=".125" stroke-miterlimit="10"/></g><g clip-path="url(#as)"><path d="M358 234V33" fill="none" stroke="#000" stroke-opacity=".125" stroke-miterlimit="10"/></g><g clip-path="url(#at)"><path d="M359 234V33" fill="none" stroke="#000" stroke-opacity=".125" stroke-miterlimit="10"/></g><g clip-path="url(#au)"><path d="M360 234V33" fill="none" stroke="#000" stroke-opacity=".125" stroke-miterlimit="10"/></g><g clip-path="url(#av)"><path d="M361 234V33" fill="none" stroke="#000" stroke-opacity=".125" stroke-miterlimit="10"/></g><g clip-path="url(#aw)"><path d="M362 234V33" fill="none" stroke="#000" stroke-opacity=".125" stroke-miterlimit="10"/></g><g clip-path="url(#ax)"><path d="M363 234V33" fill="none" stroke="#000" stroke-opacity=".125" stroke-miterlimit="10"/></g><g clip-path="url(#ay)"><path d="M364 234V33" fill="none" stroke="#000" stroke-opacity=".125" stroke-miterlimit="10"/></g><g clip-path="url(#az)"><path d="M365 234V33" fill="none" stroke="#000" stroke-opacity=".125" stroke-miterlimit="10"/></g><g clip-path="url(#aA)"><path d="M366 234V33" fill="none" stroke="#000" stroke-opacity=".125" stroke-miterlimit="10"/></g><g clip-path="url(#aB)"><path d="M367 234V33" fill="none" stroke="#000" stroke-opacity=".125" stroke-miterlimit="10"/></g><g clip-path="url(#aC)"><path d="M368 234V33" fill="none" stroke="#000" stroke-opacity=".125" stroke-miterlimit="10"/></g><g clip-path="url(#aD)"><path d="M369 234V33" fill="none" stroke="#000" stroke-opacity=".125" stroke-miterlimit="10"/></g><g clip-path="url(#aE)"><path d="M370 234V33" fill="none" stroke="#000" stroke-opacity=".125" stroke-miterlimit="10"/></g><g clip-path="url(#aF)"><path d="M447 234V33" fill="none" stroke="#000" stroke-opacity=".125" stroke-miterlimit="10"/></g><g clip-path="url(#aG)"><path d="M448 234V33" fill="none" stroke="#000" stroke-opacity=".125" stroke-miterlimit="10"/></g><g clip-path="url(#aH)"><path d="M449 234V33" fill="none" stroke="#000" stroke-opacity=".125" stroke-miterlimit="10"/></g><g clip-path="url(#aI)"><path d="M450 234V33" fill="none" stroke="#000" stroke-opacity=".125" stroke-miterlimit="10"/></g><g clip-path="url(#aJ)"><path d="M451 234V33" fill="none" stroke="#000" stroke-opacity=".125" stroke-miterlimit="10"/></g><g clip-path="url(#aK)"><path d="M452 234V33" fill="none" stroke="#000" stroke-opacity=".125" stroke-miterlimit="10"/></g><g clip-path="url(#aL)"><path d="M453 234V33" fill="none" stroke="#000" stroke-opacity=".125" stroke-miterlimit="10"/></g><g clip-path="url(#aM)"><path d="M454 234V33" fill="none" stroke="#000" stroke-opacity=".125" stroke-miterlimit="10"/></g><g clip-path="url(#aN)"><path d="M455 234V33" fill="none" stroke="#000" stroke-opacity=".125" stroke-miterlimit="10"/></g><g clip-path="url(#aO)"><path d="M456 234V33" fill="none" stroke="#000" stroke-opacity=".125" stroke-miterlimit="10"/></g><g clip-path="url(#aP)"><path d="M457 234V33" fill="none" stroke="#000" stroke-opacity=".125" stroke-miterlimit="10"/></g><g clip-path="url(#aQ)"><path d="M458 234V33" fill="none" stroke="#000" stroke-opacity=".125" stroke-miterlimit="10"/></g><g clip-path="url(#aR)"><path d="M459 234V33" fill="none" stroke="#000" stroke-opacity=".125" stroke-miterlimit="10"/></g><g clip-path="url(#aS)"><path d="M460 234V33" fill="none" stroke="#000" stroke-opacity=".125" stroke-miterlimit="10"/></g><g clip-path="url(#aT)"><path d="M461 234V33" fill="none" stroke="#000" stroke-opacity=".125" stroke-miterlimit="10"/></g><g clip-path="url(#aU)"><path d="M462 234V33" fill="none" stroke="#000" stroke-opacity=".125" stroke-miterlimit="10"/></g><g clip-path="url(#aV)"><path d="M463 234V33" fill="none" stroke="#000" stroke-opacity=".125" stroke-miterlimit="10"/></g><g clip-path="url(#aW)"><path d="M464 234V33" fill="none" stroke="#000" stroke-opacity=".125" stroke-miterlimit="10"/></g><g clip-path="url(#aX)"><path d="M465 234V33" fill="none" stroke="#000" stroke-opacity=".125" stroke-miterlimit="10"/></g><g clip-path="url(#aY)"><path d="M466 234V33" fill="none" stroke="#000" stroke-opacity=".125" stroke-miterlimit="10"/></g><g clip-path="url(#aZ)"><path d="M467 234V33" fill="none" stroke="#000" stroke-opacity=".125" stroke-miterlimit="10"/></g><g clip-path="url(#ba)"><path d="M468 234V33" fill="none" stroke="#000" stroke-opacity=".125" stroke-miterlimit="10"/></g><g clip-path="url(#bb)"><path d="M469 234V33" fill="none" stroke="#000" stroke-opacity=".125" stroke-miterlimit="10"/></g><g clip-path="url(#bc)"><path d="M470 234V33" fill="none" stroke="#000" stroke-opacity=".125" stroke-miterlimit="10"/></g><g clip-path="url(#bd)"><path d="M471 234V33" fill="none" stroke="#000" stroke-opacity=".125" stroke-miterlimit="10"/></g><g clip-path="url(#be)"><path d="M472 234V33" fill="none" stroke="#000" stroke-opacity=".125" stroke-miterlimit="10"/></g><g clip-path="url(#bf)"><path d="M473 234V33" fill="none" stroke="#000" stroke-opacity=".125" stroke-miterlimit="10"/></g><g clip-path="url(#bg)"><path d="M474 234V33" fill="none" stroke="#000" stroke-opacity=".125" stroke-miterlimit="10"/></g><g clip-path="url(#bh)"><path d="M475 234V33" fill="none" stroke="#000" stroke-opacity=".125" stroke-miterlimit="10"/></g><g clip-path="url(#bi)"><path d="M476 234V33" fill="none" stroke="#000" stroke-opacity=".125" stroke-miterlimit="10"/></g><g clip-path="url(#bj)"><path d="M477 234V33" fill="none" stroke="#000" stroke-opacity=".125" stroke-miterlimit="10"/></g><g clip-path="url(#bk)"><path d="M554 234V33" fill="none" stroke="#000" stroke-opacity=".125" stroke-miterlimit="10"/></g><g clip-path="url(#bl)"><path d="M555 234V33" fill="none" stroke="#000" stroke-opacity=".125" stroke-miterlimit="10"/></g><g clip-path="url(#bm)"><path d="M556 234V33" fill="none" stroke="#000" stroke-opacity=".125" stroke-miterlimit="10"/></g><g clip-path="url(#bn)"><path d="M557 234V33" fill="none" stroke="#000" stroke-opacity=".125" stroke-miterlimit="10"/></g><g clip-path="url(#bo)"><path d="M558 234V33" fill="none" stroke="#000" stroke-opacity=".125" stroke-miterlimit="10"/></g><g clip-path="url(#bp)"><path d="M559 234V33" fill="none" stroke="#000" stroke-opacity=".125" stroke-miterlimit="10"/></g><g clip-path="url(#bq)"><path d="M560 234V33" fill="none" stroke="#000" stroke-opacity=".125" stroke-miterlimit="10"/></g><g clip-path="url(#br)"><path d="M561 234V33" fill="none" stroke="#000" stroke-opacity=".125" stroke-miterlimit="10"/></g><g clip-path="url(#bs)"><path d="M562 234V33" fill="none" stroke="#000" stroke-opacity=".125" stroke-miterlimit="10"/></g><g clip-path="url(#bt)"><path d="M563 234V33" fill="none" stroke="#000" stroke-opacity=".125" stroke-miterlimit="10"/></g><g clip-path="url(#bu)"><path d="M564 234V33" fill="none" stroke="#000" stroke-opacity=".125" stroke-miterlimit="10"/></g><g clip-path="url(#bv)"><path d="M565 234V33" fill="none" stroke="#000" stroke-opacity=".125" stroke-miterlimit="10"/></g><g clip-path="url(#bw)"><path d="M566 234V33" fill="none" stroke="#000" stroke-opacity=".125" stroke-miterlimit="10"/></g><g clip-path="url(#bx)"><path d="M567 234V33" fill="none" stroke="#000" stroke-opacity=".125" stroke-miterlimit="10"/></g><g clip-path="url(#by)"><path d="M568 234V33" fill="none" stroke="#000" stroke-opacity=".125" stroke-miterlimit="10"/></g><g clip-path="url(#bz)"><path d="M569 234V33" fill="none" stroke="#000" stroke-opacity=".125" stroke-miterlimit="10"/></g><g clip-path="url(#bA)"><path d="M570 234V33" fill="none" stroke="#000" stroke-opacity=".125" stroke-miterlimit="10"/></g><g clip-path="url(#bB)"><path d="M571 234V33" fill="none" stroke="#000" stroke-opacity=".125" stroke-miterlimit="10"/></g><g clip-path="url(#bC)"><path d="M572 234V33" fill="none" stroke="#000" stroke-opacity=".125" stroke-miterlimit="10"/></g><g clip-path="url(#bD)"><path d="M573 234V33" fill="none" stroke="#000" stroke-opacity=".125" stroke-miterlimit="10"/></g><g clip-path="url(#bE)"><path d="M574 234V33" fill="none" stroke="#000" stroke-opacity=".125" stroke-miterlimit="10"/></g><g clip-path="url(#bF)"><path d="M575 234V33" fill="none" stroke="#000" stroke-opacity=".125" stroke-miterlimit="10"/></g><g clip-path="url(#bG)"><path d="M576 234V33" fill="none" stroke="#000" stroke-opacity=".125" stroke-miterlimit="10"/></g><g clip-path="url(#bH)"><path d="M577 234V33" fill="none" stroke="#000" stroke-opacity=".125" stroke-miterlimit="10"/></g><g clip-path="url(#bI)"><path d="M578 234V33" fill="none" stroke="#000" stroke-opacity=".125" stroke-miterlimit="10"/></g><g clip-path="url(#bJ)"><path d="M579 234V33" fill="none" stroke="#000" stroke-opacity=".125" stroke-miterlimit="10"/></g><g clip-path="url(#bK)"><path d="M580 234V33" fill="none" stroke="#000" stroke-opacity=".125" stroke-miterlimit="10"/></g><g clip-path="url(#bL)"><path d="M581 234V33" fill="none" stroke="#000" stroke-opacity=".125" stroke-miterlimit="10"/></g><g clip-path="url(#bM)"><path d="M582 234V33" fill="none" stroke="#000" stroke-opacity=".125" stroke-miterlimit="10"/></g><g clip-path="url(#bN)"><path d="M583 234V33" fill="none" stroke="#000" stroke-opacity=".125" stroke-miterlimit="10"/></g><path d="M249 131.3v1.9h7v-1.9zm0 0M348 132.676v.523h22v-1.4h-7v-2.25h-8v3.126zm0 0M454 131.176v2.023h23v-6.4h-8v-3h-8v7.376zm0 0M560 117.3v15.9h23V79.05h-8V76.3h-7v41zm0 0" fill="#48C4EC"/><path d="M150 132.8v100.4h8V132.8zm0 0M249 132.8v100.4h7v-94h8v-6.4zm0 0M355 132.8v100.4h8v-93h7v-7.4zm0 0M461 132.8v100.4h8v-88h8v-12.4zm0 0M560 132.8v1.024h8V233.2h7v-38.5h8v-61.9zm0 0" fill="#54EC48"/><path d="M249 131.5h7m92 1.375h7v-3.125h8V132h7m84-.625h7V124h8v3h8m83-9.5h8v-41h7v2.75h8" fill="none" stroke-linecap="round" stroke-linejoin="round" stroke="#1598C3" stroke-miterlimit="10"/><path d="M150 233h8m91 0h7v-94h8m91 94h8v-93h7m91 93h8v-88h8m83-11.375h8V233h7v-38.5h8" fill="none" stroke-linecap="round" stroke-linejoin="round" stroke="#24BC14" stroke-miterlimit="10"/><path d="M74 31v2M74 233v2" fill="none" stroke-width=".4" stroke="#8F8F8F" stroke-opacity=".75" stroke-miterlimit="10"/><path d="M74 234V32" fill="none" stroke-width=".4" stroke="#8F8F8F" stroke-opacity=".75" stroke-dasharray="1,1" stroke-miterlimit="10"/><path d="M82 31v2M82 233v2" fill="none" stroke-width=".4" stroke="#8F8F8F" stroke-opacity=".75" stroke-miterlimit="10"/><path d="M82 234V32" fill="none" stroke-width=".4" stroke="#8F8F8F" stroke-opacity=".75" stroke-dasharray="1,1" stroke-miterlimit="10"/><path d="M89 31v2M89 233v2" fill="none" stroke-width=".4" stroke="#8F8F8F" stroke-opacity=".75" stroke-miterlimit="10"/><path d="M89 234V32" fill="none" stroke-width=".4" stroke="#8F8F8F" stroke-opacity=".75" stroke-dasharray="1,1" stroke-miterlimit="10"/><path d="M97 31v2M97 233v2" fill="none" stroke-width=".4" stroke="#8F8F8F" stroke-opacity=".75" stroke-miterlimit="10"/><path d="M97 234V32" fill="none" stroke-width=".4" stroke="#8F8F8F" stroke-opacity=".75" stroke-dasharray="1,1" stroke-miterlimit="10"/><path d="M112 31v2M112 233v2" fill="none" stroke-width=".4" stroke="#8F8F8F" stroke-opacity=".75" stroke-miterlimit="10"/><path d="M112 234V32" fill="none" stroke-width=".4" stroke="#8F8F8F" stroke-opacity=".75" stroke-dasharray="1,1" stroke-miterlimit="10"/><path d="M120 31v2M120 233v2" fill="none" stroke-width=".4" stroke="#8F8F8F" stroke-opacity=".75" stroke-miterlimit="10"/><path d="M120 234V32" fill="none" stroke-width=".4" stroke="#8F8F8F" stroke-opacity=".75" stroke-dasharray="1,1" stroke-miterlimit="10"/><path d="M127 31v2M127 233v2" fill="none" stroke-width=".4" stroke="#8F8F8F" stroke-opacity=".75" stroke-miterlimit="10"/><path d="M127 234V32" fill="none" stroke-width=".4" stroke="#8F8F8F" stroke-opacity=".75" stroke-dasharray="1,1" stroke-miterlimit="10"/><path d="M135 31v2M135 233v2" fill="none" stroke-width=".4" stroke="#8F8F8F" stroke-opacity=".75" stroke-miterlimit="10"/><path d="M135 234V32" fill="none" stroke-width=".4" stroke="#8F8F8F" stroke-opacity=".75" stroke-dasharray="1,1" stroke-miterlimit="10"/><path d="M150 31v2M150 233v2" fill="none" stroke-width=".4" stroke="#8F8F8F" stroke-opacity=".75" stroke-miterlimit="10"/><path d="M150 234V32" fill="none" stroke-width=".4" stroke="#8F8F8F" stroke-opacity=".75" stroke-dasharray="1,1" stroke-miterlimit="10"/><path d="M158 31v2M158 233v2" fill="none" stroke-width=".4" stroke="#8F8F8F" stroke-opacity=".75" stroke-miterlimit="10"/><path d="M158 234V32" fill="none" stroke-width=".4" stroke="#8F8F8F" stroke-opacity=".75" stroke-dasharray="1,1" stroke-miterlimit="10"/><path d="M165 31v2M165 233v2" fill="none" stroke-width=".4" stroke="#8F8F8F" stroke-opacity=".75" stroke-miterlimit="10"/><path d="M165 234V32" fill="none" stroke-width=".4" stroke="#8F8F8F" stroke-opacity=".75" stroke-dasharray="1,1" stroke-miterlimit="10"/><path d="M173 31v2M173 233v2" fill="none" stroke-width=".4" stroke="#8F8F8F" stroke-opacity=".75" stroke-miterlimit="10"/><path d="M173 234V32" fill="none" stroke-width=".4" stroke="#8F8F8F" stroke-opacity=".75" stroke-dasharray="1,1" stroke-miterlimit="10"/><path d="M188 31v2M188 233v2" fill="none" stroke-width=".4" stroke="#8F8F8F" stroke-opacity=".75" stroke-miterlimit="10"/><path d="M188 234V32" fill="none" stroke-width=".4" stroke="#8F8F8F" stroke-opacity=".75" stroke-dasharray="1,1" stroke-miterlimit="10"/><path d="M196 31v2M196 233v2" fill="none" stroke-width=".4" stroke="#8F8F8F" stroke-opacity=".75" stroke-miterlimit="10"/><path d="M196 234V32" fill="none" stroke-width=".4" stroke="#8F8F8F" stroke-opacity=".75" stroke-dasharray="1,1" stroke-miterlimit="10"/><path d="M203 31v2M203 233v2" fill="none" stroke-width=".4" stroke="#8F8F8F" stroke-opacity=".75" stroke-miterlimit="10"/><path d="M203 234V32" fill="none" stroke-width=".4" stroke="#8F8F8F" stroke-opacity=".75" stroke-dasharray="1,1" stroke-miterlimit="10"/><path d="M211 31v2M211 233v2" fill="none" stroke-width=".4" stroke="#8F8F8F" stroke-opacity=".75" stroke-miterlimit="10"/><path d="M211 234V32" fill="none" stroke-width=".4" stroke="#8F8F8F" stroke-opacity=".75" stroke-dasharray="1,1" stroke-miterlimit="10"/><path d="M226 31v2M226 233v2" fill="none" stroke-width=".4" stroke="#8F8F8F" stroke-opacity=".75" stroke-miterlimit="10"/><path d="M226 234V32" fill="none" stroke-width=".4" stroke="#8F8F8F" stroke-opacity=".75" stroke-dasharray="1,1" stroke-miterlimit="10"/><path d="M234 31v2M234 233v2" fill="none" stroke-width=".4" stroke="#8F8F8F" stroke-opacity=".75" stroke-miterlimit="10"/><path d="M234 234V32" fill="none" stroke-width=".4" stroke="#8F8F8F" stroke-opacity=".75" stroke-dasharray="1,1" stroke-miterlimit="10"/><path d="M241 31v2M241 233v2" fill="none" stroke-width=".4" stroke="#8F8F8F" stroke-opacity=".75" stroke-miterlimit="10"/><path d="M241 234V32" fill="none" stroke-width=".4" stroke="#8F8F8F" stroke-opacity=".75" stroke-dasharray="1,1" stroke-miterlimit="10"/><path d="M249 31v2M249 233v2" fill="none" stroke-width=".4" stroke="#8F8F8F" stroke-opacity=".75" stroke-miterlimit="10"/><path d="M249 234V32" fill="none" stroke-width=".4" stroke="#8F8F8F" stroke-opacity=".75" stroke-dasharray="1,1" stroke-miterlimit="10"/><path d="M264 31v2M264 233v2" fill="none" stroke-width=".4" stroke="#8F8F8F" stroke-opacity=".75" stroke-miterlimit="10"/><path d="M264 234V32" fill="none" stroke-width=".4" stroke="#8F8F8F" stroke-opacity=".75" stroke-dasharray="1,1" stroke-miterlimit="10"/><path d="M272 31v2M272 233v2" fill="none" stroke-width=".4" stroke="#8F8F8F" stroke-opacity=".75" stroke-miterlimit="10"/><path d="M272 234V32" fill="none" stroke-width=".4" stroke="#8F8F8F" stroke-opacity=".75" stroke-dasharray="1,1" stroke-miterlimit="10"/><path d="M279 31v2M279 233v2" fill="none" stroke-width=".4" stroke="#8F8F8F" stroke-opacity=".75" stroke-miterlimit="10"/><path d="M279 234V32" fill="none" stroke-width=".4" stroke="#8F8F8F" stroke-opacity=".75" stroke-dasharray="1,1" stroke-miterlimit="10"/><path d="M287 31v2M287 233v2" fill="none" stroke-width=".4" stroke="#8F8F8F" stroke-opacity=".75" stroke-miterlimit="10"/><path d="M287 234V32" fill="none" stroke-width=".4" stroke="#8F8F8F" stroke-opacity=".75" stroke-dasharray="1,1" stroke-miterlimit="10"/><path d="M302 31v2M302 233v2" fill="none" stroke-width=".4" stroke="#8F8F8F" stroke-opacity=".75" stroke-miterlimit="10"/><path d="M302 234V32" fill="none" stroke-width=".4" stroke="#8F8F8F" stroke-opacity=".75" stroke-dasharray="1,1" stroke-miterlimit="10"/><path d="M310 31v2M310 233v2" fill="none" stroke-width=".4" stroke="#8F8F8F" stroke-opacity=".75" stroke-miterlimit="10"/><path d="M310 234V32" fill="none" stroke-width=".4" stroke="#8F8F8F" stroke-opacity=".75" stroke-dasharray="1,1" stroke-miterlimit="10"/><path d="M317 31v2M317 233v2" fill="none" stroke-width=".4" stroke="#8F8F8F" stroke-opacity=".75" stroke-miterlimit="10"/><path d="M317 234V32" fill="none" stroke-width=".4" stroke="#8F8F8F" stroke-opacity=".75" stroke-dasharray="1,1" stroke-miterlimit="10"/><path d="M325 31v2M325 233v2" fill="none" stroke-width=".4" stroke="#8F8F8F" stroke-opacity=".75" stroke-miterlimit="10"/><path d="M325 234V32" fill="none" stroke-width=".4" stroke="#8F8F8F" stroke-opacity=".75" stroke-dasharray="1,1" stroke-miterlimit="10"/><path d="M340 31v2M340 233v2" fill="none" stroke-width=".4" stroke="#8F8F8F" stroke-opacity=".75" stroke-miterlimit="10"/><path d="M340 234V32" fill="none" stroke-width=".4" stroke="#8F8F8F" stroke-opacity=".75" stroke-dasharray="1,1" stroke-miterlimit="10"/><path d="M348 31v2M348 233v2" fill="none" stroke-width=".4" stroke="#8F8F8F" stroke-opacity=".75" stroke-miterlimit="10"/><path d="M348 234V32" fill="none" stroke-width=".4" stroke="#8F8F8F" stroke-opacity=".75" stroke-dasharray="1,1" stroke-miterlimit="10"/><path d="M355 31v2M355 233v2" fill="none" stroke-width=".4" stroke="#8F8F8F" stroke-opacity=".75" stroke-miterlimit="10"/><path d="M355 234V32" fill="none" stroke-width=".4" stroke="#8F8F8F" stroke-opacity=".75" stroke-dasharray="1,1" stroke-miterlimit="10"/><path d="M363 31v2M363 233v2" fill="none" stroke-width=".4" stroke="#8F8F8F" stroke-opacity=".75" stroke-miterlimit="10"/><path d="M363 234V32" fill="none" stroke-width=".4" stroke="#8F8F8F" stroke-opacity=".75" stroke-dasharray="1,1" stroke-miterlimit="10"/><path d="M378 31v2M378 233v2" fill="none" stroke-width=".4" stroke="#8F8F8F" stroke-opacity=".75" stroke-miterlimit="10"/><path d="M378 234V32" fill="none" stroke-width=".4" stroke="#8F8F8F" stroke-opacity=".75" stroke-dasharray="1,1" stroke-miterlimit="10"/><path d="M385 31v2M385 233v2" fill="none" stroke-width=".4" stroke="#8F8F8F" stroke-opacity=".75" stroke-miterlimit="10"/><path d="M385 234V32" fill="none" stroke-width=".4" stroke="#8F8F8F" stroke-opacity=".75" stroke-dasharray="1,1" stroke-miterlimit="10"/><path d="M393 31v2M393 233v2" fill="none" stroke-width=".4" stroke="#8F8F8F" stroke-opacity=".75" stroke-miterlimit="10"/><path d="M393 234V32" fill="none" stroke-width=".4" stroke="#8F8F8F" stroke-opacity=".75" stroke-dasharray="1,1" stroke-miterlimit="10"/><path d="M401 31v2M401 233v2" fill="none" stroke-width=".4" stroke="#8F8F8F" stroke-opacity=".75" stroke-miterlimit="10"/><path d="M401 234V32" fill="none" stroke-width=".4" stroke="#8F8F8F" stroke-opacity=".75" stroke-dasharray="1,1" stroke-miterlimit="10"/><path d="M416 31v2M416 233v2" fill="none" stroke-width=".4" stroke="#8F8F8F" stroke-opacity=".75" stroke-miterlimit="10"/><path d="M416 234V32" fill="none" stroke-width=".4" stroke="#8F8F8F" stroke-opacity=".75" stroke-dasharray="1,1" stroke-miterlimit="10"/><path d="M423 31v2M423 233v2" fill="none" stroke-width=".4" stroke="#8F8F8F" stroke-opacity=".75" stroke-miterlimit="10"/><path d="M423 234V32" fill="none" stroke-width=".4" stroke="#8F8F8F" stroke-opacity=".75" stroke-dasharray="1,1" stroke-miterlimit="10"/><path d="M431 31v2M431 233v2" fill="none" stroke-width=".4" stroke="#8F8F8F" stroke-opacity=".75" stroke-miterlimit="10"/><path d="M431 234V32" fill="none" stroke-width=".4" stroke="#8F8F8F" stroke-opacity=".75" stroke-dasharray="1,1" stroke-miterlimit="10"/><path d="M439 31v2M439 233v2" fill="none" stroke-width=".4" stroke="#8F8F8F" stroke-opacity=".75" stroke-miterlimit="10"/><path d="M439 234V32" fill="none" stroke-width=".4" stroke="#8F8F8F" stroke-opacity=".75" stroke-dasharray="1,1" stroke-miterlimit="10"/><path d="M454 31v2M454 233v2" fill="none" stroke-width=".4" stroke="#8F8F8F" stroke-opacity=".75" stroke-miterlimit="10"/><path d="M454 234V32" fill="none" stroke-width=".4" stroke="#8F8F8F" stroke-opacity=".75" stroke-dasharray="1,1" stroke-miterlimit="10"/><path d="M461 31v2M461 233v2" fill="none" stroke-width=".4" stroke="#8F8F8F" stroke-opacity=".75" stroke-miterlimit="10"/><path d="M461 234V32" fill="none" stroke-width=".4" stroke="#8F8F8F" stroke-opacity=".75" stroke-dasharray="1,1" stroke-miterlimit="10"/><path d="M469 31v2M469 233v2" fill="none" stroke-width=".4" stroke="#8F8F8F" stroke-opacity=".75" stroke-miterlimit="10"/><path d="M469 234V32" fill="none" stroke-width=".4" stroke="#8F8F8F" stroke-opacity=".75" stroke-dasharray="1,1" stroke-miterlimit="10"/><path d="M477 31v2M477 233v2" fill="none" stroke-width=".4" stroke="#8F8F8F" stroke-opacity=".75" stroke-miterlimit="10"/><path d="M477 234V32" fill="none" stroke-width=".4" stroke="#8F8F8F" stroke-opacity=".75" stroke-dasharray="1,1" stroke-miterlimit="10"/><path d="M492 31v2M492 233v2" fill="none" stroke-width=".4" stroke="#8F8F8F" stroke-opacity=".75" stroke-miterlimit="10"/><path d="M492 234V32" fill="none" stroke-width=".4" stroke="#8F8F8F" stroke-opacity=".75" stroke-dasharray="1,1" stroke-miterlimit="10"/><path d="M499 31v2M499 233v2" fill="none" stroke-width=".4" stroke="#8F8F8F" stroke-opacity=".75" stroke-miterlimit="10"/><path d="M499 234V32" fill="none" stroke-width=".4" stroke="#8F8F8F" stroke-opacity=".75" stroke-dasharray="1,1" stroke-miterlimit="10"/><path d="M507 31v2M507 233v2" fill="none" stroke-width=".4" stroke="#8F8F8F" stroke-opacity=".75" stroke-miterlimit="10"/><path d="M507 234V32" fill="none" stroke-width=".4" stroke="#8F8F8F" stroke-opacity=".75" stroke-dasharray="1,1" stroke-miterlimit="10"/><path d="M515 31v2M515 233v2" fill="none" stroke-width=".4" stroke="#8F8F8F" stroke-opacity=".75" stroke-miterlimit="10"/><path d="M515 234V32" fill="none" stroke-width=".4" stroke="#8F8F8F" stroke-opacity=".75" stroke-dasharray="1,1" stroke-miterlimit="10"/><path d="M530 31v2M530 233v2" fill="none" stroke-width=".4" stroke="#8F8F8F" stroke-opacity=".75" stroke-miterlimit="10"/><path d="M530 234V32" fill="none" stroke-width=".4" stroke="#8F8F8F" stroke-opacity=".75" stroke-dasharray="1,1" stroke-miterlimit="10"/><path d="M537 31v2M537 233v2" fill="none" stroke-width=".4" stroke="#8F8F8F" stroke-opacity=".75" stroke-miterlimit="10"/><path d="M537 234V32" fill="none" stroke-width=".4" stroke="#8F8F8F" stroke-opacity=".75" stroke-dasharray="1,1" stroke-miterlimit="10"/><path d="M545 31v2M545 233v2" fill="none" stroke-width=".4" stroke="#8F8F8F" stroke-opacity=".75" stroke-miterlimit="10"/><path d="M545 234V32" fill="none" stroke-width=".4" stroke="#8F8F8F" stroke-opacity=".75" stroke-dasharray="1,1" stroke-miterlimit="10"/><path d="M553 31v2M553 233v2" fill="none" stroke-width=".4" stroke="#8F8F8F" stroke-opacity=".75" stroke-miterlimit="10"/><path d="M553 234V32" fill="none" stroke-width=".4" stroke="#8F8F8F" stroke-opacity=".75" stroke-dasharray="1,1" stroke-miterlimit="10"/><path d="M568 31v2M568 233v2" fill="none" stroke-width=".4" stroke="#8F8F8F" stroke-opacity=".75" stroke-miterlimit="10"/><path d="M568 234V32" fill="none" stroke-width=".4" stroke="#8F8F8F" stroke-opacity=".75" stroke-dasharray="1,1" stroke-miterlimit="10"/><path d="M575 31v2M575 233v2" fill="none" stroke-width=".4" stroke="#8F8F8F" stroke-opacity=".75" stroke-miterlimit="10"/><path d="M575 234V32" fill="none" stroke-width=".4" stroke="#8F8F8F" stroke-opacity=".75" stroke-dasharray="1,1" stroke-miterlimit="10"/><path d="M583 31v2M583 233v2" fill="none" stroke-width=".4" stroke="#8F8F8F" stroke-opacity=".75" stroke-miterlimit="10"/><path d="M583 234V32" fill="none" stroke-width=".4" stroke="#8F8F8F" stroke-opacity=".75" stroke-dasharray="1,1" stroke-miterlimit="10"/><path d="M591 31v2M591 233v2" fill="none" stroke-width=".4" stroke="#8F8F8F" stroke-opacity=".75" stroke-miterlimit="10"/><path d="M591 234V32" fill="none" stroke-width=".4" stroke="#8F8F8F" stroke-opacity=".75" stroke-dasharray="1,1" stroke-miterlimit="10"/><path d="M606 31v2M606 233v2" fill="none" stroke-width=".4" stroke="#8F8F8F" stroke-opacity=".75" stroke-miterlimit="10"/><path d="M606 234V32" fill="none" stroke-width=".4" stroke="#8F8F8F" stroke-opacity=".75" stroke-dasharray="1,1" stroke-miterlimit="10"/><path d="M613 31v2M613 233v2" fill="none" stroke-width=".4" stroke="#8F8F8F" stroke-opacity=".75" stroke-miterlimit="10"/><path d="M613 234V32" fill="none" stroke-width=".4" stroke="#8F8F8F" stroke-opacity=".75" stroke-dasharray="1,1" stroke-miterlimit="10"/><path d="M621 31v2M621 233v2" fill="none" stroke-width=".4" stroke="#8F8F8F" stroke-opacity=".75" stroke-miterlimit="10"/><path d="M621 234V32" fill="none" stroke-width=".4" stroke="#8F8F8F" stroke-opacity=".75" stroke-dasharray="1,1" stroke-miterlimit="10"/><path d="M629 31v2M629 233v2" fill="none" stroke-width=".4" stroke="#8F8F8F" stroke-opacity=".75" stroke-miterlimit="10"/><path d="M629 234V32" fill="none" stroke-width=".4" stroke="#8F8F8F" stroke-opacity=".75" stroke-dasharray="1,1" stroke-miterlimit="10"/><path d="M644 31v2M644 233v2" fill="none" stroke-width=".4" stroke="#8F8F8F" stroke-opacity=".75" stroke-miterlimit="10"/><path d="M644 234V32" fill="none" stroke-width=".4" stroke="#8F8F8F" stroke-opacity=".75" stroke-dasharray="1,1" stroke-miterlimit="10"/><path d="M651 31v2M651 233v2" fill="none" stroke-width=".4" stroke="#8F8F8F" stroke-opacity=".75" stroke-miterlimit="10"/><path d="M651 234V32" fill="none" stroke-width=".4" stroke="#8F8F8F" stroke-opacity=".75" stroke-dasharray="1,1" stroke-miterlimit="10"/><path d="M659 31v2M659 233v2" fill="none" stroke-width=".4" stroke="#8F8F8F" stroke-opacity=".75" stroke-miterlimit="10"/><path d="M659 234V32" fill="none" stroke-width=".4" stroke="#8F8F8F" stroke-opacity=".75" stroke-dasharray="1,1" stroke-miterlimit="10"/><path d="M67 31v2M67 233v3" fill="none" stroke-width=".6" stroke="#DE4F4F" stroke-opacity=".6" stroke-miterlimit="10"/><path d="M67 236V31" fill="none" stroke-width=".6" stroke="#DE4F4F" stroke-opacity=".6" stroke-dasharray="1,1" stroke-miterlimit="10"/><path d="M104 31v2M104 233v3" fill="none" stroke-width=".6" stroke="#DE4F4F" stroke-opacity=".6" stroke-miterlimit="10"/><path d="M104 236V31" fill="none" stroke-width=".6" stroke="#DE4F4F" stroke-opacity=".6" stroke-dasharray="1,1" stroke-miterlimit="10"/><path d="M142 31v2M142 233v3" fill="none" stroke-width=".6" stroke="#DE4F4F" stroke-opacity=".6" stroke-miterlimit="10"/><path d="M142 236V31" fill="none" stroke-width=".6" stroke="#DE4F4F" stroke-opacity=".6" stroke-dasharray="1,1" stroke-miterlimit="10"/><path d="M180 31v2M180 233v3" fill="none" stroke-width=".6" stroke="#DE4F4F" stroke-opacity=".6" stroke-miterlimit="10"/><path d="M180 236V31" fill="none" stroke-width=".6" stroke="#DE4F4F" stroke-opacity=".6" stroke-dasharray="1,1" stroke-miterlimit="10"/><path d="M218 31v2M218 233v3" fill="none" stroke-width=".6" stroke="#DE4F4F" stroke-opacity=".6" stroke-miterlimit="10"/><path d="M218 236V31" fill="none" stroke-width=".6" stroke="#DE4F4F" stroke-opacity=".6" stroke-dasharray="1,1" stroke-miterlimit="10"/><path d="M256 31v2M256 233v3" fill="none" stroke-width=".6" stroke="#DE4F4F" stroke-opacity=".6" stroke-miterlimit="10"/><path d="M256 236V31" fill="none" stroke-width=".6" stroke="#DE4F4F" stroke-opacity=".6" stroke-dasharray="1,1" stroke-miterlimit="10"/><path d="M294 31v2M294 233v3" fill="none" stroke-width=".6" stroke="#DE4F4F" stroke-opacity=".6" stroke-miterlimit="10"/><path d="M294 236V31" fill="none" stroke-width=".6" stroke="#DE4F4F" stroke-opacity=".6" stroke-dasharray="1,1" stroke-miterlimit="10"/><path d="M332 31v2M332 233v3" fill="none" stroke-width=".6" stroke="#DE4F4F" stroke-opacity=".6" stroke-miterlimit="10"/><path d="M332 236V31" fill="none" stroke-width=".6" stroke="#DE4F4F" stroke-opacity=".6" stroke-dasharray="1,1" stroke-miterlimit="10"/><path d="M370 31v2M370 233v3" fill="none" stroke-width=".6" stroke="#DE4F4F" stroke-opacity=".6" stroke-miterlimit="10"/><path d="M370 236V31" fill="none" stroke-width=".6" stroke="#DE4F4F" stroke-opacity=".6" stroke-dasharray="1,1" stroke-miterlimit="10"/><path d="M408 31v2M408 233v3" fill="none" stroke-width=".6" stroke="#DE4F4F" stroke-opacity=".6" stroke-miterlimit="10"/><path d="M408 236V31" fill="none" stroke-width=".6" stroke="#DE4F4F" stroke-opacity=".6" stroke-dasharray="1,1" stroke-miterlimit="10"/><path d="M446 31v2M446 233v3" fill="none" stroke-width=".6" stroke="#DE4F4F" stroke-opacity=".6" stroke-miterlimit="10"/><path d="M446 236V31" fill="none" stroke-width=".6" stroke="#DE4F4F" stroke-opacity=".6" stroke-dasharray="1,1" stroke-miterlimit="10"/><path d="M484 31v2M484 233v3" fill="none" stroke-width=".6" stroke="#DE4F4F" stroke-opacity=".6" stroke-miterlimit="10"/><path d="M484 236V31" fill="none" stroke-width=".6" stroke="#DE4F4F" stroke-opacity=".6" stroke-dasharray="1,1" stroke-miterlimit="10"/><path d="M522 31v2M522 233v3" fill="none" stroke-width=".6" stroke="#DE4F4F" stroke-opacity=".6" stroke-miterlimit="10"/><path d="M522 236V31" fill="none" stroke-width=".6" stroke="#DE4F4F" stroke-opacity=".6" stroke-dasharray="1,1" stroke-miterlimit="10"/><path d="M560 31v2M560 233v3" fill="none" stroke-width=".6" stroke="#DE4F4F" stroke-opacity=".6" stroke-miterlimit="10"/><path d="M560 236V31" fill="none" stroke-width=".6" stroke="#DE4F4F" stroke-opacity=".6" stroke-dasharray="1,1" stroke-miterlimit="10"/><path d="M598 31v2M598 233v3" fill="none" stroke-width=".6" stroke="#DE4F4F" stroke-opacity=".6" stroke-miterlimit="10"/><path d="M598 236V31" fill="none" stroke-width=".6" stroke="#DE4F4F" stroke-opacity=".6" stroke-dasharray="1,1" stroke-miterlimit="10"/><path d="M636 31v2M636 233v3" fill="none" stroke-width=".6" stroke="#DE4F4F" stroke-opacity=".6" stroke-miterlimit="10"/><path d="M636 236V31" fill="none" stroke-width=".6" stroke="#DE4F4F" stroke-opacity=".6" stroke-dasharray="1,1" stroke-miterlimit="10"/><use xlink:href="#bO" x="46" y="243.221"/><use xlink:href="#bO" x="51.346" y="243.221"/><use xlink:href="#bP" x="56.691" y="243.221"/><use xlink:href="#bO" x="62.037" y="243.221"/><use xlink:href="#bO" x="67.383" y="243.221"/><use xlink:href="#bP" x="72.729" y="243.221"/><use xlink:href="#bO" x="78.074" y="243.221"/><use xlink:href="#bO" x="83.42" y="243.221"/><use xlink:href="#bO" x="121" y="243.221"/><use xlink:href="#bO" x="126.346" y="243.221"/><use xlink:href="#bP" x="131.691" y="243.221"/><use xlink:href="#bO" x="137.037" y="243.221"/><use xlink:href="#bO" x="142.383" y="243.221"/><use xlink:href="#bP" x="147.729" y="243.221"/><use xlink:href="#bQ" x="153.074" y="243.221"/><use xlink:href="#bO" x="158.42" y="243.221"/><use xlink:href="#bO" x="197" y="243.221"/><use xlink:href="#bO" x="202.346" y="243.221"/><use xlink:href="#bP" x="207.691" y="243.221"/><use xlink:href="#bO" x="213.037" y="243.221"/><use xlink:href="#bO" x="218.383" y="243.221"/><use xlink:href="#bP" x="223.729" y="243.221"/><use xlink:href="#bR" x="229.074" y="243.221"/><use xlink:href="#bO" x="234.42" y="243.221"/><use xlink:href="#bO" x="273" y="243.221"/><use xlink:href="#bO" x="278.346" y="243.221"/><use xlink:href="#bP" x="283.691" y="243.221"/><use xlink:href="#bO" x="289.037" y="243.221"/><use xlink:href="#bO" x="294.383" y="243.221"/><use xlink:href="#bP" x="299.729" y="243.221"/><use xlink:href="#bS" x="305.074" y="243.221"/><use xlink:href="#bO" x="310.42" y="243.221"/><use xlink:href="#bO" x="349" y="243.221"/><use xlink:href="#bO" x="354.346" y="243.221"/><use xlink:href="#bP" x="359.691" y="243.221"/><use xlink:href="#bO" x="365.037" y="243.221"/><use xlink:href="#bO" x="370.383" y="243.221"/><use xlink:href="#bP" x="375.729" y="243.221"/><use xlink:href="#bT" x="381.074" y="243.221"/><use xlink:href="#bO" x="386.42" y="243.221"/><use xlink:href="#bO" x="425" y="243.221"/><use xlink:href="#bO" x="430.346" y="243.221"/><use xlink:href="#bP" x="435.691" y="243.221"/><use xlink:href="#bO" x="441.037" y="243.221"/><use xlink:href="#bO" x="446.383" y="243.221"/><use xlink:href="#bP" x="451.729" y="243.221"/><use xlink:href="#bU" x="457.074" y="243.221"/><use xlink:href="#bO" x="462.42" y="243.221"/><use xlink:href="#bO" x="501" y="243.221"/><use xlink:href="#bO" x="506.346" y="243.221"/><use xlink:href="#bP" x="511.691" y="243.221"/><use xlink:href="#bO" x="517.037" y="243.221"/><use xlink:href="#bQ" x="522.383" y="243.221"/><use xlink:href="#bP" x="527.729" y="243.221"/><use xlink:href="#bO" x="533.074" y="243.221"/><use xlink:href="#bO" x="538.42" y="243.221"/><use xlink:href="#bO" x="577" y="243.221"/><use xlink:href="#bO" x="582.346" y="243.221"/><use xlink:href="#bP" x="587.691" y="243.221"/><use xlink:href="#bO" x="593.037" y="243.221"/><use xlink:href="#bQ" x="598.383" y="243.221"/><use xlink:href="#bP" x="603.729" y="243.221"/><use xlink:href="#bQ" x="609.074" y="243.221"/><use xlink:href="#bO" x="614.42" y="243.221"/><use xlink:href="#bV" x="38" y="235.221"/><use xlink:href="#bW" x="43.346" y="235.221"/><use xlink:href="#bX" x="48.691" y="235.221"/><use xlink:href="#bO" x="54.037" y="235.221"/><path d="M65 233h2M667 233h2" fill="none" stroke-width=".6" stroke="#DE4F4F" stroke-opacity=".6" stroke-miterlimit="10"/><path d="M65 233h604" fill="none" stroke-width=".6" stroke="#DE4F4F" stroke-opacity=".6" stroke-dasharray="1,1" stroke-miterlimit="10"/><path d="M65 226.75h2M667 226.75h2" fill="none" stroke-width=".4" stroke="#8F8F8F" stroke-opacity=".75" stroke-miterlimit="10"/><path d="M66 226.75h602" fill="none" stroke-width=".4" stroke="#8F8F8F" stroke-opacity=".75" stroke-dasharray="1,1" stroke-miterlimit="10"/><path d="M65 220.5h2M667 220.5h2" fill="none" stroke-width=".4" stroke="#8F8F8F" stroke-opacity=".75" stroke-miterlimit="10"/><path d="M66 220.5h602" fill="none" stroke-width=".4" stroke="#8F8F8F" stroke-opacity=".75" stroke-dasharray="1,1" stroke-miterlimit="10"/><path d="M65 214.25h2M667 214.25h2" fill="none" stroke-width=".4" stroke="#8F8F8F" stroke-opacity=".75" stroke-miterlimit="10"/><path d="M66 214.25h602" fill="none" stroke-width=".4" stroke="#8F8F8F" stroke-opacity=".75" stroke-dasharray="1,1" stroke-miterlimit="10"/><use xlink:href="#bV" x="38" y="210.221"/><use xlink:href="#bY" x="43.346" y="210.221"/><use xlink:href="#bX" x="48.691" y="210.221"/><use xlink:href="#bO" x="54.037" y="210.221"/><path d="M65 208h2M667 208h2" fill="none" stroke-width=".6" stroke="#DE4F4F" stroke-opacity=".6" stroke-miterlimit="10"/><path d="M65 208h604" fill="none" stroke-width=".6" stroke="#DE4F4F" stroke-opacity=".6" stroke-dasharray="1,1" stroke-miterlimit="10"/><path d="M65 201.75h2M667 201.75h2" fill="none" stroke-width=".4" stroke="#8F8F8F" stroke-opacity=".75" stroke-miterlimit="10"/><path d="M66 201.75h602" fill="none" stroke-width=".4" stroke="#8F8F8F" stroke-opacity=".75" stroke-dasharray="1,1" stroke-miterlimit="10"/><path d="M65 195.5h2M667 195.5h2" fill="none" stroke-width=".4" stroke="#8F8F8F" stroke-opacity=".75" stroke-miterlimit="10"/><path d="M66 195.5h602" fill="none" stroke-width=".4" stroke="#8F8F8F" stroke-opacity=".75" stroke-dasharray="1,1" stroke-miterlimit="10"/><path d="M65 189.25h2M667 189.25h2" fill="none" stroke-width=".4" stroke="#8F8F8F" stroke-opacity=".75" stroke-miterlimit="10"/><path d="M66 189.25h602" fill="none" stroke-width=".4" stroke="#8F8F8F" stroke-opacity=".75" stroke-dasharray="1,1" stroke-miterlimit="10"/><use xlink:href="#bV" x="38" y="185.221"/><use xlink:href="#bT" x="43.346" y="185.221"/><use xlink:href="#bX" x="48.691" y="185.221"/><use xlink:href="#bO" x="54.037" y="185.221"/><path d="M65 183h2M667 183h2" fill="none" stroke-width=".6" stroke="#DE4F4F" stroke-opacity=".6" stroke-miterlimit="10"/><path d="M65 183h604" fill="none" stroke-width=".6" stroke="#DE4F4F" stroke-opacity=".6" stroke-dasharray="1,1" stroke-miterlimit="10"/><path d="M65 176.75h2M667 176.75h2" fill="none" stroke-width=".4" stroke="#8F8F8F" stroke-opacity=".75" stroke-miterlimit="10"/><path d="M66 176.75h602" fill="none" stroke-width=".4" stroke="#8F8F8F" stroke-opacity=".75" stroke-dasharray="1,1" stroke-miterlimit="10"/><path d="M65 170.5h2M667 170.5h2" fill="none" stroke-width=".4" stroke="#8F8F8F" stroke-opacity=".75" stroke-miterlimit="10"/><path d="M66 170.5h602" fill="none" stroke-width=".4" stroke="#8F8F8F" stroke-opacity=".75" stroke-dasharray="1,1" stroke-miterlimit="10"/><path d="M65 164.25h2M667 164.25h2" fill="none" stroke-width=".4" stroke="#8F8F8F" stroke-opacity=".75" stroke-miterlimit="10"/><path d="M66 164.25h602" fill="none" stroke-width=".4" stroke="#8F8F8F" stroke-opacity=".75" stroke-dasharray="1,1" stroke-miterlimit="10"/><use xlink:href="#bV" x="38" y="160.221"/><use xlink:href="#bR" x="43.346" y="160.221"/><use xlink:href="#bX" x="48.691" y="160.221"/><use xlink:href="#bO" x="54.037" y="160.221"/><path d="M65 158h2M667 158h2" fill="none" stroke-width=".6" stroke="#DE4F4F" stroke-opacity=".6" stroke-miterlimit="10"/><path d="M65 158h604" fill="none" stroke-width=".6" stroke="#DE4F4F" stroke-opacity=".6" stroke-dasharray="1,1" stroke-miterlimit="10"/><path d="M65 151.75h2M667 151.75h2" fill="none" stroke-width=".4" stroke="#8F8F8F" stroke-opacity=".75" stroke-miterlimit="10"/><path d="M66 151.75h602" fill="none" stroke-width=".4" stroke="#8F8F8F" stroke-opacity=".75" stroke-dasharray="1,1" stroke-miterlimit="10"/><path d="M65 145.5h2M667 145.5h2" fill="none" stroke-width=".4" stroke="#8F8F8F" stroke-opacity=".75" stroke-miterlimit="10"/><path d="M66 145.5h602" fill="none" stroke-width=".4" stroke="#8F8F8F" stroke-opacity=".75" stroke-dasharray="1,1" stroke-miterlimit="10"/><path d="M65 139.25h2M667 139.25h2" fill="none" stroke-width=".4" stroke="#8F8F8F" stroke-opacity=".75" stroke-miterlimit="10"/><path d="M66 139.25h602" fill="none" stroke-width=".4" stroke="#8F8F8F" stroke-opacity=".75" stroke-dasharray="1,1" stroke-miterlimit="10"/><use xlink:href="#bZ" x="38" y="135.221"/><use xlink:href="#bO" x="43.346" y="135.221"/><use xlink:href="#bX" x="48.691" y="135.221"/><use xlink:href="#bO" x="54.037" y="135.221"/><path d="M65 133h2M667 133h2" fill="none" stroke-width=".6" stroke="#DE4F4F" stroke-opacity=".6" stroke-miterlimit="10"/><path d="M65 133h604" fill="none" stroke-width=".6" stroke="#DE4F4F" stroke-opacity=".6" stroke-dasharray="1,1" stroke-miterlimit="10"/><path d="M65 126.75h2M667 126.75h2" fill="none" stroke-width=".4" stroke="#8F8F8F" stroke-opacity=".75" stroke-miterlimit="10"/><path d="M66 126.75h602" fill="none" stroke-width=".4" stroke="#8F8F8F" stroke-opacity=".75" stroke-dasharray="1,1" stroke-miterlimit="10"/><path d="M65 120.5h2M667 120.5h2" fill="none" stroke-width=".4" stroke="#8F8F8F" stroke-opacity=".75" stroke-miterlimit="10"/><path d="M66 120.5h602" fill="none" stroke-width=".4" stroke="#8F8F8F" stroke-opacity=".75" stroke-dasharray="1,1" stroke-miterlimit="10"/><path d="M65 114.25h2M667 114.25h2" fill="none" stroke-width=".4" stroke="#8F8F8F" stroke-opacity=".75" stroke-miterlimit="10"/><path d="M66 114.25h602" fill="none" stroke-width=".4" stroke="#8F8F8F" stroke-opacity=".75" stroke-dasharray="1,1" stroke-miterlimit="10"/><use xlink:href="#bZ" x="38" y="110.221"/><use xlink:href="#bR" x="43.346" y="110.221"/><use xlink:href="#bX" x="48.691" y="110.221"/><use xlink:href="#bO" x="54.037" y="110.221"/><path d="M65 108h2M667 108h2" fill="none" stroke-width=".6" stroke="#DE4F4F" stroke-opacity=".6" stroke-miterlimit="10"/><path d="M65 108h604" fill="none" stroke-width=".6" stroke="#DE4F4F" stroke-opacity=".6" stroke-dasharray="1,1" stroke-miterlimit="10"/><path d="M65 101.75h2M667 101.75h2" fill="none" stroke-width=".4" stroke="#8F8F8F" stroke-opacity=".75" stroke-miterlimit="10"/><path d="M66 101.75h602" fill="none" stroke-width=".4" stroke="#8F8F8F" stroke-opacity=".75" stroke-dasharray="1,1" stroke-miterlimit="10"/><path d="M65 95.5h2M667 95.5h2" fill="none" stroke-width=".4" stroke="#8F8F8F" stroke-opacity=".75" stroke-miterlimit="10"/><path d="M66 95.5h602" fill="none" stroke-width=".4" stroke="#8F8F8F" stroke-opacity=".75" stroke-dasharray="1,1" stroke-miterlimit="10"/><path d="M65 89.25h2M667 89.25h2" fill="none" stroke-width=".4" stroke="#8F8F8F" stroke-opacity=".75" stroke-miterlimit="10"/><path d="M66 89.25h602" fill="none" stroke-width=".4" stroke="#8F8F8F" stroke-opacity=".75" stroke-dasharray="1,1" stroke-miterlimit="10"/><g><use xlink:href="#bZ" x="38" y="85.221"/><use xlink:href="#bT" x="43.346" y="85.221"/><use xlink:href="#bX" x="48.691" y="85.221"/><use xlink:href="#bO" x="54.037" y="85.221"/></g><path d="M65 83h2M667 83h2" fill="none" stroke-width=".6" stroke="#DE4F4F" stroke-opacity=".6" stroke-miterlimit="10"/><path d="M65 83h604" fill="none" stroke-width=".6" stroke="#DE4F4F" stroke-opacity=".6" stroke-dasharray="1,1" stroke-miterlimit="10"/><path d="M65 76.75h2M667 76.75h2" fill="none" stroke-width=".4" stroke="#8F8F8F" stroke-opacity=".75" stroke-miterlimit="10"/><path d="M66 76.75h602" fill="none" stroke-width=".4" stroke="#8F8F8F" stroke-opacity=".75" stroke-dasharray="1,1" stroke-miterlimit="10"/><path d="M65 70.5h2M667 70.5h2" fill="none" stroke-width=".4" stroke="#8F8F8F" stroke-opacity=".75" stroke-miterlimit="10"/><path d="M66 70.5h602" fill="none" stroke-width=".4" stroke="#8F8F8F" stroke-opacity=".75" stroke-dasharray="1,1" stroke-miterlimit="10"/><path d="M65 64.25h2M667 64.25h2" fill="none" stroke-width=".4" stroke="#8F8F8F" stroke-opacity=".75" stroke-miterlimit="10"/><path d="M66 64.25h602" fill="none" stroke-width=".4" stroke="#8F8F8F" stroke-opacity=".75" stroke-dasharray="1,1" stroke-miterlimit="10"/><g><use xlink:href="#bZ" x="38" y="60.221"/><use xlink:href="#bY" x="43.346" y="60.221"/><use xlink:href="#bX" x="48.691" y="60.221"/><use xlink:href="#bO" x="54.037" y="60.221"/></g><path d="M65 58h2M667 58h2" fill="none" stroke-width=".6" stroke="#DE4F4F" stroke-opacity=".6" stroke-miterlimit="10"/><path d="M65 58h604" fill="none" stroke-width=".6" stroke="#DE4F4F" stroke-opacity=".6" stroke-dasharray="1,1" stroke-miterlimit="10"/><path d="M65 51.75h2M667 51.75h2" fill="none" stroke-width=".4" stroke="#8F8F8F" stroke-opacity=".75" stroke-miterlimit="10"/><path d="M66 51.75h602" fill="none" stroke-width=".4" stroke="#8F8F8F" stroke-opacity=".75" stroke-dasharray="1,1" stroke-miterlimit="10"/><path d="M65 45.5h2M667 45.5h2" fill="none" stroke-width=".4" stroke="#8F8F8F" stroke-opacity=".75" stroke-miterlimit="10"/><path d="M66 45.5h602" fill="none" stroke-width=".4" stroke="#8F8F8F" stroke-opacity=".75" stroke-dasharray="1,1" stroke-miterlimit="10"/><path d="M65 39.25h2M667 39.25h2" fill="none" stroke-width=".4" stroke="#8F8F8F" stroke-opacity=".75" stroke-miterlimit="10"/><path d="M66 39.25h602" fill="none" stroke-width=".4" stroke="#8F8F8F" stroke-opacity=".75" stroke-dasharray="1,1" stroke-miterlimit="10"/><g><use xlink:href="#bZ" x="38" y="35.221"/><use xlink:href="#bW" x="43.346" y="35.221"/><use xlink:href="#bX" x="48.691" y="35.221"/><use xlink:href="#bO" x="54.037" y="35.221"/></g><path d="M65 33h2M667 33h2" fill="none" stroke-width=".6" stroke="#DE4F4F" stroke-opacity=".6" stroke-miterlimit="10"/><path d="M65 33h604" fill="none" stroke-width=".6" stroke="#DE4F4F" stroke-opacity=".6" stroke-dasharray="1,1" stroke-miterlimit="10"/><g><use xlink:href="#ca" x="12.252" y="179"/><use xlink:href="#cb" x="12.252" y="172.891"/><use xlink:href="#cc" x="12.252" y="166.781"/><use xlink:href="#cd" x="12.252" y="160.672"/><use xlink:href="#ce" x="12.252" y="154.563"/><use xlink:href="#cf" x="12.252" y="148.453"/><use xlink:href="#cg" x="12.252" y="142.344"/><use xlink:href="#cd" x="12.252" y="136.234"/><use xlink:href="#ch" x="12.252" y="130.125"/><use xlink:href="#ci" x="12.252" y="124.016"/><use xlink:href="#cf" x="12.252" y="117.906"/><use xlink:href="#ca" x="12.252" y="111.797"/><use xlink:href="#cj" x="12.252" y="105.688"/><use xlink:href="#ck" x="12.252" y="99.578"/><use xlink:href="#cd" x="12.252" y="93.469"/></g><g><use xlink:href="#cl" x="252" y="15.283"/><use xlink:href="#cm" x="258.873" y="15.283"/><use xlink:href="#cn" x="265.746" y="15.283"/><use xlink:href="#co" x="272.619" y="15.283"/><use xlink:href="#cl" x="279.492" y="15.283"/><use xlink:href="#cp" x="286.365" y="15.283"/><use xlink:href="#cq" x="293.238" y="15.283"/><use xlink:href="#cq" x="300.111" y="15.283"/><use xlink:href="#cm" x="306.984" y="15.283"/><use xlink:href="#cr" x="313.857" y="15.283"/><use xlink:href="#cs" x="320.73" y="15.283"/><use xlink:href="#cn" x="327.604" y="15.283"/><use xlink:href="#ct" x="334.477" y="15.283"/><use xlink:href="#cq" x="341.35" y="15.283"/><use xlink:href="#cl" x="348.223" y="15.283"/><use xlink:href="#cp" x="355.096" y="15.283"/><use xlink:href="#cn" x="361.969" y="15.283"/><use xlink:href="#cu" x="368.842" y="15.283"/><use xlink:href="#cq" x="375.715" y="15.283"/><use xlink:href="#cr" x="382.588" y="15.283"/><use xlink:href="#cv" x="389.461" y="15.283"/><use xlink:href="#cn" x="396.334" y="15.283"/><use xlink:href="#cw" x="403.207" y="15.283"/><use xlink:href="#cs" x="410.08" y="15.283"/><use xlink:href="#cx" x="416.953" y="15.283"/><use xlink:href="#cy" x="423.826" y="15.283"/><use xlink:href="#cz" x="430.699" y="15.283"/><use xlink:href="#cl" x="437.572" y="15.283"/></g><g><use xlink:href="#cA" x="16" y="262.252"/><use xlink:href="#cA" x="22.109" y="262.252"/><use xlink:href="#cB" x="28.219" y="262.252"/><use xlink:href="#cC" x="34.328" y="262.252"/></g><path d="M16 254.238v8.403h8.398v-8.402zm0 0" fill="#F2F2F2"/><path d="M16 254.238v8.403h8.398v-8.402zm0 0" fill-opacity=".125"/><path d="M16 262.64h8.398v-8.402H16zm0 0" fill="none" stroke="#000" stroke-miterlimit="10"/><g><use xlink:href="#cA" x="88.57" y="262.252"/><use xlink:href="#cA" x="94.68" y="262.252"/><use xlink:href="#cB" x="100.789" y="262.252"/><use xlink:href="#cD" x="106.898" y="262.252"/><use xlink:href="#cC" x="113.008" y="262.252"/></g><path d="M88.57 254.238v8.403h8.403v-8.402zm0 0" fill="#F2F2F2"/><path d="M88.57 254.238v8.403h8.403v-8.402zm0 0" fill-opacity=".125"/><path d="M88.57 262.64h8.403v-8.402H88.57zm0 0" fill="none" stroke="#000" stroke-miterlimit="10"/><g><use xlink:href="#cA" x="167.145" y="262.252"/><use xlink:href="#cA" x="173.254" y="262.252"/><use xlink:href="#cB" x="179.363" y="262.252"/><use xlink:href="#cD" x="185.473" y="262.252"/><use xlink:href="#cD" x="191.582" y="262.252"/><use xlink:href="#cC" x="197.691" y="262.252"/></g><path d="M167.145 254.238v8.403h8.398v-8.402zm0 0" fill="#F2F2F2"/><path d="M167.145 254.238v8.403h8.398v-8.402zm0 0" fill-opacity=".125"/><path d="M167.145 262.64h8.398v-8.402h-8.398zm0 0" fill="none" stroke="#000" stroke-miterlimit="10"/><g><use xlink:href="#cA" x="251.715" y="262.252"/><use xlink:href="#cA" x="257.824" y="262.252"/><use xlink:href="#cB" x="263.934" y="262.252"/><use xlink:href="#cD" x="270.043" y="262.252"/><use xlink:href="#cD" x="276.152" y="262.252"/><use xlink:href="#cD" x="282.262" y="262.252"/><use xlink:href="#cC" x="288.371" y="262.252"/></g><path d="M251.715 254.238v8.403h8.398v-8.402zm0 0" fill="#F2F2F2"/><path d="M251.715 254.238v8.403h8.398v-8.402zm0 0" fill-opacity=".125"/><path d="M251.715 262.64h8.398v-8.402h-8.398zm0 0" fill="none" stroke="#000" stroke-miterlimit="10"/><g><use xlink:href="#cA" x="342.285" y="262.252"/><use xlink:href="#cA" x="348.395" y="262.252"/><use xlink:href="#cB" x="354.504" y="262.252"/><use xlink:href="#cD" x="360.613" y="262.252"/><use xlink:href="#cD" x="366.723" y="262.252"/><use xlink:href="#cD" x="372.832" y="262.252"/><use xlink:href="#cD" x="378.941" y="262.252"/><use xlink:href="#cC" x="385.051" y="262.252"/></g><path d="M342.285 254.238v8.403h8.402v-8.402zm0 0" fill="#F2F2F2"/><path d="M342.285 254.238v8.403h8.402v-8.402zm0 0" fill-opacity=".125"/><path d="M342.285 262.64h8.402v-8.402h-8.402zm0 0" fill="none" stroke="#000" stroke-miterlimit="10"/><g><use xlink:href="#cA" x="438.855" y="262.252"/><use xlink:href="#cA" x="444.965" y="262.252"/><use xlink:href="#cE" x="451.074" y="262.252"/><use xlink:href="#cF" x="457.184" y="262.252"/><use xlink:href="#cF" x="463.293" y="262.252"/><use xlink:href="#cG" x="469.402" y="262.252"/><use xlink:href="#cF" x="475.512" y="262.252"/></g><path d="M438.855 254.238v8.403h8.403v-8.402zm0 0" fill="#F2F2F2"/><path d="M438.855 254.238v8.403h8.403v-8.402zm0 0" fill="#E60073" fill-opacity=".627"/><path d="M438.855 262.64h8.403v-8.402h-8.403zm0 0" fill="none" stroke="#000" stroke-miterlimit="10"/><g><use xlink:href="#cA" x="529.43" y="262.252"/><use xlink:href="#cA" x="535.539" y="262.252"/><use xlink:href="#cA" x="541.648" y="262.252"/><use xlink:href="#cH" x="547.758" y="262.252"/><use xlink:href="#cG" x="553.867" y="262.252"/><use xlink:href="#cF" x="559.977" y="262.252"/><use xlink:href="#cI" x="566.086" y="262.252"/><use xlink:href="#cJ" x="572.195" y="262.252"/><use xlink:href="#cK" x="578.305" y="262.252"/></g><path d="M529.43 254.238v8.403h8.398v-8.402zm0 0" fill="#F2F2F2"/><path d="M529.43 254.238v8.403h8.398v-8.402zm0 0" fill="#48C4EC"/><path d="M529.43 262.64h8.398v-8.402h-8.398zm0 0" fill="none" stroke="#000" stroke-miterlimit="10"/><g><use xlink:href="#cA" x="632" y="262.252"/><use xlink:href="#cA" x="638.109" y="262.252"/><use xlink:href="#cA" x="644.219" y="262.252"/><use xlink:href="#cL" x="650.328" y="262.252"/><use xlink:href="#cM" x="656.438" y="262.252"/><use xlink:href="#cF" x="662.547" y="262.252"/><use xlink:href="#cN" x="668.656" y="262.252"/><use xlink:href="#cO" x="674.766" y="262.252"/></g><path d="M632 254.238v8.403h8.398v-8.402zm0 0" fill="#F2F2F2"/><path d="M632 254.238v8.403h8.398v-8.402zm0 0" fill="#54EC48"/><path d="M632 262.64h8.398v-8.402H632zm0 0" fill="none" stroke="#000" stroke-miterlimit="10"/><path d="M63 233h608M67 237V29" fill="none" stroke-width=".6" stroke="#1F1F1F" stroke-miterlimit="10"/><path d="M669 230v6l5-3zm0 0M64 31h6l-3-5zm0 0" fill="#7F1F1F"/><path d="M67 133h600" fill="none" stroke="#000" stroke-dasharray="3,5" stroke-dashoffset="5" stroke-miterlimit="10"/></svg>