<?xml version="1.0" encoding="utf-8"?>
<!-- Generator: Adobe Illustrator 18.0.0, SVG Export Plug-In . SVG Version: 6.00 Build 0)  -->
<!DOCTYPE svg PUBLIC "-//W3C//DTD SVG 1.1//EN" "http://www.w3.org/Graphics/SVG/1.1/DTD/svg11.dtd">
<svg version="1.1" id="Layer_1" xmlns="http://www.w3.org/2000/svg" xmlns:xlink="http://www.w3.org/1999/xlink" x="0px" y="0px"
	 viewBox="0 0 352.6 147.8" enable-background="new 0 0 352.6 147.8" xml:space="preserve">
<polygon fill="#0098D0" points="75.7,0 44.5,79.7 30.8,114.7 58.2,114.7 101.2,0 "/>
<linearGradient id="SVGID_1_" gradientUnits="userSpaceOnUse" x1="43.1089" y1="79.9451" x2="2.1089" y2="62.9451">
	<stop  offset="0" style="stop-color:#025068"/>
	<stop  offset="0.2002" style="stop-color:#006B93"/>
</linearGradient>
<polygon fill="url(#SVGID_1_)" points="26.4,33.1 0,33.1 30.8,114.7 44.5,79.7 "/>
<path fill="#0098D0" d="M274.7,53.4c0,0,6.7-17.2,8-20.2c-18.1,0-36.3,0-54.4,0c-13.1,0-26.2,0.1-39.3-0.1c-3.3,0-6.6-0.1-9.8,0
	c-3,0-6,0-9,0.6c-5.5,0.9-10.6,3.3-14.6,7.2c-7.8,7.6-9.5,20.9-3.9,30.3c2.7,4.5,7,7.9,11.9,9.8c2.9,1.1,5.9,1.8,8.9,2.4
	c2.6,0.5,5.5,0.7,7.9,1.9c2.1,1,3.2,2.9,3,5.2c-0.2,2.2-1.5,3.5-3.6,3.8c-1.3,0.2-2.6,0.1-4,0c-1.5-0.1-3.1,0-4.6,0
	c-3.3,0-6.5,0-9.8,0c-10.5,0-21.1,0.1-31.6,0c-0.2,0-0.3,0-0.5,0c-0.1,0,0-1.7,0-1.9c0-1.7,0-3.4,0-5.1c0-3.3,0-6.6,0-9.9
	c0-6.6,0-13.2,0-19.9c0-6.6,0-13.3,0-19.9c0-0.4,0.1-4.4,0-4.4c0,0-0.3,0-0.3,0c-0.8,0-1.6,0-2.4,0c-6.2,0-12.5,0-18.7,0
	c-1,0-2,0-3,0c0,0-0.8,0-0.8,0c0,1.4,0,2.9,0,4.3c0,6.6,0,13.2,0,19.7c0,6.6,0,13.3,0,19.9c0,3.3,0,6.6,0,10c0,1.6,0,3.2,0,4.8
	c0,0.8,0,1.5,0,2.3c0,0-0.6,0-0.6,0c-5,0-10,0-15,0c-2.5,0-5.1,0-7.6,0c-0.8,0-2.7,0-2.7,0s-6.6,17.4-7.8,20.2c18.1,0,36.3,0,54.4,0
	c13.1,0,26.2-0.1,39.3,0.1c3.3,0,6.6,0.1,9.8,0c3,0,6,0,9-0.6c5.5-0.9,10.6-3.3,14.6-7.2c7.8-7.6,9.5-20.9,3.9-30.3
	c-2.7-4.5-7-7.9-11.9-9.8c-2.9-1.1-5.9-1.8-8.9-2.4c-2.6-0.5-5.5-0.7-7.9-1.9c-2.1-1-3.2-2.9-3-5.2c0.2-2.2,1.5-3.5,3.6-3.8
	c1.3-0.2,2.6-0.1,4,0c1.5,0.1,3.1,0,4.6,0c3.3,0,6.5,0,9.8,0c10.5,0,21.1-0.1,31.6,0c0.2,0,0.3,0,0.5,0c0.1,0,0,1.7,0,1.9
	c0,1.7,0,3.4,0,5.1c0,3.3,0,6.6,0,9.9c0,6.6,0,13.2,0,19.9c0,6.6,0,13.3,0,19.9c0,0.4-0.1,4.4,0,4.4c0,0,0.3,0,0.3,0
	c0.8,0,1.6,0,2.4,0c6.2,0,12.5,0,18.7,0c1,0,2,0,3,0c0,0,0.8,0,0.8,0c0-1.4,0-2.9,0-4.3c0-6.6,0-13.2,0-19.7c0-3.2-0.3-37,0.1-37
	c4.3-0.1,8.7,0,13.1,0c2.9,0,8.8,0,8.8,0S270.9,53.4,274.7,53.4C276.3,49.2,274.7,53.4,274.7,53.4z"/>
<polygon fill="#0098D0" points="276.9,147.8 308.1,68.1 321.8,33.1 294.4,33.1 251.3,147.8 "/>
<linearGradient id="SVGID_2_" gradientUnits="userSpaceOnUse" x1="81.7756" y1="298.822" x2="40.7756" y2="281.822" gradientTransform="matrix(-1 0 0 -1 391.2461 366.7266)">
	<stop  offset="0" style="stop-color:#025068"/>
	<stop  offset="0.2002" style="stop-color:#006B93"/>
</linearGradient>
<polygon fill="url(#SVGID_2_)" points="326.2,114.7 352.6,114.7 321.8,33.1 308.1,68.1 "/>
</svg>
