<svg xmlns="http://www.w3.org/2000/svg" xmlns:xlink="http://www.w3.org/1999/xlink" viewBox="0 0 697 273"><defs><symbol overflow="visible" id="c"><path d="M4.93-3.102c0 .477-.05.91-.145 1.3-.094.392-.238.728-.433 1.005-.192.28-.43.5-.72.652-.284.153-.62.23-1.007.23-.332 0-.633-.062-.906-.187-.275-.125-.505-.316-.7-.578-.192-.257-.34-.59-.446-.992-.105-.402-.156-.88-.156-1.43 0-.472.047-.906.145-1.3.097-.39.242-.727.433-1.008.192-.28.43-.496.72-.65.288-.155.62-.23 1.003-.23.33 0 .635.063.91.188.268.125.503.317.694.58.196.26.344.592.446.995.105.402.16.875.16 1.425zm-.836.032c0-.11-.004-.215-.012-.32-.008-.106-.02-.212-.027-.313L1.43-1.75c.047.164.105.316.18.453.074.14.16.258.26.36.107.1.224.175.353.234.132.055.28.082.45.082.214 0 .41-.056.585-.157.176-.106.328-.262.45-.465.124-.207.218-.465.284-.77.067-.304.102-.656.102-1.058zm-2.84-.06v.294c.004.098.008.195.02.285l2.624-1.942c-.046-.16-.11-.31-.18-.442-.073-.132-.16-.246-.26-.343-.103-.098-.22-.172-.35-.227-.128-.05-.272-.078-.436-.078-.215 0-.41.05-.586.156s-.324.262-.45.47c-.12.206-.218.46-.284.765-.067.303-.098.66-.098 1.06zm0 0"/></symbol><symbol overflow="visible" id="d"><path d="M2.672-4.852c.098 0 .19.02.28.06.09.038.165.093.232.16.066.066.12.144.16.23.04.09.058.183.058.28 0 .102-.02.196-.058.282-.04.09-.09.164-.16.23-.067.067-.14.122-.23.157-.09.04-.184.058-.282.058-.102 0-.195-.02-.28-.058-.087-.035-.165-.09-.232-.156-.066-.066-.117-.14-.156-.23-.04-.086-.06-.18-.06-.28 0-.1.02-.192.06-.282.04-.086.09-.164.156-.23.067-.067.145-.122.23-.16.087-.04.18-.06.282-.06zm0 3.48c.098 0 .19.02.28.06.09.04.165.093.232.16.066.066.12.144.16.23.04.09.058.184.058.28 0 .103-.02.197-.058.283-.04.087-.09.165-.16.23-.067.068-.14.122-.23.157-.09.04-.184.06-.282.06-.102 0-.195-.02-.28-.06-.087-.04-.165-.09-.232-.156-.066-.065-.117-.14-.156-.23-.04-.085-.06-.18-.06-.28 0-.098.02-.192.06-.282.04-.09.09-.164.156-.23.067-.067.145-.12.23-.16.087-.04.18-.06.282-.06zm0 0"/></symbol><symbol overflow="visible" id="e"><path d="M4.734 0H.836v-.77H2.43v-4.527l-1.485.805-.304-.703 1.977-1.04h.73V-.77h1.387zm0 0"/></symbol><symbol overflow="visible" id="f"><path d="M4.785 0H.7v-.742l1.6-1.594c.266-.258.477-.484.645-.676.164-.187.29-.36.383-.52.09-.155.152-.304.184-.44.03-.14.047-.29.047-.454 0-.152-.02-.297-.06-.433-.043-.136-.105-.257-.19-.363-.087-.105-.197-.187-.333-.246-.137-.057-.3-.09-.49-.09-.26 0-.503.06-.717.177-.215.117-.41.27-.594.453l-.453-.543c.234-.246.504-.445.808-.593.306-.15.66-.223 1.068-.223.273 0 .523.04.75.122.226.082.422.203.59.356.164.156.29.347.378.57.09.226.137.48.137.762 0 .238-.03.457-.094.66-.063.203-.16.402-.29.605-.13.2-.29.406-.484.62-.195.216-.426.454-.69.712L1.77-.79h3.015zm0 0"/></symbol><symbol overflow="visible" id="g"><path d="M4.668-1.883c0 .27-.06.528-.168.766-.11.238-.277.445-.496.625-.223.18-.5.32-.836.422-.336.105-.727.156-1.176.156-.246 0-.465-.008-.664-.023C1.133.046.948.022.778 0v-.742c.195.035.406.062.624.082.22.02.442.027.668.027.31 0 .575-.027.793-.082.223-.055.403-.137.54-.238.14-.106.242-.23.304-.383.063-.148.094-.316.094-.5 0-.172-.034-.32-.112-.45-.075-.124-.18-.23-.32-.316-.138-.086-.302-.148-.493-.19-.19-.044-.402-.067-.63-.067H1.54v-.675h.714c.187 0 .36-.027.512-.074.152-.05.285-.12.394-.21.11-.094.192-.207.25-.34.06-.137.09-.29.09-.46 0-.333-.102-.575-.305-.724-.203-.152-.5-.23-.894-.23-.206 0-.42.02-.644.062-.222.043-.457.102-.71.184v-.72c.105-.038.222-.073.343-.1.12-.032.24-.06.366-.08.12-.018.242-.034.364-.045.117-.012.234-.016.343-.016.328 0 .62.036.87.106s.458.172.626.305c.167.134.292.298.378.485.086.192.13.407.13.64 0 .357-.09.653-.274.896-.18.243-.43.434-.746.575.16.023.32.074.476.152.156.074.297.172.422.293.125.117.227.258.305.418.08.16.118.34.118.54zm0 0"/></symbol><symbol overflow="visible" id="h"><path d="M5.094-1.37h-1.06V0h-.843v-1.37H.204V-2.1l2.645-4.105h1.187v4.105h1.06zM3.19-5.407L1.03-2.098h2.16zm0 0"/></symbol><symbol overflow="visible" id="i"><path d="M4.63-1.984c0 .308-.067.586-.2.84-.133.253-.317.472-.547.652-.235.183-.508.324-.824.426-.318.1-.662.152-1.03.152-.09 0-.19-.004-.296-.008-.105-.004-.21-.012-.316-.02L1.113.036C1.013.023.926.012.843 0v-.75c.173.043.368.07.587.09.222.02.445.027.668.027.254 0 .48-.027.683-.09.204-.058.376-.144.52-.257.14-.114.25-.25.33-.407.073-.16.112-.34.112-.54 0-.385-.14-.667-.418-.843-.277-.175-.672-.265-1.19-.265H.953v-3.168h3.343v.72H1.734v1.74h.54c.296 0 .585.028.87.083.282.055.532.148.75.28.22.138.4.317.532.544.136.227.203.508.203.852zm0 0"/></symbol><symbol overflow="visible" id="k"><path d="M5.047 0H3.91L1.69-2.555V0H.864v-6.707h.828v4.12l2.142-2.18h1.09l-2.234 2.2zm0 0"/></symbol><symbol overflow="visible" id="l"><path d="M4.86-1.965c0 .285-.05.55-.153.8-.102.25-.25.47-.437.653-.192.188-.422.332-.688.438-.266.105-.562.16-.89.16-.34 0-.645-.055-.907-.164-.262-.11-.484-.277-.66-.504C.95-.81.812-1.094.723-1.438.63-1.78.583-2.19.583-2.663c0-.316.022-.62.062-.922.042-.297.11-.574.207-.84.093-.26.218-.504.378-.72.157-.217.356-.405.59-.56.235-.157.516-.282.832-.368.32-.086.692-.13 1.114-.13h.613v.72h-.67c-.37 0-.69.046-.96.132-.273.09-.5.215-.684.375-.183.165-.324.356-.42.586-.1.226-.162.48-.19.76l-.018.196c.2-.117.43-.21.69-.28.263-.07.544-.106.85-.106.31 0 .588.043.823.136.235.09.43.22.59.383.157.163.274.355.352.585.078.227.117.477.117.75zm-.864.05c0-.187-.023-.358-.066-.515-.047-.152-.118-.28-.22-.386-.097-.106-.222-.192-.37-.247-.15-.058-.328-.09-.54-.09-.12 0-.24.012-.366.036-.122.02-.243.05-.364.09-.117.04-.23.086-.336.136-.11.05-.207.105-.296.16 0 .41.03.75.085 1.023.06.273.14.492.254.656.114.163.25.284.414.35.165.07.357.106.572.106.18 0 .347-.027.496-.086.152-.058.28-.144.39-.26.11-.115.196-.25.258-.415.063-.165.09-.348.09-.56zm0 0"/></symbol><symbol overflow="visible" id="m"><path d="M4.754-5.438L2.152 0h-.945l2.7-5.438H.554v-.765h4.2zm0 0"/></symbol><symbol overflow="visible" id="n"><path d="M-5.445-1.09v-.863l1-.027c-.387-.32-.664-.64-.84-.954-.172-.312-.258-.628-.258-.945 0-.56.18-.99.547-1.284.363-.29.906-.426 1.625-.402v.953c-.478-.008-.82.058-1.036.21-.215.15-.324.372-.324.66 0 .126.023.255.066.384.047.13.117.258.22.395.096.137.225.277.38.43.158.152.345.316.564.488H0v.957zm0 0"/></symbol><symbol overflow="visible" id="o"><path d="M-3.012-5.47c.133 0 .246 0 .336.005.09.004.176.012.258.02v3.824c.555 0 .984-.157 1.28-.47.298-.308.45-.758.45-1.344 0-.16-.007-.32-.02-.476-.01-.16-.03-.317-.05-.46-.023-.15-.047-.294-.074-.427-.027-.137-.06-.262-.09-.38h.774c.074.26.132.548.18.872.042.325.066.66.066 1.008 0 .465-.063.867-.192 1.203-.125.336-.308.614-.55.828-.24.215-.536.375-.883.477-.348.103-.743.153-1.184.153-.384 0-.747-.054-1.09-.164-.34-.11-.64-.27-.9-.48-.26-.212-.464-.474-.616-.782-.153-.31-.227-.657-.227-1.047 0-.378.06-.714.176-1.007.12-.293.29-.54.508-.742.22-.2.485-.35.798-.452.312-.106.664-.157 1.05-.157zm-.136.982c-.243-.012-.46.015-.664.07-.2.06-.372.148-.516.27-.145.12-.258.273-.34.453-.082.18-.12.39-.12.63 0 .206.038.393.116.565.078.168.192.316.336.438.145.124.32.222.524.3.203.075.42.12.664.14zm0 0"/></symbol><symbol overflow="visible" id="p"><path d="M-2.61-.59c-.39 0-.76-.055-1.113-.156-.35-.102-.66-.262-.925-.477-.266-.214-.477-.492-.63-.828-.156-.337-.234-.74-.234-1.204 0-.183.016-.367.043-.55.03-.18.075-.372.138-.575l-.21-.835h7.765v.95H.168L-1-4.314C-.27-3.8.098-3.188.098-2.48c0 .32-.067.597-.196.832-.13.234-.316.43-.554.585-.24.16-.524.278-.856.356-.332.078-.7.117-1.1.117zm-.058-.97c.305 0 .574-.018.816-.065.243-.047.45-.113.618-.207.168-.09.296-.207.386-.348.09-.136.137-.3.137-.488 0-.238-.106-.492-.32-.758-.216-.265-.532-.547-.95-.84h-2.528c-.07.145-.125.31-.168.493-.043.183-.066.378-.066.582 0 .53.176.936.527 1.213.352.282.867.418 1.547.418zm0 0"/></symbol><symbol overflow="visible" id="q"><path d="M0-5.246v.848l-.88.03c.19.165.345.317.47.466.125.144.226.29.3.433.08.146.13.294.16.44.032.147.048.3.048.464 0 .562-.164.984-.493 1.27-.332.284-.828.43-1.492.43h-3.558v-.947h3.48c.836 0 1.254-.312 1.254-.945 0-.113-.017-.226-.052-.336-.035-.11-.093-.226-.18-.347-.085-.123-.2-.255-.343-.392-.145-.14-.328-.297-.547-.47h-3.613v-.944zm0 0"/></symbol><symbol overflow="visible" id="r"><path d="M-1.488-5.18c.19 0 .363.032.515.098.153.062.29.152.407.266.117.11.218.242.3.39.082.15.153.305.207.473.056.168.095.34.12.52.026.175.038.35.038.52 0 .37-.016.706-.047 1.018-.034.31-.085.61-.16.907h-.867c.09-.317.16-.633.207-.95.047-.312.07-.625.07-.937 0-.453-.062-.79-.183-1.004-.125-.218-.3-.323-.527-.323-.098 0-.188.016-.262.05-.078.036-.152.098-.223.188-.07.09-.144.23-.222.418-.074.192-.16.45-.258.78-.074.247-.156.474-.25.68-.09.208-.2.388-.328.54-.125.152-.274.274-.442.36-.17.085-.37.128-.605.128-.152 0-.316-.034-.496-.104-.184-.07-.352-.19-.508-.36-.156-.17-.28-.402-.387-.69-.102-.29-.153-.65-.153-1.083 0-.215.012-.453.035-.71.024-.263.063-.536.12-.817h.84c-.07.297-.124.578-.16.844-.034.265-.05.496-.05.69 0 .235.02.435.055.595.035.16.086.293.148.39.063.102.137.172.223.215.086.043.176.067.273.067.1 0 .19-.02.267-.06.078-.034.156-.104.23-.21.075-.102.15-.246.223-.43.074-.183.156-.425.242-.722.094-.32.192-.594.297-.813.1-.222.214-.402.343-.54.125-.136.27-.233.43-.292.156-.062.34-.09.54-.09zm0 0"/></symbol><symbol overflow="visible" id="s"><path d="M-.074-5.258c.054.215.09.434.113.664.022.227.034.457.034.692 0 .683-.152 1.195-.46 1.53-.31.337-.786.505-1.427.505h-2.843v1.523h-.79v-1.523h-1.5l-.242-.942h1.743v-2.448h.79v2.45h2.768c.39 0 .68-.106.875-.313.196-.208.29-.517.29-.923 0-.172-.012-.363-.04-.57-.027-.203-.07-.418-.13-.645zm0 0"/></symbol><symbol overflow="visible" id="u"><path d="M-2.82-5.523c.484 0 .906.066 1.27.203.36.136.66.324.898.562.238.238.418.52.54.848.116.324.178.676.178 1.055 0 .175-.01.347-.027.52-.02.17-.052.347-.095.522h2.278v.946h-7.668v-.844l.91-.06c-.37-.27-.633-.558-.785-.867-.15-.308-.223-.64-.223-1 0-.308.063-.582.195-.816.13-.234.313-.434.55-.594.236-.16.52-.277.857-.355.335-.082.706-.12 1.12-.12zm.043.964c-.285 0-.547.025-.79.064-.238.043-.44.11-.61.2-.17.09-.303.206-.4.347-.095.14-.142.31-.142.505 0 .12.02.242.056.363.04.125.1.25.19.383.09.134.208.27.353.42.147.143.327.303.546.467h2.64c.075-.17.13-.355.172-.546.043-.19.063-.378.063-.566 0-.508-.17-.91-.52-1.2-.343-.288-.862-.433-1.557-.433zm0 0"/></symbol><symbol overflow="visible" id="v"><path d="M-.2-5.102c.095.247.165.5.208.758.047.258.066.528.066.8 0 .86-.23 1.524-.7 1.99-.464.464-1.147.7-2.042.7-.43 0-.824-.072-1.172-.205-.35-.13-.652-.32-.902-.56-.25-.243-.442-.532-.578-.872-.137-.336-.203-.707-.203-1.11 0-.28.02-.546.058-.793.04-.246.106-.48.195-.707h.903c-.125.235-.21.477-.27.72-.054.245-.082.5-.082.757 0 .242.044.473.138.688.094.214.227.402.398.566.176.163.387.292.637.386.25.093.53.14.844.14.66 0 1.152-.16 1.48-.48.328-.32.49-.766.49-1.332 0-.258-.03-.508-.087-.746-.06-.243-.145-.473-.258-.7zm0 0"/></symbol><symbol overflow="visible" id="w"><path d="M-2.766-5.61c.422 0 .81.06 1.164.18.352.117.653.29.907.516.25.223.445.496.586.816C.028-3.773.1-3.41.1-3c0 .39-.063.742-.184 1.05-.12.31-.297.57-.53.786-.236.215-.53.38-.876.492-.348.113-.746.172-1.2.172-.42 0-.808-.06-1.156-.18-.35-.117-.652-.29-.902-.515-.25-.223-.445-.496-.586-.817-.14-.324-.207-.687-.207-1.097 0-.39.06-.738.18-1.05.12-.31.297-.57.53-.785.235-.215.524-.38.872-.492.347-.114.745-.172 1.194-.172zm.043.965c-.336 0-.632.04-.882.114-.25.073-.46.178-.63.315-.167.137-.296.305-.378.5-.086.2-.13.418-.13.66 0 .282.056.524.165.723.113.203.258.367.445.496.184.13.4.223.64.28.247.06.5.09.77.09.336 0 .63-.034.883-.108.254-.074.465-.184.633-.32.168-.137.293-.305.38-.5.085-.196.128-.415.128-.66 0-.282-.054-.524-.167-.723-.11-.203-.258-.368-.442-.496-.182-.13-.397-.223-.64-.282-.245-.058-.503-.09-.773-.09zm0 0"/></symbol><symbol overflow="visible" id="x"><path d="M-5.445-.867v-.844l.88-.036c-.19-.16-.35-.313-.474-.46-.124-.15-.222-.298-.3-.44-.074-.143-.13-.288-.16-.436-.03-.148-.043-.3-.043-.46 0-.56.164-.985.496-1.274.328-.286.828-.43 1.492-.43H0v.945h-3.477c-.425 0-.742.077-.95.237-.202.16-.303.395-.303.71 0 .115.015.228.05.337.035.114.094.227.18.348.086.117.2.246.344.387.144.14.324.296.543.467H0v.946zm0 0"/></symbol><symbol overflow="visible" id="y"><path d="M-2.61-.59c-.464 0-.874-.066-1.234-.19-.36-.126-.664-.306-.91-.54-.25-.235-.437-.516-.566-.84-.13-.328-.192-.695-.192-1.094 0-.176.012-.348.032-.516.023-.167.058-.332.105-.496h-2.293v-.95H0v.85l-1.03.03c.382.266.667.55.85.86.184.308.278.64.278.996 0 .312-.067.585-.196.824-.13.234-.312.433-.55.59-.24.156-.524.277-.856.355-.332.077-.7.12-1.105.12zm-.058-.97c.656 0 1.148-.092 1.473-.288.324-.19.484-.468.484-.82 0-.238-.106-.492-.32-.758-.216-.265-.532-.547-.95-.84h-2.528c-.074.157-.13.329-.168.516-.035.188-.054.375-.054.56 0 .514.164.913.5 1.202.332.29.85.43 1.562.43zm0 0"/></symbol><symbol overflow="visible" id="z"><path d="M5.902 0H4.84v-3.914c0-.473-.09-.824-.266-1.06-.176-.233-.43-.346-.758-.346-.144 0-.277.015-.402.054-.125.04-.254.106-.387.204-.132.093-.28.222-.44.386-.157.164-.34.367-.548.61V0H.976v-8.625H2.04v2.496L2-5.163c.168-.2.332-.367.492-.504.16-.137.324-.246.485-.332.16-.086.324-.145.492-.184.163-.035.335-.054.514-.054.61 0 1.082.187 1.418.558.332.37.5.934.5 1.684zm0 0"/></symbol><symbol overflow="visible" id="A"><path d="M6.152 0H.898v-.953l2.063-2.05c.337-.333.614-.622.825-.868.21-.243.375-.466.492-.67.118-.198.2-.39.24-.57.042-.18.06-.37.06-.577 0-.196-.026-.383-.077-.56-.055-.175-.137-.33-.246-.468-.11-.133-.254-.238-.426-.316-.176-.08-.387-.118-.63-.118-.34 0-.643.078-.92.226-.278.152-.532.348-.762.586L.93-7.04c.3-.315.644-.57 1.04-.76.39-.192.846-.286 1.37-.286.35 0 .676.05.965.156.293.106.543.258.754.46.21.2.374.443.49.732.118.29.177.613.177.976 0 .305-.043.59-.125.848-.082.262-.204.52-.368.777-.164.258-.37.528-.625.805-.25.277-.544.578-.887.91l-1.446 1.41h3.875zm0 0"/></symbol><symbol overflow="visible" id="B"><path d="M5.262-2.824H1.61v-1.004H5.26zm0 0"/></symbol><symbol overflow="visible" id="C"><path d="M6.215-3.172c0 .508-.07.96-.21 1.363-.142.4-.34.74-.6 1.02-.257.278-.573.493-.944.642-.37.148-.784.222-1.25.222-.362 0-.733-.035-1.108-.105-.38-.072-.754-.18-1.125-.33v-8.265H2.04v2.375l-.052 1.137c.305-.41.633-.703.98-.87.348-.17.723-.255 1.122-.255.348 0 .656.074.922.218.265.15.484.356.664.622.18.265.312.585.402.964.09.375.137.797.137 1.262zm-1.09.047c0-.32-.02-.617-.066-.887-.048-.265-.122-.496-.224-.687-.102-.19-.234-.34-.39-.448-.16-.11-.352-.16-.57-.16-.134 0-.27.02-.407.062-.142.043-.286.113-.435.215-.148.096-.305.23-.47.393-.163.164-.338.37-.526.614v2.972c.206.08.417.144.632.19.215.047.422.07.617.07.245 0 .476-.034.698-.112.223-.078.418-.207.586-.387.168-.183.305-.42.403-.722.1-.297.148-.668.148-1.113zm0 0"/></symbol><symbol overflow="visible" id="D"><path d="M4.914 0L4.89-.824c-.335.328-.675.566-1.02.715-.343.145-.702.22-1.08.22-.353 0-.65-.044-.9-.133-.245-.09-.452-.215-.613-.372-.16-.156-.277-.34-.35-.55C.85-1.155.81-1.387.81-1.637c0-.613.227-1.093.688-1.44.457-.35 1.133-.525 2.027-.525h1.27v-.535c0-.363-.117-.652-.348-.87-.23-.22-.587-.33-1.063-.33-.344 0-.688.04-1.024.118-.336.08-.68.19-1.04.33v-.958c.134-.047.286-.097.45-.144.165-.047.34-.086.524-.125.183-.035.37-.067.57-.086.2-.024.403-.035.606-.035.37 0 .703.043 1 .12.297.083.55.208.754.376.207.164.363.375.472.63.11.25.167.546.167.89V0zm-.117-2.79H3.45c-.266 0-.493.028-.684.08-.192.054-.348.128-.47.226-.124.097-.214.214-.273.35-.058.138-.09.29-.09.462 0 .117.02.23.055.34.04.105.098.203.18.285.082.082.187.15.316.2.13.046.29.074.477.074.243 0 .524-.075.84-.223.317-.15.65-.387.997-.707zm0 0"/></symbol><symbol overflow="visible" id="E"><path d="M5.828-1.672c0 .215-.035.41-.11.578-.073.172-.17.324-.296.457-.13.133-.274.242-.442.336-.168.093-.343.17-.535.234-.187.058-.383.105-.582.132-.2.028-.394.043-.586.043-.414 0-.797-.02-1.144-.055C1.785.02 1.445-.04 1.11-.12V-1.1c.36.102.714.18 1.07.23.35.055.707.08 1.054.08.508 0 .887-.067 1.13-.208.245-.137.366-.336.366-.59 0-.11-.02-.21-.058-.297-.04-.086-.11-.172-.21-.25-.103-.078-.26-.164-.474-.246-.215-.085-.504-.183-.875-.292-.277-.082-.53-.176-.765-.277-.235-.105-.438-.23-.61-.37-.172-.14-.304-.31-.402-.5-.098-.192-.145-.418-.145-.68 0-.168.04-.355.12-.56.077-.202.213-.393.405-.57.19-.175.45-.32.777-.433.324-.117.73-.175 1.22-.175.237 0 .507.015.8.04.293.026.597.073.914.136v.95c-.332-.083-.65-.146-.95-.18-.296-.04-.558-.06-.777-.06-.266 0-.49.02-.67.06-.178.042-.327.097-.44.167-.11.07-.192.156-.238.25-.05.098-.075.2-.075.31 0 .108.02.21.063.3s.12.175.238.257c.117.086.277.168.485.25.207.086.48.176.812.274.363.105.668.214.918.332.246.117.45.246.602.386.156.145.265.305.332.485.066.178.1.382.1.608zm0 0"/></symbol><symbol overflow="visible" id="F"><path d="M6.152-3.387c0 .15-.004.278-.007.38-.004.1-.008.195-.016.284H1.823c0 .63.176 1.11.528 1.446.347.336.85.504 1.51.504.18 0 .36-.008.54-.024.18-.015.352-.03.516-.058.168-.024.328-.05.48-.083.153-.03.293-.062.426-.1v.874c-.29.082-.617.148-.98.2-.364.05-.742.073-1.133.073-.522 0-.976-.07-1.355-.215-.378-.14-.687-.348-.93-.618-.24-.27-.42-.6-.538-.996-.114-.39-.172-.835-.172-1.33 0-.434.062-.84.183-1.227.125-.383.31-.72.547-1.012.24-.288.528-.522.875-.69.344-.172.74-.258 1.176-.258.43 0 .81.066 1.137.203.328.133.605.324.832.57.226.246.398.543.512.895.117.35.175.746.175 1.183zM5.047-3.54c.012-.272-.012-.522-.078-.75-.068-.226-.17-.417-.302-.58-.137-.165-.31-.29-.512-.384-.203-.09-.437-.137-.707-.137-.23 0-.446.046-.638.136-.19.09-.355.215-.492.38-.14.16-.25.354-.336.585-.086.228-.14.478-.16.75zm0 0"/></symbol><symbol overflow="visible" id="G"><path d="M3.063-7.75H1.25v-.875h2.887v7.738h1.828V0H1.05v-.887h2.013zm0 0"/></symbol><symbol overflow="visible" id="H"><path d="M3.063-5.25H1.25v-.88h2.887v5.243h1.828V0H1.05v-.887h2.013zm.374-3.45c.118 0 .227.024.33.067.1.043.19.102.264.18.075.078.134.164.177.265.043.098.066.208.066.33 0 .112-.023.217-.066.32-.043.1-.102.19-.176.268-.073.08-.163.137-.264.18-.102.043-.21.067-.329.067-.117 0-.23-.024-.332-.067-.1-.043-.187-.1-.265-.18-.074-.078-.133-.168-.176-.27-.043-.1-.062-.206-.062-.32 0-.12.02-.23.062-.327.043-.102.102-.188.176-.266.074-.078.164-.137.265-.18.102-.043.21-.066.333-.066zm0 0"/></symbol><symbol overflow="visible" id="I"><path d="M.977-6.13h.945l.043.99c.18-.212.35-.387.52-.528.167-.14.33-.254.492-.34.16-.086.324-.144.492-.18.163-.035.335-.05.514-.05.633 0 1.11.187 1.434.558.324.37.484.934.484 1.684V0H4.84v-3.914c0-.48-.09-.832-.27-1.063-.18-.23-.445-.343-.797-.343-.132 0-.257.015-.382.054-.124.04-.253.106-.386.204-.137.093-.28.222-.438.386-.156.164-.332.367-.527.61V0H.976zm0 0"/></symbol><symbol overflow="visible" id="J"><path d="M0 3.922v-.75l1.56-.73c.12-.055.217-.11.295-.17.08-.053.14-.116.188-.182.047-.067.078-.137.098-.215.02-.078.032-.168.032-.266v-.313H0V.633h4.875V1.94c0 .283-.03.525-.094.732-.06.203-.147.37-.26.5-.11.13-.247.226-.403.29-.16.058-.332.09-.523.09-.153 0-.297-.025-.434-.068-.137-.046-.258-.113-.367-.2-.113-.09-.207-.198-.29-.327-.08-.133-.14-.28-.18-.45-.046.138-.128.25-.25.348-.116.094-.272.192-.468.293zm3.535-1.067c.262 0 .457-.078.586-.242.13-.164.196-.394.196-.687v-.63H2.703v.54c0 .156.02.297.055.422s.09.234.16.32c.07.09.16.156.262.207.1.047.222.07.355.07zm0 0"/></symbol><symbol overflow="visible" id="K"><path d="M2.492 3.926c-.234 0-.457-.016-.672-.05-.215-.04-.414-.095-.597-.177-.184-.08-.352-.184-.5-.31C.57 3.263.44 3.11.336 2.927c-.106-.184-.19-.4-.25-.645C.026 2.04 0 1.763 0 1.45V.405h4.875v1.258c0 .762-.195 1.328-.586 1.703-.395.375-.993.56-1.798.56zm-.05-.696c.347 0 .64-.03.878-.097.24-.067.43-.164.578-.293.145-.133.254-.297.317-.496.066-.2.1-.434.1-.703v-.57H.576v.496c0 1.11.624 1.664 1.866 1.664zm0 0"/></symbol><symbol overflow="visible" id="L"><path d="M4.31 3.88V2.437H0v-.672h4.31V.32h.565v3.56zm0 0"/></symbol><symbol overflow="visible" id="M"><path d="M2.47 3.996c-.44 0-.818-.055-1.134-.156-.32-.102-.582-.242-.79-.418-.206-.176-.362-.38-.464-.613-.098-.236-.148-.486-.148-.748 0-.312.054-.585.168-.82C.215 1.012.38.82.594.664c.215-.152.472-.266.78-.34.31-.074.653-.113 1.04-.113.434 0 .81.052 1.125.157.32.102.58.238.788.414.207.177.363.38.46.615.103.234.153.48.153.742 0 .312-.053.586-.17.82-.114.23-.278.426-.49.578-.214.156-.47.27-.776.348-.31.074-.652.113-1.035.113zm-.048-.69c.285 0 .547-.025.785-.068.238-.043.44-.113.613-.21.172-.098.305-.22.4-.376.093-.152.14-.336.14-.55 0-.21-.05-.39-.15-.54-.1-.152-.237-.277-.413-.37-.172-.098-.375-.172-.606-.22-.233-.046-.48-.07-.74-.07-.29 0-.552.024-.79.067-.238.046-.44.116-.61.21-.17.097-.304.218-.398.37-.093.153-.14.337-.14.552 0 .207.05.386.148.54.102.15.238.276.414.374.172.097.37.17.606.218.23.047.476.07.742.07zm0 0"/></symbol><symbol overflow="visible" id="N"><path d="M0 3.676V.866h4.875v.677H.565v2.133zm0 0"/></symbol><symbol overflow="visible" id="P"><path d="M5.27 3.605L-.8 1.047V.43l6.07 2.558zm0 0"/></symbol><symbol overflow="visible" id="Q"><path d="M1.457 3.79c-.234 0-.437-.048-.62-.138-.18-.09-.333-.218-.458-.386-.126-.168-.22-.37-.282-.61C.03 2.418 0 2.156 0 1.863V.59h4.875v1.394c0 1.086-.395 1.63-1.188 1.63-.26 0-.488-.063-.675-.188-.192-.125-.332-.328-.422-.614-.027.133-.07.258-.13.376-.058.117-.136.222-.23.312-.093.09-.207.16-.335.21-.13.052-.274.08-.438.08zm2.14-.864c.102 0 .196-.016.286-.047.086-.032.164-.083.226-.157.062-.075.113-.176.148-.3.04-.13.058-.29.058-.482v-.686H2.79v.664c0 .152.015.29.05.41.03.125.082.23.148.317.067.09.15.16.25.207.102.046.223.074.36.074zm-2.16.16c.125 0 .235-.027.336-.078.098-.055.18-.13.25-.23.07-.098.122-.22.16-.364.036-.14.055-.305.055-.48v-.68H.558v.7c0 .382.07.663.215.85.14.188.364.282.664.282zm0 0"/></symbol><symbol overflow="visible" id="R"><path d="M4.316 1.766V.64h.56v2.92h-.56V2.436H.566V3.56H0V.64h.566v1.126zm0 0"/></symbol><symbol overflow="visible" id="S"><path d="M0 3.52V.75h4.875v2.77h-.56V1.414h-1.51v2.024h-.56V1.413H.566V3.52zm0 0"/></symbol><symbol overflow="visible" id="T"><path d="M0 3.906V3.07l2.39-1.824H0V.582h4.875v.664H2.61L4.874 3.03v.79L2.56 1.895zm0 0"/></symbol><symbol overflow="visible" id="V"><path d="M5.12 0H1.09v-7.09h4.03v.813H2.056v2.2h2.95v.81h-2.95v2.443H5.12zm0 0"/></symbol><symbol overflow="visible" id="W"><path d="M1.09-5.445h.863l.027 1c.32-.387.64-.664.954-.84.312-.172.628-.258.945-.258.56 0 .99.18 1.284.547.29.363.426.906.402 1.625h-.953c.008-.478-.058-.82-.21-1.036-.15-.215-.372-.324-.66-.324-.126 0-.255.023-.384.066-.13.047-.258.117-.395.22-.137.096-.277.225-.43.38-.152.158-.316.345-.488.564V0H1.09zm0 0"/></symbol><symbol overflow="visible" id="X"><path d="M5.61-2.766c0 .422-.06.81-.18 1.164-.117.352-.29.653-.516.907-.223.25-.496.445-.816.586C3.773.028 3.41.1 3 .1c-.39 0-.742-.063-1.05-.184-.31-.12-.57-.297-.786-.53-.215-.236-.38-.53-.492-.876C.56-1.84.5-2.238.5-2.692c0-.42.06-.808.18-1.156.117-.35.29-.652.515-.902.223-.25.496-.445.817-.586.324-.14.687-.207 1.097-.207.39 0 .738.06 1.05.18.31.12.57.297.785.53.215.235.38.524.492.872.114.347.172.745.172 1.194zm-.965.043c0-.336-.04-.632-.114-.882-.073-.25-.178-.46-.315-.63-.137-.167-.305-.296-.5-.378-.2-.086-.418-.13-.66-.13-.282 0-.524.056-.723.165-.203.113-.367.258-.496.445-.13.184-.223.4-.28.64-.06.247-.09.5-.09.77 0 .336.034.63.108.883.074.254.184.465.32.633.137.168.305.293.5.38.196.085.415.128.66.128.282 0 .524-.054.723-.167.203-.11.368-.258.496-.442.13-.182.223-.397.282-.64.058-.245.09-.503.09-.773zm0 0"/></symbol><symbol overflow="visible" id="Y"><path d="M5.47-3.012c0 .133 0 .246-.005.336-.004.09-.012.176-.02.258H1.62c0 .555.157.984.47 1.28.308.298.758.45 1.344.45.16 0 .32-.007.476-.02.16-.01.317-.03.46-.05.15-.023.294-.047.427-.074.137-.027.262-.06.38-.09v.774c-.26.074-.548.132-.872.18-.325.042-.66.066-1.008.066-.465 0-.867-.063-1.203-.192-.336-.125-.614-.308-.828-.55C1.05-.885.89-1.18.79-1.528.686-1.875.636-2.27.636-2.71c0-.384.054-.747.164-1.09.11-.34.27-.64.48-.9.212-.26.474-.464.782-.616.31-.153.657-.227 1.047-.227.378 0 .714.06 1.007.176.293.12.54.29.742.508.2.22.35.485.452.798.106.312.157.664.157 1.05zm-.982-.136c.012-.243-.015-.46-.07-.664-.06-.2-.148-.372-.27-.516-.12-.145-.273-.258-.453-.34-.18-.082-.39-.12-.63-.12-.206 0-.393.038-.565.116-.168.078-.316.192-.438.336-.124.145-.222.32-.3.524-.075.203-.12.42-.14.664zm0 0"/></symbol><symbol overflow="visible" id="Z"><path d="M.59-2.61c0-.39.055-.76.156-1.113.102-.35.262-.66.477-.925.214-.266.492-.477.828-.63.337-.156.74-.234 1.204-.234.183 0 .367.016.55.043.18.03.372.075.575.138l.835-.21v7.765h-.95V.168L4.314-1C3.8-.27 3.188.098 2.48.098c-.32 0-.597-.067-.832-.196-.234-.13-.43-.316-.585-.554-.16-.24-.278-.524-.356-.856-.078-.332-.117-.7-.117-1.1zm.97-.058c0 .305.018.574.065.816.047.243.113.45.207.618.09.168.207.296.348.386.136.09.3.137.488.137.238 0 .492-.106.758-.32.265-.216.547-.532.84-.95v-2.528c-.145-.07-.31-.125-.493-.168-.183-.043-.378-.066-.582-.066-.53 0-.936.176-1.213.527-.282.352-.418.867-.418 1.547zm0 0"/></symbol><symbol overflow="visible" id="aa"><path d="M5.246-7.668L1.523 1.168H.625l3.723-8.836zm0 0"/></symbol><symbol overflow="visible" id="ab"><path d="M5.18-1.488c0 .19-.032.363-.098.515-.062.153-.152.29-.266.407-.11.117-.242.218-.39.3-.15.082-.305.153-.473.207-.168.056-.34.095-.52.12-.175.026-.35.038-.52.038-.37 0-.706-.016-1.018-.047-.31-.034-.61-.085-.907-.16v-.867c.317.09.633.16.95.207.312.047.625.07.937.07.453 0 .79-.062 1.004-.183.218-.125.323-.3.323-.527 0-.098-.016-.188-.05-.262-.036-.078-.098-.152-.188-.223-.09-.07-.23-.144-.418-.222-.192-.074-.45-.16-.78-.258-.247-.074-.474-.156-.68-.25-.208-.09-.388-.2-.54-.328-.152-.125-.274-.274-.36-.442-.085-.17-.128-.37-.128-.605 0-.152.034-.316.104-.496.07-.184.19-.352.36-.508.17-.156.402-.28.69-.387.29-.102.65-.153 1.083-.153.215 0 .453.012.71.035.263.024.536.063.817.12v.84c-.297-.07-.578-.124-.844-.16-.265-.034-.496-.05-.69-.05-.235 0-.435.02-.595.055-.16.035-.293.086-.39.148-.102.063-.172.137-.215.223-.043.086-.067.176-.067.273 0 .1.02.19.06.267.034.078.104.156.21.23.102.075.246.15.43.223.183.074.425.156.722.242.32.094.594.192.813.297.222.1.402.214.54.343.136.125.233.27.292.43.062.156.09.34.09.54zm0 0"/></symbol><symbol overflow="visible" id="ac"><path d="M6.055 0h-1.05l-.497-1.547h-2.95L1.06 0H.056L2.41-7.09h1.324zM4.23-2.41l-1.2-3.793L1.833-2.41zm0 0"/></symbol><symbol overflow="visible" id="ad"><path d="M6.086-7.09L3.68 0H2.375L.023-7.09h1.09L2.64-2.313 3.08-.91l.442-1.402L5.055-7.09zm0 0"/></symbol><symbol overflow="visible" id="ae"><path d="M5.457-5.875c-.262-.14-.535-.25-.812-.328-.278-.078-.582-.117-.91-.117-.38 0-.712.066-1.005.2-.292.132-.542.323-.742.565-.2.246-.355.54-.46.883-.106.344-.16.723-.16 1.14 0 .434.042.82.128 1.165.086.344.223.637.41.875.184.238.418.422.707.547.285.13.633.19 1.032.19.07 0 .144-.003.222-.01.082-.008.16-.016.238-.028.082-.016.157-.03.23-.047.075-.02.142-.04.2-.062v-2.254h-1.45v-.8h2.407v3.624c-.148.07-.304.133-.472.184-.165.054-.332.1-.504.136-.172.035-.34.063-.512.082-.172.02-.336.028-.492.028C3.027.098 2.59.023 2.2-.13c-.388-.15-.72-.378-.993-.675-.273-.3-.484-.672-.63-1.117C.43-2.367.36-2.882.36-3.47c0-.58.08-1.1.242-1.56.164-.462.39-.853.687-1.173.292-.32.647-.567 1.062-.734.414-.168.87-.25 1.37-.25.317 0 .622.027.907.082.288.054.565.144.827.27zm0 0"/></symbol><symbol overflow="visible" id="af"><path d="M5.82-1.566H4.613V0h-.968v-1.566H.235v-.832l3.02-4.692h1.358v4.692H5.82zM3.645-6.18l-2.47 3.782h2.47zm0 0"/></symbol><symbol overflow="visible" id="ag"><path d="M5.41 0H.953v-.88h1.824v-5.175l-1.7.922-.343-.8 2.254-1.192h.836V-.88H5.41zm0 0"/></symbol><symbol overflow="visible" id="ah"><path d="M5.47 0H.796v-.848l1.836-1.82c.3-.297.543-.555.73-.773.188-.216.336-.415.442-.595.105-.18.175-.348.21-.508.036-.156.055-.328.055-.512 0-.175-.023-.34-.07-.5-.047-.156-.12-.293-.22-.414-.096-.116-.22-.21-.378-.28-.156-.07-.343-.102-.558-.102-.3 0-.574.067-.82.2-.247.132-.473.308-.68.52l-.52-.622c.27-.285.578-.512.926-.68.348-.17.754-.253 1.22-.253.31 0 .6.046.858.14.258.094.48.23.668.406.188.175.336.394.438.652.105.254.156.543.156.867 0 .268-.035.522-.11.753-.074.23-.183.46-.328.69-.148.232-.332.47-.554.716-.223.245-.485.515-.79.808L2.024-.902H5.47zm0 0"/></symbol><symbol overflow="visible" id="ai"><path d="M5.844 0h-.946l-.14-4.422-.06-1.7-.33.99-1.048 2.82h-.668l-.996-2.71-.332-1.1L1.3-4.347 1.177 0h-.91l.347-7.09h1.145l.953 2.668.313.902.297-.902L4.324-7.09H5.5zm0 0"/></symbol><symbol overflow="visible" id="aj"><path d="M2.566-6.277H.934v-.813h4.242v.813H3.543v5.453h1.633V0H.934v-.824h1.632zm0 0"/></symbol><symbol overflow="visible" id="ak"><path d="M5.47 0H4.21L2.146-4.422l-.598-1.422V0H.645v-7.09h1.242L3.86-2.902l.706 1.62V-7.09h.903zm0 0"/></symbol><symbol overflow="visible" id="al"><path d="M5.43-3.945c0 .69-.082 1.285-.25 1.785-.164.496-.41.902-.735 1.223-.328.32-.73.558-1.21.71-.48.153-1.036.227-1.67.227H.978v-.824h.656c.465 0 .87-.047 1.21-.14.34-.095.622-.235.848-.415.228-.183.4-.405.52-.667.118-.262.192-.562.224-.898l.02-.223c-.227.133-.49.242-.786.324-.297.082-.617.12-.965.12-.36 0-.676-.053-.945-.16-.27-.104-.496-.25-.676-.436-.18-.188-.312-.41-.402-.672-.09-.258-.137-.54-.137-.844 0-.328.06-.633.18-.922.117-.285.285-.53.5-.746.214-.21.472-.38.773-.5.3-.125.633-.184.992-.184.352 0 .676.06.977.172.297.118.555.305.773.563.215.258.387.594.508 1.008.125.41.184.91.184 1.5zm-2.485-2.47c-.203 0-.39.036-.562.103-.172.066-.32.164-.442.292-.124.13-.225.286-.295.477-.075.188-.11.402-.11.645 0 .218.028.418.078.59.055.175.133.32.246.44.11.122.25.216.425.282.172.066.38.098.617.098.133 0 .274-.012.414-.04.145-.023.286-.058.418-.1.137-.044.266-.095.39-.153.122-.06.23-.122.33-.185 0-.47-.032-.86-.102-1.172-.07-.312-.168-.562-.297-.754-.133-.188-.29-.325-.477-.403-.187-.078-.398-.12-.633-.12zm0 0"/></symbol><symbol overflow="visible" id="am"><path d="M5.633-3.543c0 .543-.055 1.04-.164 1.484-.11.447-.275.83-.493 1.15-.223.32-.497.57-.825.746-.328.176-.71.262-1.152.262-.38 0-.727-.07-1.035-.215-.313-.14-.578-.363-.797-.66C.945-1.074.778-1.45.656-1.91c-.12-.46-.18-1.004-.18-1.633 0-.543.055-1.04.17-1.488.108-.45.272-.833.49-1.154.22-.32.493-.566.82-.742.333-.176.716-.26 1.153-.26.378-.002.726.07 1.035.213.312.14.578.364.796.66.224.297.392.676.513 1.137.117.46.18 1.004.18 1.633zm-.957.03c0-.12-.004-.24-.012-.362-.008-.12-.02-.242-.03-.355l-3 2.226c.054.188.124.363.206.524.082.16.183.296.3.41.118.113.25.203.403.265.148.063.32.094.512.094.246 0 .468-.06.668-.18.203-.118.375-.297.515-.532.14-.234.25-.527.324-.875.075-.348.114-.754.114-1.215zm-3.242-.06v.335c.004.113.007.218.02.324l3-2.22c-.056-.182-.122-.35-.204-.503-.086-.152-.184-.285-.3-.394-.118-.11-.247-.197-.395-.26-.15-.062-.317-.09-.5-.09-.246 0-.47.06-.672.177-.2.12-.37.3-.512.535-.14.238-.25.53-.323.88-.078.35-.113.753-.113 1.214zm0 0"/></symbol><symbol overflow="visible" id="an"><path d="M5.98 0H4.758L3.03-2.863 1.3 0H.1l2.36-3.625L.287-7.09h1.146l1.62 2.668L4.69-7.09H5.8L3.626-3.668zm0 0"/></symbol><symbol overflow="visible" id="ao"><path d="M5.43-6.21L2.457 0H1.38l3.085-6.21H.637v-.88H5.43zm0 0"/></symbol><symbol overflow="visible" id="ap"><path d="M5.332-2.152c0 .308-.062.6-.187.875-.13.273-.317.51-.57.714-.255.204-.57.368-.958.485-.383.117-.828.176-1.34.176-.28 0-.535-.008-.757-.028C1.297.05 1.086.027.89 0v-.848c.223.04.462.07.712.094.25.024.503.03.765.03.352 0 .656-.03.906-.092.25-.063.457-.157.618-.274.16-.12.274-.265.348-.433.07-.172.11-.364.11-.58 0-.194-.047-.362-.133-.506-.086-.144-.207-.265-.367-.363-.157-.097-.344-.172-.563-.218-.22-.052-.457-.076-.72-.076H1.76v-.777h.82c.21 0 .406-.027.582-.082.176-.06.324-.137.45-.242.124-.106.222-.235.288-.387.067-.156.102-.328.102-.523 0-.383-.117-.657-.348-.832-.23-.17-.574-.26-1.02-.26-.237 0-.484.022-.737.07-.254.046-.528.12-.817.214v-.824c.125-.043.254-.086.395-.117.14-.035.277-.067.418-.09.14-.024.278-.04.415-.05.136-.017.27-.02.398-.02.375 0 .707.04.992.12.285.083.524.2.715.352.192.152.336.336.434.55.097.22.148.462.148.735 0 .407-.105.742-.312 1.02-.207.273-.492.492-.856.656.184.027.367.086.547.172.18.086.34.2.482.336.144.137.26.293.347.48.09.184.132.387.132.614zm0 0"/></symbol><clipPath id="a"><path d="M68 32h598v202H68zm0 0"/></clipPath><clipPath id="b"><path d="M67 32h600v119H67zm0 0"/></clipPath></defs><path fill="#F2F2F2" d="M0 0h697v273H0z"/><path d="M67 233h600V33H67zm0 0" fill="#FFF"/><g clip-path="url(#a)"><path d="M68 38.262V233.2h598v-83.262h-1v-5.012h-2v.11h-2v-1.028h-2v-.817h-2v2.5h-2v-4.75h-2v-3.51h-2v1.71h-2v-3.738h-2v-1.76h-2v5.276h-2v.914h-2v2.13h-2v-1.18h-2v1.593h-2v.867h-2v-10.13h-2v5.94h-2v1.85h-2v-.504h-2v-1.515h-2v5.324h-2v-3.062h-2v-7.938h-2v7.188h-2v1.285h-2v.87h-2v2.602h-2v-6.933h-2v.968h-2v-1.028h-2v-2.933h-2v.535h-2v-2.55h-2v-1.153h-2v.706h-2v.05h-2v-1.703h-2v-2.336h-2v.653h-2v4.918h-2v.015h-2v-5.86h-2v4.196h-2v-.33h-2v1.49h-2v-1.024h-2v-.79h-2v1.075h-2v-1.78h-2v-.824h-2v-3.364h-2v5.31h-2v-2.653h-2v-.224h-2v2.875h-2v2.872h-2v2.578h-2v4.516h-2v.66h-2v2.484h-2v.606h-2v-4.418h-2v4.07h-2v-8.574h-2v1.277h-2v1.595h-2v-2.703h-2v-9.762h-2v4.988h-2v.954h-2v-.352h-2v-.738h-2v5.37h-2v-1.12h-2v-3.2h-2v2.9h-2v4.21h-2v-.16h-2v.773h-2v1.137h-2v-4.297h-2v-5.676h-2v3.464h-2v.508h-2v-3.164h-2v-.27h-2v-8.492h-2v2h-2v-2.945h-2v5.337h-2v-3.31h-2v7.884h-2v-3.59h-2v3.833h-2v-2.418h-2v.817h-2v.398h-2v-.574h-2v1.75h-2v-.582h-2v-3.78h-2v2.627h-2v1.837h-2v-1.168h-2v-2.5h-2v-.48h-2v.308h-2v4.05h-2v-1.293h-2v-2.105h-2v.433h-2v2.48h-2v-2.163h-2v-4.778h-2v-2.972h-2v2.574h-2v2.57h-2v5.336h-2v-2.218h-2v3.078h-2v-6.446h-2v-.36h-2v6.556h-2v2.347h-2v1.504h-2v-4.62h-2v4.465h-2v-5.613h-2v-3.942h-2v2.13h-2v-6.106h-2v5.176h-2v3.804h-2v-.777h-2v-4.606h-2v4.18h-2v2.634h-2v-6.738h-2v2.13h-2v.06h-2v-2.683h-2v2.547h-2v.223h-2v.164h-2v-1.43h-2v-.64h-2v-1.504h-2v-1.65h-2v4.318h-1v-.17h-2v-1.767h-2v-1.6h-2v1.44h-2v-1.105h-2v-9.215h-2v1.617h-2v.188h-2v1.124h-2V119.5h-2v-.91h-2v-1.137h-2v-.992h-2v3.888h-2v.632h-2v-.593h-2v4.558h-2v-2.93h-2v1.63h-2v2.69h-2v-2.24h-2v.452h-2v-5.938h-2v-3.04h-2v2.164h-2v2.24h-2v-2.454h-2v-2.122h-2v-2.12h-2v7.53h-2v.954h-2v-7.383h-2v4.714h-2v.94h-2v.454h-2v5.657h-2v.644h-2v-.575h-2v-1.645h-2v-1.558h-2v5.515h-2v21.403h-2v-22.65h-2v-4.116h-2v2.28h-2v.197h-2V115.49h-2v1h-2v5.594h-2v-4.523h-2v-3.28h-2v-.15h-2v-6.212h-2v6.184h-2v-2.508h-2v1.55h-2v-7.234h-2v8.145h-2v-6.895h-2v.383h-2v1.277h-2v2.184h-2v.543h-2v-3.81h-2v-5.862h-2v7.266h-2v-.054h-2v.172h-2V96.44h-2v4.716h-2v-7.144h-2v-3.9h-2v5.478h-2v6.918h-2v-.418h-2v-3.56h-2v2.107h-2v.953h-2v-1.043h-2v-6.914h-2v1.148h-2v-5.65h-2v5.768h-2v-2.175h-2v.96h-2V88.54h-2v-4.32h-2v.745h-2v3.64h-2v3.645h-2v7.445h-2v-1.91h-2v-9.63h-2v4.368h-2v3.207h-2v1.825h-2v-5.54h-2v-1.773h-2v1.82h-2v8.004h-2v5.22h-2V94.382h-2V88.37h-2V77.997h-2V95.05h-2v-9.597h-2v.008h-2v-3.237h-2v1.406h-2V72.276h-2v1.938h-2v4.976h-2v-4.354h-2v-3.84h-2v-3.53h-2v8.186h-2v-4.078h-2v6.137h-2V71.67h-2v-5.184h-2v-.136h-2V57.21h-2v1.93h-2v-.488h-2v8h-2v-5.828h-2v3.352h-2V62.97h-2v-3.982h-2v-.35h-2v-2.4h-2v.63h-2v-8.97h-2v13.43h-2v-13.27h-2v6.505h-2v-.993h-2v-4.535h-2v-1.562h-2V45.53h-2V65.6h-2v-15.95h-2v-6.332h-2V34.93h-2v-4.313h-2v2.176h-2V23.53h-2v17.177h-2v-2.445zm0 0" fill="#7648EC" fill-opacity=".627"/></g><g clip-path="url(#b)"><path d="M68 38.46h2v2.446h2V23.73h2v9.262h2v-2.176h2v4.313h2v8.39h2v6.328h2v15.95h2V45.733h2v1.942h2v1.558h2v4.536h2v.992h2v-6.504h2v13.27h2v-13.43h2v8.968h2v-.63l2 .002v2.402h2v.347h2v3.98h2v1.208h2v-3.352h2v5.83h2v-8h2v.487h2v-1.93h2v9.137h2v.137h2v5.187h2v6.04h2v-6.137h2v4.082h2v-8.19h2v3.53h2v3.84h2v4.36h2v-4.98h2V72.48h2v11.348h2v-1.402h2v3.234h2v-.008h2v9.598h2V78.195h2V88.57h2v6.012h2v10.906h2v-5.222h2v-8h2V90.44h2v1.775h2v5.54h2V95.93h2v-3.207h2V88.36h2v9.624h2v1.91h2V92.45h2v-3.64h2v-3.646h2v-.746h2v4.324h2v5.14h2v-.96h2v2.176h2v-5.77h2v5.652h2v-1.144h2v6.91h2v1.047h2v-.957h2V98.73h2v3.56h2v.417h2V95.79h2V90.31h2v3.903h2v7.14h2V96.64h2v12.817h2v-.172h2v.06h2v-7.27h2v5.866h2v3.806h2v-.543h2v-2.18h2v-1.28h2v-.384h2v6.894h2v-8.145h2v7.234h2v-1.55h2v2.507h2v-6.183h2v6.215h2v.148h2v3.278h2v4.523h2v-5.593h2v-1h2v10.153h2v-.195h2v-2.282h2v4.117h2v22.65h2v-21.403h2v-5.516h2v1.563h2v1.64h2v.575h2v-.644h2v-5.656h2v-.45h2v-.945h2v-4.715h2v7.383h2v-.952h2v-7.53h2v2.12h2v2.12h2v2.458h2v-2.242h2v-2.164h2v3.04h2v5.936h2v-.453h2v2.246h2v-2.692h2v-1.633h2v2.93h2v-4.56h2v.6h2v-.638h2v-3.887h2v.996h2v1.133h2v.91h2v1.062h2v-1.12h2v-.193h2v-1.618h2v9.215h2v1.105h2v-1.437h2v1.597h2v1.77h2v.168h1v-4.316h2v1.648h2v1.508h2v.64h2v1.426h2v-.164h2v-.22h2v-2.55h2v2.688h2v-.066h2v-2.125h2v6.733h2v-2.63h2v-4.182h2v4.606h2v.777h2v-3.804h2v-5.177h2v6.11h2v-2.133h2v3.94h2v5.614h2v-4.465h2v4.62h2v-1.503h2v-2.344h2v-6.555h2v.356h2v6.45h2v-3.083h2v2.223h2v-5.34h2v-2.57h2v-2.57h2v2.973h2v4.773h2v2.163h2v-2.476h2v-.438h2v2.105h2v1.296h2v-4.053h2v-.305h2v.477h2v2.5h2v1.167h2v-1.836h2v-2.628h2v3.785h2v.578h2v-1.75h2v.574h2v-.395h2v-.82h2v2.417h2v-3.832h2v3.59h2v-7.883h2v3.313h2v-5.34h2v2.95h2v-2.005h2v8.493h2v.27h2v3.167h2v-.512h2v-3.465h2v5.676h2v4.297h2v-1.136h2v-.773h2v.16h2v-4.21h2v-2.894h2v3.2h2v1.116h2v-5.37h2v.74h2v.35h2v-.95h2v-4.993h2v9.765h2v2.7h2v-1.595h2v-1.277h2v8.578h2v-4.073h2v4.422h2v-.607h2v-2.484h2v-.665h2v-4.516h2v-2.575h2v-2.875h2v-2.875h2v.223h2v2.652h2v-5.308h2v3.363h2v.828h2v1.78h2v-1.077h2v.793h2v1.02h2v-1.49h2v.328h2v-4.195h2v5.863h2v-.02h2v-4.917h2v-.653h2v2.335h2v1.708h2v-.055h2v-.707h2v1.152h2v2.55h2v-.534h2v2.933h2v1.027h2v-.97h2v6.938h2v-2.6h2v-.876h2v-1.286h2v-7.188h2v7.942h2v3.058h2v-5.324h2v1.516h2v.504h2v-1.852h2v-5.938h2v10.13h2v-.864h2v-1.598h2v1.18h2v-2.13h2v-.913h2v-5.277h2v1.762h2v3.738h2v-1.71h2v3.51h2v4.75h2v-2.5h2v.817h2v1.027h2v-.11h2v5.013h1" fill="none" stroke-linecap="round" stroke-linejoin="round" stroke="#4D18E4" stroke-miterlimit="10"/></g><path d="M86 31v2M86 233v2" fill="none" stroke-width=".4" stroke="#8F8F8F" stroke-opacity=".75" stroke-miterlimit="10"/><path d="M86 234V32" fill="none" stroke-width=".4" stroke="#8F8F8F" stroke-opacity=".75" stroke-dasharray="1,1" stroke-miterlimit="10"/><path d="M106 31v2M106 233v2" fill="none" stroke-width=".4" stroke="#8F8F8F" stroke-opacity=".75" stroke-miterlimit="10"/><path d="M106 234V32" fill="none" stroke-width=".4" stroke="#8F8F8F" stroke-opacity=".75" stroke-dasharray="1,1" stroke-miterlimit="10"/><path d="M126 31v2M126 233v2" fill="none" stroke-width=".4" stroke="#8F8F8F" stroke-opacity=".75" stroke-miterlimit="10"/><path d="M126 234V32" fill="none" stroke-width=".4" stroke="#8F8F8F" stroke-opacity=".75" stroke-dasharray="1,1" stroke-miterlimit="10"/><path d="M146 31v2M146 233v2" fill="none" stroke-width=".4" stroke="#8F8F8F" stroke-opacity=".75" stroke-miterlimit="10"/><path d="M146 234V32" fill="none" stroke-width=".4" stroke="#8F8F8F" stroke-opacity=".75" stroke-dasharray="1,1" stroke-miterlimit="10"/><path d="M166 31v2M166 233v2" fill="none" stroke-width=".4" stroke="#8F8F8F" stroke-opacity=".75" stroke-miterlimit="10"/><path d="M166 234V32" fill="none" stroke-width=".4" stroke="#8F8F8F" stroke-opacity=".75" stroke-dasharray="1,1" stroke-miterlimit="10"/><path d="M206 31v2M206 233v2" fill="none" stroke-width=".4" stroke="#8F8F8F" stroke-opacity=".75" stroke-miterlimit="10"/><path d="M206 234V32" fill="none" stroke-width=".4" stroke="#8F8F8F" stroke-opacity=".75" stroke-dasharray="1,1" stroke-miterlimit="10"/><path d="M226 31v2M226 233v2" fill="none" stroke-width=".4" stroke="#8F8F8F" stroke-opacity=".75" stroke-miterlimit="10"/><path d="M226 234V32" fill="none" stroke-width=".4" stroke="#8F8F8F" stroke-opacity=".75" stroke-dasharray="1,1" stroke-miterlimit="10"/><path d="M246 31v2M246 233v2" fill="none" stroke-width=".4" stroke="#8F8F8F" stroke-opacity=".75" stroke-miterlimit="10"/><path d="M246 234V32" fill="none" stroke-width=".4" stroke="#8F8F8F" stroke-opacity=".75" stroke-dasharray="1,1" stroke-miterlimit="10"/><path d="M266 31v2M266 233v2" fill="none" stroke-width=".4" stroke="#8F8F8F" stroke-opacity=".75" stroke-miterlimit="10"/><path d="M266 234V32" fill="none" stroke-width=".4" stroke="#8F8F8F" stroke-opacity=".75" stroke-dasharray="1,1" stroke-miterlimit="10"/><path d="M286 31v2M286 233v2" fill="none" stroke-width=".4" stroke="#8F8F8F" stroke-opacity=".75" stroke-miterlimit="10"/><path d="M286 234V32" fill="none" stroke-width=".4" stroke="#8F8F8F" stroke-opacity=".75" stroke-dasharray="1,1" stroke-miterlimit="10"/><path d="M326 31v2M326 233v2" fill="none" stroke-width=".4" stroke="#8F8F8F" stroke-opacity=".75" stroke-miterlimit="10"/><path d="M326 234V32" fill="none" stroke-width=".4" stroke="#8F8F8F" stroke-opacity=".75" stroke-dasharray="1,1" stroke-miterlimit="10"/><path d="M346 31v2M346 233v2" fill="none" stroke-width=".4" stroke="#8F8F8F" stroke-opacity=".75" stroke-miterlimit="10"/><path d="M346 234V32" fill="none" stroke-width=".4" stroke="#8F8F8F" stroke-opacity=".75" stroke-dasharray="1,1" stroke-miterlimit="10"/><path d="M366 31v2M366 233v2" fill="none" stroke-width=".4" stroke="#8F8F8F" stroke-opacity=".75" stroke-miterlimit="10"/><path d="M366 234V32" fill="none" stroke-width=".4" stroke="#8F8F8F" stroke-opacity=".75" stroke-dasharray="1,1" stroke-miterlimit="10"/><path d="M385 31v2M385 233v2" fill="none" stroke-width=".4" stroke="#8F8F8F" stroke-opacity=".75" stroke-miterlimit="10"/><path d="M385 234V32" fill="none" stroke-width=".4" stroke="#8F8F8F" stroke-opacity=".75" stroke-dasharray="1,1" stroke-miterlimit="10"/><path d="M405 31v2M405 233v2" fill="none" stroke-width=".4" stroke="#8F8F8F" stroke-opacity=".75" stroke-miterlimit="10"/><path d="M405 234V32" fill="none" stroke-width=".4" stroke="#8F8F8F" stroke-opacity=".75" stroke-dasharray="1,1" stroke-miterlimit="10"/><path d="M445 31v2M445 233v2" fill="none" stroke-width=".4" stroke="#8F8F8F" stroke-opacity=".75" stroke-miterlimit="10"/><path d="M445 234V32" fill="none" stroke-width=".4" stroke="#8F8F8F" stroke-opacity=".75" stroke-dasharray="1,1" stroke-miterlimit="10"/><path d="M465 31v2M465 233v2" fill="none" stroke-width=".4" stroke="#8F8F8F" stroke-opacity=".75" stroke-miterlimit="10"/><path d="M465 234V32" fill="none" stroke-width=".4" stroke="#8F8F8F" stroke-opacity=".75" stroke-dasharray="1,1" stroke-miterlimit="10"/><path d="M485 31v2M485 233v2" fill="none" stroke-width=".4" stroke="#8F8F8F" stroke-opacity=".75" stroke-miterlimit="10"/><path d="M485 234V32" fill="none" stroke-width=".4" stroke="#8F8F8F" stroke-opacity=".75" stroke-dasharray="1,1" stroke-miterlimit="10"/><path d="M505 31v2M505 233v2" fill="none" stroke-width=".4" stroke="#8F8F8F" stroke-opacity=".75" stroke-miterlimit="10"/><path d="M505 234V32" fill="none" stroke-width=".4" stroke="#8F8F8F" stroke-opacity=".75" stroke-dasharray="1,1" stroke-miterlimit="10"/><path d="M525 31v2M525 233v2" fill="none" stroke-width=".4" stroke="#8F8F8F" stroke-opacity=".75" stroke-miterlimit="10"/><path d="M525 234V32" fill="none" stroke-width=".4" stroke="#8F8F8F" stroke-opacity=".75" stroke-dasharray="1,1" stroke-miterlimit="10"/><path d="M565 31v2M565 233v2" fill="none" stroke-width=".4" stroke="#8F8F8F" stroke-opacity=".75" stroke-miterlimit="10"/><path d="M565 234V32" fill="none" stroke-width=".4" stroke="#8F8F8F" stroke-opacity=".75" stroke-dasharray="1,1" stroke-miterlimit="10"/><path d="M585 31v2M585 233v2" fill="none" stroke-width=".4" stroke="#8F8F8F" stroke-opacity=".75" stroke-miterlimit="10"/><path d="M585 234V32" fill="none" stroke-width=".4" stroke="#8F8F8F" stroke-opacity=".75" stroke-dasharray="1,1" stroke-miterlimit="10"/><path d="M605 31v2M605 233v2" fill="none" stroke-width=".4" stroke="#8F8F8F" stroke-opacity=".75" stroke-miterlimit="10"/><path d="M605 234V32" fill="none" stroke-width=".4" stroke="#8F8F8F" stroke-opacity=".75" stroke-dasharray="1,1" stroke-miterlimit="10"/><path d="M625 31v2M625 233v2" fill="none" stroke-width=".4" stroke="#8F8F8F" stroke-opacity=".75" stroke-miterlimit="10"/><path d="M625 234V32" fill="none" stroke-width=".4" stroke="#8F8F8F" stroke-opacity=".75" stroke-dasharray="1,1" stroke-miterlimit="10"/><path d="M645 31v2M645 233v2" fill="none" stroke-width=".4" stroke="#8F8F8F" stroke-opacity=".75" stroke-miterlimit="10"/><path d="M645 234V32" fill="none" stroke-width=".4" stroke="#8F8F8F" stroke-opacity=".75" stroke-dasharray="1,1" stroke-miterlimit="10"/><path d="M67 31v2M67 233v3" fill="none" stroke-width=".6" stroke="#DE4F4F" stroke-opacity=".6" stroke-miterlimit="10"/><path d="M67 236V31" fill="none" stroke-width=".6" stroke="#DE4F4F" stroke-opacity=".6" stroke-dasharray="1,1" stroke-miterlimit="10"/><path d="M186 31v2M186 233v3" fill="none" stroke-width=".6" stroke="#DE4F4F" stroke-opacity=".6" stroke-miterlimit="10"/><path d="M186 236V31" fill="none" stroke-width=".6" stroke="#DE4F4F" stroke-opacity=".6" stroke-dasharray="1,1" stroke-miterlimit="10"/><path d="M306 31v2M306 233v3" fill="none" stroke-width=".6" stroke="#DE4F4F" stroke-opacity=".6" stroke-miterlimit="10"/><path d="M306 236V31" fill="none" stroke-width=".6" stroke="#DE4F4F" stroke-opacity=".6" stroke-dasharray="1,1" stroke-miterlimit="10"/><path d="M425 31v2M425 233v3" fill="none" stroke-width=".6" stroke="#DE4F4F" stroke-opacity=".6" stroke-miterlimit="10"/><path d="M425 236V31" fill="none" stroke-width=".6" stroke="#DE4F4F" stroke-opacity=".6" stroke-dasharray="1,1" stroke-miterlimit="10"/><path d="M545 31v2M545 233v3" fill="none" stroke-width=".6" stroke="#DE4F4F" stroke-opacity=".6" stroke-miterlimit="10"/><path d="M545 236V31" fill="none" stroke-width=".6" stroke="#DE4F4F" stroke-opacity=".6" stroke-dasharray="1,1" stroke-miterlimit="10"/><path d="M665 31v2M665 233v3" fill="none" stroke-width=".6" stroke="#DE4F4F" stroke-opacity=".6" stroke-miterlimit="10"/><path d="M665 236V31" fill="none" stroke-width=".6" stroke="#DE4F4F" stroke-opacity=".6" stroke-dasharray="1,1" stroke-miterlimit="10"/><use xlink:href="#c" x="54" y="243.221"/><use xlink:href="#c" x="59.346" y="243.221"/><use xlink:href="#d" x="64.691" y="243.221"/><use xlink:href="#c" x="70.037" y="243.221"/><use xlink:href="#c" x="75.383" y="243.221"/><use xlink:href="#c" x="173" y="243.221"/><use xlink:href="#c" x="178.346" y="243.221"/><use xlink:href="#d" x="183.691" y="243.221"/><use xlink:href="#c" x="189.037" y="243.221"/><use xlink:href="#e" x="194.383" y="243.221"/><use xlink:href="#c" x="293" y="243.221"/><use xlink:href="#c" x="298.346" y="243.221"/><use xlink:href="#d" x="303.691" y="243.221"/><use xlink:href="#c" x="309.037" y="243.221"/><use xlink:href="#f" x="314.383" y="243.221"/><use xlink:href="#c" x="412" y="243.221"/><use xlink:href="#c" x="417.346" y="243.221"/><use xlink:href="#d" x="422.691" y="243.221"/><use xlink:href="#c" x="428.037" y="243.221"/><use xlink:href="#g" x="433.383" y="243.221"/><use xlink:href="#c" x="532" y="243.221"/><use xlink:href="#c" x="537.346" y="243.221"/><use xlink:href="#d" x="542.691" y="243.221"/><use xlink:href="#c" x="548.037" y="243.221"/><use xlink:href="#h" x="553.383" y="243.221"/><use xlink:href="#c" x="652" y="243.221"/><use xlink:href="#c" x="657.346" y="243.221"/><use xlink:href="#d" x="662.691" y="243.221"/><use xlink:href="#c" x="668.037" y="243.221"/><use xlink:href="#i" x="673.383" y="243.221"/><use xlink:href="#j" x="27" y="235.221"/><use xlink:href="#j" x="32.346" y="235.221"/><use xlink:href="#j" x="37.691" y="235.221"/><use xlink:href="#c" x="43.037" y="235.221"/><use xlink:href="#j" x="48.383" y="235.221"/><use xlink:href="#j" x="53.729" y="235.221"/><path d="M65 233h2M667 233h2" fill="none" stroke-width=".6" stroke="#DE4F4F" stroke-opacity=".6" stroke-miterlimit="10"/><path d="M65 233h604" fill="none" stroke-width=".6" stroke="#DE4F4F" stroke-opacity=".6" stroke-dasharray="1,1" stroke-miterlimit="10"/><path d="M65 227.285h2M667 227.285h2" fill="none" stroke-width=".4" stroke="#8F8F8F" stroke-opacity=".75" stroke-miterlimit="10"/><path d="M66 227.285h602" fill="none" stroke-width=".4" stroke="#8F8F8F" stroke-opacity=".75" stroke-dasharray="1,1" stroke-miterlimit="10"/><path d="M65 221.57h2M667 221.57h2" fill="none" stroke-width=".4" stroke="#8F8F8F" stroke-opacity=".75" stroke-miterlimit="10"/><path d="M66 221.57h602" fill="none" stroke-width=".4" stroke="#8F8F8F" stroke-opacity=".75" stroke-dasharray="1,1" stroke-miterlimit="10"/><path d="M65 215.855h2M667 215.855h2" fill="none" stroke-width=".4" stroke="#8F8F8F" stroke-opacity=".75" stroke-miterlimit="10"/><path d="M66 215.855h602" fill="none" stroke-width=".4" stroke="#8F8F8F" stroke-opacity=".75" stroke-dasharray="1,1" stroke-miterlimit="10"/><path d="M65 210.145h2M667 210.145h2" fill="none" stroke-width=".4" stroke="#8F8F8F" stroke-opacity=".75" stroke-miterlimit="10"/><path d="M66 210.145h602" fill="none" stroke-width=".4" stroke="#8F8F8F" stroke-opacity=".75" stroke-dasharray="1,1" stroke-miterlimit="10"/><use xlink:href="#j" x="27" y="206.65"/><use xlink:href="#j" x="32.346" y="206.65"/><use xlink:href="#e" x="37.691" y="206.65"/><use xlink:href="#c" x="43.037" y="206.65"/><use xlink:href="#j" x="48.383" y="206.65"/><use xlink:href="#k" x="53.729" y="206.65"/><path d="M65 204.43h2M667 204.43h2" fill="none" stroke-width=".6" stroke="#DE4F4F" stroke-opacity=".6" stroke-miterlimit="10"/><path d="M65 204.43h604" fill="none" stroke-width=".6" stroke="#DE4F4F" stroke-opacity=".6" stroke-dasharray="1,1" stroke-miterlimit="10"/><path d="M65 198.715h2M667 198.715h2" fill="none" stroke-width=".4" stroke="#8F8F8F" stroke-opacity=".75" stroke-miterlimit="10"/><path d="M66 198.715h602" fill="none" stroke-width=".4" stroke="#8F8F8F" stroke-opacity=".75" stroke-dasharray="1,1" stroke-miterlimit="10"/><path d="M65 193h2M667 193h2" fill="none" stroke-width=".4" stroke="#8F8F8F" stroke-opacity=".75" stroke-miterlimit="10"/><path d="M66 193h602" fill="none" stroke-width=".4" stroke="#8F8F8F" stroke-opacity=".75" stroke-dasharray="1,1" stroke-miterlimit="10"/><path d="M65 187.285h2M667 187.285h2" fill="none" stroke-width=".4" stroke="#8F8F8F" stroke-opacity=".75" stroke-miterlimit="10"/><path d="M66 187.285h602" fill="none" stroke-width=".4" stroke="#8F8F8F" stroke-opacity=".75" stroke-dasharray="1,1" stroke-miterlimit="10"/><path d="M65 181.57h2M667 181.57h2" fill="none" stroke-width=".4" stroke="#8F8F8F" stroke-opacity=".75" stroke-miterlimit="10"/><path d="M66 181.57h602" fill="none" stroke-width=".4" stroke="#8F8F8F" stroke-opacity=".75" stroke-dasharray="1,1" stroke-miterlimit="10"/><use xlink:href="#j" x="27" y="178.076"/><use xlink:href="#j" x="32.346" y="178.076"/><use xlink:href="#f" x="37.691" y="178.076"/><use xlink:href="#c" x="43.037" y="178.076"/><use xlink:href="#j" x="48.383" y="178.076"/><use xlink:href="#k" x="53.729" y="178.076"/><path d="M65 175.855h2M667 175.855h2" fill="none" stroke-width=".6" stroke="#DE4F4F" stroke-opacity=".6" stroke-miterlimit="10"/><path d="M65 175.855h604" fill="none" stroke-width=".6" stroke="#DE4F4F" stroke-opacity=".6" stroke-dasharray="1,1" stroke-miterlimit="10"/><path d="M65 170.145h2M667 170.145h2" fill="none" stroke-width=".4" stroke="#8F8F8F" stroke-opacity=".75" stroke-miterlimit="10"/><path d="M66 170.145h602" fill="none" stroke-width=".4" stroke="#8F8F8F" stroke-opacity=".75" stroke-dasharray="1,1" stroke-miterlimit="10"/><path d="M65 164.43h2M667 164.43h2" fill="none" stroke-width=".4" stroke="#8F8F8F" stroke-opacity=".75" stroke-miterlimit="10"/><path d="M66 164.43h602" fill="none" stroke-width=".4" stroke="#8F8F8F" stroke-opacity=".75" stroke-dasharray="1,1" stroke-miterlimit="10"/><path d="M65 158.715h2M667 158.715h2" fill="none" stroke-width=".4" stroke="#8F8F8F" stroke-opacity=".75" stroke-miterlimit="10"/><path d="M66 158.715h602" fill="none" stroke-width=".4" stroke="#8F8F8F" stroke-opacity=".75" stroke-dasharray="1,1" stroke-miterlimit="10"/><path d="M65 153h2M667 153h2" fill="none" stroke-width=".4" stroke="#8F8F8F" stroke-opacity=".75" stroke-miterlimit="10"/><path d="M66 153h602" fill="none" stroke-width=".4" stroke="#8F8F8F" stroke-opacity=".75" stroke-dasharray="1,1" stroke-miterlimit="10"/><use xlink:href="#j" x="27" y="149.506"/><use xlink:href="#j" x="32.346" y="149.506"/><use xlink:href="#g" x="37.691" y="149.506"/><use xlink:href="#c" x="43.037" y="149.506"/><use xlink:href="#j" x="48.383" y="149.506"/><use xlink:href="#k" x="53.729" y="149.506"/><path d="M65 147.285h2M667 147.285h2" fill="none" stroke-width=".6" stroke="#DE4F4F" stroke-opacity=".6" stroke-miterlimit="10"/><path d="M65 147.285h604" fill="none" stroke-width=".6" stroke="#DE4F4F" stroke-opacity=".6" stroke-dasharray="1,1" stroke-miterlimit="10"/><path d="M65 141.57h2M667 141.57h2" fill="none" stroke-width=".4" stroke="#8F8F8F" stroke-opacity=".75" stroke-miterlimit="10"/><path d="M66 141.57h602" fill="none" stroke-width=".4" stroke="#8F8F8F" stroke-opacity=".75" stroke-dasharray="1,1" stroke-miterlimit="10"/><path d="M65 135.855h2M667 135.855h2" fill="none" stroke-width=".4" stroke="#8F8F8F" stroke-opacity=".75" stroke-miterlimit="10"/><path d="M66 135.855h602" fill="none" stroke-width=".4" stroke="#8F8F8F" stroke-opacity=".75" stroke-dasharray="1,1" stroke-miterlimit="10"/><path d="M65 130.145h2M667 130.145h2" fill="none" stroke-width=".4" stroke="#8F8F8F" stroke-opacity=".75" stroke-miterlimit="10"/><path d="M66 130.145h602" fill="none" stroke-width=".4" stroke="#8F8F8F" stroke-opacity=".75" stroke-dasharray="1,1" stroke-miterlimit="10"/><path d="M65 124.43h2M667 124.43h2" fill="none" stroke-width=".4" stroke="#8F8F8F" stroke-opacity=".75" stroke-miterlimit="10"/><path d="M66 124.43h602" fill="none" stroke-width=".4" stroke="#8F8F8F" stroke-opacity=".75" stroke-dasharray="1,1" stroke-miterlimit="10"/><use xlink:href="#j" x="27" y="120.936"/><use xlink:href="#j" x="32.346" y="120.936"/><use xlink:href="#h" x="37.691" y="120.936"/><use xlink:href="#c" x="43.037" y="120.936"/><use xlink:href="#j" x="48.383" y="120.936"/><use xlink:href="#k" x="53.729" y="120.936"/><path d="M65 118.715h2M667 118.715h2" fill="none" stroke-width=".6" stroke="#DE4F4F" stroke-opacity=".6" stroke-miterlimit="10"/><path d="M65 118.715h604" fill="none" stroke-width=".6" stroke="#DE4F4F" stroke-opacity=".6" stroke-dasharray="1,1" stroke-miterlimit="10"/><path d="M65 113h2M667 113h2" fill="none" stroke-width=".4" stroke="#8F8F8F" stroke-opacity=".75" stroke-miterlimit="10"/><path d="M66 113h602" fill="none" stroke-width=".4" stroke="#8F8F8F" stroke-opacity=".75" stroke-dasharray="1,1" stroke-miterlimit="10"/><path d="M65 107.285h2M667 107.285h2" fill="none" stroke-width=".4" stroke="#8F8F8F" stroke-opacity=".75" stroke-miterlimit="10"/><path d="M66 107.285h602" fill="none" stroke-width=".4" stroke="#8F8F8F" stroke-opacity=".75" stroke-dasharray="1,1" stroke-miterlimit="10"/><path d="M65 101.57h2M667 101.57h2" fill="none" stroke-width=".4" stroke="#8F8F8F" stroke-opacity=".75" stroke-miterlimit="10"/><path d="M66 101.57h602" fill="none" stroke-width=".4" stroke="#8F8F8F" stroke-opacity=".75" stroke-dasharray="1,1" stroke-miterlimit="10"/><path d="M65 95.855h2M667 95.855h2" fill="none" stroke-width=".4" stroke="#8F8F8F" stroke-opacity=".75" stroke-miterlimit="10"/><path d="M66 95.855h602" fill="none" stroke-width=".4" stroke="#8F8F8F" stroke-opacity=".75" stroke-dasharray="1,1" stroke-miterlimit="10"/><use xlink:href="#j" x="27" y="92.365"/><use xlink:href="#j" x="32.346" y="92.365"/><use xlink:href="#i" x="37.691" y="92.365"/><use xlink:href="#c" x="43.037" y="92.365"/><use xlink:href="#j" x="48.383" y="92.365"/><use xlink:href="#k" x="53.729" y="92.365"/><path d="M65 90.145h2M667 90.145h2" fill="none" stroke-width=".6" stroke="#DE4F4F" stroke-opacity=".6" stroke-miterlimit="10"/><path d="M65 90.145h604" fill="none" stroke-width=".6" stroke="#DE4F4F" stroke-opacity=".6" stroke-dasharray="1,1" stroke-miterlimit="10"/><path d="M65 84.43h2M667 84.43h2" fill="none" stroke-width=".4" stroke="#8F8F8F" stroke-opacity=".75" stroke-miterlimit="10"/><path d="M66 84.43h602" fill="none" stroke-width=".4" stroke="#8F8F8F" stroke-opacity=".75" stroke-dasharray="1,1" stroke-miterlimit="10"/><path d="M65 78.715h2M667 78.715h2" fill="none" stroke-width=".4" stroke="#8F8F8F" stroke-opacity=".75" stroke-miterlimit="10"/><path d="M66 78.715h602" fill="none" stroke-width=".4" stroke="#8F8F8F" stroke-opacity=".75" stroke-dasharray="1,1" stroke-miterlimit="10"/><path d="M65 73h2M667 73h2" fill="none" stroke-width=".4" stroke="#8F8F8F" stroke-opacity=".75" stroke-miterlimit="10"/><path d="M66 73h602" fill="none" stroke-width=".4" stroke="#8F8F8F" stroke-opacity=".75" stroke-dasharray="1,1" stroke-miterlimit="10"/><path d="M65 67.285h2M667 67.285h2" fill="none" stroke-width=".4" stroke="#8F8F8F" stroke-opacity=".75" stroke-miterlimit="10"/><path d="M66 67.285h602" fill="none" stroke-width=".4" stroke="#8F8F8F" stroke-opacity=".75" stroke-dasharray="1,1" stroke-miterlimit="10"/><g><use xlink:href="#j" x="27" y="63.791"/><use xlink:href="#j" x="32.346" y="63.791"/><use xlink:href="#l" x="37.691" y="63.791"/><use xlink:href="#c" x="43.037" y="63.791"/><use xlink:href="#j" x="48.383" y="63.791"/><use xlink:href="#k" x="53.729" y="63.791"/></g><path d="M65 61.57h2M667 61.57h2" fill="none" stroke-width=".6" stroke="#DE4F4F" stroke-opacity=".6" stroke-miterlimit="10"/><path d="M65 61.57h604" fill="none" stroke-width=".6" stroke="#DE4F4F" stroke-opacity=".6" stroke-dasharray="1,1" stroke-miterlimit="10"/><path d="M65 55.855h2M667 55.855h2" fill="none" stroke-width=".4" stroke="#8F8F8F" stroke-opacity=".75" stroke-miterlimit="10"/><path d="M66 55.855h602" fill="none" stroke-width=".4" stroke="#8F8F8F" stroke-opacity=".75" stroke-dasharray="1,1" stroke-miterlimit="10"/><path d="M65 50.145h2M667 50.145h2" fill="none" stroke-width=".4" stroke="#8F8F8F" stroke-opacity=".75" stroke-miterlimit="10"/><path d="M66 50.145h602" fill="none" stroke-width=".4" stroke="#8F8F8F" stroke-opacity=".75" stroke-dasharray="1,1" stroke-miterlimit="10"/><path d="M65 44.43h2M667 44.43h2" fill="none" stroke-width=".4" stroke="#8F8F8F" stroke-opacity=".75" stroke-miterlimit="10"/><path d="M66 44.43h602" fill="none" stroke-width=".4" stroke="#8F8F8F" stroke-opacity=".75" stroke-dasharray="1,1" stroke-miterlimit="10"/><path d="M65 38.715h2M667 38.715h2" fill="none" stroke-width=".4" stroke="#8F8F8F" stroke-opacity=".75" stroke-miterlimit="10"/><path d="M66 38.715h602" fill="none" stroke-width=".4" stroke="#8F8F8F" stroke-opacity=".75" stroke-dasharray="1,1" stroke-miterlimit="10"/><g><use xlink:href="#j" x="27" y="35.221"/><use xlink:href="#j" x="32.346" y="35.221"/><use xlink:href="#m" x="37.691" y="35.221"/><use xlink:href="#c" x="43.037" y="35.221"/><use xlink:href="#j" x="48.383" y="35.221"/><use xlink:href="#k" x="53.729" y="35.221"/></g><path d="M65 33h2M667 33h2" fill="none" stroke-width=".6" stroke="#DE4F4F" stroke-opacity=".6" stroke-miterlimit="10"/><path d="M65 33h604" fill="none" stroke-width=".6" stroke="#DE4F4F" stroke-opacity=".6" stroke-dasharray="1,1" stroke-miterlimit="10"/><g><use xlink:href="#n" x="12.252" y="191"/><use xlink:href="#o" x="12.252" y="184.891"/><use xlink:href="#p" x="12.252" y="178.781"/><use xlink:href="#q" x="12.252" y="172.672"/><use xlink:href="#o" x="12.252" y="166.563"/><use xlink:href="#r" x="12.252" y="160.453"/><use xlink:href="#s" x="12.252" y="154.344"/><use xlink:href="#r" x="12.252" y="148.234"/><use xlink:href="#t" x="12.252" y="142.125"/><use xlink:href="#u" x="12.252" y="136.016"/><use xlink:href="#o" x="12.252" y="129.906"/><use xlink:href="#n" x="12.252" y="123.797"/><use xlink:href="#t" x="12.252" y="117.688"/><use xlink:href="#r" x="12.252" y="111.578"/><use xlink:href="#o" x="12.252" y="105.469"/><use xlink:href="#v" x="12.252" y="99.359"/><use xlink:href="#w" x="12.252" y="93.25"/><use xlink:href="#x" x="12.252" y="87.141"/><use xlink:href="#y" x="12.252" y="81.031"/></g><g><use xlink:href="#z" x="310" y="15.283"/><use xlink:href="#A" x="316.873" y="15.283"/><use xlink:href="#B" x="323.746" y="15.283"/><use xlink:href="#C" x="330.619" y="15.283"/><use xlink:href="#D" x="337.492" y="15.283"/><use xlink:href="#E" x="344.365" y="15.283"/><use xlink:href="#F" x="351.238" y="15.283"/><use xlink:href="#G" x="358.111" y="15.283"/><use xlink:href="#H" x="364.984" y="15.283"/><use xlink:href="#I" x="371.857" y="15.283"/><use xlink:href="#F" x="378.73" y="15.283"/></g><g><use xlink:href="#U" x="16" y="262.252"/><use xlink:href="#U" x="22.109" y="262.252"/><use xlink:href="#V" x="28.219" y="262.252"/><use xlink:href="#W" x="34.328" y="262.252"/><use xlink:href="#W" x="40.438" y="262.252"/><use xlink:href="#X" x="46.547" y="262.252"/><use xlink:href="#W" x="52.656" y="262.252"/></g><path d="M16 254.238v8.403h8.398v-8.402zm0 0" fill="#F2F2F2"/><path d="M16 254.238v8.403h8.398v-8.402zm0 0" fill="#E60073" fill-opacity=".627"/><path d="M16 262.64h8.398v-8.402H16zm0 0" fill="none" stroke="#000" stroke-miterlimit="10"/><g><use xlink:href="#U" x="75" y="262.252"/><use xlink:href="#U" x="81.109" y="262.252"/><use xlink:href="#U" x="87.219" y="262.252"/><use xlink:href="#W" x="93.328" y="262.252"/><use xlink:href="#Y" x="99.438" y="262.252"/><use xlink:href="#Z" x="105.547" y="262.252"/><use xlink:href="#aa" x="111.656" y="262.252"/><use xlink:href="#ab" x="117.766" y="262.252"/></g><path d="M75 254.238v8.403h8.398v-8.402zm0 0" fill="#F2F2F2"/><path d="M75 254.238v8.403h8.398v-8.402zm0 0" fill="#7648EC" fill-opacity=".627"/><path d="M75 262.64h8.398v-8.402H75zm0 0" fill="none" stroke="#000" stroke-miterlimit="10"/><g><use xlink:href="#ac" x="463" y="262.252"/><use xlink:href="#ad" x="469.109" y="262.252"/><use xlink:href="#ae" x="475.219" y="262.252"/><use xlink:href="#U" x="481.328" y="262.252"/><use xlink:href="#U" x="487.438" y="262.252"/><use xlink:href="#af" x="493.547" y="262.252"/><use xlink:href="#ag" x="499.656" y="262.252"/><use xlink:href="#ah" x="505.766" y="262.252"/><use xlink:href="#ag" x="511.875" y="262.252"/><use xlink:href="#ag" x="517.984" y="262.252"/></g><g><use xlink:href="#ai" x="541" y="262.252"/><use xlink:href="#aj" x="547.109" y="262.252"/><use xlink:href="#ak" x="553.219" y="262.252"/><use xlink:href="#U" x="559.328" y="262.252"/><use xlink:href="#U" x="565.438" y="262.252"/><use xlink:href="#ah" x="571.547" y="262.252"/><use xlink:href="#al" x="577.656" y="262.252"/><use xlink:href="#am" x="583.766" y="262.252"/><use xlink:href="#am" x="589.875" y="262.252"/><use xlink:href="#ah" x="595.984" y="262.252"/></g><g><use xlink:href="#ai" x="619" y="262.252"/><use xlink:href="#ac" x="625.109" y="262.252"/><use xlink:href="#an" x="631.219" y="262.252"/><use xlink:href="#U" x="637.328" y="262.252"/><use xlink:href="#U" x="643.438" y="262.252"/><use xlink:href="#ao" x="649.547" y="262.252"/><use xlink:href="#ap" x="655.656" y="262.252"/><use xlink:href="#ah" x="661.766" y="262.252"/><use xlink:href="#af" x="667.875" y="262.252"/><use xlink:href="#af" x="673.984" y="262.252"/></g><path d="M63 233h608M67 237V29" fill="none" stroke-width=".6" stroke="#1F1F1F" stroke-miterlimit="10"/><path d="M669 230v6l5-3zm0 0M64 31h6l-3-5zm0 0" fill="#7F1F1F"/></svg>